<svg width="33" height="56" viewBox="0 0 33 56" fill="none" xmlns="http://www.w3.org/2000/svg">
<path d="M0.106201 11.3184V54.3948L21.2585 55.9052L22.4151 12.643L0.106201 11.3184Z" fill="#F2F2F2"/>
<path d="M0.106201 38.0967V54.3949L21.2585 55.9053L21.734 38.0967H0.106201Z" fill="#4271D6"/>
<path d="M32.3422 9.27441V50.2035L21.2651 55.9046L22.4151 12.6424L32.3422 9.27441Z" fill="#F2F2F2"/>
<path d="M5.7564 3.3457L0.106201 11.3179L22.4151 12.6425L32.3422 9.27454L27.6363 3.64425L5.7564 3.3457Z" fill="#4271D6"/>
<path d="M27.8065 0.0576172L27.6362 3.64455L5.75635 3.34601V0.0576172H27.8065Z" fill="#4271D6"/>
<g style="mix-blend-mode:multiply">
<path d="M27.8065 0.0576172L27.6362 3.64455L5.75635 3.34601V0.0576172H27.8065Z" fill="#F2F2F2"/>
</g>
<g style="mix-blend-mode:multiply">
<path d="M5.75635 0.0576172V3.34601L27.6384 3.64455L27.8065 0.0576172H5.75635ZM27.4173 3.41235L5.98634 3.12045V0.287606H27.5632L27.4173 3.41235Z" fill="#F2F2F2"/>
</g>
<g style="mix-blend-mode:multiply">
<path d="M23.3616 0.615234L23.2312 3.11415L6.27173 2.88195V0.615234H23.3616Z" fill="#F2F2F2"/>
</g>
<g style="mix-blend-mode:multiply">
<path d="M23.3616 0.615234L23.2312 3.11415L6.27173 2.88195V0.615234H23.3616Z" fill="#4271D6"/>
</g>
<path d="M32.3421 9.27492L27.7202 3.74414L22.541 12.6009L32.3421 9.27492Z" fill="#4271D6"/>
<g style="mix-blend-mode:multiply">
<path d="M32.3421 9.27492L27.7202 3.74414L22.541 12.6009L32.3421 9.27492Z" fill="#F2F2F2"/>
</g>
<path d="M14.7724 44.4275C12.6229 43.5451 10.9179 41.6875 9.04699 40.2014C7.21151 38.7441 5.1018 37.5964 2.85499 37.3045C1.8687 37.1762 0.953164 37.3575 0.108398 37.749V38.6977C1.96379 37.9944 3.97619 38.1603 6.06156 39.2726C7.75994 40.1771 9.2615 41.4044 10.6613 42.7136C13.0541 44.9516 15.3341 47.0944 18.9055 46.4178C19.8476 46.2386 20.7454 45.8583 21.5416 45.3275L21.5836 43.7353C19.4783 44.9892 17.059 45.3673 14.7724 44.4297V44.4275Z" fill="#4271D6"/>
<path d="M0.860298 22.5278C2.38397 22.3752 3.94966 22.5986 5.36277 23.1891C7.58967 24.1179 9.35661 25.8715 11.4265 27.1121C14.5601 28.9896 18.3018 29.6177 21.9662 29.4408L21.9817 28.8481C18.0674 28.9631 14.0426 26.6853 10.7321 24.2505C9.43401 23.2952 8.25974 22.1298 6.955 21.1877C5.12614 19.8675 3.02086 19.2748 0.858087 19.5247C0.767418 19.5358 0.477721 19.5866 0.106201 19.6662V22.6229C0.453395 22.5721 0.734247 22.5389 0.858087 22.5256L0.860298 22.5278Z" fill="#4271D6"/>
<path d="M11.4265 27.1121C9.35659 25.8737 7.58966 24.1201 5.36275 23.1891C3.94744 22.5986 2.38396 22.3731 0.860284 22.5279C0.736444 22.5411 0.455593 22.5721 0.108398 22.6252V37.7491C0.953164 37.3577 1.8687 37.1764 2.85499 37.3046C5.1018 37.5965 7.21151 38.7443 9.04699 40.2016C10.9201 41.6899 12.6229 43.5475 14.7724 44.4276C17.059 45.3653 19.4783 44.9871 21.5836 43.7332L21.9662 29.4408C18.3018 29.6177 14.5601 28.9896 11.4265 27.1121Z" fill="#FDFDFD"/>
<path d="M13.8059 42.0395C13.9143 42.4066 13.3924 41.3141 13.012 41.2898C12.4879 41.2566 12.227 41.8913 12.0257 42.3778C11.8179 42.8842 11.3955 43.4083 10.8515 43.3597C10.2566 43.3066 9.95805 42.6343 9.74575 42.0748C9.53345 41.5153 9.11992 40.8674 8.52726 40.9559C8.20881 41.0045 7.95892 41.2721 7.83287 41.5684C7.70681 41.867 7.68249 42.1943 7.64047 42.5149C7.56086 43.1385 7.41491 43.7533 7.21146 44.346C7.10088 44.6644 6.87311 45.0404 6.53918 44.9851C6.28487 44.9431 6.14555 44.6688 6.07257 44.4212C5.88018 43.7776 5.85143 43.0877 5.98632 42.4309C6.04382 42.1478 6.05267 41.7343 5.76739 41.6923C5.52635 41.6569 5.3826 41.9488 5.33838 42.1876C5.11502 43.4128 5.44231 44.66 5.6723 45.8829C5.90229 47.1058 6.02392 48.4371 5.43347 49.534C5.07743 50.1974 3.90537 50.0913 3.40338 49.5296C2.90359 48.9679 2.82177 48.1474 2.866 47.3955C2.95003 45.9028 3.41886 44.4654 3.7572 43.0081C4.09555 41.5529 4.30564 40.0094 3.87662 38.5786C3.8346 38.437 3.7749 38.2845 3.64663 38.2115C3.4852 38.1208 3.2729 38.1938 3.14685 38.3309C3.0208 38.468 2.96772 38.6515 2.91465 38.8285C2.79744 39.2243 2.68024 39.6202 2.56303 40.016C2.51438 40.1819 2.45688 40.361 2.31756 40.4649C2.1119 40.6197 1.80009 40.5423 1.61433 40.3632C1.42857 40.1841 1.34011 39.9298 1.25829 39.6843C1.00398 38.9368 0.751873 38.1894 0.497559 37.4397C0.497559 37.4397 2.6537 34.2773 7.54759 37.3136C12.4415 40.3499 13.1314 39.7705 13.8059 42.035V42.0395Z" fill="#FDFDFD"/>
<g style="mix-blend-mode:multiply">
<path d="M27.0171 4.94727L23.4722 11.0088L30.6217 8.90351L27.0171 4.94727Z" fill="#4271D6"/>
</g>
<path d="M32.3422 50.2036V41.3999C32.2648 41.6276 32.1896 41.8532 32.1122 42.081C32.0415 42.2888 31.9663 42.5078 31.807 42.6604C31.65 42.813 31.3825 42.8793 31.2055 42.7466C31.0861 42.6582 31.0375 42.5056 30.9955 42.3618C30.8959 42.0235 30.7964 41.6851 30.6947 41.3468C30.6505 41.1964 30.6018 41.0394 30.4957 40.9222C30.3895 40.805 30.2082 40.7408 30.0689 40.8205C29.9583 40.8824 29.9096 41.0129 29.872 41.1345C29.5072 42.3574 29.6841 43.6754 29.9738 44.9182C30.2635 46.1611 30.6637 47.3906 30.7367 48.6644C30.7743 49.3057 30.7058 50.0045 30.2767 50.4866C29.8477 50.9687 28.8482 51.0572 28.543 50.491C28.041 49.5556 28.1427 48.4167 28.3395 47.3729C28.5363 46.3291 28.815 45.2632 28.6248 44.2172C28.5872 44.0138 28.4634 43.7617 28.2577 43.7926C28.0122 43.8302 28.0211 44.1796 28.0697 44.4229C28.1847 44.9846 28.1582 45.5728 27.9945 46.1235C27.9326 46.3336 27.8132 46.5702 27.5965 46.6056C27.3112 46.652 27.1166 46.3313 27.0237 46.0593C26.849 45.5529 26.7252 45.0266 26.6566 44.4959C26.6212 44.2216 26.5991 43.943 26.493 43.6887C26.3868 43.4344 26.1723 43.2044 25.9003 43.1646C25.3939 43.0894 25.0423 43.6422 24.8609 44.1199C24.6796 44.5976 24.4253 45.1725 23.9167 45.219C23.4523 45.261 23.0918 44.8121 22.9127 44.3809C22.7402 43.9651 22.519 43.4233 22.0701 43.4521C21.8645 43.4653 21.7075 43.6002 21.5836 43.7705L21.2607 55.909L32.3378 50.2058L32.3422 50.2036Z" fill="#4271D6"/>
<path d="M25.0222 27.7358C24.0249 28.6425 22.7622 28.8393 21.9837 28.8658L21.9683 29.4231C24.4207 29.255 26.3358 28.5076 29.4915 26.4642C30.6105 25.7389 31.557 25.604 32.3399 25.7875V21.6455C29.1466 22.3863 26.212 26.6522 25.02 27.7358H25.0222Z" fill="#4271D6"/>
<g style="mix-blend-mode:multiply">
<path d="M21.3137 55.9672L21.254 55.9628L0.048584 54.448V11.2588L0.110504 11.2632L22.4747 12.5901V12.6454L21.3137 55.9672ZM0.163578 54.3396L21.2009 55.8434L22.3553 12.6962L0.163578 11.3804V54.3396Z" fill="#CCCCCC"/>
<path d="M21.2053 56.0005V55.9032L22.3597 12.6012L22.3973 12.5879L32.3996 9.19336V50.2375L21.2053 56.0005ZM22.4725 12.6852L21.3247 55.8103L32.2846 50.1689V9.35479L22.4725 12.6852Z" fill="#CCCCCC"/>
<path d="M22.4239 12.7021H22.4128L0 11.3709L5.72539 3.28809H5.75635L27.6628 3.58884L27.6805 3.60874L32.4394 9.30317L22.4217 12.7021H22.4239ZM0.214509 11.2669L22.4084 12.5849L32.2448 9.24789L27.6097 3.70383L5.7851 3.40529L0.214509 11.2669Z" fill="#CCCCCC"/>
<path d="M27.6914 3.70414H27.6361L5.69873 3.40339V0H27.8661L27.6914 3.70414ZM5.81372 3.29061L27.583 3.58915L27.7467 0.117206H5.81372V3.29061Z" fill="#CCCCCC"/>
<path d="M22.4128 12.7048L27.7114 3.64453L32.4395 9.30137L22.4128 12.7048ZM27.7269 3.84356L22.6672 12.4947L32.2426 9.24608L27.7269 3.84356Z" fill="#CCCCCC"/>
</g>
<g style="mix-blend-mode:multiply">
<path d="M12.7203 37.5481L10.0732 37.3026L9.95822 37.2916C9.95822 37.2208 9.95822 37.1522 9.95822 37.0815C9.96043 35.7237 9.97591 34.43 10.0024 33.2004C10.0024 33.1761 10.0024 33.1518 10.0024 33.1275C10.0091 32.8466 10.0157 32.568 10.0223 32.2937C10.0223 32.2296 10.0268 32.1699 10.029 32.1058C10.0356 31.8714 10.0422 31.6369 10.0489 31.407C10.0533 31.2831 10.0577 31.1615 10.0622 31.0377C10.0688 30.8718 10.0732 30.7037 10.0798 30.5423C10.0909 30.2548 10.102 29.974 10.1152 29.6953L9.87197 29.744L8.59155 30.0071C8.70655 33.6648 8.76626 36.5662 8.76626 38.6936C10.3917 38.9148 11.8136 39.1182 12.9702 39.2973L12.9436 37.5658L12.7159 37.5459L12.7203 37.5481Z" fill="#F2F2F2"/>
<path d="M5.36059 25.7697C5.36059 25.7232 5.36059 25.6812 5.36059 25.6348L3.95191 25.8758C3.93864 25.9842 3.92537 26.0947 3.91211 26.2097C3.90768 26.2473 3.90326 26.2871 3.89884 26.3247C3.88999 26.4043 3.87893 26.484 3.87009 26.5658C3.86345 26.6189 3.85682 26.6741 3.85019 26.7272C3.84134 26.7958 3.83249 26.8643 3.82365 26.9351C3.8148 27.0059 3.80596 27.0766 3.79711 27.1496C3.79048 27.2093 3.78163 27.2668 3.775 27.3265C3.76394 27.4061 3.75509 27.4879 3.74404 27.5698C3.7374 27.6251 3.73077 27.6781 3.72192 27.7356C3.71087 27.8285 3.6976 27.9236 3.68433 28.0187C3.67769 28.0651 3.67106 28.1116 3.66664 28.1602C3.65337 28.2597 3.6401 28.3615 3.62683 28.4654C3.6202 28.5118 3.61356 28.5605 3.60693 28.6069C3.59366 28.7153 3.57818 28.8259 3.5627 28.9364C3.55607 28.9784 3.55164 29.0227 3.54501 29.0647C3.52953 29.1885 3.51184 29.3124 3.49415 29.4406C3.48972 29.4716 3.4853 29.5026 3.48088 29.5335C3.46319 29.6684 3.44328 29.8033 3.42559 29.9426C3.42117 29.9736 3.41675 30.0045 3.41232 30.0333C3.39242 30.1748 3.37252 30.3186 3.35261 30.4645C3.34819 30.4911 3.34598 30.5176 3.34156 30.5419C3.31944 30.6967 3.29954 30.8559 3.27521 31.0152C3.27521 31.0307 3.27079 31.0461 3.26858 31.0616C3.24647 31.2253 3.22214 31.3911 3.20003 31.5614C3.19781 31.5813 3.1956 31.599 3.19118 31.6189C3.16685 31.787 3.14474 31.9572 3.12041 32.1297C3.1182 32.1474 3.11599 32.1673 3.11378 32.185C3.08945 32.3641 3.06292 32.5477 3.03638 32.7335C3.03638 32.7401 3.03638 32.7445 3.03417 32.7511C3.00763 32.9435 2.97888 33.1381 2.95235 33.3372C2.93465 33.4699 2.91475 33.6003 2.89706 33.733L2.00807 26.2761L1.81346 26.3491L0.824951 26.7184C0.891294 28.7042 0.924465 30.982 0.924465 33.5473C0.924465 34.2041 0.924465 34.8785 0.917831 35.5707L1.5702 35.668C1.5702 35.668 1.5702 35.6525 1.5702 35.6437C1.5702 35.6415 1.5702 35.6371 1.5702 35.6348C1.5702 35.6282 1.5702 35.6194 1.5702 35.6127C1.5702 35.6083 1.5702 35.6017 1.5702 35.595C1.5702 35.5862 1.5702 35.5796 1.5702 35.5707C1.5702 35.5641 1.5702 35.5574 1.5702 35.5508C1.5702 35.542 1.5702 35.5309 1.5702 35.5198C1.5702 35.5088 1.5702 35.4999 1.5702 35.4889C1.5702 35.4823 1.5702 35.4756 1.5702 35.469C1.5702 35.4557 1.5702 35.4425 1.5702 35.4292C1.5702 35.4248 1.5702 35.4203 1.5702 35.4159C1.5702 35.3761 1.5702 35.3341 1.5702 35.2854C1.5702 35.2633 1.5702 35.2412 1.5702 35.2169C1.5702 35.208 1.5702 35.1992 1.5702 35.1881C1.5702 35.1749 1.5702 35.1616 1.5702 35.1483C1.5702 35.124 1.5702 35.0997 1.5702 35.0731C1.5702 35.0599 1.5702 35.0444 1.5702 35.0311C1.5702 35.0201 1.5702 35.009 1.5702 34.998C1.5702 34.9714 1.5702 34.9427 1.5702 34.9161C1.5702 34.8653 1.5702 34.81 1.5702 34.7525C1.5702 34.664 1.57241 34.5689 1.57463 34.4672C1.57463 34.3942 1.57463 34.3168 1.57684 34.2372C1.57684 34.1753 1.57684 34.1134 1.57905 34.0493C1.57905 34.0028 1.57905 33.9542 1.57905 33.9033C1.57905 33.8215 1.57905 33.7396 1.58126 33.6534C1.58126 33.6291 1.58126 33.607 1.58126 33.5849C1.58126 33.5804 1.58126 33.576 1.58126 33.5716C1.58126 33.5207 1.58126 33.4676 1.58126 33.4146C1.58347 33.2399 1.58568 33.0541 1.58789 32.8595C1.58789 32.8462 1.58789 32.8352 1.58789 32.8219C1.59232 32.5521 1.59453 32.2624 1.59895 31.955C1.59895 31.944 1.59895 31.9351 1.59895 31.9241C1.60116 31.6919 1.60559 31.4508 1.6078 31.1965C1.61443 30.6967 1.62107 30.1549 1.62991 29.5711L1.73385 30.4999L2.30882 35.626L2.41276 35.6348L3.34819 35.7056L4.40525 29.2858C4.40083 29.5755 4.39641 29.8741 4.39199 30.177C4.38314 30.7697 4.37208 31.3867 4.35881 32.0236C4.35881 32.0988 4.3566 32.174 4.35439 32.2514C4.35218 32.3995 4.34776 32.5521 4.34555 32.7025C4.34333 32.8175 4.34112 32.9325 4.3367 33.0497C4.33449 33.1846 4.33007 33.3217 4.32785 33.461C4.32564 33.5981 4.32122 33.7374 4.3168 33.8745C4.31459 34.0006 4.31016 34.1267 4.30795 34.2527C4.30353 34.4208 4.29911 34.5933 4.29468 34.7635C4.29247 34.8675 4.29026 34.9714 4.28584 35.0754C4.2792 35.2832 4.27478 35.4955 4.26815 35.7056C4.26815 35.7786 4.26372 35.8494 4.26151 35.9245L5.38271 35.9843C5.35617 33.5649 5.3429 30.1638 5.3429 25.7763L5.36059 25.7697Z" fill="#F2F2F2"/>
<path d="M6.29591 27.5633C6.3711 31.2078 6.4087 34.1357 6.4087 36.3316V36.8115L7.44807 36.9995C7.4348 35.7611 7.42816 34.6045 7.42816 33.5298C7.42816 31.0176 7.46797 28.9366 7.54537 27.2803L6.2937 27.5633H6.29591Z" fill="#F2F2F2"/>
<path d="M16.3714 37.7028C16.3714 37.7028 16.3758 37.7095 16.378 37.7139C16.4267 37.7935 16.4731 37.8731 16.5218 37.9549C16.5262 37.9616 16.5284 37.9682 16.5328 37.9726C16.5793 38.0522 16.6257 38.1318 16.6721 38.2137C16.6766 38.2225 16.6832 38.2314 16.6876 38.2402C16.7318 38.3198 16.7761 38.3994 16.8203 38.4812C16.8269 38.4945 16.8336 38.5056 16.8402 38.5188C16.8822 38.5985 16.9242 38.6781 16.9663 38.7577C16.9751 38.7732 16.9839 38.7908 16.9906 38.8063C17.0304 38.8837 17.0724 38.9633 17.1122 39.043C17.1211 39.0629 17.1321 39.0828 17.141 39.1027C17.1786 39.1801 17.2184 39.2575 17.256 39.3371C17.267 39.3614 17.2803 39.3857 17.2913 39.41C17.3267 39.4852 17.3643 39.5604 17.3997 39.6378C17.413 39.6666 17.4284 39.6975 17.4417 39.7285C17.4749 39.8015 17.5103 39.8744 17.5434 39.9496C17.5589 39.985 17.5744 40.0204 17.5899 40.0558C17.6208 40.1266 17.654 40.1973 17.685 40.2703C17.7027 40.3123 17.7204 40.3543 17.738 40.3941C17.7668 40.4627 17.7955 40.529 17.8243 40.5976C17.8442 40.6462 17.8641 40.6949 17.8862 40.7458C17.9127 40.8099 17.9393 40.8718 17.9658 40.9359C17.9901 40.9934 18.0123 41.0531 18.0366 41.1128C18.0587 41.1703 18.0808 41.2256 18.1051 41.2831C18.1339 41.3561 18.1626 41.4291 18.1892 41.5021C18.2069 41.5485 18.2246 41.5927 18.2422 41.6392C18.2887 41.7586 18.3329 41.8802 18.3794 42.0041L21.3714 42.579L17.3334 35.6108C18.5872 33.8063 19.8389 32.0991 21.0861 30.5068L18.4059 30.5909L15.5111 35.832L15.5841 31.0973V30.9734L15.3519 30.9911L13.8105 31.1106C13.8614 33.5166 13.8857 35.6794 13.8857 37.5989C13.8857 39.012 13.8725 40.288 13.8437 41.4247L13.9609 41.4401L15.416 41.6392L15.52 37.7316L15.9755 37.0792C16.0065 37.1256 16.0397 37.1743 16.0706 37.2229C16.1215 37.3003 16.1724 37.38 16.2232 37.4596C16.2232 37.4596 16.2232 37.4618 16.2254 37.464C16.2763 37.5436 16.3249 37.6232 16.3736 37.705L16.3714 37.7028Z" fill="#F2F2F2"/>
</g>
<path d="M0.685653 35.3339C0.690076 34.6417 0.692288 33.965 0.692288 33.3104C0.692288 30.7474 0.659116 28.4696 0.592773 26.4815L1.77589 26.0392L2.66488 33.4962C3.15361 30.0486 3.50744 27.4081 3.72195 25.6434L5.13063 25.4023C5.13063 29.8562 5.14389 33.3016 5.17043 35.7452L4.04924 35.6855C4.12 33.2043 4.16644 30.9884 4.19077 29.0446L3.1337 35.4643L2.09654 35.3869L1.41542 29.3343C1.36456 33.1888 1.33802 35.2167 1.33802 35.4334L0.685653 35.3361V35.3339Z" fill="#4271D6"/>
<path d="M7.31782 27.0479C7.24042 28.7042 7.20061 30.7852 7.20061 33.2973C7.20061 34.3721 7.20725 35.5287 7.22051 36.7671L6.18114 36.5791V36.0992C6.18114 33.9033 6.14355 30.9776 6.06836 27.3309L7.32003 27.0479H7.31782Z" fill="#4271D6"/>
<path d="M9.88744 29.4688C9.78351 31.7288 9.73043 34.2587 9.72601 37.0628L12.7159 37.3392L12.7424 39.0708C11.588 38.8916 10.1639 38.686 8.53847 38.4671C8.53847 36.3397 8.48098 33.4383 8.36377 29.7806L9.88744 29.4688Z" fill="#4271D6"/>
<path d="M15.352 30.741L15.2768 35.5995L18.1715 30.3584L20.8518 30.2744C19.6068 31.8666 18.3529 33.5717 17.099 35.3784L21.1371 42.3466L18.145 41.7716C17.4086 39.7614 16.6036 38.1228 15.739 36.849L15.2834 37.5014L15.1795 41.409L13.6071 41.1944C13.6337 40.0556 13.6492 38.7796 13.6492 37.3687C13.6492 35.4492 13.6248 33.2864 13.574 30.8803L15.3498 30.7432L15.352 30.741Z" fill="#4271D6"/>
<g style="mix-blend-mode:multiply">
<path d="M2.90157 35.2342L2.07007 35.1723L2.09439 35.3868L3.13155 35.4642L3.93209 30.6123C3.94315 29.9909 3.95199 29.3894 3.96084 28.8145L2.90378 35.2342H2.90157Z" fill="#4271D6"/>
</g>
<g style="mix-blend-mode:multiply">
<path d="M4.89852 25.4419C4.89852 29.763 4.91179 33.1222 4.93832 35.5149L4.05375 35.4685C4.05375 35.5415 4.04933 35.6123 4.04712 35.6874L5.16831 35.7471C5.14178 33.3035 5.12851 29.8559 5.12851 25.4043L4.89852 25.4441V25.4419Z" fill="#4271D6"/>
</g>
<g style="mix-blend-mode:multiply">
<path d="M1.10572 35.2017L0.685547 35.1375C0.685547 35.2039 0.685547 35.268 0.685547 35.3321L1.33792 35.4294C1.33792 35.2459 1.35561 33.7576 1.3932 30.9579L1.18533 29.1025C1.13447 32.9571 1.10793 34.9849 1.10793 35.2017H1.10572Z" fill="#4271D6"/>
</g>
<g style="mix-blend-mode:multiply">
<path d="M2.54327 32.4876L1.7759 26.0391L1.5813 26.112L2.4327 33.266C2.47029 33.0006 2.50568 32.7419 2.54327 32.4876Z" fill="#4271D6"/>
</g>
<g style="mix-blend-mode:multiply">
<path d="M7.07457 27.1034C7.00602 28.7111 6.97063 30.697 6.97063 33.0676C6.97063 34.1424 6.97727 35.2989 6.99054 36.5373L6.18115 36.3892V36.5772L7.22052 36.7651C7.20726 35.5267 7.20062 34.3701 7.20062 33.2954C7.20062 30.7832 7.24043 28.7023 7.31783 27.0459L7.07457 27.1012V27.1034Z" fill="#4271D6"/>
</g>
<g style="mix-blend-mode:multiply">
<path d="M12.4902 37.3174L12.5123 38.8411C11.4132 38.6708 10.0664 38.4762 8.53833 38.2683C8.53833 38.3346 8.53833 38.4032 8.53833 38.4673C10.1637 38.6885 11.5857 38.8919 12.7423 39.071L12.7157 37.3395L12.4879 37.3196L12.4902 37.3174Z" fill="#4271D6"/>
</g>
<g style="mix-blend-mode:multiply">
<path d="M9.72829 36.8527C9.73493 34.1327 9.788 31.6713 9.88752 29.4688L9.64426 29.5174C9.54917 31.7067 9.49831 34.1415 9.49609 36.8306L9.72829 36.8527Z" fill="#4271D6"/>
</g>
<g style="mix-blend-mode:multiply">
<path d="M15.0554 37.2686L14.9515 41.1762L13.6136 40.9926C13.6136 41.059 13.6113 41.1253 13.6091 41.1917L15.1815 41.4062L15.2854 37.4986L15.7011 36.9037C15.6392 36.8064 15.5751 36.7091 15.511 36.6162L15.0554 37.2686Z" fill="#4271D6"/>
</g>
<g style="mix-blend-mode:multiply">
<path d="M15.2877 34.9341L15.3518 30.7412L15.1174 30.7589L15.0488 35.3697L15.2877 34.9341Z" fill="#4271D6"/>
</g>
<g style="mix-blend-mode:multiply">
<path d="M21.1391 42.3437L17.1011 35.3755C18.355 33.5709 19.6066 31.8637 20.8539 30.2715L20.4337 30.2848C19.2506 31.8062 18.0608 33.4316 16.8711 35.1433L20.9092 42.1115L18.0741 41.5653C18.0984 41.6316 18.125 41.6979 18.1493 41.7665L21.1414 42.3415L21.1391 42.3437Z" fill="#4271D6"/>
</g>
<g style="mix-blend-mode:screen">
<path d="M0.707768 26.5986L1.79358 26.1917L1.77589 26.0391L0.592773 26.4813C0.659116 28.4672 0.692288 30.745 0.692288 33.3102C0.692288 33.967 0.692288 34.6415 0.685653 35.3337L0.800648 35.3514C0.805071 34.6924 0.807282 34.0511 0.807282 33.4252C0.807282 30.8622 0.774111 28.5844 0.707768 26.5963V26.5986Z" fill="#4271D6"/>
<path d="M1.51929 30.263L2.09426 35.3891L2.1982 35.3957L1.53034 29.4492C1.52592 29.7301 1.52371 29.9999 1.51929 30.263Z" fill="#4271D6"/>
<path d="M3.83479 25.7603L5.12847 25.5392C5.12847 25.4928 5.12847 25.4507 5.12847 25.4043L3.71979 25.6453C3.51634 27.3437 3.17799 29.8537 2.71802 33.1089L2.77773 33.6131C3.26645 30.1655 3.62028 27.5251 3.83479 25.7603Z" fill="#4271D6"/>
<path d="M4.17759 29.9351C4.15106 31.66 4.10683 33.5751 4.04712 35.6871L4.16432 35.6937C4.23288 33.2589 4.27932 31.0784 4.30364 29.1611L4.17538 29.9373L4.17759 29.9351Z" fill="#4271D6"/>
<path d="M6.18116 27.4481L7.3112 27.1916C7.3112 27.1452 7.31562 27.0965 7.31783 27.0479L6.06616 27.3309C6.14135 30.9753 6.17895 33.9033 6.17895 36.0992V36.5791L6.29394 36.599V36.2142C6.29394 34.0183 6.25635 31.0926 6.18116 27.4459V27.4481Z" fill="#4271D6"/>
<path d="M12.7181 37.4435V37.3396L9.84326 37.0742C9.84326 37.1096 9.84326 37.1428 9.84326 37.1782L12.7181 37.4435Z" fill="#4271D6"/>
<path d="M9.88081 29.6081C9.88081 29.5616 9.88523 29.513 9.88744 29.4688L8.36377 29.7806C8.47876 33.4383 8.53847 36.3397 8.53847 38.4671C8.57828 38.4715 8.61587 38.4781 8.65347 38.4825C8.65347 36.364 8.59376 33.498 8.47876 29.8956L9.88081 29.6081Z" fill="#4271D6"/>
<path d="M13.6912 30.9923L15.3497 30.8641V30.7402L13.5762 30.8773C13.627 33.2834 13.6514 35.4462 13.6514 37.3657C13.6514 38.7788 13.6381 40.0548 13.6093 41.1914L13.7265 41.2069C13.7531 40.0946 13.7664 38.8518 13.7664 37.4785C13.7664 35.5589 13.742 33.3962 13.6912 30.9901V30.9923Z" fill="#4271D6"/>
<path d="M15.8362 36.9904C16.6633 38.2443 17.4373 39.8321 18.1449 41.7693L18.2223 41.7848C17.497 39.821 16.7053 38.2155 15.8539 36.9639L15.834 36.9926L15.8362 36.9904Z" fill="#4271D6"/>
<path d="M18.2863 30.4725L20.7565 30.3951C20.7875 30.3553 20.8206 30.3132 20.8516 30.2734L18.1714 30.3575L15.3982 35.3796L15.3938 35.7136L18.2886 30.4725H18.2863Z" fill="#4271D6"/>
</g>
<g style="mix-blend-mode:multiply">
<path d="M14.277 33.1707C14.277 22.1556 17.7556 13.1617 22.1298 12.6265L0.106201 11.3174V54.3916L21.2563 55.9042L21.3204 53.5159C17.3332 52.0497 14.2748 43.4981 14.2748 33.1685L14.277 33.1707Z" fill="#F2F2F2"/>
<path d="M22.5411 12.6004C27.1055 12.6004 30.8052 21.811 30.8052 33.1711C30.8052 44.5312 27.1055 53.7418 22.5411 53.7418C22.1298 53.7418 21.7251 53.6666 21.3293 53.5207L21.2651 55.9068L32.3422 50.2035V9.27441L22.5411 12.6004Z" fill="#F2F2F2"/>
</g>
<g style="mix-blend-mode:multiply">
<path d="M5.62814 3.5276L0.106201 11.3185L13.2089 12.0969C9.27257 9.92084 6.53482 6.68552 5.62593 3.52539L5.62814 3.5276Z" fill="#F2F2F2"/>
</g>
<g style="mix-blend-mode:screen" opacity="0.6">
<path d="M2.73551 9.65103C2.5387 9.05394 2.60504 8.41263 2.88589 7.79785L0.537354 11.1128L4.70368 11.3605C3.7395 11.0686 3.00973 10.4781 2.73772 9.65103H2.73551Z" fill="#4271D6"/>
</g>
<g style="mix-blend-mode:screen" opacity="0.7">
<path d="M25.1505 5.45579C25.3473 6.05287 25.48 6.89321 25.2014 7.50799L27.3509 3.84144L23.1846 3.74414C24.1488 4.03605 24.8785 4.6265 25.1505 5.45357V5.45579Z" fill="#4271D6"/>
</g>
<g style="mix-blend-mode:screen" opacity="0.6">
<path d="M6.10136 11.9062L0.338379 11.5635V16.3004C0.575002 15.491 0.962002 14.7479 1.51044 14.1022C2.625 12.7908 4.24376 12.0677 6.10136 11.9062Z" fill="#F2F2F2"/>
</g>
</svg>
