<svg width="64" height="58" viewBox="0 0 64 58" fill="none" xmlns="http://www.w3.org/2000/svg">
<path d="M36.6241 0.90155C36.7184 0.823834 36.797 0.727365 36.8579 0.623004C36.8923 0.563961 36.8705 0.475626 36.8075 0.444434C36.743 0.412387 36.6649 0.430981 36.628 0.494598C36.6095 0.527383 36.5875 0.559217 36.5652 0.589862C36.5723 0.580806 36.5799 0.570989 36.5862 0.561505C36.5425 0.619317 36.492 0.671323 36.4366 0.717619C36.4121 0.737977 36.3978 0.781143 36.3982 0.812483C36.3987 0.843823 36.4134 0.882105 36.4375 0.903613C36.4628 0.92674 36.4966 0.94362 36.5329 0.941827C36.5692 0.940034 36.5962 0.926056 36.6245 0.902741L36.6241 0.90155Z" fill="#849C19"/>
<path d="M36.1744 0.6644C36.1557 0.659987 36.1382 0.655238 36.1201 0.648109C36.1309 0.652148 36.1425 0.656616 36.1529 0.661417C36.1259 0.650342 36.1006 0.636218 36.077 0.619044C36.0861 0.626133 36.096 0.63365 36.1055 0.639977C36.0824 0.62204 36.0613 0.602244 36.0439 0.579492C36.0509 0.58844 36.058 0.597388 36.065 0.606337C36.0569 0.59577 36.0495 0.585631 36.043 0.573967C36.0251 0.544928 35.9951 0.521186 35.9605 0.51288C35.9294 0.505524 35.8899 0.509511 35.8619 0.526967C35.833 0.545948 35.8073 0.573691 35.8005 0.60899C35.7937 0.642337 35.7964 0.676914 35.8146 0.707143C35.8795 0.813589 35.9879 0.893135 36.1109 0.919751C36.144 0.927201 36.1796 0.923027 36.2096 0.905664C36.2379 0.889398 36.2647 0.856225 36.271 0.823641C36.2773 0.791057 36.2755 0.754955 36.2568 0.725487C36.2382 0.69602 36.2094 0.671944 36.1744 0.6644Z" fill="#849C19"/>
<path d="M36.6402 3.54871C36.6402 3.54871 36.9931 3.15213 37.154 2.56319C37.2265 2.30083 37.2598 2.0006 37.208 1.67985C37.0704 0.83592 36.7204 0.218313 36.4178 0.0472919C36.3473 0.00791395 36.2796 -0.00784105 36.2176 0.00369014C35.8893 0.0639815 34.7983 2.1741 36.639 3.54904L36.6402 3.54871Z" fill="#9FBA26"/>
<path d="M36.6402 3.54871C36.6402 3.54871 36.9931 3.15213 37.154 2.56319C36.9475 2.63634 36.6073 2.64791 36.2243 2.21743C35.611 1.52698 36.0729 0.336983 36.4178 0.0472919C36.3473 0.00791395 36.2796 -0.00784105 36.2176 0.00369014C35.8893 0.0639815 34.7983 2.1741 36.639 3.54904L36.6402 3.54871Z" fill="#8DAB0D"/>
<path d="M36.6771 3.0529C36.5588 2.15156 36.4635 1.247 36.3927 0.340095C36.3795 0.172306 36.1157 0.175388 36.1292 0.344367C36.2 1.25128 36.2946 2.1554 36.4137 3.05717C36.4352 3.22262 36.6998 3.21997 36.6771 3.0529Z" fill="#849C19"/>
<path d="M36.7812 2.61667C36.9756 2.50967 37.137 2.34511 37.2405 2.14922C37.2725 2.08889 37.2554 2.00312 37.1901 1.97065C37.1278 1.93989 37.0452 1.95591 37.0106 2.02081C36.9876 2.06513 36.9612 2.10654 36.9325 2.14667C36.9131 2.17393 36.9513 2.12408 36.9303 2.15048C36.9216 2.16063 36.9136 2.17121 36.9049 2.18137C36.8898 2.19905 36.874 2.2163 36.8579 2.23237C36.8418 2.24843 36.8245 2.26483 36.8076 2.28047C36.7977 2.28901 36.7879 2.29754 36.7768 2.30641C36.7711 2.31122 36.7485 2.33168 36.7727 2.31013C36.7366 2.34207 36.6897 2.36802 36.6476 2.39068C36.5874 2.42421 36.5623 2.51149 36.6008 2.57009C36.64 2.63107 36.7165 2.65273 36.7812 2.61667Z" fill="#849C19"/>
<path d="M36.7578 1.7954C36.9057 1.67444 37.0332 1.53411 37.1461 1.38055C37.1642 1.35558 37.166 1.30947 37.158 1.2809C37.1492 1.24995 37.1249 1.21629 37.0957 1.20198C37.0649 1.18681 37.0291 1.17884 36.9955 1.19016C36.9599 1.20138 36.9381 1.22226 36.9162 1.25214C36.9132 1.25748 36.9082 1.26273 36.9044 1.26763C36.9162 1.25214 36.917 1.25062 36.9074 1.2623C36.9011 1.26983 36.8956 1.27779 36.8894 1.28532C36.8751 1.30343 36.8613 1.32078 36.8467 1.3377C36.8196 1.36968 36.7917 1.40124 36.7623 1.43193C36.7022 1.49562 36.6375 1.55478 36.5699 1.61028C36.5453 1.63064 36.5311 1.6738 36.5315 1.70514C36.532 1.73648 36.5467 1.77477 36.5708 1.79627C36.6281 1.84833 36.7 1.84237 36.7578 1.7954Z" fill="#849C19"/>
<path d="M36.3222 2.33327C36.3 2.32791 36.2783 2.32178 36.2574 2.31413C36.2481 2.31095 36.2388 2.30777 36.2303 2.30501C36.216 2.30002 36.2187 2.30054 36.2357 2.30801C36.2303 2.30501 36.2233 2.30311 36.2175 2.30088C36.1794 2.28457 36.1417 2.26555 36.1065 2.24391C36.0882 2.23364 36.0714 2.22227 36.0543 2.20971C36.0504 2.20757 36.0463 2.20424 36.0429 2.20134C36.0307 2.19254 36.0322 2.19339 36.0478 2.2051C36.0422 2.19896 36.0319 2.1922 36.0254 2.18759C35.991 2.15932 35.9583 2.12801 35.9276 2.09484C35.8809 2.04368 35.7871 2.04547 35.7406 2.09571C35.6904 2.15086 35.6918 2.22688 35.7415 2.28171C35.8787 2.43153 36.0617 2.53773 36.2588 2.58862C36.3256 2.60591 36.4049 2.56192 36.4188 2.49251C36.4332 2.42234 36.3941 2.35236 36.3222 2.33327Z" fill="#849C19"/>
<path d="M36.2314 1.57966C36.1991 1.57263 36.1677 1.56213 36.1372 1.55011C36.148 1.55415 36.1596 1.55862 36.17 1.56342C36.1183 1.54255 36.0692 1.51516 36.0244 1.48209C36.0335 1.48918 36.0434 1.4967 36.0529 1.50303C36.0062 1.46792 35.9645 1.42756 35.9281 1.3812C35.9352 1.39015 35.9422 1.3991 35.9493 1.40805C35.9474 1.406 35.9463 1.40438 35.9444 1.40233C35.9226 1.37311 35.9001 1.3505 35.862 1.34125C35.8309 1.33389 35.7905 1.33745 35.7633 1.35533C35.7345 1.37431 35.7087 1.40206 35.7019 1.43736C35.6953 1.46875 35.6961 1.50833 35.7161 1.53551C35.7757 1.61391 35.8425 1.67934 35.9261 1.73304C35.999 1.78075 36.0831 1.81569 36.168 1.835C36.2349 1.85033 36.3136 1.80907 36.328 1.7389C36.3416 1.67025 36.3034 1.59679 36.2314 1.57966Z" fill="#849C19"/>
<path d="M35.8738 3.97998C36.0831 3.8733 36.3615 3.8302 36.5903 3.77652C36.8124 3.72408 37.0374 3.70231 37.2625 3.66959C37.358 3.65575 37.4333 3.57047 37.4611 3.48372C37.4874 3.40315 37.482 3.352 37.4399 3.27835C37.3748 3.16681 37.2634 3.12861 37.1406 3.14429C36.8951 3.17565 36.6557 3.25349 36.4264 3.34708C36.1683 3.45261 35.9861 3.61656 35.7518 3.75846C35.6128 3.84227 35.7261 4.05593 35.8729 3.98151L35.8738 3.97998Z" fill="#824E2D"/>
<path d="M32.3557 8.21911C30.235 7.34756 30.5949 4.81111 30.7643 4.27503C30.9017 3.84234 31.6879 2.51866 33.1652 2.24068C33.517 2.17447 33.9069 2.16761 34.3376 2.24569C35.9401 2.53702 36.9266 4.44162 36.5321 5.96602C36.5224 6.00275 36.512 6.03905 36.5012 6.07612C36.0579 7.56726 34.4252 9.06903 32.3557 8.21911Z" fill="#8DAAB8"/>
<path d="M33.9206 4.41535C33.6908 4.44746 33.5691 4.72038 33.674 4.92034C33.7835 5.12991 34.077 5.16348 34.2627 5.04158C34.3537 4.98211 34.2584 4.83664 34.163 4.88258C34.0651 4.9292 33.9316 4.94789 33.8531 4.85294C33.7795 4.76369 33.8332 4.60418 33.948 4.58303C34.056 4.56313 34.0288 4.40054 33.9206 4.41535Z" fill="white"/>
<path d="M32.3557 8.21911C30.235 7.34756 30.5949 4.81111 30.7643 4.27503C30.9017 3.84234 31.6879 2.51866 33.1652 2.24068C32.2525 2.77382 31.669 3.89185 31.8782 4.93924C32.1448 6.27632 33.6481 7.22922 34.9785 6.90431C35.5455 6.76575 36.0393 6.44088 36.5012 6.07612C36.0579 7.56726 34.4252 9.06903 32.3557 8.21911Z" fill="#819BA8"/>
<path d="M34.5552 5.03048C34.6798 4.86338 34.945 4.76485 35.1562 4.89079C35.3673 5.01674 35.284 5.2038 35.1363 5.35296C34.9894 5.50255 34.7207 5.55003 34.5854 5.45745C34.4502 5.36488 34.4299 5.1991 34.5552 5.03048Z" fill="white"/>
<path d="M33.7107 3.64235C33.8353 3.47526 34.1005 3.37672 34.3117 3.50267C34.5228 3.62861 34.4394 3.81568 34.2918 3.96484C34.1441 4.114 33.8762 4.1619 33.7409 4.06933C33.6057 3.97675 33.5854 3.81097 33.7107 3.64235Z" fill="white"/>
<path d="M35.3592 2.8092C35.0789 2.59853 34.8044 2.4312 34.4605 2.34237C34.1666 2.26651 33.818 2.4609 33.7566 2.76449C33.6961 3.06461 33.8631 3.39555 34.1809 3.46472C34.2903 3.48873 34.3991 3.51741 34.5062 3.54913C34.5237 3.55388 34.6626 3.60239 34.6082 3.58101C34.558 3.561 34.7108 3.63131 34.7289 3.64039C34.9635 3.76041 35.2443 3.70764 35.404 3.49603C35.544 3.31049 35.5672 2.96748 35.3576 2.81029L35.3592 2.8092Z" fill="#B4D9EB"/>
<path d="M35.6308 4.82495C35.6623 4.8566 35.6935 4.88705 35.725 4.9187C35.7708 4.96629 35.8235 4.99973 35.8855 5.01835C35.942 5.04688 36.0028 5.05878 36.0663 5.05516C36.1292 5.0562 36.1874 5.04253 36.2419 5.01381C36.301 4.99471 36.3518 4.96189 36.3942 4.91537L36.4703 4.81448C36.512 4.74052 36.532 4.66043 36.5306 4.57542C36.5246 4.53598 36.5191 4.49579 36.5131 4.45636C36.4906 4.3766 36.449 4.30728 36.3905 4.24851C36.361 4.215 36.3319 4.18269 36.3024 4.14918C36.2571 4.10083 36.2025 4.06729 36.1404 4.04868C36.0839 4.02015 36.0224 4.00781 35.9576 4.01177C35.8947 4.01073 35.8354 4.02474 35.7801 4.05303C35.7205 4.07289 35.669 4.10528 35.6262 4.15256C35.6009 4.18659 35.5749 4.22019 35.5492 4.25498C35.5071 4.3297 35.4867 4.41055 35.4881 4.49557C35.4959 4.61925 35.5398 4.73605 35.6296 4.82528L35.6308 4.82495Z" fill="#B4D9EB"/>
<path d="M57.2791 47.5774C54.9598 50.7943 50.3857 54.2561 47.5285 55.5684C46.209 56.1741 43.7684 56.9018 40.5278 57.2699C36.7491 57.6984 31.8831 57.6371 26.4391 56.3245C16.3252 53.8849 12.6921 49.2488 9.74883 44.9979C6.80551 40.7471 3.62414 32.4526 3.66041 30.0663C3.69667 27.68 4.80855 23.3877 11.9333 18.4424C14.0288 16.9886 23.8366 13.9599 31.5302 13.5438C39.2238 13.1277 48.9584 14.4531 55.9663 18.4671C59.3608 20.4109 61.2924 22.4323 62.4097 24.3568C63.5997 26.4062 63.8663 28.3469 63.9909 29.9677C64.233 33.111 59.5984 44.3604 57.2791 47.5774Z" fill="#29A8DF"/>
<path d="M63.9909 29.9677C63.876 28.4726 63.64 26.7064 62.6705 24.8323C61.8533 25.6965 61.3342 26.8987 60.734 27.8871C60.4413 28.3684 59.6745 27.9411 59.9676 27.4591C60.3258 26.869 60.6569 26.2447 61.0209 25.6498L59.0334 27.4999L45.3272 40C45.3272 40 51.656 39.3231 51.8282 44.7337C51.9706 49.2202 44.5304 54.987 40.5278 57.2699C43.7684 56.9018 46.209 56.1741 47.5285 55.5684C50.3857 54.2561 54.9598 50.7943 57.2791 47.5774C59.5984 44.3604 64.233 33.111 63.9909 29.9677Z" fill="#239BD1"/>
<path d="M58.9529 34.5873C54.4204 38.4664 46.5738 42.076 38.9137 42.4346C26.4899 43.0166 15.3515 40.6065 8.91774 36.1109C8.86141 36.0714 8.80507 36.0319 8.74993 35.9921C2.51141 31.4863 4.11377 24.2009 14.7582 18.6163C18.8661 16.4613 33.1006 13.6187 44.1382 15.6717C55.1757 17.7247 61.1887 22.7875 62.7202 27.754C63.3077 29.6583 61.7706 32.1751 58.9529 34.5873Z" fill="#85D3ED"/>
<path d="M58.9517 34.5876C54.4192 38.4668 46.5726 42.0763 38.9125 42.4349C32.3228 42.7436 26.0951 42.2106 20.7389 40.971C15.9968 39.8738 11.9374 38.2224 8.91655 36.1112C8.86021 36.0717 8.80387 36.0322 8.74873 35.9924C8.4704 34.2386 8.73731 31.4758 11.8691 28.7356C17.0456 24.2064 31.3019 22.3415 40.7394 23.3004C47.628 24 52.4814 26.0217 55.4979 28.4603C56.6145 29.3627 57.4793 30.3219 58.1019 31.2923C58.7995 32.3799 59.0046 33.5222 58.9517 34.5876Z" fill="#FFE7BD"/>
<path d="M55.4979 28.4603C47.207 25.3623 37.6453 25.3808 29.7688 29.3667C27.1345 30.7002 24.6743 32.4878 22.9578 34.8813C21.6809 36.6599 20.8497 38.8028 20.7389 40.971C15.9968 39.8738 11.9374 38.2224 8.91655 36.1112C8.86021 36.0717 8.80387 36.0322 8.74873 35.9924C8.4704 34.2386 8.66053 31.3868 11.8691 28.7356C19.5627 22.3804 31.4485 21.7586 40.8859 22.7175C47.7746 23.417 52.4814 26.0217 55.4979 28.4603Z" fill="#FFDBB0"/>
<path d="M46.8683 27.3289C45.1064 28.949 42.2577 28.4851 41.2463 27.1462C40.3079 25.9032 39.3541 23.4994 41.02 21.5761C41.1488 21.4264 41.2936 21.2806 41.4559 21.1376C42.8026 19.9515 45.4018 20.0323 46.9277 21.5884C47.6475 22.3223 48.0672 23.2807 48.1252 24.2586C48.1889 25.3531 47.8001 26.4726 46.8683 27.3289Z" fill="#E3591E"/>
<path d="M17.5325 33.7034L14.9657 33.0721C14.9657 33.0721 5.33341 28.5681 1.20237 22.7835C-0.289173 20.6951 -0.425949 17.9064 0.976944 15.7579C1.21023 15.3998 1.48199 15.0683 1.79808 14.7886C2.72491 13.9696 3.56545 14.5252 4.22204 15.5908C4.84651 16.6044 5.30553 18.079 5.51721 19.2722C5.9502 21.72 11.2183 29.1744 15.6057 31.2235C19.993 33.2726 17.5325 33.7034 17.5325 33.7034Z" fill="#BFBFBF"/>
<path d="M39.1857 47.5039C38.9352 47.378 38.6062 47.4449 38.4677 47.7045C37.4931 49.5317 35.0118 49.4705 34.0332 47.8039C33.6738 47.1921 32.7819 47.7529 33.123 48.3344C34.1776 50.1307 36.5833 50.676 38.2849 49.4504C38.971 48.9562 39.9212 47.8725 39.1857 47.5039Z" fill="white"/>
<path d="M23.4873 38.11C23.4873 38.11 21.7648 38.3081 19.6172 37.2912C18.1832 36.6137 16.5596 35.3952 15.1324 33.2143C15.1324 33.2143 14.8974 31.8748 15.6057 31.2235C15.6057 31.2235 18.4487 30.0738 20.9503 30.7028C22.2804 31.0375 23.1419 31.8917 23.6416 32.8746C24.0807 33.7416 24.2376 34.7066 24.1854 35.5047C24.0726 37.2085 23.4873 38.11 23.4873 38.11Z" fill="#BFBFBF"/>
<path d="M44.2963 47.6837C45.2667 47.1768 46.7723 47.3078 47.4267 48.2147C48.0811 49.1216 46.4978 49.8608 45.263 49.9824C44.0282 50.104 43.2512 49.5357 43.3853 48.9338C43.5194 48.3318 43.4207 48.1423 44.2963 47.6837Z" fill="#FF996A"/>
<path d="M25.6607 47.3636C26.7893 46.9801 28.3887 47.6378 28.8687 48.5305C29.3487 49.4232 27.5286 50.2819 25.9046 49.9214C24.2807 49.5609 23.2256 48.1906 25.6607 47.3636Z" fill="#FF996A"/>
<path d="M41.7471 45.7477C41.9652 44.954 42.2767 44.3538 42.9172 44.4047C43.5578 44.4556 43.6713 45.4405 43.4589 46.09C43.2466 46.7396 42.8876 47.1026 42.3691 47.0176C41.8506 46.9325 41.6014 46.281 41.7471 45.7477Z" fill="white"/>
<path d="M28.553 46.4179C28.4256 45.697 28.5153 45.1164 28.9034 44.9752C29.2916 44.834 29.8839 45.0615 30.1242 45.9127C30.3646 46.7638 30.2009 47.236 29.7079 47.472C29.2144 47.7088 28.6629 47.0429 28.553 46.4179Z" fill="white"/>
<path d="M18.5052 19.9658C16.7584 22.8899 12.6768 23.405 10.7466 21.9851C8.82398 20.5694 6.33072 17.334 8.55271 13.7358C8.56079 13.7232 8.56853 13.7095 8.57661 13.697C9.93185 11.5329 13.5171 10.5952 16.2375 12.1045C17.4974 12.803 18.4513 13.9134 18.9385 15.1952C19.5044 16.6804 19.4426 18.3957 18.5052 19.9658Z" fill="#FF9A6A"/>
<path d="M12.7186 15.5218C12.2909 15.8726 12.2426 16.5796 12.7119 16.9269C12.9224 17.0826 13.1974 17.1239 13.4505 17.0667C13.6876 17.0126 13.9934 16.8475 14.0091 16.5805C14.0145 16.4923 13.9063 16.4589 13.8413 16.4938C13.6861 16.5776 13.604 16.7213 13.4217 16.7729C13.247 16.8217 13.0496 16.8037 12.8992 16.6986C12.5729 16.4713 12.6134 15.9725 12.8863 15.7248C12.9962 15.6247 12.8357 15.4268 12.7186 15.5218Z" fill="#824E2D"/>
<path d="M18.5052 19.9658C16.7584 22.8899 12.6768 23.405 10.7466 21.9851C8.82398 20.5694 6.33072 17.334 8.55271 13.7358C7.85958 15.8054 8.77309 18.2769 10.6122 19.4654C12.4531 20.656 15.0437 20.5074 16.7827 19.1743C18.0184 18.226 18.783 16.7388 18.9385 15.1952C19.5044 16.6804 19.4426 18.3957 18.5052 19.9658Z" fill="#EB8E62"/>
<path d="M14.9127 16.6439C15.0254 16.3048 15.4067 16.0024 15.8202 16.0949C16.2344 16.1878 16.1978 16.5384 16.0371 16.8608C15.8771 17.1836 15.4635 17.4058 15.193 17.3259C14.9222 17.2469 14.7981 16.988 14.9127 16.6439Z" fill="#824E2D"/>
<path d="M12.0842 14.3133C12.197 13.9741 12.5783 13.6717 12.9918 13.7642C13.406 13.8572 13.3694 14.2078 13.2087 14.5301C13.0487 14.8529 12.635 15.0751 12.3646 14.9953C12.0937 14.9162 11.9697 14.6574 12.0842 14.3133Z" fill="#824E2D"/>
<path d="M13.9559 11.7698C13.3429 11.629 12.7488 11.603 12.1306 11.7161C11.7205 11.7908 11.4919 12.2889 11.5971 12.6615C11.7084 13.0555 12.1474 13.3117 12.5475 13.1922C12.9116 13.0828 13.2578 13.0194 13.6298 13.0837C13.9915 13.1464 14.3597 12.9619 14.4528 12.5898C14.5401 12.2385 14.3151 11.8531 13.9563 11.771L13.9559 11.7698Z" fill="#FFAF8A"/>
<path d="M15.135 13.3688C15.2189 13.4077 15.3028 13.4465 15.3863 13.4861C15.526 13.5511 15.6698 13.5803 15.8218 13.5378C15.957 13.5 16.1018 13.3954 16.1665 13.2681C16.2331 13.1358 16.2658 12.9796 16.2185 12.8349C16.1718 12.6925 16.0831 12.5657 15.9473 12.4919C15.8664 12.4477 15.7851 12.4043 15.7038 12.3609C15.5719 12.2892 15.4076 12.2677 15.2624 12.3089C15.1248 12.3474 14.978 12.4539 14.9128 12.5819C14.8453 12.7157 14.8121 12.8747 14.8605 13.021C14.9065 13.161 14.9972 13.3039 15.135 13.3688Z" fill="#FFAF8A"/>
<path d="M46.8683 27.3289C45.1064 28.949 42.2577 28.4851 41.2463 27.1462C40.3079 25.9032 39.3541 23.4994 41.02 21.5761C40.9293 22.2102 40.8922 24.0746 43.2551 25.269C45.7107 26.51 47.4381 25.1724 48.1252 24.2586C48.1889 25.3531 47.8001 26.4726 46.8683 27.3289Z" fill="#CF511C"/>
<path d="M43.8499 24.3507C43.6804 24.7815 43.9362 25.3194 44.4227 25.3826C44.6406 25.411 44.8594 25.3286 45.021 25.1833C45.1724 25.0472 45.3283 24.8013 45.2298 24.5989C45.1976 24.5328 45.1046 24.5511 45.0718 24.6039C44.9926 24.7282 44.9918 24.8671 44.8794 24.9788C44.7715 25.086 44.6199 25.1528 44.4664 25.1372C44.1336 25.1037 43.9591 24.7216 44.0567 24.4291C44.0962 24.3108 43.897 24.2316 43.8508 24.3492L43.8499 24.3507Z" fill="#942C00"/>
<path d="M45.6353 24.3251C45.5787 24.0307 45.733 23.6536 46.0747 23.5537C46.4156 23.4533 46.5335 23.7247 46.5489 24.0261C46.5643 24.3275 46.3532 24.6588 46.1224 24.7104C45.8913 24.7628 45.6942 24.6227 45.6365 24.3247L45.6353 24.3251Z" fill="#942C00"/>
<path d="M42.6041 23.7703C42.5474 23.4759 42.7017 23.0988 43.0434 22.9989C43.3843 22.8985 43.5023 23.1699 43.5177 23.4713C43.533 23.7727 43.3219 24.104 43.0912 24.1556C42.86 24.208 42.6629 24.0679 42.6053 23.7699L42.6041 23.7703Z" fill="#942C00"/>
<path d="M40.6598 25.6154C40.5657 25.7534 40.4551 25.8851 40.3268 26.009C39.3377 26.9597 37.7962 26.7496 37.2707 26.0089C36.8525 25.4194 36.445 24.3465 36.9315 23.3467C37.0564 23.0896 37.2397 22.838 37.4972 22.5997C38.2513 21.9028 39.6645 21.9009 40.4659 22.7546C41.1628 23.4968 41.2902 24.691 40.6598 25.6154Z" fill="#E3591E"/>
<path d="M40.6598 25.6154C40.5657 25.7534 40.4551 25.8851 40.3268 26.009C39.3377 26.9597 37.7962 26.7496 37.2707 26.0089C36.8525 25.4194 36.445 24.3465 36.9315 23.3467C36.9411 23.6459 37.1121 24.3109 38.2718 25.0709C39.5085 25.8819 40.1748 25.8549 40.6598 25.6154Z" fill="#CF511C"/>
<path d="M38.206 23.8138C37.9864 24.0852 38.048 24.5298 38.3829 24.6847C38.533 24.7545 38.709 24.7445 38.8582 24.6764C38.9978 24.613 39.1664 24.4715 39.141 24.3039C39.1326 24.2491 39.0622 24.2418 39.0261 24.2718C38.9412 24.3437 38.9084 24.4428 38.8027 24.498C38.7006 24.5503 38.5768 24.5644 38.4696 24.5185C38.2382 24.4194 38.1994 24.106 38.336 23.9175C38.3912 23.8411 38.2659 23.74 38.206 23.8138Z" fill="#942C00"/>
<path d="M39.4628 24.232C39.4913 24.0333 39.6719 23.8293 39.9099 23.8399C40.1478 23.8505 40.1623 24.0481 40.1054 24.2419C40.0484 24.4357 39.8426 24.5985 39.6856 24.582C39.5283 24.5643 39.4331 24.433 39.4628 24.232Z" fill="#942C00"/>
<path d="M37.6698 23.2226C37.6983 23.0239 37.8789 22.8199 38.1168 22.8305C38.3548 22.8411 38.3693 23.0387 38.3123 23.2325C38.2554 23.4263 38.0496 23.5891 37.8926 23.5726C37.7353 23.5549 37.6401 23.4236 37.6698 23.2226Z" fill="#942C00"/>
<path d="M44.2989 21.0598C43.8721 20.9338 43.4086 20.9246 42.9878 21.0737C42.6591 21.1899 42.4087 21.5354 42.5257 21.8925C42.6276 22.2031 43.0033 22.4912 43.3488 22.3522C43.4885 22.2958 43.6326 22.262 43.779 22.2294C43.7929 22.2262 43.901 22.2114 43.8275 22.2184C43.752 22.2254 43.8652 22.2195 43.8786 22.2189C43.9133 22.2182 43.9496 22.2235 43.9836 22.2204C44.0721 22.2137 43.8536 22.1989 44.0107 22.2225C44.3213 22.2686 44.6707 22.1228 44.7393 21.7851C44.8056 21.4551 44.6228 21.1555 44.2989 21.0598Z" fill="#FF824D"/>
<path d="M28.4739 11.2293C27.0091 13.6821 23.5852 14.1143 21.9666 12.9226C20.3538 11.7351 18.2623 9.02183 20.1258 6.00352C20.1318 5.99284 20.1383 5.98141 20.1459 5.97159C21.2828 4.15688 24.2897 3.37049 26.5721 4.63614C27.6284 5.22204 28.4292 6.15358 28.8379 7.2281C29.313 8.47412 29.2602 9.91264 28.4743 11.2305L28.4739 11.2293Z" fill="#FF9A6A"/>
<path d="M23.758 9.08186C23.3987 9.37556 23.3591 9.96911 23.7524 10.2599C23.9287 10.3905 24.16 10.4254 24.3721 10.3764C24.571 10.3311 24.8276 10.1926 24.8404 9.9681C24.8447 9.89432 24.754 9.86572 24.6998 9.89563C24.5698 9.96537 24.5013 10.0866 24.3482 10.1294C24.2018 10.171 24.036 10.1556 23.9097 10.067C23.6363 9.87624 23.6706 9.45821 23.8986 9.25064C23.9904 9.16654 23.8559 9.00119 23.7577 9.08067L23.758 9.08186Z" fill="#824E2D"/>
<path d="M28.4739 11.2293C27.0091 13.6821 23.5852 14.1143 21.9666 12.9226C20.3538 11.7351 18.2623 9.02183 20.1258 6.00352C19.5444 7.7394 20.6853 9.69012 22.3921 10.3736C26.2824 11.9316 28.7074 8.52198 28.8375 7.22691C29.3127 8.47293 29.2599 9.91144 28.4739 11.2293Z" fill="#EB8E62"/>
<path d="M25.3877 9.66614C25.4825 9.38214 25.8025 9.12767 26.1485 9.20563C26.4946 9.28359 26.4647 9.57773 26.3305 9.84772C26.1963 10.1177 25.8493 10.3039 25.6222 10.2383C25.3956 10.1719 25.2916 9.95438 25.3877 9.66614Z" fill="#824E2D"/>
<path d="M23.1831 7.8393C23.2779 7.5553 23.5979 7.30083 23.9439 7.37879C24.2908 7.45718 24.2601 7.7509 24.1259 8.02088C23.9917 8.29086 23.6455 8.47753 23.4176 8.41147C23.1898 8.34541 23.087 8.12754 23.1831 7.8393Z" fill="#824E2D"/>
<path d="M24.318 5.13701C24.2484 4.66901 23.7832 4.36105 23.3183 4.48647C22.8175 4.62193 22.2996 4.81803 22.0084 5.24299C21.9844 5.26768 21.9581 5.29109 21.9304 5.31169C21.5002 5.66309 21.9691 6.42729 22.4806 6.24068C22.5397 6.21452 22.5436 6.28087 23.0843 6.15867C23.2227 6.12769 23.2918 6.0981 23.5146 6.05509C23.5464 6.04878 23.7054 6.02426 23.5489 6.04616C24.0184 5.98046 24.3943 5.65192 24.318 5.13701Z" fill="#FFAF8A"/>
<path d="M26.3591 5.53695C26.4266 5.40315 26.419 5.22545 26.3537 5.10176C26.2537 4.80025 25.789 4.60389 25.4196 4.84778C25.3319 4.88705 25.2669 4.92897 25.2149 5.01223C25.1683 5.06442 25.137 5.12518 25.1219 5.19492C25.1087 5.31291 25.0878 5.39647 25.152 5.51659C25.1649 5.55987 25.1871 5.59734 25.2186 5.62898C25.2564 5.68716 25.3069 5.73146 25.3703 5.76384C25.5302 5.82705 25.4892 5.81218 25.52 5.81834C25.5261 5.82177 25.5322 5.82519 25.5384 5.82862C25.6645 5.9141 25.8376 5.91452 25.9798 5.88059C26.1477 5.83301 26.3074 5.7036 26.358 5.53533L26.3591 5.53695Z" fill="#FFAF8A"/>
<path d="M23.4873 38.11C23.4873 38.11 21.7648 38.3081 19.6172 37.2912C20.4075 37.1661 21.5426 36.7692 22.5024 35.5936C23.3136 34.6007 23.5809 33.6199 23.6416 32.8746C24.0807 33.7416 24.2376 34.7066 24.1854 35.5047C24.0726 37.2085 23.4873 38.11 23.4873 38.11Z" fill="#BFBFBF"/>
<path d="M18.4849 31.4046C17.6198 31.7016 18.026 32.5822 18.9314 32.9856C19.8359 33.3885 21.2299 33.6546 21.6253 32.9539C22.0207 32.2532 20.528 30.7026 18.4849 31.4046Z" fill="#DEDEDE"/>
<path d="M15.6057 31.2235L15.0478 31.8405C15.0478 31.8405 10.4884 29.7033 7.1599 25.3867C3.83135 21.0701 2.59693 18.3331 2.6738 16.7376C2.73025 15.5659 3.47005 15.0515 4.22204 15.5908C4.84651 16.6044 5.30553 18.079 5.51721 19.2722C5.9502 21.72 11.2183 29.1744 15.6057 31.2235Z" fill="#CCCCCC"/>
<path d="M15.0443 49.3531C16.578 50.2628 18.1621 51.0763 19.8121 51.7551C20.6051 52.0806 21.4119 52.3708 22.2289 52.6325C23.0132 52.8841 23.8747 53.2328 24.709 53.2084C24.8563 53.2045 24.9126 53.0012 24.7803 52.9284C24.0445 52.5265 23.1456 52.3995 22.3475 52.1543C21.5487 51.9087 20.7605 51.632 19.9786 51.3367C18.3292 50.7123 16.7223 49.9643 15.1914 49.0923C15.0229 48.9962 14.8782 49.2544 15.0443 49.3531Z" fill="#85D3ED"/>
<path d="M20.1458 52.7176C21.3363 53.2711 22.5412 53.7545 23.8204 54.0668C24.4575 54.2221 25.1024 54.3456 25.7521 54.4357C26.3212 54.5149 27.0537 54.6923 27.6018 54.473C27.7434 54.4167 27.8022 54.2089 27.6436 54.1274C27.1367 53.8664 26.4563 53.9165 25.8989 53.8469C25.2738 53.7685 24.6523 53.659 24.038 53.5205C22.786 53.2385 21.5285 52.8681 20.3558 52.3455C20.1069 52.2346 19.8945 52.6003 20.1458 52.7176Z" fill="#85D3ED"/>
<path d="M39.1462 34.1246C40.5218 34.1081 41.6293 33.4649 41.6198 32.688C41.6104 31.911 40.4877 31.2946 39.1121 31.3111C37.7366 31.3276 36.6291 31.9708 36.6385 32.7477C36.6479 33.5247 37.7707 34.1411 39.1462 34.1246Z" fill="#FFDBB0"/>
<path d="M40.4894 34.0855C40.4717 34.6813 41.3173 35.1886 42.3787 35.2189C43.4397 35.2499 44.3134 34.7912 44.3306 34.1962C44.3483 33.6004 43.5027 33.0931 42.4413 33.0628C41.3803 33.0318 40.5066 33.4905 40.4894 34.0855Z" fill="#FFDBB0"/>
<path d="M29.7705 35.856C30.8311 35.8865 31.705 35.4284 31.7224 34.8328C31.7397 34.2371 30.894 33.7295 29.8333 33.6989C28.7726 33.6684 27.8987 34.1265 27.8814 34.7221C27.864 35.3178 28.7098 35.8254 29.7705 35.856Z" fill="#FFDBB0"/>
<path d="M25.6464 35.8002C25.6375 36.1001 26.1182 36.3575 26.7202 36.3748C27.3222 36.3922 27.8165 36.1629 27.8254 35.863C27.8344 35.5632 27.3537 35.3058 26.7517 35.2884C26.1497 35.2711 25.6554 35.5004 25.6464 35.8002Z" fill="#FFDBB0"/>
<path d="M33.5502 37.5843C34.902 37.6232 36.0147 37.0784 36.0354 36.3674C36.0561 35.6564 34.977 35.0484 33.6252 35.0095C32.2734 34.9705 31.1608 35.5154 31.1401 36.2264C31.1194 36.9374 32.1985 37.5453 33.5502 37.5843Z" fill="#FFDBB0"/>
<path d="M28.9399 32.645C28.9194 33.3565 29.9982 33.965 31.3492 34.0036C32.701 34.0426 33.8138 33.4979 33.8343 32.7863C33.8548 32.0748 32.776 31.4663 31.4249 31.4277C30.0739 31.3892 28.9604 31.9335 28.9399 32.645Z" fill="#FFDBB0"/>
<path d="M45.7364 34.5772C45.7241 34.9955 46.1409 35.3466 46.6667 35.3615C47.1925 35.3764 47.6289 35.0495 47.6407 34.632C47.653 34.2137 47.2363 33.8626 46.7105 33.8477C46.1847 33.8329 45.7483 34.1597 45.7364 34.5772Z" fill="#FFDBB0"/>
<path d="M48.5389 29.7931C48.5266 30.2114 48.9434 30.5624 49.4692 30.5773C49.995 30.5922 50.4314 30.2654 50.4432 29.8479C50.4555 29.4296 50.0388 29.0785 49.513 29.0636C48.9872 29.0487 48.5508 29.3756 48.5389 29.7931Z" fill="#FFDBB0"/>
<path d="M50.1147 30.4355C50.1032 30.8362 50.6669 31.177 51.373 31.1974C52.08 31.2182 52.6623 30.9097 52.6745 30.5094C52.6859 30.1087 52.1223 29.7678 51.4161 29.7475C50.7092 29.7267 50.1269 30.0352 50.1147 30.4355Z" fill="#FFDBB0"/>
</svg>
