<svg width="35" height="48" viewBox="0 0 35 48" fill="none" xmlns="http://www.w3.org/2000/svg">
<g style="mix-blend-mode:multiply" opacity="0.3">
<path d="M1.64052 31.5453C0.311014 33.972 2.0037 37.3232 4.90737 37.4617C5.50521 37.4505 4.67803 38.4316 4.6061 38.8779C3.33732 41.6985 2.42053 44.3362 4.12382 46.2612C7.08351 49.4102 11.6746 47.5872 13.1391 43.8652C13.1267 47.9162 19.1398 49.3589 21.7404 46.5224C22.5193 45.7035 22.7752 44.7366 22.8736 43.9418C23.0605 44.2891 23.2486 44.6298 23.4384 44.963C24.8428 47.6479 28.3744 48.6744 30.9031 47.0849C34.835 44.2991 31.5917 40.0518 30.7292 37.414C34.1187 36.9164 36.1014 32.0453 32.6123 29.9116C32.7709 27.3558 32.913 24.5329 32.9153 21.717C32.9189 18.3653 32.9637 14.6444 32.0257 11.2544C31.3412 8.79346 29.3507 7.34722 26.1116 6.95633C24.946 6.81542 23.7833 6.7429 22.7138 6.70517C22.6879 6.44104 22.6549 6.18103 22.6142 5.92339C22.4857 3.54267 20.4593 1.06643 17.8321 1.18435C14.4485 1.12775 12.7806 4.19651 12.7623 6.30249C12.7441 6.49646 12.7329 6.68866 12.7264 6.87733C11.9876 6.9239 11.2672 6.97755 10.5538 7.03828C6.46917 7.16091 3.18639 9.12598 3.18698 14.207C2.98711 16.402 2.79786 18.2645 2.75482 20.9447C2.68643 24.05 2.86743 27.1471 3.08204 29.9352C2.47477 30.352 1.99249 30.8897 1.64052 31.5453Z" fill="#231F20"/>
</g>
<path d="M1.90166 28.7555C1.68705 25.9674 1.50605 22.8703 1.57444 19.765C1.61748 17.0847 1.80673 15.2223 2.0066 13.0273C2.0066 7.94627 5.28879 5.98062 9.37339 5.85857C10.0868 5.79726 10.8073 5.74361 11.546 5.69762C11.5525 5.50895 11.5637 5.31675 11.582 5.12278C11.6002 3.01621 13.2682 -0.0525476 16.6518 0.004052C19.2789 -0.113864 21.3053 2.36237 21.4338 4.74309C21.4745 5.00015 21.5075 5.26074 21.5335 5.52487C22.603 5.56201 23.7662 5.63453 24.9312 5.77603C28.1709 6.16692 30.1608 7.61316 30.8453 10.0741C31.7833 13.4641 31.7385 17.1856 31.735 20.5367C31.732 23.352 31.5905 26.1755 31.4319 28.7313C34.9216 30.865 32.9383 35.7367 29.5488 36.2337C30.4114 38.8715 33.6546 43.1188 29.7227 45.9046C27.194 47.4941 23.6624 46.4676 22.2581 43.7827C22.0682 43.4496 21.8801 43.1088 21.6932 42.7615C21.5948 43.5563 21.3389 44.5232 20.5601 45.3421C17.9594 48.1786 11.9457 46.7359 11.9587 42.6849C10.4942 46.4069 5.90313 48.2299 2.94344 45.0809C1.24015 43.1559 2.15694 40.5182 3.42572 37.6976C3.49765 37.2513 4.32542 36.2702 3.72699 36.2814C0.823316 36.1429 -0.869366 32.7917 0.460135 30.365C0.812114 29.7094 1.2938 29.1717 1.90166 28.7549V28.7555Z" fill="white"/>
<path d="M2.44824 31.4322C2.16701 31.9563 2.21712 32.6774 2.51014 33.1891C2.82616 33.7404 3.33261 33.9786 3.94105 34.0358C4.60197 34.0988 5.26643 34.1307 5.9297 34.1619C6.45148 34.1861 6.97385 34.1997 7.49563 34.2179C6.75394 35.627 6.11955 37.0974 5.50815 38.5649C5.14792 39.4292 4.80066 40.2989 4.47875 41.1785C4.17394 42.0116 4.08314 42.916 4.6851 43.6465C5.20334 44.2762 6.24041 44.5138 7.01512 44.3758C7.87355 44.2219 8.66299 43.7933 9.14468 43.0528C9.97775 41.7716 10.6003 40.3148 11.2406 38.9322C11.9411 37.4194 12.6256 35.8923 13.2216 34.3347C13.6373 34.337 14.0523 34.3394 14.468 34.34C14.3518 35.8346 14.2628 37.3309 14.2151 38.829C14.1885 39.6556 14.1726 40.4828 14.1844 41.31C14.195 42.0175 14.1266 42.8836 14.4792 43.5209C14.896 44.2744 15.8435 44.4807 16.6353 44.5491C17.4536 44.6199 18.3421 44.4 18.9246 43.7874C19.4488 43.2361 19.4717 42.4632 19.5077 41.7463C19.5472 40.9698 19.5395 40.1904 19.5177 39.4127C19.4712 37.7136 19.3515 36.0162 19.2123 34.3223C19.5944 34.3188 19.9764 34.3134 20.3585 34.3087C21.4398 37.1576 22.7115 40.0194 24.2179 42.666C24.6524 43.4295 25.1907 43.9495 26.0355 44.2355C26.8456 44.5096 27.7842 44.4554 28.5236 43.9926C30.2092 42.936 28.908 40.5925 28.3655 39.2559C27.6687 37.539 26.9399 35.8163 26.0703 34.1767C26.5691 34.1584 27.0673 34.1437 27.5655 34.1189C28.3797 34.0788 29.3578 34.1537 30.0435 33.6531C30.412 33.3837 30.6944 33.0117 30.8683 32.5907C30.8972 32.5412 30.9226 32.4869 30.9391 32.4227C30.9556 32.3714 30.965 32.3224 30.9697 32.2759C31.2061 31.0242 30.2251 30.4694 29.0742 30.21C29.2877 26.9868 29.474 23.7653 29.4775 20.5338C29.481 17.3648 29.5247 13.7501 28.6704 10.6778C28.1397 8.77053 26.374 8.22163 24.6589 8.01468C22.8913 7.80126 21.0984 7.74761 19.3114 7.74112C19.365 6.8538 19.3438 5.97887 19.2041 5.09509C19.1257 4.6022 19.0549 4.08514 18.8321 3.63411C18.6169 3.19841 18.2419 2.80575 17.8268 2.55518C17.0256 2.07232 15.7875 2.21264 15.0375 2.73795C14.1732 3.34345 13.9203 4.33158 13.8271 5.33092C13.7487 6.17048 13.8324 6.99943 13.8867 7.83427C12.4446 7.89441 11.0036 7.98167 9.56682 8.10548C7.62828 8.27292 5.82063 8.44449 4.80007 10.3235C4.25707 11.3228 4.30954 12.9901 4.18101 14.1109C3.96405 16.0041 3.87089 17.9096 3.82903 19.8139C3.75298 23.2606 3.99117 26.7091 4.27534 30.1422C3.50653 30.3391 2.83441 30.7105 2.44706 31.4316L2.44824 31.4322Z" fill="black"/>
<path d="M11.6669 34.9018C10.7943 37.0845 9.79145 39.2335 8.69837 41.3053C8.436 41.8023 8.17777 42.4726 7.70493 42.8028C7.17254 43.1736 6.33062 43.331 5.75755 42.9561C5.20511 42.5947 5.56829 41.804 5.74281 41.333C6.01991 40.5842 6.31529 39.8419 6.62069 39.1044C7.23267 37.6245 7.87119 36.1394 8.62526 34.7238C8.80921 34.3777 8.97901 34.2704 9.39761 34.2804C9.99249 34.2946 10.588 34.3064 11.1829 34.3152C11.8526 34.3246 11.8526 34.4378 11.6663 34.9018H11.6669Z" fill="#DDA96B"/>
<path d="M18.2354 42.1943C18.1847 42.804 17.9418 43.1783 17.2962 43.2968C16.8015 43.3876 15.6678 43.3582 15.5045 42.7562C15.3524 42.1961 15.4266 41.4921 15.4243 40.9155C15.4213 40.1697 15.4378 39.4239 15.4626 38.6787C15.5115 37.2318 15.5982 35.7862 15.7102 34.3423C16.4649 34.3411 17.219 34.337 17.973 34.3329C18.1971 36.9335 18.4506 39.5949 18.2354 42.1943Z" fill="#DDA96B"/>
<path d="M26.7106 38.4853C27.0331 39.2447 27.3432 40.0088 27.6386 40.7788C27.8473 41.3218 28.3956 42.2539 27.987 42.8081C27.6303 43.2927 26.8026 43.2025 26.3109 43.018C25.6694 42.778 25.4076 42.2557 25.0981 41.6885C24.4189 40.4439 23.8134 39.1586 23.2238 37.8698C22.7628 36.861 22.3094 35.8458 21.8908 34.8164C21.731 34.4231 21.7646 34.2922 22.3283 34.2822C22.9497 34.2704 23.5705 34.2557 24.1919 34.2397C24.6671 34.2268 24.7609 34.3423 24.9318 34.6631C25.5945 35.9012 26.1617 37.1941 26.7106 38.4853Z" fill="#DDA96B"/>
<path d="M15.4644 4.02143C15.791 3.60401 16.5669 3.36936 17.0834 3.56687C17.7702 3.82982 17.8817 4.67704 17.9919 5.34209C18.0968 5.97707 18.1169 6.6203 18.0945 7.26294C18.078 7.71809 17.769 7.74521 17.2862 7.74816C16.7343 7.75229 16.1825 7.76231 15.6306 7.77646C15.2073 7.78707 15.1266 7.75524 15.0941 7.33074C15.0646 6.94515 15.0375 6.55898 15.0363 6.17163C15.034 5.279 15.1484 4.42411 15.4644 4.02143Z" fill="#DDA96B"/>
<path d="M18.6493 25.0635C18.3138 24.6095 18.3003 24.5447 18.6233 24.1361C19.9281 22.4853 22.0995 19.5928 24.031 21.2578C25.4813 22.5077 26.7165 24.4539 27.7247 26.2615C27.9977 26.7509 28.0277 27.0468 27.9912 27.6771C27.9552 28.302 27.9163 28.927 27.8756 29.5514C27.8473 29.9823 27.7671 30.0165 27.299 29.9894C27.0756 29.9765 26.8698 29.967 26.6911 29.9582C25.0716 29.8762 23.4496 29.8326 21.8271 29.7996C20.8466 28.1694 19.7801 26.5929 18.6493 25.0635Z" fill="#00EBED"/>
<path d="M20.3107 29.7678C16.018 29.6994 11.7147 29.6918 7.42547 29.8881C6.85298 29.914 6.1791 29.9064 5.50639 29.9565C5.42031 28.8905 5.34307 27.8246 5.27999 26.7604C5.24343 26.1443 5.33541 25.9232 5.6414 25.415C6.38191 24.1863 7.20732 22.9995 8.02153 21.8309C9.26024 20.0527 10.7354 17.9591 12.8979 19.6701C16.0522 22.1646 18.5544 25.8607 20.6668 29.3233C20.9286 29.7525 20.7741 29.7767 20.3107 29.7684V29.7678Z" fill="#5CFFCD"/>
<path d="M3.59379 31.954C3.60853 31.9433 3.68989 31.836 3.68871 31.8372C3.75416 31.7677 3.82432 31.6987 3.89978 31.6409C4.12559 31.4658 4.39916 31.3602 4.6798 31.316C5.34838 31.2111 6.04644 31.2034 6.72092 31.1669C10.6823 30.9523 14.659 30.9534 18.6251 30.9912C20.8195 31.0124 23.0139 31.0531 25.2072 31.1368C25.8021 31.1592 29.9981 31.0814 29.741 32.0919C29.4816 32.8814 28.6651 32.8153 27.9923 32.8531C27.2442 32.8943 26.4954 32.925 25.7466 32.9503C23.8464 33.0164 21.945 33.0512 20.0436 33.0724C16.0457 33.1172 12.0442 33.1119 8.04806 32.9957C7.26805 32.9733 6.48804 32.9456 5.7092 32.9073C5.12906 32.8784 4.47757 32.9144 3.90981 32.7894C3.53012 32.7057 3.41869 32.2711 3.59379 31.954Z" fill="#FFC522"/>
<path d="M27.8379 13.4388C27.6516 11.864 27.6026 9.70969 25.5721 9.38601C24.706 9.24746 23.8317 9.16433 22.9562 9.11244C20.8861 8.99099 18.8108 8.9621 16.7379 8.99866C14.6478 9.0358 12.556 9.10832 10.4712 9.27458C9.63521 9.3412 8.7986 9.40959 7.96729 9.51925C5.57949 9.83409 5.61958 12.2201 5.42561 14.1115C5.06479 17.6372 5.03295 21.154 5.17622 24.6732C6.18145 22.9605 7.3441 21.2654 8.61936 19.8251C9.5963 18.722 10.7566 17.748 12.2742 18.3877C14.343 19.2597 16.0775 21.7377 17.4147 23.4363C17.5503 23.6084 17.68 23.7853 17.8139 23.9586C18.9523 22.5625 21.3861 19.0563 23.5487 20.048C24.8864 20.6617 25.7808 22.0867 26.5809 23.2588C27.0938 24.0093 27.6127 24.767 28.1032 25.5399C28.2907 21.5036 28.3137 17.4615 27.8367 13.4388H27.8379ZM16.0604 16.8666C15.1914 15.4398 15.3459 13.6003 16.8175 12.6257C18.1558 11.739 19.8279 11.9442 20.8307 13.2218C23.2751 16.3366 18.2955 20.2272 16.0604 16.8672V16.8666Z" fill="#E5E5E5"/>
<path d="M17.0161 13.4117C17.8197 12.6582 19.0814 12.617 19.9169 13.3197C22.4698 15.4676 18.5107 19.2055 16.7049 16.4899C16.0604 15.4328 16.0887 14.2819 17.0167 13.4117H17.0161Z" fill="#FF7A0D"/>
<path d="M7.32229 32.5624C6.71149 32.5453 4.59667 32.642 3.51656 32.2021C3.49003 32.4633 3.62327 32.7263 3.90981 32.7888C4.47757 32.9138 5.12906 32.8784 5.7092 32.9067C6.48804 32.945 7.26805 32.9727 8.04806 32.9951C12.0448 33.1113 16.0463 33.116 20.0436 33.0718C21.945 33.0506 23.8464 33.0158 25.7466 32.9497C26.4954 32.9244 27.2442 32.8937 27.9923 32.8525C28.6144 32.8177 29.3549 32.8631 29.6679 32.2452C28.7364 32.5117 27.4664 32.4716 26.9423 32.4987C25.4595 32.5765 23.9755 32.6219 22.491 32.6555C19.6298 32.7186 16.7668 32.7192 13.9055 32.6909C11.7105 32.6691 9.51611 32.6237 7.32229 32.5612V32.5624Z" fill="#FFA222"/>
<path d="M18.6251 30.9912C14.659 30.9534 10.6823 30.9523 6.72092 31.1669C6.04644 31.2034 5.34779 31.2111 4.6798 31.316C4.39916 31.3602 4.12559 31.4658 3.89978 31.6409C3.89035 31.648 3.8821 31.658 3.87266 31.6657C8.31986 31.1173 12.8985 31.4404 17.3616 31.4163C20.1958 31.4009 23.0334 31.3667 25.8669 31.4345C27.1292 31.4646 28.372 31.5861 29.6119 31.7323C28.9044 31.1014 25.7201 31.1557 25.2078 31.1362C23.0145 31.0525 20.8201 31.0112 18.6257 30.9906L18.6251 30.9912Z" fill="#FBE134"/>
<path d="M22.3283 34.2828C21.7652 34.2928 21.7316 34.4237 21.8908 34.817C22.3088 35.8464 22.7628 36.8611 23.2238 37.8704C23.8134 39.1586 24.4189 40.4445 25.0981 41.6891C25.4076 42.2563 25.6694 42.7787 26.3109 43.0186C26.8026 43.2032 27.6298 43.2934 27.987 42.8087C28.046 42.7286 28.0808 42.6389 28.1038 42.5458C27.6681 42.8034 27.1681 42.8417 26.6121 42.7303C26.1098 42.6301 25.8469 42.1608 25.5922 41.7675C25.0893 40.9899 24.683 40.1462 24.2727 39.3178C23.8063 38.3769 23.3359 37.4265 22.9491 36.4495C22.8382 36.1707 22.7592 35.8806 22.6832 35.5905C22.4515 34.7038 23.2303 34.6967 23.6867 34.6378C24.0628 34.5888 24.4914 34.5063 24.8835 34.5758C24.739 34.3229 24.6205 34.2292 24.1925 34.241C23.5717 34.2575 22.9503 34.2722 22.3289 34.2834L22.3283 34.2828Z" fill="#C48D51"/>
<path d="M17.2962 43.2968C17.555 43.2497 17.7466 43.1589 17.8893 43.0298C17.1801 43.0227 16.5215 42.9289 16.0764 42.2468C15.5693 41.468 15.8889 39.8431 15.8965 38.9575C15.903 38.1551 15.9207 37.3545 15.975 36.5538C16.0257 35.8009 15.9773 35.0681 16.9136 34.7073C17.117 34.6289 17.6317 34.5669 17.9937 34.5699C17.9866 34.4915 17.9795 34.4119 17.973 34.3329C17.219 34.3376 16.4649 34.3411 15.7102 34.3423C15.5982 35.7856 15.5115 37.2318 15.4626 38.6787C15.4373 39.4239 15.4213 40.1697 15.4243 40.9155C15.4266 41.4921 15.3524 42.1955 15.5045 42.7562C15.6678 43.3576 16.8015 43.3876 17.2962 43.2968Z" fill="#C48D51"/>
<path d="M16.9 7.28304C15.8016 7.365 15.3087 6.60621 15.0464 5.74365C15.0399 5.88456 15.0363 6.02724 15.0363 6.17228C15.0375 6.55963 15.0646 6.9458 15.0941 7.33139C15.1265 7.75589 15.2067 7.78831 15.6306 7.77711C16.1825 7.76296 16.7343 7.75353 17.2862 7.74881C17.769 7.74527 18.078 7.71815 18.0945 7.26359C18.1016 7.06136 18.1022 6.85855 18.0998 6.65632C17.7973 7.00417 17.3858 7.24708 16.9 7.28304Z" fill="#C48D51"/>
<path d="M7.70493 42.8022C8.17777 42.472 8.436 41.8017 8.69837 41.3046C9.79145 39.2335 10.7943 37.0838 11.6669 34.9012C11.8532 34.4372 11.8532 34.324 11.1834 34.3146C10.5886 34.3063 9.99308 34.2946 9.3982 34.2798C8.98196 34.2698 8.81157 34.3765 8.62939 34.7179C9.50786 34.3777 11.0661 34.4355 10.7265 35.7431C10.4418 36.8386 9.96302 37.8297 9.46482 38.8414C8.71959 40.3548 8.10997 42.4549 6.44087 43.1636C6.88777 43.1889 7.3612 43.0415 7.70552 42.801L7.70493 42.8022Z" fill="#C48D51"/>
<path d="M17.4866 5.14166C17.4784 5.07857 17.4253 4.7661 17.3345 4.48723C17.1747 3.99493 16.561 3.85107 16.2603 4.46895C15.8936 5.22243 16.0392 6.6498 16.9035 6.52835C17.5987 6.43107 17.5574 5.67051 17.486 5.14166H17.4866Z" fill="#F4C38E"/>
<path d="M8.73433 35.9826C7.86293 37.3752 6.60772 40.2753 6.33239 41.3336C6.15433 42.0204 6.17379 42.4208 6.57411 42.1902C7.39894 41.7145 7.91364 40.4298 8.32929 39.6374C8.91356 38.5225 9.38994 37.3315 9.88401 36.176C10.3032 35.1949 9.34514 35.0068 8.73433 35.9832V35.9826Z" fill="#F4C38E"/>
<path d="M16.7332 36.6954C16.6459 37.1305 16.528 39.9864 16.8204 41.3867C17.0716 42.5877 17.5821 42.1089 17.6435 41.2422C17.7313 40.0112 17.8463 37.1606 17.7119 36.528C17.4631 35.3541 16.92 35.7668 16.7332 36.6954Z" fill="#F4C38E"/>
<path d="M25.2968 36.3558C24.765 35.0817 23.6354 35.1465 23.8871 36.3074C23.9561 36.6258 25.0722 39.4328 26.0432 40.9126C26.8256 42.1053 27.6203 41.8465 27.1351 40.5294C26.644 39.1963 25.5998 37.0809 25.2968 36.3558Z" fill="#F4C38E"/>
<path d="M16.7043 16.4899C18.3857 19.018 21.9291 15.954 20.3526 13.7855C20.737 15.0743 19.8809 16.6243 18.4618 16.7877C16.8693 16.9716 16.2721 15.299 16.581 13.9565C16.1123 14.733 16.186 15.6403 16.7043 16.4899Z" fill="#EF6200"/>
<path d="M19.1976 13.7112C18.8038 13.4937 18.3816 13.489 17.9783 13.6776C17.2543 14.016 17.0692 15.1203 17.6995 15.6297C18.1735 16.0129 18.9193 15.872 19.3815 15.5513C20.3031 14.9122 19.7164 13.9989 19.1976 13.7112Z" fill="#FFB85A"/>
<path d="M20.3107 29.7678C20.7735 29.7761 20.9286 29.7519 20.6668 29.3227C19.796 27.8959 18.8574 26.4296 17.8363 25.024C18.1228 25.7793 18.2437 26.5699 18.055 27.3765C17.6122 29.272 15.0075 29.1564 13.5052 29.2401C11.2318 29.3675 7.06995 29.835 5.37727 28.1341C5.41972 28.7413 5.45745 29.3486 5.50639 29.9565C6.1791 29.9064 6.85299 29.914 7.42547 29.8881C11.7147 29.6917 16.018 29.6994 20.3107 29.7678Z" fill="#27D89D"/>
<path d="M14.1891 23.6851C13.8943 23.3266 13.6031 22.9398 13.2941 22.5666C11.9169 20.9052 11.4087 20.9541 10.0025 22.306C9.4884 22.8001 8.99493 23.3154 8.5492 23.8602C8.0799 24.4332 7.53513 25.2687 7.68901 26.051C7.9384 27.3157 10.5166 27.1264 11.3733 27.0852C12.4257 27.0345 14.9485 27.1282 15.1531 25.7109C15.261 24.9627 14.6266 24.2169 14.1897 23.6851H14.1891Z" fill="#D3FFEB"/>
<path d="M18.6233 24.1361C18.3003 24.5447 18.3138 24.6096 18.6493 25.0635C19.7801 26.5935 20.8466 28.1694 21.8271 29.7996C23.4496 29.8326 25.071 29.8763 26.6911 29.9582C26.8704 29.9671 27.0761 29.9765 27.299 29.9895C27.7671 30.0166 27.8473 29.9824 27.8756 29.5514C27.9163 28.927 27.9546 28.3021 27.9912 27.6771C28.0277 27.0469 27.9977 26.7509 27.7247 26.2616C27.7206 26.2539 27.7158 26.2462 27.7117 26.2386C27.7182 27.1671 27.3597 28.0875 26.5779 28.6381C25.6093 29.3209 23.6059 29.0567 22.6042 28.6287C21.4993 28.1571 20.8095 26.811 20.2535 25.8176C20.0153 25.3925 19.7848 24.9639 19.5631 24.5294C19.3308 24.0748 19.2554 23.6851 19.2795 23.3119C19.0431 23.602 18.8226 23.8838 18.6233 24.1367V24.1361Z" fill="#19BFBB"/>
<path d="M23.7432 22.1369C23.0705 21.4896 22.6348 21.5255 21.922 22.1523C21.6939 22.3527 21.504 22.6057 21.3513 22.8828C21.0082 23.5065 21.3266 24.2689 21.5925 24.8567C22.3123 26.4456 23.6295 27.8494 25.5379 27.2781C27.3792 26.7268 25.0822 23.424 23.7432 22.1369Z" fill="#6CFFFB"/>
<path d="M25.5721 9.38662C24.706 9.24807 23.8317 9.16494 22.9562 9.11305C20.8861 8.9916 18.8108 8.96271 16.7379 8.99927C14.6478 9.03641 12.556 9.10893 10.4712 9.27519C9.63521 9.34181 8.7986 9.4102 7.96729 9.51986C5.57949 9.8347 5.61958 12.2207 5.42561 14.1121C5.08778 17.4161 5.04003 20.7113 5.15323 24.0088C5.37963 22.8273 5.39849 21.6056 5.46512 20.4053C5.57301 18.4514 5.69269 16.4952 5.90376 14.549C6.06354 13.0762 6.18676 10.6088 7.89536 10.1248C8.68893 9.89955 9.60809 9.92549 10.4306 9.86359C11.4205 9.7893 12.4115 9.72681 13.4032 9.67846C15.893 9.55701 18.3869 9.54816 20.8773 9.63542C22.3572 9.6873 23.9189 9.68259 25.3752 9.965C26.5455 10.1926 27.0072 11.2149 27.2188 12.2832C27.8131 15.283 28.0631 18.3972 28.2223 21.4919C28.2488 18.804 28.1551 16.1173 27.8379 13.4394C27.6516 11.8646 27.6026 9.7103 25.5721 9.38662Z" fill="#C6C6C6"/>
<path d="M16.6011 12.2455C15.1784 13.1345 14.8424 15.3413 15.9284 16.6296C15.2126 15.2417 15.4249 13.5467 16.8169 12.6257C18.1552 11.739 19.8273 11.9442 20.8301 13.2218C21.3908 13.9364 21.5577 14.6904 21.4598 15.3897C21.6119 14.6592 21.5241 13.868 21.1774 13.2006C20.2907 11.4932 18.0951 11.3122 16.6011 12.2455Z" fill="#C6C6C6"/>
<path d="M26.8203 23.1002C25.9548 21.4695 24.7721 19.5451 22.873 19.0298C21.642 18.6961 20.4941 19.9312 19.7188 20.6977C19.0579 21.3504 18.4323 22.0632 17.8504 22.8054C17.4106 22.2601 16.9702 21.7147 16.5362 21.167C15.3954 19.729 13.9716 17.8677 12.0914 17.4191C10.5196 17.0441 9.01497 18.6088 8.18661 19.7196C7.37712 20.8062 6.59416 22.0278 6.01991 23.3054C6.81525 22.0708 7.68783 20.8793 8.62113 19.8245C9.59807 18.7214 10.7584 17.7474 12.2759 18.3871C14.3448 19.2591 16.0793 21.7371 17.4165 23.4357C17.5521 23.6079 17.6818 23.7847 17.8156 23.9581C18.9541 22.5619 21.3879 19.0557 23.5505 20.0474C24.8882 20.6611 25.7826 22.0862 26.5827 23.2582C27.0555 23.9498 27.5313 24.6497 27.9876 25.3601C27.6091 24.5736 27.2 23.813 26.8209 23.0996L26.8203 23.1002Z" fill="#F4F4F4"/>
</svg>
