<svg width="82" height="63" viewBox="0 0 82 63" fill="none" xmlns="http://www.w3.org/2000/svg">
<path d="M42.6357 0.259953C41.8099 0.247834 41.0759 0.826052 40.7885 1.58258C40.7816 1.60162 40.7747 1.6224 40.7677 1.64144C40.1462 1.77647 39.594 2.25082 39.5594 2.91906C39.5074 3.91796 40.3678 5.28213 41.5156 4.88742C41.8307 4.78009 41.6905 4.27978 41.3736 4.38884C40.6933 4.62255 40.2605 3.89372 40.1272 3.33974C40.0527 3.02812 40.0493 2.71651 40.2795 2.47068C40.3851 2.35815 40.5219 2.2716 40.6673 2.21273C40.6656 2.39105 40.6898 2.56936 40.7522 2.73382C40.8941 3.11815 41.2421 3.47997 41.6887 3.38475C42.0886 3.29992 42.3189 2.86539 42.2877 2.47934C42.2531 2.04308 41.8895 1.73493 41.481 1.63971C41.4342 1.62932 41.3875 1.62067 41.3408 1.61547C41.5866 1.12728 42.0834 0.770654 42.6391 0.77931C42.9733 0.784503 42.9681 0.265146 42.634 0.259953H42.6357ZM41.7164 2.36162C41.8134 2.50357 41.7857 2.82558 41.5883 2.87751C41.365 2.93464 41.2369 2.59013 41.2057 2.43086C41.1867 2.33046 41.1849 2.22658 41.1936 2.12271C41.3927 2.1331 41.6039 2.19715 41.7164 2.36335V2.36162Z" fill="#9B3508"/>
<path d="M28.9646 24.6022C28.9646 24.6022 21.8217 20.4352 24.0047 16.4673C26.1878 12.4994 30.9485 18.0548 30.9485 18.0548C30.9485 18.0548 26.9806 13.294 31.5441 6.94403C31.5441 7.14312 28.4366 3.9231 31.6098 1.7418C34.7848 -0.441226 36.7013 4.36456 36.7013 4.36456C36.7013 4.36456 41.6611 2.97614 45.4317 4.36456C45.4317 4.16547 45.7848 -0.375441 49.1572 1.21206C52.5295 2.79956 50.1924 5.95206 50.1924 5.95206C50.1924 5.95206 52.2145 8.35149 52.7719 11.5074C53.3674 14.8798 50.788 18.4512 50.788 18.4512C50.788 18.4512 55.5487 13.6905 58.1282 16.2682C60.7077 18.8477 53.1683 24.0066 53.1683 24.0066C53.1683 24.0066 57.7318 29.562 52.3755 36.1094C47.0192 42.6567 32.3369 38.8862 29.361 36.1094C26.3851 33.3326 26.186 28.371 28.9646 24.6022Z" fill="#AD5528"/>
<path d="M41.0674 39.4816C45.9981 39.4816 49.9951 35.3806 49.9951 30.3218C49.9951 25.2631 45.9981 21.1621 41.0674 21.1621C36.1367 21.1621 32.1396 25.2631 32.1396 30.3218C32.1396 35.3806 36.1367 39.4816 41.0674 39.4816Z" fill="#CE6D42"/>
<path d="M40.6916 14.5269C41.9087 14.5269 42.8954 13.5798 42.8954 12.4114C42.8954 11.243 41.9087 10.2959 40.6916 10.2959C39.4745 10.2959 38.4878 11.243 38.4878 12.4114C38.4878 13.5798 39.4745 14.5269 40.6916 14.5269Z" fill="#E98F79"/>
<path d="M41.7511 11.1772C41.7511 11.5668 41.2976 11.8818 40.7366 11.8818C40.1757 11.8818 39.7222 11.5668 39.7222 11.1772C39.7222 10.7877 40.1757 10.4727 40.7366 10.4727C41.2976 10.4727 41.7511 10.7877 41.7511 11.1772Z" fill="black"/>
<path d="M39.9351 13.0257C39.582 13.0257 39.26 12.7695 39.047 12.3229C39.0089 12.2432 39.0262 12.1359 39.0868 12.084C39.1457 12.032 39.2253 12.0563 39.2634 12.1359C39.4261 12.4804 39.672 12.6778 39.9351 12.6778C40.2987 12.6778 40.6224 12.2952 40.7418 11.7256C40.7609 11.6339 40.8319 11.5802 40.8994 11.6062C40.9669 11.6321 41.0067 11.7273 40.9877 11.8191C40.8371 12.5393 40.4129 13.0223 39.9351 13.0223V13.0257Z" fill="black"/>
<path d="M41.6369 13.0262C41.1574 13.0262 40.735 12.5432 40.5844 11.823C40.5653 11.7312 40.6051 11.636 40.6726 11.6101C40.7402 11.5841 40.8111 11.6378 40.8319 11.7295C40.9514 12.2991 41.2751 12.6817 41.6386 12.6817C41.9018 12.6817 42.1459 12.4843 42.3103 12.1398C42.3484 12.0584 42.4281 12.0359 42.4869 12.0879C42.5475 12.1398 42.5648 12.2471 42.5267 12.3268C42.3155 12.7734 41.9918 13.0296 41.6386 13.0296L41.6369 13.0262Z" fill="black"/>
<path d="M38.3112 10.2077C38.3112 10.7427 38.0151 11.1772 37.6498 11.1772C37.2846 11.1772 36.9885 10.7427 36.9885 10.2077C36.9885 9.67281 37.2846 9.23828 37.6498 9.23828C38.0151 9.23828 38.3112 9.67281 38.3112 10.2077Z" fill="black"/>
<path d="M36.0624 14.5268C36.9631 14.5268 37.6932 13.7177 37.6932 12.7195C37.6932 11.7213 36.9631 10.9121 36.0624 10.9121C35.1618 10.9121 34.4316 11.7213 34.4316 12.7195C34.4316 13.7177 35.1618 14.5268 36.0624 14.5268Z" fill="#FF9999"/>
<path d="M43.5586 10.2077C43.5586 10.7427 43.8546 11.1772 44.2199 11.1772C44.5852 11.1772 44.8812 10.7427 44.8812 10.2077C44.8812 9.67281 44.5852 9.23828 44.2199 9.23828C43.8546 9.23828 43.5586 9.67281 43.5586 10.2077Z" fill="black"/>
<path d="M45.8073 14.5268C46.708 14.5268 47.4381 13.7177 47.4381 12.7195C47.4381 11.7213 46.708 10.9121 45.8073 10.9121C44.9066 10.9121 44.1765 11.7213 44.1765 12.7195C44.1765 13.7177 44.9066 14.5268 45.8073 14.5268Z" fill="#FF9999"/>
<path d="M27.5122 20.4321C28.3398 20.4066 28.99 19.7149 28.9644 18.8873C28.9389 18.0597 28.2472 17.4096 27.4196 17.4351C26.592 17.4607 25.9419 18.1523 25.9674 18.9799C25.993 19.8075 26.6847 20.4577 27.5122 20.4321Z" fill="#EA8B65"/>
<path d="M25.3637 18.6577L25.2581 18.5763C25.1768 18.5296 25.0902 18.5054 24.9967 18.5054H24.9084C24.8375 18.5019 24.7699 18.5175 24.7076 18.5504C24.6436 18.5711 24.5882 18.6075 24.5397 18.6577C24.4895 18.7044 24.4531 18.7598 24.4324 18.8256C24.3995 18.8879 24.3856 18.9537 24.3874 19.0264C24.3943 19.0732 24.3995 19.1182 24.4064 19.1649C24.4306 19.2532 24.4756 19.3294 24.5397 19.3935L24.6453 19.4748C24.7267 19.5216 24.8132 19.5458 24.9067 19.5458H24.995C25.066 19.5493 25.1335 19.5337 25.1958 19.5008C25.2599 19.48 25.3153 19.4437 25.3637 19.3935C25.4139 19.3467 25.4503 19.2913 25.4711 19.2255C25.504 19.1632 25.5178 19.0974 25.5161 19.0247C25.5092 18.978 25.504 18.933 25.497 18.8862C25.4728 18.7979 25.4278 18.7218 25.3637 18.6577Z" fill="#EA8B65"/>
<path d="M25.717 17.1587L25.6114 17.0773C25.53 17.0306 25.4435 17.0063 25.35 17.0063H25.2617C25.1907 17.0029 25.1232 17.0185 25.0609 17.0513C24.9968 17.0721 24.9414 17.1085 24.893 17.1587C24.8428 17.2054 24.8064 17.2608 24.7856 17.3266C24.7527 17.3889 24.7389 17.4547 24.7406 17.5274C24.7475 17.5742 24.7527 17.6192 24.7597 17.6659C24.7839 17.7542 24.8289 17.8304 24.893 17.8944L24.9986 17.9758C25.0799 18.0225 25.1665 18.0468 25.26 18.0468H25.3483C25.4192 18.0502 25.4868 18.0347 25.5491 18.0018C25.6131 17.981 25.6685 17.9446 25.717 17.8944C25.7672 17.8477 25.8036 17.7923 25.8243 17.7265C25.8572 17.6642 25.8711 17.5984 25.8694 17.5257C25.8624 17.4789 25.8572 17.4339 25.8503 17.3872C25.8261 17.2989 25.7811 17.2227 25.717 17.1587Z" fill="#EA8B65"/>
<path d="M26.2172 16.9228C26.2518 16.9505 26.2864 16.9764 26.3228 17.0041C26.4042 17.0509 26.4907 17.0751 26.5842 17.0751H26.6725C26.7435 17.0786 26.811 17.063 26.8733 17.0301C26.9374 17.0093 26.9928 16.973 27.0412 16.9228C27.0914 16.876 27.1278 16.8206 27.1486 16.7548C27.1815 16.6925 27.1953 16.6267 27.1936 16.554C27.1867 16.5073 27.1815 16.4623 27.1745 16.4155C27.1503 16.3272 27.1053 16.2511 27.0412 16.187C27.0066 16.1593 26.972 16.1333 26.9356 16.1056C26.8543 16.0589 26.7677 16.0347 26.6742 16.0347H26.5859C26.515 16.0312 26.4474 16.0468 26.3851 16.0797C26.3211 16.1004 26.2657 16.1368 26.2172 16.187C26.167 16.2337 26.1306 16.2891 26.1099 16.3549C26.077 16.4172 26.0631 16.483 26.0648 16.5557C26.0718 16.6025 26.077 16.6475 26.0839 16.6942C26.1081 16.7825 26.1531 16.8587 26.2172 16.9228Z" fill="#EA8B65"/>
<path d="M56.1259 19.2785C56.3161 18.4726 55.817 17.6652 55.0112 17.475C54.2053 17.2848 53.3979 17.7839 53.2077 18.5897C53.0175 19.3956 53.5166 20.203 54.3224 20.3932C55.1282 20.5834 55.9357 20.0843 56.1259 19.2785Z" fill="#EA8B65"/>
<path d="M56.7709 18.6577L56.8765 18.5763C56.9579 18.5296 57.0444 18.5054 57.1379 18.5054H57.2262C57.2972 18.5019 57.3647 18.5175 57.427 18.5504C57.4911 18.5711 57.5465 18.6075 57.5949 18.6577C57.6451 18.7044 57.6815 18.7598 57.7023 18.8256C57.7352 18.8879 57.749 18.9537 57.7473 19.0264C57.7404 19.0732 57.7352 19.1182 57.7282 19.1649C57.704 19.2532 57.659 19.3294 57.5949 19.3935L57.4893 19.4748C57.408 19.5216 57.3214 19.5458 57.2279 19.5458H57.1396C57.0687 19.5493 57.0011 19.5337 56.9388 19.5008C56.8748 19.48 56.8194 19.4437 56.7709 19.3935C56.7207 19.3467 56.6843 19.2913 56.6636 19.2255C56.6307 19.1632 56.6168 19.0974 56.6186 19.0247C56.6255 18.978 56.6307 18.933 56.6376 18.8862C56.6618 18.7979 56.7068 18.7218 56.7709 18.6577Z" fill="#EA8B65"/>
<path d="M56.4179 17.1587L56.5235 17.0773C56.6048 17.0306 56.6914 17.0063 56.7849 17.0063H56.8732C56.9441 17.0029 57.0117 17.0185 57.074 17.0513C57.138 17.0721 57.1934 17.1085 57.2419 17.1587C57.2921 17.2054 57.3285 17.2608 57.3492 17.3266C57.3821 17.3889 57.396 17.4547 57.3943 17.5274C57.3873 17.5742 57.3821 17.6192 57.3752 17.6659C57.351 17.7542 57.306 17.8304 57.2419 17.8944L57.1363 17.9758C57.0549 18.0225 56.9684 18.0468 56.8749 18.0468H56.7866C56.7156 18.0502 56.6481 18.0347 56.5858 18.0018C56.5217 17.981 56.4663 17.9446 56.4179 17.8944C56.3677 17.8477 56.3313 17.7923 56.3105 17.7265C56.2776 17.6642 56.2638 17.5984 56.2655 17.5257C56.2724 17.4789 56.2776 17.4339 56.2846 17.3872C56.3088 17.2989 56.3538 17.2227 56.4179 17.1587Z" fill="#EA8B65"/>
<path d="M55.9175 16.9228C55.8828 16.9505 55.8482 16.9764 55.8119 17.0041C55.7305 17.0509 55.6439 17.0751 55.5504 17.0751H55.4622C55.3912 17.0786 55.3237 17.063 55.2613 17.0301C55.1973 17.0093 55.1419 16.973 55.0934 16.9228C55.0432 16.876 55.0068 16.8206 54.9861 16.7548C54.9532 16.6925 54.9393 16.6267 54.9411 16.554C54.948 16.5073 54.9532 16.4623 54.9601 16.4155C54.9843 16.3272 55.0294 16.2511 55.0934 16.187C55.128 16.1593 55.1627 16.1333 55.199 16.1056C55.2804 16.0589 55.3669 16.0347 55.4604 16.0347H55.5487C55.6197 16.0312 55.6872 16.0468 55.7495 16.0797C55.8136 16.1004 55.869 16.1368 55.9175 16.187C55.9677 16.2337 56.004 16.2891 56.0248 16.3549C56.0577 16.4172 56.0715 16.483 56.0698 16.5557C56.0629 16.6025 56.0577 16.6475 56.0508 16.6942C56.0265 16.7825 55.9815 16.8587 55.9175 16.9228Z" fill="#EA8B65"/>
<path d="M34.4716 3.97532C34.4197 3.81432 34.3297 3.67583 34.2033 3.55811C34.0856 3.43173 33.9471 3.34171 33.7861 3.28977C33.632 3.20841 33.4641 3.17205 33.2857 3.17724C33.1715 3.19282 33.0555 3.20841 32.9412 3.22399C32.7214 3.28631 32.5309 3.3971 32.3682 3.55811C32.3007 3.6464 32.2332 3.73296 32.1657 3.82125C32.0479 4.0238 31.9891 4.24193 31.9891 4.47737V4.56566C31.9822 4.74397 32.0202 4.9119 32.1016 5.06597C32.1535 5.22697 32.2436 5.36547 32.3699 5.48319C32.4877 5.60957 32.6262 5.69959 32.7872 5.75152C32.9412 5.83289 33.1092 5.86924 33.2875 5.86405C33.4017 5.84847 33.5177 5.83289 33.632 5.81731C33.8518 5.75498 34.0423 5.64419 34.205 5.48319C34.2725 5.3949 34.34 5.30834 34.4076 5.22005C34.5253 5.0175 34.5841 4.79937 34.5841 4.56393V4.47564C34.5911 4.29732 34.553 4.1294 34.4716 3.97532Z" fill="#EA8B65"/>
<path d="M49.3737 3.97532C49.3218 3.81432 49.2318 3.67583 49.1054 3.55811C48.9877 3.43173 48.8492 3.34171 48.6882 3.28977C48.5341 3.20841 48.3662 3.17205 48.1878 3.17724C48.0736 3.19282 47.9576 3.20841 47.8433 3.22399C47.6235 3.28631 47.433 3.3971 47.2703 3.55811L47.0678 3.82125C46.95 4.0238 46.8912 4.24193 46.8912 4.47737V4.56566C46.8843 4.74397 46.9223 4.9119 47.0037 5.06597C47.0556 5.22697 47.1457 5.36547 47.272 5.48319C47.3898 5.60957 47.5283 5.69959 47.6893 5.75152C47.8433 5.83289 48.0113 5.86924 48.1896 5.86405L48.5341 5.81731C48.7539 5.75498 48.9444 5.64419 49.1071 5.48319C49.1746 5.3949 49.2421 5.30834 49.3097 5.22005C49.4274 5.0175 49.4862 4.79937 49.4862 4.56393V4.47564C49.4932 4.29732 49.4551 4.1294 49.3737 3.97532Z" fill="#EA8B65"/>
<path d="M44.4397 17.3709C42.8332 18.7749 40.5065 19.2735 38.4533 18.7056C37.8733 18.5446 37.3141 18.3075 36.8052 17.9855C36.4312 17.7483 36.0158 18.3023 36.3914 18.5412C38.3996 19.8136 41.0102 19.9573 43.1759 18.993C43.7905 18.7195 44.3653 18.3559 44.8708 17.9127C45.2066 17.6202 44.7756 17.0766 44.4397 17.3709Z" fill="#9B3508"/>
<path d="M30.0328 18.3197C30.0484 19.7341 28.8989 21.1069 27.4759 21.2766C27.2906 21.2991 27.1296 21.4202 27.1296 21.6228C27.1296 21.7925 27.2889 21.9915 27.4759 21.969C29.2711 21.7561 30.7444 20.1461 30.7253 18.3197C30.7201 17.8748 30.0276 17.873 30.0328 18.3197Z" fill="#9B3508"/>
<path d="M54.015 21.3231C52.6768 21.0063 51.645 19.8551 51.4476 18.4961C51.4217 18.3109 51.1862 18.2087 51.0218 18.2537C50.8227 18.3091 50.7534 18.4944 50.7794 18.6796C51.0079 20.2602 52.2803 21.6244 53.8298 21.9896C54.2625 22.0918 54.4478 21.4253 54.0133 21.3214L54.015 21.3231Z" fill="#9B3508"/>
<g style="mix-blend-mode:multiply">
<path d="M38.9777 62.4818C60.5045 62.4818 77.9555 57.0647 77.9555 50.3825C77.9555 43.7002 60.5045 38.2832 38.9777 38.2832C17.4509 38.2832 0 43.7002 0 50.3825C0 57.0647 17.4509 62.4818 38.9777 62.4818Z" fill="#FFDF5A"/>
</g>
<path d="M40.7626 60.2468C60.3132 60.2468 76.162 55.3266 76.162 49.2572C76.162 43.1878 60.3132 38.2676 40.7626 38.2676C21.2121 38.2676 5.36328 43.1878 5.36328 49.2572C5.36328 55.3266 21.2121 60.2468 40.7626 60.2468Z" fill="#C875D1"/>
<path d="M20.0005 49.2572C20.0005 43.3175 29.7852 38.4805 42.0143 38.2745C41.5988 38.2693 41.1816 38.2676 40.7626 38.2676C21.2123 38.2676 5.36328 43.1876 5.36328 49.2572C5.36328 55.3267 21.2123 60.2468 40.7626 60.2468C41.1816 60.2468 41.5988 60.2433 42.0143 60.2398C29.7852 60.0356 20.0005 55.1969 20.0005 49.2572Z" fill="#A351AF"/>
<path d="M46.5535 38.415C57.3803 39.2737 65.6416 43.8008 65.6416 49.2575C65.6416 54.7142 57.3821 59.2413 46.5535 60.0999C63.3495 59.2413 76.1637 54.7142 76.1637 49.2575C76.1637 43.8008 63.3495 39.2737 46.5535 38.415Z" fill="#A351AF"/>
<path d="M40.7626 57.9183C62.2895 57.9183 79.7404 52.5013 79.7404 45.819C79.7404 39.1368 62.2895 33.7197 40.7626 33.7197C19.2358 33.7197 1.78491 39.1368 1.78491 45.819C1.78491 52.5013 19.2358 57.9183 40.7626 57.9183Z" fill="#EFB3F2"/>
<path d="M40.7626 57.9183C62.2895 57.9183 79.7404 52.5013 79.7404 45.819C79.7404 39.1368 62.2895 33.7197 40.7626 33.7197C19.2358 33.7197 1.78491 39.1368 1.78491 45.819C1.78491 52.5013 19.2358 57.9183 40.7626 57.9183Z" stroke="#DA92E0" stroke-width="3" stroke-miterlimit="10"/>
<path d="M40.7626 56.8083C60.3132 56.8083 76.162 51.8881 76.162 45.8187C76.162 39.7493 60.3132 34.8291 40.7626 34.8291C21.2121 34.8291 5.36328 39.7493 5.36328 45.8187C5.36328 51.8881 21.2121 56.8083 40.7626 56.8083Z" fill="#FCD7FB"/>
<path d="M40.7626 53.7754C54.9168 53.7754 66.3911 50.2131 66.3911 45.8189C66.3911 41.4246 54.9168 37.8623 40.7626 37.8623C26.6083 37.8623 15.134 41.4246 15.134 45.8189C15.134 50.2131 26.6083 53.7754 40.7626 53.7754Z" fill="#EFB3F2"/>
<path d="M40.7625 56.3156C59.4363 56.3156 74.5744 51.6163 74.5744 45.8194C74.5744 40.0226 59.4363 35.3232 40.7625 35.3232C22.0888 35.3232 6.95068 40.0226 6.95068 45.8194C6.95068 51.6163 22.0888 56.3156 40.7625 56.3156Z" stroke="white" stroke-width="1.02" stroke-miterlimit="10"/>
<path d="M56.0785 40.2557C56.0785 40.2557 52.1262 39.9268 53.4437 43.5484C54.7611 47.1701 59.5357 46.3477 59.5357 46.3477C59.5357 46.3477 62.9929 49.3115 67.1097 46.3477C67.2741 46.8411 70.5669 48.323 73.8613 44.8658C77.154 41.4087 73.5324 40.0912 73.5324 40.0912C73.5324 40.0912 74.1902 37.2919 71.2264 34.657C68.2627 32.0221 62.0061 32.3511 60.5242 36.1389C60.0308 35.6455 55.9141 34.9859 56.0785 40.2557Z" fill="white"/>
<path d="M68.9273 39.9264C70.2604 38.0239 69.2251 36.4104 67.4351 35.1553C65.6433 33.9019 63.7736 33.4812 62.4423 35.3838C61.1093 37.2864 60.0619 41.8723 61.8537 43.1274C63.6455 44.3808 67.5961 41.829 68.9291 39.9264H68.9273Z" fill="#F93D3D"/>
<path d="M70.4871 37.0162C70.191 36.7496 69.8569 36.5263 69.4985 36.3532C69.8915 36.3255 70.281 36.2614 70.6584 36.1385C71.1934 35.9636 71.9776 35.5793 72.0901 34.9647C72.1992 34.3727 71.7231 33.8187 71.2418 33.5521C70.7173 33.263 70.0871 33.218 69.5107 33.3565C68.813 33.5244 68.1984 33.9122 67.6081 34.3086C67.7223 33.5071 67.6358 32.683 67.3328 31.9248C67.1562 31.4816 66.8706 30.9951 66.353 30.9207C65.8302 30.8445 65.4978 31.234 65.496 31.7326C65.496 32.0788 65.5653 32.4303 65.6068 32.7748C65.6363 33.0102 65.664 33.2439 65.6934 33.4794C65.3904 33.1955 65.0303 32.9739 64.6356 32.8371C64.1301 32.6605 63.5104 32.5757 62.9962 32.7627C62.5097 32.941 62.1981 33.4084 62.5184 33.8845C62.8439 34.3692 63.4169 34.7172 63.9345 34.9613C64.4781 35.2175 65.058 35.3854 65.6397 35.536C65.1359 35.9688 65.1273 36.8102 65.6778 37.2568C66.2803 37.7416 67.1008 37.5373 67.5267 36.966C67.641 37.2343 67.8366 37.4646 68.0617 37.6602C68.4442 37.9926 68.9099 38.3042 69.4137 38.4029C69.8188 38.4825 70.281 38.396 70.5823 38.0999C70.7346 37.951 70.8506 37.7398 70.8246 37.52C70.7987 37.307 70.6359 37.153 70.4836 37.0162H70.4871Z" fill="#A2C914"/>
<path d="M64.2496 37.6773C63.9553 38.3473 63.4446 38.7714 63.1087 38.6243C62.7729 38.4771 62.7417 37.8141 63.036 37.1441C63.3303 36.4741 63.841 36.05 64.1769 36.1971C64.5127 36.3443 64.5439 37.0073 64.2496 37.6773Z" fill="black"/>
<path d="M67.0249 39.6579C66.4968 40.1652 65.8632 40.3608 65.6087 40.0959C65.356 39.8311 65.5793 39.2061 66.1073 38.7006C66.6353 38.1934 67.269 37.9977 67.5234 38.2626C67.7762 38.5275 67.5529 39.1524 67.0249 39.6579Z" fill="black"/>
<path d="M65.1793 39.2199C65.1326 39.1663 65.0321 39.1403 64.9767 39.1974C64.9594 39.2148 64.9421 39.2303 64.9231 39.2442C64.9179 39.2476 64.9006 39.2563 64.904 39.2563C64.8988 39.2598 64.8936 39.2615 64.8885 39.2632C64.8781 39.2684 64.866 39.2736 64.8556 39.2771C64.8521 39.2771 64.8486 39.2788 64.8469 39.2805C64.8244 39.2857 64.8036 39.2909 64.7811 39.2927C64.7759 39.2927 64.7396 39.2927 64.7707 39.2927C64.7586 39.2927 64.7465 39.2927 64.7344 39.2927C64.724 39.2927 64.7153 39.2909 64.705 39.2892C64.7015 39.2892 64.6842 39.284 64.679 39.284C64.6738 39.2823 64.6669 39.2805 64.6669 39.2805C64.6547 39.2771 64.6444 39.2719 64.634 39.2684C64.627 39.265 64.5976 39.2459 64.6253 39.265C64.6149 39.258 64.6045 39.2528 64.5959 39.2459C64.5872 39.239 64.5786 39.2321 64.5716 39.2251C64.5716 39.2251 64.5682 39.2217 64.5665 39.2199C64.5509 39.2044 64.5388 39.1871 64.5266 39.168C64.5249 39.1663 64.5266 39.1663 64.5232 39.1645C64.5232 39.1645 64.5232 39.1645 64.5214 39.1594C64.5163 39.149 64.5111 39.1386 64.5059 39.1265C64.5024 39.1178 64.4989 39.1109 64.4972 39.1022C64.4972 39.1022 64.4937 39.0901 64.492 39.0814C64.4868 39.0589 64.4851 39.0382 64.4834 39.0157C64.4834 39.0157 64.4834 39.0157 64.4834 39.0122C64.4834 39.0001 64.4834 38.988 64.4851 38.9758C64.4851 38.9637 64.4885 38.9516 64.4903 38.9395C64.4868 38.9707 64.4903 38.9378 64.4937 38.9291C64.5007 38.9066 64.5111 38.8841 64.5214 38.8633C64.5561 38.7958 64.5041 38.6989 64.4366 38.6781C64.3552 38.6521 64.2877 38.6902 64.2514 38.7629C64.1302 39.0018 64.215 39.3238 64.4297 39.4796C64.6461 39.6354 64.9767 39.6147 65.1654 39.4242C65.2191 39.3706 65.2433 39.284 65.1879 39.2217L65.1793 39.2199Z" fill="#A30000"/>
<path d="M62.4579 41.0183C62.3592 41.2416 62.0996 41.3438 61.8762 41.2451C61.6529 41.1464 61.5508 40.8867 61.6495 40.6634C61.7481 40.4401 62.3679 40.125 62.3679 40.125C62.3679 40.125 62.5566 40.795 62.4579 41.0183Z" fill="#FACE6E"/>
<path d="M64.3623 42.3272C64.1597 42.4622 63.8845 42.4086 63.7495 42.206C63.6144 42.0035 63.6681 41.7282 63.8706 41.5932C64.0732 41.4582 64.7657 41.5257 64.7657 41.5257C64.7657 41.5257 64.5648 42.1922 64.3623 42.3272Z" fill="#FACE6E"/>
<path d="M62.8994 42.667C62.7817 42.88 62.5134 42.9579 62.2987 42.8402C62.084 42.7224 62.0079 42.4541 62.1256 42.2394C62.2433 42.0265 62.889 41.7686 62.889 41.7686C62.889 41.7686 63.0171 42.4524 62.8994 42.667Z" fill="#FACE6E"/>
<path d="M64.0868 40.6081C63.9882 40.8315 63.7285 40.9336 63.5052 40.8349C63.2818 40.7362 63.1797 40.4766 63.2784 40.2532C63.377 40.0299 63.9968 39.7148 63.9968 39.7148C63.9968 39.7148 64.1855 40.3848 64.0868 40.6081Z" fill="#FACE6E"/>
<path d="M70.4871 37.0162C70.191 36.7496 69.8569 36.5263 69.4985 36.3532C69.8915 36.3255 70.281 36.2614 70.6584 36.1385C71.1934 35.9636 71.9776 35.5793 72.0901 34.9647C72.1992 34.3727 71.7231 33.8187 71.2418 33.5521C70.7173 33.263 70.0871 33.218 69.5107 33.3565C68.813 33.5244 68.1984 33.9122 67.6081 34.3086C67.7223 33.5071 67.6358 32.683 67.3328 31.9248C67.1562 31.4816 66.8706 30.9951 66.353 30.9207C65.8302 30.8445 65.4978 31.234 65.496 31.7326C65.496 32.0788 65.5653 32.4303 65.6068 32.7748C65.6363 33.0102 65.664 33.2439 65.6934 33.4794C65.3904 33.1955 65.0303 32.9739 64.6356 32.8371C64.1301 32.6605 63.5104 32.5757 62.9962 32.7627C62.5097 32.941 62.1981 33.4084 62.5184 33.8845C62.8439 34.3692 63.4169 34.7172 63.9345 34.9613C64.4781 35.2175 65.058 35.3854 65.6397 35.536C65.1359 35.9688 65.1273 36.8102 65.6778 37.2568C66.2803 37.7416 67.1008 37.5373 67.5267 36.966C67.641 37.2343 67.8366 37.4646 68.0617 37.6602C68.4442 37.9926 68.9099 38.3042 69.4137 38.4029C69.8188 38.4825 70.281 38.396 70.5823 38.0999C70.7346 37.951 70.8506 37.7398 70.8246 37.52C70.7987 37.307 70.6359 37.153 70.4836 37.0162H70.4871Z" stroke="#90B200" stroke-width="2" stroke-miterlimit="10"/>
<path d="M57.4601 41.9259C57.429 41.8272 57.3736 41.7424 57.2974 41.6714C57.2264 41.5935 57.1416 41.5398 57.0429 41.5087C56.9494 41.4585 56.8473 41.436 56.7382 41.4412L56.5288 41.4689C56.3955 41.5069 56.2795 41.5745 56.1808 41.6714C56.1392 41.7251 56.0977 41.7787 56.0579 41.8307C55.9869 41.9536 55.9505 42.0869 55.9505 42.2288V42.3933C55.9471 42.5024 55.9696 42.6028 56.0181 42.698C56.0492 42.7967 56.1046 42.8815 56.1808 42.9525C56.2518 43.0304 56.3366 43.0841 56.4353 43.1152C56.5288 43.1654 56.6309 43.1879 56.74 43.1827L56.9494 43.155C57.0827 43.117 57.1987 43.0494 57.2974 42.9525C57.339 42.8988 57.3805 42.8452 57.4203 42.7932C57.4913 42.6703 57.5277 42.537 57.5277 42.395V42.2306C57.5311 42.1215 57.5086 42.0211 57.4601 41.9259Z" fill="#FFF1E3"/>
<path d="M59.2864 37.7072C58.8484 37.4042 58.2183 37.47 57.8686 37.8769C57.6279 38.1573 57.5102 38.5815 57.6003 38.945C57.5812 39.1753 57.6297 39.4038 57.7474 39.6271C57.8755 39.8729 58.1594 40.0149 58.4295 40.0183C58.9333 40.0253 59.4526 39.7604 59.6915 39.3051C59.9841 38.7442 59.8041 38.0638 59.2864 37.7055V37.7072Z" fill="#FFF1E3"/>
<path d="M69.9731 42.5841C69.9419 42.4854 69.8865 42.4006 69.8103 42.3296C69.7394 42.2517 69.6545 42.198 69.5559 42.1669C69.4624 42.1167 69.3602 42.0942 69.2512 42.0994C69.1819 42.108 69.1109 42.1184 69.0417 42.1271C68.9084 42.1651 68.7924 42.2327 68.6937 42.3296C68.6522 42.3833 68.6106 42.4369 68.5708 42.4889C68.4998 42.6118 68.4635 42.7451 68.4635 42.8871V43.0515C68.46 43.1606 68.4825 43.261 68.531 43.3562C68.5622 43.4549 68.6176 43.5397 68.6937 43.6107C68.7647 43.6886 68.8495 43.7423 68.9482 43.7734C69.0417 43.8236 69.1438 43.8461 69.2529 43.8409C69.3222 43.8323 69.3931 43.8219 69.4624 43.8132C69.5957 43.7752 69.7117 43.7076 69.8103 43.6107C69.8519 43.557 69.8934 43.5034 69.9333 43.4514C70.0042 43.3285 70.0406 43.1952 70.0406 43.0533V42.8888C70.0441 42.7797 70.0216 42.6793 69.9731 42.5841Z" fill="#FFF1E3"/>
<path d="M65.7941 44.2383C64.7778 44.2383 64.7761 45.8189 65.7941 45.8189C66.812 45.8189 66.812 44.2383 65.7941 44.2383Z" fill="#FFF1E3"/>
<path d="M71.2992 40.1566L71.5139 39.4122C71.7476 38.6037 72.601 38.1329 73.4095 38.3666C74.218 38.6003 74.6889 39.4538 74.4551 40.2622L74.2405 41.0066C74.0068 41.8151 73.1533 42.286 72.3448 42.0523C71.5364 41.8186 71.0655 40.9651 71.2992 40.1566Z" fill="#FCD067"/>
<path d="M71.8029 40.1739L71.9483 39.6684C72.1075 39.1179 72.6875 38.7976 73.238 38.9569C73.7885 39.1162 74.1088 39.6961 73.9495 40.2466L73.8041 40.7522C73.6448 41.3027 73.0649 41.6229 72.5144 41.4637C71.9639 41.3044 71.6436 40.7245 71.8029 40.1739Z" fill="#FFAF22"/>
<path d="M63.2681 43.8651L64.0402 43.8166C64.8798 43.7629 65.6121 44.4069 65.664 45.2483C65.7177 46.0879 65.0737 46.8202 64.2323 46.8722L63.4602 46.9206C62.6206 46.9743 61.8883 46.3303 61.8364 45.4889C61.7827 44.6493 62.4267 43.917 63.2681 43.8651Z" fill="#FCD067"/>
<path d="M63.4221 44.3446L63.9484 44.3117C64.5197 44.2753 65.0182 44.7133 65.0529 45.2863C65.0892 45.8576 64.6512 46.3562 64.0782 46.3908L63.5519 46.4237C62.9806 46.4601 62.482 46.0221 62.4474 45.4491C62.4111 44.8778 62.8491 44.3792 63.4221 44.3446Z" fill="#FFAF22"/>
<path d="M74.6231 42.104C73.8596 41.1328 72.4833 40.7554 71.3182 41.1224C70.1531 41.4894 70.6517 43.328 71.8237 42.9592C72.4089 42.774 72.9057 42.9765 73.2762 43.4509C73.5947 43.856 74.2889 43.7833 74.6231 43.4509C75.023 43.051 74.9416 42.5108 74.6231 42.104Z" fill="white"/>
<path d="M69.9228 40.503C67.9735 39.6599 65.8355 40.8631 65.7732 43.0548C65.7385 44.2805 67.6429 44.2805 67.6775 43.0548C67.6948 42.4246 68.3215 41.8689 68.962 42.1477C69.4329 42.3519 69.9834 42.2879 70.2639 41.8066C70.4993 41.405 70.3972 40.709 69.9228 40.503Z" fill="white"/>
<path d="M14.6424 42.2809C13.9811 41.6196 5.91199 45.0577 5.78042 46.3803C5.64885 47.703 8.55725 50.0834 12.262 48.6292C15.965 47.175 14.6424 42.2809 14.6424 42.2809Z" fill="#90B200"/>
<path d="M6.04006 45.9298C6.16817 46.231 6.4088 46.4855 6.71176 46.6257C7.0303 46.7728 7.30729 46.7382 7.63449 46.6534C7.78164 46.6153 7.81972 46.6828 7.88032 46.8092C7.94264 46.939 7.98419 47.081 8.05863 47.2056C8.35986 47.706 9.04194 47.9068 9.57342 47.68C9.88503 47.5467 10.0616 47.1849 10.4113 47.1485C10.7489 47.1139 11.0882 47.1918 11.4275 47.1485C11.7495 47.107 12.0715 46.9979 12.2983 46.7555C12.5459 46.4924 12.5926 46.1375 12.7069 45.8103C12.951 45.1057 13.4565 44.505 13.5448 43.745C13.6002 43.2776 13.498 42.7548 13.1778 42.4033C10.9895 43.0092 7.07878 44.8045 6.03833 45.9298H6.04006Z" fill="#BFD856"/>
<path d="M7.85785 46.0047C8.26641 46.2263 8.75114 46.2523 9.20471 46.228C9.74657 46.2004 10.2902 46.1069 10.7957 45.9061C11.7513 45.5269 12.603 44.734 12.7969 43.6884C12.8662 43.3197 12.861 42.892 12.6861 42.5527C11.0467 43.0738 8.76153 44.0848 7.27617 44.9989C7.26059 45.4196 7.48045 45.8022 7.85958 46.0065L7.85785 46.0047Z" fill="white"/>
<path d="M10.7817 44.3015C10.7817 44.3015 11.7166 42.7503 12.1217 43.77C12.5268 44.7914 10.7817 44.3015 10.7817 44.3015Z" fill="black"/>
<path d="M10.7297 45.1652C10.7297 45.1652 11.4724 46.8168 11.997 45.8525C12.5198 44.8865 10.7297 45.1652 10.7297 45.1652Z" fill="black"/>
<path d="M10.0495 45.4336C10.0495 45.4336 10.6381 47.1475 9.59592 46.8012C8.55374 46.4567 10.0495 45.4336 10.0495 45.4336Z" fill="black"/>
<path d="M9.42453 44.8538C9.42453 44.8538 7.67083 44.3968 8.09498 45.4095C8.51912 46.4223 9.42453 44.8538 9.42453 44.8538Z" fill="black"/>
<path d="M32.1672 21.6258C33.0813 20.5282 37.2916 20.7117 37.2916 20.7117L46.2574 49.4408L40.7678 49.9896L32.1672 21.6258Z" fill="#FFCF9F"/>
<path d="M29.4233 40.4734L40.7678 49.9898L32.1673 21.626L29.4233 40.4734Z" fill="#E89552"/>
<path d="M25.5801 22.9071L31.2532 22.7236L39.3049 49.0741L32.7178 49.6229L25.5801 22.9071Z" fill="white"/>
<path d="M39.6703 34.6084C40.3887 34.6084 40.3904 35.7267 39.6703 35.7267C38.9501 35.7267 38.9501 34.6084 39.6703 34.6084Z" fill="#F6B16E"/>
<path d="M37.2916 26.0078C38.01 26.0078 38.0118 27.1262 37.2916 27.1262C36.5714 27.1262 36.5714 26.0078 37.2916 26.0078Z" fill="#F6B16E"/>
<path d="M33.8155 23.2637C34.534 23.2637 34.5357 24.382 33.8155 24.382C33.0953 24.382 33.0953 23.2637 33.8155 23.2637Z" fill="#F6B16E"/>
<path d="M36.7428 30.3994C37.4612 30.3994 37.4629 31.5178 36.7428 31.5178C36.0226 31.5178 36.0226 30.3994 36.7428 30.3994Z" fill="#F6B16E"/>
<path d="M34.9269 39.8448C34.939 39.9521 34.9823 40.0577 35.0584 40.1408C35.235 40.3347 35.5553 40.3157 35.7353 40.1408C36.2131 39.6803 35.9829 38.7576 35.3164 38.6208C35.0965 38.5758 34.9026 38.6537 34.7763 38.8407C34.5685 39.1489 34.6585 39.6007 34.9269 39.8448Z" fill="#FEE7C5"/>
<mask id="mask0_918_9320" style="mask-type:luminance" maskUnits="userSpaceOnUse" x="25" y="22" width="15" height="28">
<path d="M25.5801 22.9071L31.2532 22.7236L39.3049 49.0741L32.7178 49.6229L25.5801 22.9071Z" fill="white"/>
</mask>
<g mask="url(#mask0_918_9320)">
<path d="M27.1052 29.1987C26.5321 30.8416 27.6055 31.7937 29.1514 32.3339C30.6974 32.874 32.1308 32.7961 32.7038 31.1532C33.2768 29.5103 33.1003 25.9925 31.5543 25.4524C30.0084 24.9123 27.6799 27.5558 27.1052 29.1987Z" fill="#F93D3D"/>
<path d="M27.6488 30.2424C27.8843 30.5662 28.234 30.7116 28.6166 30.6492C28.6044 30.49 28.6079 30.3203 28.6304 30.1455C28.1768 29.9256 27.8219 29.5863 27.6142 29.1223C27.4445 28.7415 28.028 28.4593 28.1959 28.8419C28.3205 29.1206 28.5179 29.3578 28.7862 29.5049C28.8676 29.2833 28.9697 29.0791 29.0874 28.899C28.7066 28.5787 28.4936 28.12 28.4798 27.6162C28.4746 27.4414 28.6616 27.3046 28.8243 27.315C29.013 27.3271 29.1203 27.4846 29.1255 27.6595C29.1342 27.9555 29.2831 28.2256 29.5081 28.4108C29.7886 28.1685 30.0985 28.0369 30.3945 28.0525C30.4828 27.7218 30.5711 27.3912 30.6594 27.0622C30.7667 26.6606 31.3778 26.8753 31.2705 27.2752C31.1753 27.6301 31.0818 27.9832 30.9866 28.3381C31.1424 28.5078 31.2514 28.7432 31.3051 29.0185C31.589 29.0185 31.8573 28.9042 32.0374 28.6688C32.2884 28.3398 32.8234 28.7051 32.5689 29.0375C32.2746 29.4236 31.8175 29.6659 31.3345 29.6711C31.3172 29.8771 31.2739 30.0918 31.2047 30.3065C31.518 30.3671 31.8366 30.2995 32.098 30.0883C32.4217 29.8287 32.8424 30.3186 32.5169 30.58C32.0703 30.9401 31.4817 31.0665 30.9364 30.9089C30.8446 31.0665 30.7407 31.2067 30.6299 31.3296C30.8896 31.5062 31.2289 31.4837 31.4973 31.3158C31.8504 31.0942 32.1274 31.6793 31.7777 31.8974C31.248 32.2298 30.5745 32.1329 30.1158 31.7382C29.8509 31.8767 29.5739 31.9165 29.3212 31.8282C29.0736 31.7416 28.8849 31.546 28.7637 31.2811C28.1595 31.4075 27.5173 31.1669 27.152 30.6631C26.9096 30.329 27.3995 29.9048 27.6436 30.2442L27.6488 30.2424Z" fill="#FF9999"/>
<path d="M29.4717 29.8544C29.1619 30.7407 29.129 31.5353 29.3973 31.6288C29.6656 31.7223 30.1331 31.08 30.4429 30.1937C30.7528 29.3073 30.7857 28.5127 30.5174 28.4192C30.249 28.3257 29.7816 28.968 29.4717 29.8544Z" fill="#FFCFCF"/>
<path d="M35.5862 40.8167C37.6051 40.7215 39.1646 39.0076 39.0694 36.9886C38.9742 34.9696 37.2603 33.4101 35.2414 33.5053C33.2224 33.6005 31.6629 35.3144 31.7581 37.3334C31.8533 39.3524 33.5672 40.9119 35.5862 40.8167Z" fill="#FCD067"/>
<path d="M33.2923 36.7088C33.043 37.8808 33.7909 39.032 34.9629 39.2813C36.1349 39.5306 37.2862 38.7827 37.5355 37.6107C37.7847 36.4387 37.0369 35.2875 35.8649 35.0382C34.6928 34.7889 33.5416 35.5367 33.2923 36.7088Z" fill="#FFAF22"/>
<path d="M38.3787 48.501C40.3122 47.9121 41.4023 45.8672 40.8133 43.9337C40.2244 42.0002 38.1796 40.9102 36.2461 41.4991C34.3125 42.088 33.2225 44.1329 33.8115 46.0664C34.4004 47.9999 36.4452 49.0899 38.3787 48.501Z" fill="#CCCC29"/>
<path d="M37.3107 47.6239C38.7583 47.6239 39.9317 46.4504 39.9317 45.0029C39.9317 43.5553 38.7583 42.3818 37.3107 42.3818C35.8632 42.3818 34.6897 43.5553 34.6897 45.0029C34.6897 46.4504 35.8632 47.6239 37.3107 47.6239Z" fill="#EFEA48"/>
<path d="M37.2034 44.1474C37.2034 44.1474 38.301 42.707 37.2034 42.707C36.1058 42.707 37.2034 44.1474 37.2034 44.1474Z" fill="black"/>
<path d="M36.419 44.514C36.419 44.514 34.6099 44.4309 35.3145 43.5895C36.0191 42.7482 36.419 44.514 36.419 44.514Z" fill="black"/>
<path d="M36.419 45.2451C36.419 45.2451 34.6099 45.3282 35.3145 46.1696C36.0191 47.0109 36.419 45.2451 36.419 45.2451Z" fill="black"/>
<path d="M37.1876 45.6133C37.1876 45.6133 38.2575 47.0761 37.1599 47.0536C36.0624 47.0329 37.1876 45.6133 37.1876 45.6133Z" fill="black"/>
</g>
<path d="M20.4575 21.6828C21.3733 20.5298 25.5818 20.722 25.5818 20.722L34.5477 50.8758L29.0581 51.4523L20.4575 21.6828Z" fill="#FFCF9F"/>
<path d="M17.7119 41.4649L29.0581 51.4522L20.4576 21.6826L17.7119 41.4649Z" fill="#E5893C"/>
<path d="M20.2741 39.0105C21.73 38.8651 22.2874 41.5727 20.2741 41.7562C18.2607 41.9397 18.4442 39.194 20.2741 39.0105Z" fill="#EF9952"/>
<path d="M24.1172 43.2549C25.2477 43.2549 25.2494 45.012 24.1172 45.012C22.985 45.012 22.985 43.2549 24.1172 43.2549Z" fill="#EF9952"/>
<path d="M20.4298 31.4556C20.4592 31.3621 20.5111 31.2825 20.5856 31.215L20.7379 31.0973C20.8557 31.0297 20.982 30.9951 21.1171 30.9951C21.1828 31.0038 21.2504 31.0124 21.3161 31.0211C21.4425 31.0574 21.5533 31.1215 21.6468 31.2132C21.6987 31.2652 21.7507 31.3171 21.8026 31.3691C21.8753 31.4366 21.9273 31.5179 21.9584 31.6097C22.0052 31.6997 22.0277 31.7949 22.0225 31.8988C22.0259 32.0027 22.0052 32.0979 21.9584 32.1879C21.929 32.2814 21.8771 32.361 21.8026 32.4285C21.7524 32.4684 21.7022 32.5064 21.6503 32.5463C21.5325 32.6138 21.4062 32.6484 21.2711 32.6484L21.072 32.6224C20.9457 32.5861 20.8349 32.522 20.7414 32.4303C20.6895 32.3783 20.6375 32.3264 20.5856 32.2745C20.5129 32.2069 20.4609 32.1256 20.4298 32.0338C20.383 31.9438 20.3605 31.8486 20.3657 31.7447C20.3623 31.6409 20.383 31.5456 20.4298 31.4556Z" fill="#D86F21"/>
<path d="M22.2667 36.2454C22.3256 36.0636 22.4381 35.8887 22.6112 35.797C22.7844 35.7052 22.9973 35.6585 23.1895 35.7208C23.437 35.8022 23.6482 35.9545 23.7781 36.1848C23.9044 36.4116 23.9477 36.6955 23.8698 36.9465C23.8127 37.13 23.6932 37.2962 23.5253 37.3949C23.3643 37.4884 23.1271 37.5282 22.9471 37.471C22.7653 37.4122 22.5905 37.2997 22.4987 37.1265C22.4658 37.066 22.4416 37.0002 22.4225 36.9344C22.3931 36.9015 22.3654 36.8651 22.3412 36.8253C22.2477 36.6643 22.2079 36.4271 22.265 36.2471L22.2667 36.2454Z" fill="#D86F21"/>
<path d="M20.8039 34.4346C21.7699 34.4346 21.7717 35.9355 20.8039 35.9355C19.8362 35.9355 19.8362 34.4346 20.8039 34.4346Z" fill="#D86F21"/>
<path d="M31.6185 47.0518C32.3369 47.0518 32.3387 48.1701 31.6185 48.1701C30.8983 48.1701 30.8983 47.0518 31.6185 47.0518Z" fill="#F6B16E"/>
<path d="M27.7769 39.5488C28.4954 39.5488 28.4971 40.6672 27.7769 40.6672C27.0568 40.6672 27.0568 39.5488 27.7769 39.5488Z" fill="#F6B16E"/>
<path d="M28.691 35.5234C29.4095 35.5234 29.4112 36.6418 28.691 36.6418C27.9708 36.6418 27.9708 35.5234 28.691 35.5234Z" fill="#F6B16E"/>
<path d="M23.0579 23.9737C23.0804 23.9044 23.1185 23.8438 23.1739 23.7936C23.2813 23.6967 23.4198 23.624 23.5686 23.6292C23.7175 23.6361 23.856 23.6863 23.9634 23.7936C24.0239 23.8542 24.0845 23.9148 24.1469 23.9771C24.249 24.0793 24.3113 24.2282 24.3113 24.3718C24.3148 24.448 24.2975 24.5207 24.2628 24.5865C24.2403 24.6558 24.2023 24.7164 24.1469 24.7666C24.0395 24.8635 23.901 24.9362 23.7521 24.931C23.6033 24.9241 23.4648 24.8739 23.3574 24.7666L23.1739 24.5831C23.0718 24.4809 23.0095 24.332 23.0095 24.1883C23.006 24.1122 23.0233 24.0395 23.0579 23.9737Z" fill="#F6B16E"/>
<path d="M24.6661 28.2041C25.3846 28.2041 25.3863 29.3225 24.6661 29.3225C23.9459 29.3225 23.9459 28.2041 24.6661 28.2041Z" fill="#F6B16E"/>
<path d="M40.7679 45.0488C41.4864 45.0488 41.4881 46.1672 40.7679 46.1672C40.0477 46.1672 40.0477 45.0488 40.7679 45.0488Z" fill="#F6B16E"/>
<path d="M43.5135 46.8682C44.232 46.8682 44.2337 47.9865 43.5135 47.9865C42.7933 47.9865 42.7933 46.8682 43.5135 46.8682Z" fill="#F6B16E"/>
<path d="M40.2191 39.9141C40.9375 39.9141 40.9393 41.0324 40.2191 41.0324C39.4989 41.0324 39.4989 39.9141 40.2191 39.9141Z" fill="#F6B16E"/>
<path d="M27.4376 23.9279C27.4878 23.779 27.6056 23.6215 27.7718 23.5938C28.2426 23.5142 28.762 23.4553 29.1809 23.741C29.5237 23.9747 29.747 24.4057 29.6605 24.8229C29.6622 25.2419 29.3835 25.621 28.968 25.7595C28.5231 25.9084 27.9968 25.7751 27.6887 25.4185C27.3372 25.0099 27.268 24.4317 27.4376 23.9297V23.9279Z" fill="#FEE7C5"/>
<path d="M32.6451 31.8778C32.9705 31.7254 33.3497 31.812 33.5938 32.0751C33.8344 32.3348 33.9331 32.7451 33.7201 33.0532C33.7115 33.0653 33.7011 33.0757 33.6924 33.0879C33.6751 33.1433 33.6544 33.2004 33.6301 33.2592C33.5678 33.4012 33.367 33.5068 33.2164 33.4964C32.8372 33.4704 32.5222 33.254 32.3733 32.9026C32.2279 32.5581 32.2625 32.0561 32.6451 31.8778Z" fill="#FEE7C5"/>
<path d="M32.4806 41.6622C32.4962 41.5358 32.5135 41.4025 32.5793 41.2917C32.6624 41.1498 32.813 41.0753 32.9688 41.0425C33.2198 40.9923 33.4587 41.0338 33.6855 41.1498C33.8223 41.219 33.9036 41.3714 33.9192 41.5203C34.0179 41.6553 34.075 41.818 34.0698 41.9877C34.056 42.4811 33.5401 42.7702 33.0917 42.6369C32.6762 42.514 32.4321 42.0864 32.4823 41.664L32.4806 41.6622Z" fill="#FEE7C5"/>
<path d="M31.5043 35.1098C31.7311 35.1202 31.8869 34.947 31.9666 34.7583C31.9839 34.7168 31.996 34.6752 32.0046 34.632C32.183 34.3827 32.183 34.0243 31.9977 33.7612C31.719 33.3665 31.2464 33.3717 30.8171 33.4634C30.6664 33.4946 30.5106 33.6452 30.4829 33.7975C30.3617 34.4588 30.824 35.0769 31.5043 35.1098Z" fill="#FEE7C5"/>
<path d="M49.2559 25.1072C48.3401 24.0097 44.1316 24.1932 44.1316 24.1932L35.1658 52.9223L40.6554 53.471L49.2559 25.1072Z" fill="#FEDBB3"/>
<path d="M51.9998 43.9549L40.6553 53.4695L49.2558 25.1074L51.9998 43.9549Z" fill="#E89552"/>
<path d="M55.843 26.3869L50.1699 26.2051L42.1199 52.5555L48.7071 53.1043L55.843 26.3869Z" fill="white"/>
<path d="M41.7529 38.0898C41.0344 38.0898 41.0327 39.2082 41.7529 39.2082C42.473 39.2082 42.473 38.0898 41.7529 38.0898Z" fill="#F6B16E"/>
<path d="M44.1315 29.4893C43.4131 29.4893 43.4113 30.6076 44.1315 30.6076C44.8517 30.6076 44.8517 29.4893 44.1315 29.4893Z" fill="#F6B16E"/>
<path d="M47.6096 26.7432C46.8911 26.7432 46.8894 27.8615 47.6096 27.8615C48.3297 27.8615 48.3297 26.7432 47.6096 26.7432Z" fill="#F6B16E"/>
<path d="M44.6804 33.8789C43.9619 33.8789 43.9602 34.9973 44.6804 34.9973C45.4005 34.9973 45.4005 33.8789 44.6804 33.8789Z" fill="#F6B16E"/>
<path d="M46.6471 42.3202C46.5207 42.1332 46.3268 42.0553 46.107 42.1003C45.4404 42.2388 45.2102 43.1616 45.688 43.6203C45.868 43.7952 46.1883 43.8142 46.3649 43.6203C46.4411 43.5372 46.4861 43.4316 46.4965 43.3243C46.7648 43.0785 46.8566 42.6284 46.6471 42.3202Z" fill="#FEE7C5"/>
<mask id="mask1_918_9320" style="mask-type:luminance" maskUnits="userSpaceOnUse" x="42" y="26" width="14" height="28">
<path d="M55.843 26.3869L50.1699 26.2051L42.1199 52.5555L48.7071 53.1043L55.843 26.3869Z" fill="white"/>
</mask>
<g mask="url(#mask1_918_9320)">
<path d="M52.893 40.4946C53.466 42.1375 52.3927 43.0896 50.8468 43.6298C49.3008 44.1699 47.8674 44.092 47.2944 42.4491C46.7213 40.8062 46.8979 37.2884 48.4439 36.7483C49.9898 36.2081 52.3183 38.8517 52.893 40.4946Z" fill="#F93D3D"/>
<path d="M52.3476 41.5383C52.1122 41.8621 51.7625 42.0075 51.3799 41.9451C51.392 41.7859 51.3885 41.6162 51.366 41.4414C51.8196 41.2215 52.1745 40.8822 52.3822 40.4182C52.5519 40.0374 51.9685 39.7552 51.8006 40.1378C51.6759 40.4165 51.4786 40.6537 51.2102 40.8008C51.1289 40.5792 51.0267 40.375 50.909 40.1949C51.2899 39.8746 51.5028 39.4159 51.5166 38.9121C51.5218 38.7373 51.3349 38.6005 51.1721 38.6109C50.9834 38.623 50.8761 38.7805 50.8709 38.9554C50.8623 39.2514 50.7134 39.5215 50.4883 39.7067C50.2079 39.4644 49.898 39.3328 49.602 39.3484C49.5137 39.0177 49.4254 38.6871 49.3371 38.3581C49.2297 37.9565 48.6186 38.1712 48.726 38.5711C48.8212 38.926 48.9147 39.2791 49.0099 39.634C48.8541 39.8037 48.745 40.0391 48.6913 40.3144C48.4074 40.3144 48.1391 40.2001 47.9591 39.9647C47.708 39.6357 47.1731 40.001 47.4276 40.3334C47.7219 40.7195 48.1789 40.9618 48.6619 40.967C48.6792 41.173 48.7225 41.3877 48.7918 41.6024C48.4784 41.663 48.1599 41.5954 47.8985 41.3842C47.5747 41.1246 47.1541 41.6145 47.4795 41.8759C47.9262 42.236 48.5148 42.3624 49.0601 42.2048C49.1518 42.3624 49.2557 42.5026 49.3665 42.6255C49.1068 42.8021 48.7675 42.7796 48.4992 42.6117C48.146 42.3901 47.869 42.9752 48.2187 43.1951C48.7485 43.5275 49.4219 43.4305 49.8807 43.0358C50.1455 43.1743 50.4225 43.2141 50.6753 43.1258C50.9229 43.0393 51.1116 42.8436 51.2327 42.5788C51.8369 42.7051 52.4792 42.4645 52.8445 41.9607C53.0868 41.6266 52.5969 41.2025 52.3528 41.5418L52.3476 41.5383Z" fill="#FF9999"/>
<path d="M50.5264 41.1502C50.8363 42.0366 50.8692 42.8312 50.6009 42.9247C50.3325 43.0182 49.8651 42.3759 49.5552 41.4896C49.2454 40.6032 49.2125 39.8086 49.4808 39.7151C49.7491 39.6216 50.2165 40.2639 50.5264 41.1502Z" fill="#FFCFCF"/>
<path d="M43.8267 50.8468C45.8479 50.8468 47.4865 49.2083 47.4865 47.1871C47.4865 45.1659 45.8479 43.5273 43.8267 43.5273C41.8055 43.5273 40.167 45.1659 40.167 47.1871C40.167 49.2083 41.8055 50.8468 43.8267 50.8468Z" fill="#FCD067"/>
<path d="M43.8267 49.3559C45.0247 49.3559 45.9958 48.3848 45.9958 47.1868C45.9958 45.9888 45.0247 45.0176 43.8267 45.0176C42.6286 45.0176 41.6575 45.9888 41.6575 47.1868C41.6575 48.3848 42.6286 49.3559 43.8267 49.3559Z" fill="#FFAF22"/>
<path d="M49.0723 35.4757C51.0935 35.4757 52.7321 33.8372 52.7321 31.816C52.7321 29.7948 51.0935 28.1562 49.0723 28.1562C47.0511 28.1562 45.4126 29.7948 45.4126 31.816C45.4126 33.8372 47.0511 35.4757 49.0723 35.4757Z" fill="#CCCC29"/>
<path d="M49.0724 34.4374C50.52 34.4374 51.6935 33.2639 51.6935 31.8163C51.6935 30.3688 50.52 29.1953 49.0724 29.1953C47.6249 29.1953 46.4514 30.3688 46.4514 31.8163C46.4514 33.2639 47.6249 34.4374 49.0724 34.4374Z" fill="#EFEA48"/>
<path d="M49.1814 30.9628C49.1814 30.9628 48.0838 29.5225 49.1814 29.5225C50.279 29.5225 49.1814 30.9628 49.1814 30.9628Z" fill="black"/>
<path d="M49.9656 31.3275C49.9656 31.3275 51.7747 31.2444 51.0701 30.403C50.3655 29.5617 49.9656 31.3275 49.9656 31.3275Z" fill="black"/>
<path d="M49.9656 32.0605C49.9656 32.0605 51.7747 32.1436 51.0701 32.985C50.3655 33.8264 49.9656 32.0605 49.9656 32.0605Z" fill="black"/>
<path d="M49.1952 32.4287C49.1952 32.4287 48.1253 33.8916 49.2229 33.8691C50.3205 33.8483 49.1952 32.4287 49.1952 32.4287Z" fill="black"/>
</g>
<path d="M60.9674 25.1642C60.0516 24.0113 55.843 24.2034 55.843 24.2034L46.8772 54.3573L52.3668 54.9338L60.9674 25.1642Z" fill="#FEDBB3"/>
<path d="M63.7114 44.9464L52.3669 54.9336L60.9675 25.1641L63.7114 44.9464Z" fill="#F6B16E"/>
<path d="M63.7114 44.9464L52.3669 54.9336L60.9675 25.1641L63.7114 44.9464Z" fill="#F6B16E"/>
<path d="M61.1491 42.49C59.6932 42.3446 59.1358 45.0522 61.1491 45.2357C63.1625 45.4192 62.979 42.6735 61.1491 42.49Z" fill="#EF9952"/>
<path d="M57.3077 46.7354C56.1773 46.7354 56.1755 48.4925 57.3077 48.4925C58.4399 48.4925 58.4399 46.7354 57.3077 46.7354Z" fill="#EF9952"/>
<path d="M61.5871 35.015C61.5525 34.9059 61.4919 34.8124 61.4053 34.7328L61.227 34.596C61.0902 34.5164 60.9431 34.4766 60.7838 34.4766C60.7059 34.4869 60.628 34.4973 60.5501 34.5077C60.4012 34.5493 60.2714 34.6254 60.1623 34.7328C60.1017 34.7934 60.0411 34.854 59.9788 34.9163C59.894 34.9959 59.8334 35.0894 59.797 35.1985C59.7416 35.3023 59.7174 35.4166 59.7209 35.5361C59.7157 35.6572 59.7416 35.7698 59.797 35.8736C59.8317 35.9827 59.8923 36.0762 59.9788 36.1558C60.0377 36.2008 60.0965 36.2476 60.1571 36.2926C60.2939 36.3722 60.441 36.412 60.6003 36.412L60.834 36.3809C60.9829 36.3393 61.1127 36.2632 61.2218 36.1558C61.2824 36.0952 61.343 36.0346 61.4053 35.9723C61.4901 35.8927 61.5507 35.7992 61.5871 35.6901C61.6425 35.5863 61.6667 35.472 61.6633 35.3525C61.6685 35.2314 61.6425 35.1188 61.5871 35.015Z" fill="#EF9952"/>
<path d="M59.4388 40.6206C59.3695 40.4077 59.238 40.2034 59.0354 40.0961C58.8311 39.9887 58.5836 39.9333 58.3585 40.0078C58.0677 40.103 57.8218 40.2813 57.6695 40.5514C57.5206 40.8162 57.4704 41.1486 57.5622 41.4429C57.6297 41.6576 57.7699 41.8532 57.9655 41.9675C58.1542 42.0783 58.4312 42.125 58.6424 42.0558C58.8554 41.9865 59.0596 41.8549 59.167 41.6524C59.2051 41.5814 59.2345 41.5052 59.2553 41.4273C59.2899 41.3875 59.3228 41.346 59.3505 41.2992C59.4613 41.1105 59.508 40.8335 59.4388 40.6223V40.6206Z" fill="#EF9952"/>
<path d="M61.1493 38.501C60.0188 38.501 60.0171 40.2581 61.1493 40.2581C62.2815 40.2581 62.2815 38.501 61.1493 38.501Z" fill="#EF9952"/>
<path d="M49.8046 50.5312C49.0862 50.5312 49.0844 51.6496 49.8046 51.6496C50.5248 51.6496 50.5248 50.5312 49.8046 50.5312Z" fill="#F6B16E"/>
<path d="M53.6479 43.0303C52.9294 43.0303 52.9277 44.1486 53.6479 44.1486C54.3681 44.1486 54.3681 43.0303 53.6479 43.0303Z" fill="#F6B16E"/>
<path d="M52.7321 39.0039C52.0137 39.0039 52.0119 40.1223 52.7321 40.1223C53.4523 40.1223 53.4523 39.0039 52.7321 39.0039Z" fill="#F6B16E"/>
<path d="M58.3671 27.4532C58.3446 27.3839 58.3065 27.3233 58.2511 27.2731C58.1438 27.1762 58.0053 27.1035 57.8564 27.1087C57.7075 27.1156 57.569 27.1658 57.4617 27.2731C57.4011 27.3337 57.3405 27.3943 57.2782 27.4566C57.176 27.5588 57.1137 27.7077 57.1137 27.8513C57.1103 27.9275 57.1276 28.0002 57.1622 28.066C57.1847 28.1353 57.2228 28.1958 57.2782 28.2461C57.3855 28.343 57.524 28.4157 57.6729 28.4105C57.8218 28.4036 57.9603 28.3534 58.0676 28.2461L58.2511 28.0625C58.3532 27.9604 58.4156 27.8115 58.4156 27.6678C58.419 27.5917 58.4017 27.519 58.3671 27.4532Z" fill="#F6B16E"/>
<path d="M56.759 31.6836C56.0405 31.6836 56.0388 32.8019 56.759 32.8019C57.4791 32.8019 57.4791 31.6836 56.759 31.6836Z" fill="#F6B16E"/>
<path d="M40.6554 48.5283C39.937 48.5283 39.9353 49.6467 40.6554 49.6467C41.3756 49.6467 41.3756 48.5283 40.6554 48.5283Z" fill="#F6B16E"/>
<path d="M37.9096 50.3496C37.1912 50.3496 37.1894 51.468 37.9096 51.468C38.6298 51.468 38.6298 50.3496 37.9096 50.3496Z" fill="#F6B16E"/>
<path d="M41.2043 43.3955C40.4858 43.3955 40.4841 44.5139 41.2043 44.5139C41.9245 44.5139 41.9245 43.3955 41.2043 43.3955Z" fill="#F6B16E"/>
<path d="M53.9854 27.4084C53.9352 27.2595 53.8175 27.102 53.6513 27.0743C53.1804 26.9946 52.6611 26.9358 52.2421 27.2214C51.8993 27.4551 51.676 27.8862 51.7626 28.3034C51.7609 28.7224 52.0396 29.1015 52.4551 29.24C52.9 29.3889 53.4263 29.2556 53.7344 28.8989C54.0858 28.4904 54.1551 27.9122 53.9854 27.4101V27.4084Z" fill="#FEE7C5"/>
<path d="M51.2761 35.4305C50.9507 35.2781 50.5715 35.3647 50.3274 35.6278C50.0868 35.8875 49.9881 36.2978 50.2011 36.606C50.2097 36.6181 50.2201 36.6285 50.2288 36.6406C50.2461 36.696 50.2668 36.7531 50.2911 36.812C50.3534 36.9539 50.5542 37.0595 50.7048 37.0491C51.084 37.0232 51.399 36.8068 51.5479 36.4554C51.6933 36.1108 51.6587 35.6088 51.2761 35.4305Z" fill="#FEE7C5"/>
<path d="M48.9443 45.1427C48.9287 45.0163 48.9114 44.883 48.8456 44.7722C48.7625 44.6303 48.6119 44.5558 48.4561 44.5229C48.2051 44.4727 47.9662 44.5143 47.7394 44.6303C47.6026 44.6995 47.5213 44.8519 47.5057 45.0007C47.407 45.1358 47.3499 45.2985 47.3551 45.4682C47.3689 45.9615 47.8848 46.2507 48.3332 46.1174C48.7487 45.9944 48.9928 45.5668 48.9426 45.1444L48.9443 45.1427Z" fill="#FEE7C5"/>
<path d="M47.2061 50.9901C47.1784 50.8378 47.0209 50.6872 46.872 50.656C46.4444 50.566 45.9718 50.559 45.6913 50.9538C45.5061 51.2169 45.5061 51.5735 45.6844 51.8245C45.6931 51.8678 45.7052 51.9094 45.7225 51.9509C45.8021 52.1414 45.9562 52.3145 46.1847 52.3024C46.8668 52.2695 47.3273 51.6497 47.2061 50.9901Z" fill="#FEE7C5"/>
<path d="M29.8423 46.1102C29.8423 46.1102 33.7946 45.7812 32.4772 49.4029C31.1597 53.0245 26.3851 52.2022 26.3851 52.2022C26.3851 52.2022 22.9279 55.166 18.8112 52.2022C18.6467 52.6956 15.354 54.1775 12.0595 50.7203C8.7668 47.2631 12.3884 45.9457 12.3884 45.9457C12.3884 45.9457 11.7306 43.1464 14.6944 40.5115C17.6582 37.8766 23.9147 38.2056 25.3966 41.9934C25.89 41.5 30.0068 40.8404 29.8423 46.1102Z" fill="white"/>
<path d="M16.995 45.7809C15.662 43.8784 16.6973 42.2649 18.4873 41.0098C20.2791 39.7564 22.1488 39.3357 23.4801 41.2383C24.8131 43.1409 25.8605 47.7268 24.0687 48.9819C22.2769 50.2353 18.3263 47.6835 16.9933 45.7809H16.995Z" fill="#F93D3D"/>
<path d="M21.6727 43.5337C21.967 44.2037 22.4778 44.6279 22.8136 44.4807C23.1495 44.3336 23.1806 43.6705 22.8863 43.0005C22.592 42.3306 22.0813 41.9064 21.7455 42.0536C21.4096 42.2007 21.3784 42.8638 21.6727 43.5337Z" fill="black"/>
<path d="M18.8976 45.5124C19.4256 46.0197 20.0592 46.2153 20.3137 45.9504C20.5665 45.6856 20.3432 45.0606 19.8151 44.5551C19.2871 44.0479 18.6535 43.8522 18.399 44.1171C18.1463 44.382 18.3696 45.0069 18.8976 45.5124Z" fill="black"/>
<path d="M20.7655 45.2787C20.9542 45.4691 21.2866 45.4899 21.5013 45.3341C21.7177 45.1783 21.8025 44.8563 21.6796 44.6174C21.6432 44.5447 21.5757 44.5066 21.4944 44.5326C21.4251 44.5551 21.3749 44.6503 21.4095 44.7178C21.4199 44.7386 21.4303 44.7611 21.4372 44.7836C21.439 44.7905 21.4442 44.8234 21.4407 44.794C21.4407 44.8061 21.4442 44.8182 21.4459 44.8303C21.4459 44.8425 21.4459 44.8546 21.4476 44.8667C21.4476 44.8684 21.4476 44.8684 21.4476 44.8702C21.4442 44.8927 21.4424 44.9134 21.439 44.9359C21.439 44.9429 21.432 44.9567 21.4338 44.9567C21.4303 44.9654 21.4286 44.9723 21.4251 44.981C21.4199 44.9913 21.4147 45.0035 21.4095 45.0138C21.4078 45.0173 21.4078 45.019 21.4078 45.019C21.4078 45.019 21.4078 45.019 21.4043 45.0225C21.3922 45.0398 21.3784 45.0571 21.3645 45.0744C21.3628 45.0762 21.3611 45.0779 21.3593 45.0796C21.3507 45.0866 21.3437 45.0935 21.3351 45.1004C21.3247 45.1073 21.3143 45.1125 21.3057 45.1194C21.3334 45.1004 21.3057 45.1194 21.297 45.1229C21.2866 45.1281 21.2745 45.1316 21.2641 45.135C21.2641 45.135 21.2572 45.1368 21.252 45.1385C21.2468 45.1385 21.2295 45.1437 21.226 45.1437C21.2156 45.1437 21.207 45.1454 21.1966 45.1471C21.1845 45.1471 21.1724 45.1471 21.1602 45.1471C21.1914 45.1471 21.155 45.1471 21.1499 45.1471C21.1273 45.1454 21.1048 45.1402 21.0841 45.135C21.0806 45.135 21.0789 45.1333 21.0754 45.1316C21.065 45.1281 21.0529 45.1229 21.0425 45.1177C21.0373 45.116 21.0321 45.1125 21.0269 45.1108C21.0287 45.1108 21.0114 45.1021 21.0079 45.0987C20.9889 45.0848 20.9698 45.0692 20.9542 45.0519C20.8971 44.9948 20.7984 45.0208 20.7517 45.0744C20.6963 45.1385 20.7205 45.2233 20.7742 45.277L20.7655 45.2787Z" fill="#A30000"/>
<path d="M23.4629 46.8738C23.5616 47.0971 23.8212 47.1992 24.0446 47.1005C24.2679 47.0019 24.37 46.7422 24.2714 46.5189C24.1727 46.2955 23.5529 45.9805 23.5529 45.9805C23.5529 45.9805 23.3642 46.6504 23.4629 46.8738Z" fill="#FACE6E"/>
<path d="M21.5603 48.1817C21.7629 48.3167 22.0382 48.2631 22.1732 48.0605C22.3082 47.858 22.2546 47.5827 22.052 47.4477C21.8495 47.3126 21.157 47.3802 21.157 47.3802C21.157 47.3802 21.3578 48.0467 21.5603 48.1817Z" fill="#FACE6E"/>
<path d="M23.0214 48.5215C23.1392 48.7345 23.4075 48.8124 23.6222 48.6947C23.8351 48.5769 23.913 48.3086 23.7953 48.0939C23.6776 47.881 23.0318 47.623 23.0318 47.623C23.0318 47.623 22.9037 48.3069 23.0214 48.5215Z" fill="#FACE6E"/>
<path d="M21.8354 46.4626C21.9341 46.686 22.1938 46.7881 22.4171 46.6894C22.6404 46.5907 22.7426 46.3311 22.6439 46.1077C22.5452 45.8844 21.9255 45.5693 21.9255 45.5693C21.9255 45.5693 21.7368 46.2393 21.8354 46.4626Z" fill="#FACE6E"/>
<path d="M15.0925 43.3729C15.0666 43.5927 15.1826 43.804 15.3349 43.9528C15.6361 44.2489 16.0984 44.3354 16.5035 44.2558C17.0072 44.1571 17.4746 43.8455 17.8555 43.5131C18.0806 43.3175 18.2762 43.0872 18.3904 42.8189C18.8163 43.3902 19.6369 43.5945 20.2394 43.1097C20.7916 42.6648 20.7829 41.8217 20.2774 41.3889C20.8591 41.2383 21.4391 41.0704 21.9827 40.8142C22.5003 40.5701 23.0733 40.2221 23.3988 39.7374C23.7208 39.2596 23.4092 38.7922 22.921 38.6156C22.4068 38.4286 21.787 38.5134 21.2815 38.69C20.8868 38.8285 20.5267 39.0484 20.2238 39.3323C20.2532 39.0968 20.2809 38.8631 20.3103 38.6277C20.3519 38.2849 20.4211 37.9335 20.4211 37.5855C20.4211 37.0869 20.0887 36.6957 19.5642 36.7736C19.0466 36.848 18.7627 37.3345 18.5843 37.7777C18.2814 38.5359 18.1948 39.36 18.3091 40.1615C17.7187 39.7651 17.1042 39.3773 16.4065 39.2094C15.83 39.0709 15.1999 39.1159 14.6753 39.405C14.194 39.6716 13.718 40.2256 13.827 40.8177C13.9396 41.4322 14.7255 41.8165 15.2587 41.9914C15.6361 42.1143 16.0256 42.1784 16.4186 42.2061C16.0603 42.3809 15.7261 42.6025 15.4301 42.8691C15.2795 43.0059 15.115 43.1582 15.0891 43.3729H15.0925Z" fill="#A2C914"/>
<path d="M15.0925 43.3729C15.0666 43.5927 15.1826 43.804 15.3349 43.9528C15.6361 44.2489 16.0984 44.3354 16.5035 44.2558C17.0072 44.1571 17.4746 43.8455 17.8555 43.5131C18.0806 43.3175 18.2762 43.0872 18.3904 42.8189C18.8163 43.3902 19.6369 43.5945 20.2394 43.1097C20.7916 42.6648 20.783 41.8217 20.2774 41.3889C20.8591 41.2383 21.4391 41.0704 21.9827 40.8142C22.5003 40.5701 23.0733 40.2221 23.3988 39.7374C23.7208 39.2596 23.4092 38.7922 22.921 38.6156C22.4068 38.4286 21.787 38.5134 21.2815 38.69C20.8868 38.8285 20.5267 39.0484 20.2238 39.3323C20.2532 39.0968 20.2809 38.8631 20.3103 38.6277C20.3519 38.2849 20.4211 37.9335 20.4211 37.5855C20.4211 37.0869 20.0887 36.6957 19.5642 36.7736C19.0466 36.848 18.7627 37.3345 18.5843 37.7777C18.2814 38.5359 18.1948 39.36 18.3091 40.1615C17.7187 39.7651 17.1042 39.3773 16.4065 39.2094C15.83 39.0709 15.1999 39.1159 14.6753 39.405C14.194 39.6716 13.718 40.2256 13.827 40.8177C13.9396 41.4322 14.7255 41.8165 15.2587 41.9914C15.6361 42.1143 16.0256 42.1784 16.4186 42.2061C16.0603 42.3809 15.7261 42.6025 15.4301 42.8691C15.2795 43.0059 15.115 43.1582 15.0891 43.3729H15.0925Z" stroke="#90B200" stroke-width="2" stroke-miterlimit="10"/>
<path d="M28.4609 47.7804C28.4921 47.6817 28.5475 47.5969 28.6237 47.5259C28.6946 47.448 28.7795 47.3943 28.8781 47.3632C28.9716 47.313 29.0738 47.2905 29.1828 47.2957L29.3923 47.3233C29.5256 47.3614 29.6416 47.429 29.7403 47.5259C29.7818 47.5796 29.8234 47.6332 29.8632 47.6852C29.9342 47.8081 29.9705 47.9414 29.9705 48.0833V48.2478C29.974 48.3569 29.9515 48.4573 29.903 48.5525C29.8718 48.6512 29.8165 48.736 29.7403 48.807C29.6693 48.8849 29.5845 48.9385 29.4858 48.9697C29.3923 49.0199 29.2902 49.0424 29.1811 49.0372L28.9716 49.0095C28.8383 48.9714 28.7223 48.9039 28.6237 48.807C28.5821 48.7533 28.5406 48.6996 28.5007 48.6477C28.4298 48.5248 28.3934 48.3915 28.3934 48.2495V48.0851C28.39 47.976 28.4125 47.8756 28.4609 47.7804Z" fill="#FFF1E3"/>
<path d="M26.6361 43.5617C27.074 43.2587 27.7042 43.3245 28.0539 43.7314C28.2945 44.0118 28.4123 44.4359 28.3222 44.7995C28.3413 45.0297 28.2928 45.2583 28.1751 45.4816C28.047 45.7274 27.7631 45.8694 27.493 45.8728C26.9892 45.8798 26.4699 45.6149 26.231 45.1596C25.9384 44.5987 26.1184 43.9183 26.6361 43.56V43.5617Z" fill="#FFF1E3"/>
<path d="M15.9477 48.4405C15.9789 48.3419 16.0343 48.257 16.1105 48.1861C16.1815 48.1082 16.2663 48.0545 16.365 48.0233C16.4584 47.9731 16.5606 47.9506 16.6697 47.9558C16.7389 47.9645 16.8099 47.9749 16.8791 47.9835C17.0124 48.0216 17.1284 48.0891 17.2271 48.1861C17.2686 48.2397 17.3102 48.2934 17.35 48.3453C17.421 48.4682 17.4573 48.6015 17.4573 48.7435V48.908C17.4608 49.017 17.4383 49.1174 17.3898 49.2126C17.3587 49.3113 17.3033 49.3962 17.2271 49.4671C17.1561 49.545 17.0713 49.5987 16.9726 49.6299C16.8791 49.6801 16.777 49.7026 16.6679 49.6974C16.5987 49.6887 16.5277 49.6783 16.4584 49.6697C16.3251 49.6316 16.2092 49.5641 16.1105 49.4671L15.9876 49.3079C15.9166 49.185 15.8802 49.0516 15.8802 48.9097V48.7452C15.8768 48.6362 15.8993 48.5358 15.9477 48.4405Z" fill="#FFF1E3"/>
<path d="M20.1287 50.0947C21.1449 50.0947 21.1466 51.6753 20.1287 51.6753C19.1107 51.6753 19.1107 50.0947 20.1287 50.0947Z" fill="#FFF1E3"/>
<path d="M14.9385 47.9829L15.0614 48.7463C15.1947 49.5773 14.6252 50.3667 13.7942 50.5018C12.9632 50.6351 12.1738 50.0655 12.0388 49.2345L11.9158 48.4711C11.7825 47.6401 12.3521 46.8507 13.1831 46.7156C14.014 46.5823 14.8035 47.1519 14.9385 47.9829Z" fill="#FCD067"/>
<path d="M14.4763 48.1822L14.5594 48.7015C14.6512 49.2676 14.2616 49.8043 13.6973 49.896C13.1312 49.9878 12.5945 49.5983 12.5027 49.0339L12.4196 48.5146C12.3279 47.9485 12.7174 47.4118 13.2818 47.32C13.8479 47.2283 14.3845 47.6178 14.4763 48.1822Z" fill="#FFAF22"/>
<path d="M27.043 51.1914L26.3419 51.5203C25.5801 51.8787 24.6626 51.5463 24.306 50.7846C23.9476 50.0228 24.28 49.1053 25.0417 48.7487L25.7429 48.4198C26.5046 48.0614 27.4221 48.3938 27.7788 49.1555C28.1371 49.9172 27.8047 50.8348 27.043 51.1914Z" fill="#FCD067"/>
<path d="M26.7228 50.8L26.2467 51.0233C25.7273 51.2674 25.1041 51.0406 24.8617 50.523C24.6176 50.0036 24.8444 49.3804 25.362 49.138L25.8381 48.9147C26.3575 48.6706 26.9807 48.8974 27.2231 49.415C27.4672 49.9344 27.2404 50.5576 26.7228 50.8Z" fill="#FFAF22"/>
<path d="M21.6625 49.2851C21.2419 47.6543 19.6821 46.4754 17.9924 46.5481C16.7719 46.6018 16.765 48.5061 17.9924 48.4524C18.8598 48.4143 19.6076 48.9423 19.8258 49.7906C20.1322 50.9765 21.969 50.4744 21.6625 49.2851Z" fill="white"/>
<path d="M68.7474 45.2858C68.3561 44.4358 59.5963 44.8669 59.0146 46.0631C58.4329 47.2576 60.3372 50.5002 64.3155 50.4171C68.2938 50.3357 68.7474 45.2858 68.7474 45.2858Z" fill="#90B200"/>
<path d="M59.4128 45.7304C59.4284 46.0559 59.5669 46.3813 59.8024 46.615C60.0499 46.8626 60.3234 46.9267 60.6593 46.9613C60.8099 46.9769 60.822 47.053 60.8359 47.1933C60.8497 47.3369 60.8393 47.4841 60.8653 47.6261C60.9744 48.2008 61.5439 48.625 62.1222 48.5955C62.4615 48.5782 62.7523 48.3012 63.0934 48.3878C63.4223 48.4709 63.7131 48.663 64.0472 48.7392C64.3623 48.8119 64.7034 48.8206 65.0011 48.6734C65.3249 48.5124 65.491 48.1974 65.7126 47.9273C66.1853 47.3508 66.8673 46.9613 67.2153 46.2809C67.4283 45.862 67.5148 45.3357 67.3348 44.896C65.0721 44.7055 60.7805 45.0362 59.4146 45.7304H59.4128Z" fill="#BFD856"/>
<path d="M61.0937 46.4298C61.4002 46.7778 61.8451 46.9699 62.2796 47.1067C62.7972 47.2677 63.3408 47.3681 63.8844 47.356C64.911 47.33 65.9861 46.8816 66.5297 45.9676C66.7218 45.6456 66.8655 45.2422 66.8188 44.8631C65.0997 44.7834 62.6051 44.941 60.8964 45.2838C60.7354 45.6733 60.8098 46.1078 61.0937 46.4315V46.4298Z" fill="white"/>
<path d="M64.4263 45.8434C64.4263 45.8434 65.8407 44.7129 65.8666 45.8105C65.8926 46.9081 64.4263 45.8434 64.4263 45.8434Z" fill="black"/>
<path d="M64.0784 46.6367C64.0784 46.6367 64.203 48.4441 65.0288 47.7204C65.8546 46.9968 64.0784 46.6367 64.0784 46.6367Z" fill="black"/>
<path d="M63.3477 46.6533C63.3477 46.6533 63.3079 48.4641 62.4492 47.7803C61.5906 47.0948 63.3477 46.6533 63.3477 46.6533Z" fill="black"/>
<path d="M62.96 45.8914C62.96 45.8914 61.4729 44.8562 61.5196 45.9537C61.5664 47.0513 62.96 45.8914 62.96 45.8914Z" fill="black"/>
<path d="M64.544 50.1406C64.3727 49.2213 55.7721 47.4988 54.9152 48.515C54.0582 49.5312 55.1143 53.1407 58.9904 54.0323C62.8665 54.9238 64.5423 50.1406 64.5423 50.1406H64.544Z" fill="#A2C914"/>
<path d="M55.3843 48.29C55.3202 48.6103 55.3739 48.9583 55.5453 49.2439C55.7253 49.5451 55.9729 49.6732 56.2914 49.7892C56.4351 49.8412 56.4282 49.9173 56.4057 50.0576C56.3849 50.1995 56.3382 50.3397 56.3295 50.4852C56.2949 51.0686 56.7433 51.6191 57.3111 51.7333C57.6435 51.7991 57.9932 51.6018 58.3031 51.768C58.6026 51.929 58.8363 52.1852 59.1427 52.3427C59.4318 52.4899 59.759 52.5816 60.0845 52.5107C60.4376 52.4328 60.6765 52.1679 60.957 51.9619C61.5577 51.5169 62.3125 51.3075 62.8163 50.7327C63.1262 50.3778 63.3374 49.8896 63.2716 49.4187C61.1249 48.6813 56.8818 47.9524 55.3878 48.2935L55.3843 48.29Z" fill="#BFD856"/>
<path d="M56.842 49.3784C57.0532 49.7922 57.4393 50.0865 57.827 50.3237C58.2893 50.6076 58.7913 50.8361 59.3211 50.9573C60.3234 51.1841 61.4747 51.0109 62.226 50.2579C62.4909 49.9913 62.728 49.6364 62.7765 49.2572C61.1284 48.7604 58.6719 48.3016 56.9303 48.2168C56.6793 48.5544 56.6446 48.9941 56.842 49.3784Z" fill="white"/>
<path d="M60.2178 49.6271C60.2178 49.6271 61.8659 48.8758 61.6235 49.9474C61.3794 51.0172 60.2178 49.6271 60.2178 49.6271Z" fill="black"/>
<path d="M59.6865 50.3086C59.6865 50.3086 59.3662 52.0917 60.3426 51.5914C61.319 51.0911 59.6865 50.3086 59.6865 50.3086Z" fill="black"/>
<path d="M58.9731 50.1475C58.9731 50.1475 58.4919 51.8942 57.8271 51.02C57.1623 50.1457 58.9731 50.1475 58.9731 50.1475Z" fill="black"/>
<path d="M58.7844 49.3151C58.7844 49.3151 57.5951 47.9475 57.3735 49.0225C57.1502 50.0976 58.7844 49.3151 58.7844 49.3151Z" fill="black"/>
<path d="M26.7816 7.14648C24.9985 7.14648 24.9967 9.91639 26.7816 9.91639C28.5665 9.91639 28.5665 7.14648 26.7816 7.14648Z" fill="white"/>
<path d="M15.6725 31.6152C13.8893 31.6152 13.8876 34.3851 15.6725 34.3851C17.4573 34.3851 17.4573 31.6152 15.6725 31.6152Z" fill="white"/>
<path d="M64.8746 26.6553C63.0915 26.6553 63.0898 29.4252 64.8746 29.4252C66.6595 29.4252 66.6595 26.6553 64.8746 26.6553Z" fill="white"/>
<path d="M63.6853 24.3975C62.5721 24.3975 62.5687 26.1287 63.6853 26.1287C64.8019 26.1287 64.8019 24.3975 63.6853 24.3975Z" fill="white"/>
<path d="M65.8666 24.5703C64.975 24.5703 64.9733 25.9553 65.8666 25.9553C66.7599 25.9553 66.7599 24.5703 65.8666 24.5703Z" fill="white"/>
<path d="M24.6002 7.9043C23.7087 7.9043 23.7069 9.28925 24.6002 9.28925C25.4935 9.28925 25.4935 7.9043 24.6002 7.9043Z" fill="white"/>
<path d="M16.8617 29.7295C15.9701 29.7295 15.9684 31.1144 16.8617 31.1144C17.755 31.1144 17.755 29.7295 16.8617 29.7295Z" fill="white"/>
<path d="M12.8939 31.9111C12.0024 31.9111 12.0006 33.2961 12.8939 33.2961C13.7872 33.2961 13.7872 31.9111 12.8939 31.9111Z" fill="white"/>
<path d="M53.1701 5.06152C52.2785 5.06152 52.2768 6.44648 53.1701 6.44648C54.0633 6.44648 54.0633 5.06152 53.1701 5.06152Z" fill="white"/>
<path d="M55.3515 13.0947C54.4599 13.0947 54.4582 14.4797 55.3515 14.4797C56.2447 14.4797 56.2447 13.0947 55.3515 13.0947Z" fill="white"/>
<path d="M37.2968 0C36.4052 0 36.4035 1.38495 37.2968 1.38495C38.1901 1.38495 38.1901 0 37.2968 0Z" fill="white"/>
</svg>
