<svg width="48" height="48" viewBox="0 0 48 48" fill="none" xmlns="http://www.w3.org/2000/svg">
<g style="mix-blend-mode:multiply" opacity="0.3">
<path d="M40.0633 10.2867C38.4104 3.36716 33.3978 1.93269 28.1655 1.46554C22.8645 1.30107 17.7636 0.817069 12.5057 4.4275C10.561 5.96443 9.68871 8.35745 9.25055 10.3386C8.73891 10.3764 8.24346 10.4411 7.73182 10.4889C6.87707 10.5658 5.58552 10.6831 4.4854 11.5142C0.6478 14.3987 1.37919 26.1966 1.44997 31.5408C1.64882 35.0488 1.89891 38.4812 2.77321 41.8955C3.74794 46.8049 8.09651 47.1608 10.7012 47.3738C20.3865 48.1329 31.7908 48.3654 40.7872 47.1305C46.0222 46.5872 46.7293 41.5767 47.0718 39.1506C48.2777 30.2519 48.2838 22.6131 47.0617 15.701C46.362 12.0656 44.6599 10.4963 40.0639 10.2867H40.0633ZM29.5144 12.613C28.088 12.4647 26.6138 12.3899 25.1099 12.3899C23.4199 12.3899 21.6673 12.4849 19.8789 12.671C19.8392 12.5988 19.7974 12.5274 19.7542 12.4553C21.612 12.1121 23.8669 12.1613 25.8184 12.129C27.1032 12.129 28.4271 12.1769 29.6101 12.4647C29.5778 12.5139 29.5461 12.5631 29.5151 12.613H29.5144Z" fill="#231F20"/>
</g>
<path d="M45.7122 14.3521C45.0125 10.7167 43.3104 9.14746 38.7144 8.93781C37.0622 2.01759 32.049 0.583804 26.8167 0.116659C21.5157 -0.0478195 16.4148 -0.532491 11.1569 3.07861C9.21216 4.61554 8.33988 7.00857 7.90172 8.98972C7.39009 9.02747 6.89463 9.09218 6.383 9.14004C5.52825 9.21689 4.23669 9.33418 3.13657 10.1653C-0.701702 13.0498 0.0303611 24.8477 0.101141 30.1919C0.299998 33.6999 0.550085 37.1323 1.42438 40.5466C2.39912 45.456 6.74768 45.8119 9.35237 46.025C19.0377 46.784 30.442 47.0165 39.4384 45.7816C44.6734 45.2383 45.3805 40.2278 45.7229 37.8017C46.9289 28.903 46.935 21.2642 45.7128 14.3521H45.7122ZM28.1656 11.2641C26.7392 11.1158 25.265 11.041 23.7611 11.041C22.0711 11.041 20.3185 11.136 18.5301 11.3221C18.4903 11.2499 18.4486 11.1785 18.4054 11.1064C20.2632 10.7633 22.518 10.8125 24.4695 10.7801C25.7543 10.7801 27.0783 10.828 28.2613 11.1158C28.2289 11.165 28.1973 11.2142 28.1662 11.2641H28.1656Z" fill="white"/>
<path d="M43.189 14.8874C42.9571 13.7947 42.5729 12.2874 41.3454 11.9429C39.7815 11.5634 38.1347 11.4663 36.5297 11.374C35.7666 5.1528 32.6894 3.26804 26.7398 2.69507C21.9848 2.47868 16.7148 2.22927 12.6729 5.16561C10.9034 6.67288 10.4174 9.27285 10.0729 11.4717C9.06855 11.4818 8.06482 11.5459 7.06717 11.6645C6.30814 11.7562 5.32262 11.7474 4.69235 12.2233C3.78569 12.9082 3.53021 14.247 3.32125 15.3019C2.43549 20.1534 2.48335 25.1342 2.67681 30.0463C2.86489 33.3756 3.10419 36.7414 3.94208 39.9797C4.52922 43.1035 7.06582 43.2491 9.71972 43.4668C11.5485 43.6589 13.3868 43.7654 15.2237 43.847C23.1712 44.0458 31.2354 44.3714 39.1242 43.2207C42.254 42.9215 42.7987 40.0647 43.1668 37.4546C44.1792 30.0079 44.486 22.3152 43.189 14.888V14.8874ZM29.8966 13.9665C29.7537 14.0218 29.6465 14.0636 29.4955 14.0319C25.2993 13.4017 20.9427 13.5412 16.7572 14.1411C16.5759 13.1522 16.3002 12.0373 15.2567 11.6625C15.3517 10.9041 15.2372 9.97525 15.8755 9.41913C17.6174 8.20846 19.9571 8.36957 21.9929 8.22059C24.7796 8.21924 27.8177 7.98736 30.4204 9.12522C31.4207 9.69685 31.3547 10.6386 31.4598 11.6578C30.5464 12.0285 30.0092 13.0323 29.8973 13.9665H29.8966Z" fill="black"/>
<path d="M25.5905 29.259C24.4318 29.4612 25.0189 30.9449 24.3825 31.6243C24.1021 31.9729 23.8096 31.9587 23.4038 31.9587C21.4846 32.1232 22.5888 29.8036 21.393 29.2644C20.9541 29.0749 20.4492 29.2475 19.9989 29.0709C19.6713 28.9421 19.2022 28.6739 19.1415 28.3004C19.0498 27.6068 19.1395 26.8787 19.9167 26.6475C21.1456 26.3651 21.9646 26.4696 21.9814 24.907C22.0104 24.6239 22.0617 24.1959 22.2652 23.9775C22.8126 23.5757 23.6855 23.6465 24.305 23.8426C25.364 24.3752 24.2545 26.3307 25.7813 26.4055C27.0189 26.4689 27.8251 26.4628 27.6667 27.993C27.7773 29.2873 26.5005 29.1781 25.5905 29.2583V29.259Z" fill="#FF2E60"/>
<path d="M41.7727 14.9857C41.3514 13.4832 40.8182 13.2675 39.7781 13.103C37.9486 12.8158 36.0908 12.7275 34.2411 12.7794C33.1592 12.8091 31.7254 12.5631 31.3641 13.8472C31.0257 16.3312 28.5976 15.13 26.5053 15.1266C23.9653 14.9965 21.3943 15.041 18.8617 15.2857C17.1152 15.434 15.4886 16.2355 15.2459 13.7643C15.1832 13.4771 15.0754 13.13 14.7896 12.9938C13.1387 12.8017 11.3827 12.9183 9.70623 12.8988C8.7888 12.9244 7.87068 12.983 6.95931 13.099C5.78774 13.2479 5.18106 13.7548 4.87165 14.8152C4.42406 16.3488 4.3735 18.0252 4.19284 19.5932C3.88478 23.6262 3.69604 34.5903 5.3388 39.5833C5.87066 41.2018 6.44498 41.4661 7.87271 41.7707C11.5283 42.548 15.5769 42.3633 19.3269 42.5554C23.5837 42.6437 27.848 42.6228 32.1016 42.4327C34.2728 42.2669 36.4299 42.3013 38.5607 41.8833C40.0956 41.5827 40.529 41.82 41.2294 39.8233C41.9635 37.7302 42.0646 34.3739 42.277 32.9799C42.4792 31.1289 43.0421 19.5143 41.7721 14.9857H41.7727ZM27.5231 34.7474C20.1722 38.5371 13.0416 31.7093 16.2449 24.1527C18.3306 19.7718 24.9596 18.4607 28.5471 21.726C32.5033 25.1389 32.1083 32.0652 27.5231 34.7474Z" fill="#00EBED"/>
<path d="M11.5532 11.0167C11.9233 9.52092 12.1997 7.81007 13.1832 6.57649C16.6265 3.72576 21.43 3.96101 25.6498 4.05606C28.3206 4.21178 31.3769 4.58725 33.3574 6.54548C34.3308 7.94354 34.7932 9.69146 35.1053 11.3477C34.351 11.3477 33.6088 11.3807 32.8538 11.4064C33.1572 6.95331 28.0368 6.94656 24.8274 6.80231C22.4129 6.71805 19.9389 6.77534 17.5634 7.22766C15.1354 7.59504 13.7919 8.9621 13.8586 11.4711C13.041 11.4832 12.2772 11.4792 11.4744 11.465C11.5081 11.3302 11.5054 11.2614 11.5532 11.0161V11.0167Z" fill="#FFC522"/>
<path d="M23.368 20.7608C20.5773 20.93 17.7805 22.2532 16.7997 25.0352C15.7441 28.0268 16.5119 31.9251 19.2601 33.7687C23.213 36.3862 28.9785 34.5601 30.2161 29.8435C31.445 25.5468 28.0631 20.3684 23.368 20.7608ZM28.1925 29.2698C27.7672 29.9392 26.8962 30.0302 26.1412 30.0774C25.6465 30.1084 25.6323 30.5142 25.544 31.0103C25.4078 32.0174 24.6003 32.922 23.5278 32.8122C21.9855 33.0649 21.1907 31.675 21.1671 30.3133C21.1287 29.9783 20.971 30.0383 20.6589 30.0302C19.7306 30.0066 18.4829 29.4983 18.309 28.4656C18.1937 27.5859 18.2645 26.6045 19.1186 26.1178C19.6039 25.7888 20.1391 25.7039 20.7074 25.6108C21.1105 25.5448 21.0903 25.3601 21.124 24.9765C21.1516 24.6604 21.19 24.3503 21.2999 24.0503C21.6087 23.0068 22.7216 22.7749 23.6929 22.8572C25.153 22.7972 25.691 23.9971 25.7314 25.2367C25.7442 25.6108 25.7287 25.5535 26.0017 25.5744C26.6003 25.6237 27.2144 25.6722 27.7496 25.9701C28.7716 26.6456 28.6846 28.2789 28.1939 29.2705L28.1925 29.2698Z" fill="#E5E5E5"/>
<path d="M22.7378 29.8623C22.696 29.474 22.7499 28.8586 22.4385 28.5572C21.8129 27.9519 19.7421 28.3779 19.1267 27.6627C19.1051 27.8683 19.1125 28.0854 19.1408 28.3004C19.2015 28.6739 19.6707 28.9421 19.9983 29.0709C20.4486 29.2475 20.9534 29.0749 21.3923 29.2644C22.5881 29.8036 21.484 32.1232 23.4031 31.9587C23.8096 31.9587 24.1015 31.9722 24.3819 31.6244C24.5194 31.4767 24.5989 31.2907 24.6515 31.0891C23.7523 31.3507 22.8739 31.1478 22.7371 29.8623H22.7378Z" fill="#EA0F4D"/>
<path d="M25.7813 26.4055C24.2538 26.3307 25.3633 24.3752 24.305 23.8426C23.939 23.7267 23.486 23.6579 23.0627 23.7004C23.4732 23.8029 23.8278 24.0482 24.0543 24.5915C24.1648 24.8565 24.1311 25.2515 24.179 25.544C24.241 25.9229 24.3434 26.4359 24.7398 26.6273C25.6573 27.0702 26.8046 26.6934 27.6108 27.1039C27.3917 26.4608 26.7068 26.452 25.7813 26.4048V26.4055Z" fill="#FF6699"/>
<path d="M30.2161 29.8434C30.961 27.2394 30.0105 24.3132 28.1022 22.4985C29.1349 23.8076 29.6876 25.354 29.7112 27.2893C29.7564 31.0312 27.0998 33.917 23.3492 34.0134C17.9915 34.1515 15.5634 28.3281 17.2857 24.0031C17.0949 24.3219 16.9305 24.6651 16.7997 25.0351C15.7441 28.0268 16.5119 31.925 19.2601 33.7687C23.213 36.3862 28.9785 34.56 30.2161 29.8434Z" fill="#C6C6C6"/>
<path d="M31.2913 28.862C31.8083 26.324 31.1194 23.691 29.5023 21.689C26.9636 18.5477 22.3306 18.1945 18.9588 20.0954C15.1913 22.2202 13.9604 27.1828 15.984 30.9281C16.0427 31.0366 16.1128 31.1377 16.1768 31.2415C15.2641 29.2253 15.1522 26.7318 16.2456 24.1528C18.3312 19.7719 24.9602 18.4608 28.5478 21.726C30.9003 23.7557 31.7018 27.0244 31.0109 29.9082C31.1201 29.5738 31.2178 29.2287 31.2927 28.8627L31.2913 28.862Z" fill="#19BFBB"/>
<path d="M42.4536 20.0415C42.3969 22.57 42.2601 25.0898 42.0498 27.6223C41.7802 30.8748 41.5253 34.1731 40.4118 37.2692C39.7963 38.9808 38.7083 39.9737 36.9227 40.3236C35.3015 40.6411 33.561 40.6903 31.9162 40.788C28.2781 41.0037 24.6286 41.1803 20.9844 41.2632C17.4273 41.3441 13.7292 41.4668 10.2051 40.8972C8.44568 40.6121 7.01998 39.9488 6.33039 38.2224C5.70887 36.6666 5.66708 34.8236 5.51811 33.1762C5.19994 29.6574 5.22892 26.1184 5.32801 22.5916C5.39138 20.3428 5.13387 17.7031 6.09513 15.5905C6.75237 14.1466 8.09313 13.3667 9.55928 12.9062C8.69038 12.9339 7.82147 12.9892 6.95931 13.0997C5.78774 13.2487 5.18106 13.7556 4.87165 14.8159C4.42406 16.3495 4.3735 18.026 4.19284 19.5939C3.88478 23.627 3.69604 34.5911 5.3388 39.5841C5.87066 41.2026 6.44498 41.4668 7.87271 41.7715C11.5283 42.5487 15.5769 42.364 19.3269 42.5561C23.5837 42.6444 27.848 42.6236 32.1016 42.4335C34.2728 42.2676 36.4299 42.302 38.5607 41.8841C40.0956 41.5834 40.529 41.8207 41.2294 39.8241C41.9635 37.731 42.0646 34.3747 42.277 32.9807C42.4232 31.644 42.7569 25.2165 42.4529 20.0422L42.4536 20.0415Z" fill="#19BFBB"/>
<path d="M13.5317 32.386C12.6109 30.7163 12.1815 28.9279 12.135 27.029C12.0925 25.273 12.5482 23.5494 13.4218 22.0327C14.0649 20.9177 14.8745 19.914 15.2345 18.6588C15.5944 17.4037 15.4812 16.2254 14.2537 15.5742C13.1994 15.0154 11.289 14.8354 9.80533 15.6106C9.05102 16.0036 8.43558 16.6265 8.08572 17.527C7.34557 19.4313 7.29367 21.5851 7.27412 23.6013C7.24311 26.6731 7.24378 31.5906 7.96371 34.7676C8.37626 36.587 8.66342 37.3918 10.1909 38.2081C10.9782 38.6288 11.8943 38.8667 12.7113 39.0292C14.073 39.2995 15.7326 39.5873 17.0747 39.1121C18.5874 38.5769 17.0417 36.8694 16.4788 36.2479C15.3585 35.0103 14.3453 33.863 13.5317 32.3867V32.386Z" fill="#6CFFFB"/>
<path d="M39.2624 16.1121C38.8148 15.4111 37.89 15.1664 37.1357 14.981C36.4232 14.8051 35.6769 14.7559 34.9449 14.7498C33.774 14.7404 32.7864 14.9473 32.0544 16.4404C30.5235 19.5689 33.5576 23.9882 33.8144 27.1895C34.078 30.4703 32.5876 33.348 30.4184 35.6696C29.4638 36.6908 28.8235 38.103 30.6941 38.3376C31.6391 38.4562 32.6995 38.2594 33.6425 38.165C34.684 38.0599 35.6985 37.8071 36.6288 37.3211C38.2142 36.4919 38.8371 34.8606 39.1735 33.2118C39.95 29.4052 40.2951 25.4227 40.2466 21.542C40.225 19.8149 40.2277 17.6268 39.2624 16.1121Z" fill="#6CFFFB"/>
<path d="M31.9229 7.22632C29.8238 5.74129 26.6306 5.81747 24.1763 5.74871C22.5045 5.7022 20.8308 5.78983 19.1691 5.98127C17.9787 6.11878 16.6494 6.24888 15.5432 6.73558C13.4023 7.67728 13.1529 9.47778 13.0194 11.4758C13.2964 11.4758 13.5721 11.4758 13.8586 11.4711C13.7919 8.9621 15.1347 7.59504 17.5634 7.22766C19.9389 6.77535 22.4129 6.71873 24.8274 6.80231C28.0368 6.94657 33.1565 6.95331 32.8538 11.4064C33.1174 11.3976 33.3776 11.3882 33.6385 11.3794C33.7295 9.83842 33.0406 8.01635 31.9229 7.22632Z" fill="#FFA222"/>
</svg>
