<svg width="41" height="48" viewBox="0 0 41 48" fill="none" xmlns="http://www.w3.org/2000/svg">
<g style="mix-blend-mode:multiply" opacity="0.3">
<path d="M20.6632 47.9999C25.3497 47.8356 33.1893 48.0745 36.571 45.5464C39.4988 43.2871 39.7602 39.8367 40.069 37.1548C40.7482 31.151 40.7248 25.0959 40.6279 20.4916C40.5416 16.6 40.3832 13.2181 40.0182 9.7064C39.9353 3.90221 34.9266 1.88253 29.9173 1.68355C24.1051 1.20242 15.2534 1.14985 9.87105 1.93577C5.76676 2.33504 2.34362 4.71941 2.16848 9.32775C1.22396 18.0547 1.0281 28.5178 1.87837 37.2926C2.42049 48.6341 11.5068 47.7324 20.6632 47.9993V47.9999Z" fill="#231F20"/>
</g>
<path d="M0.540785 35.9611C-0.310154 27.1862 -0.114298 16.7238 0.830225 7.99621C1.00603 3.38786 4.4285 1.0035 8.5328 0.604222C13.9158 -0.181692 22.7668 -0.12912 28.5797 0.352011C33.589 0.550985 38.5971 2.57067 38.6806 8.37486C39.0456 11.8865 39.2047 15.2684 39.2903 19.1601C39.3872 23.7644 39.4099 29.8195 38.7314 35.8233C38.4226 38.5051 38.1619 41.9556 35.2334 44.2148C31.8517 46.7429 24.0128 46.5033 19.3256 46.6684C10.1692 46.4009 1.0829 47.3032 0.540785 35.9617V35.9611Z" fill="white"/>
<path d="M5.52476 42.0354C6.8249 43.0443 8.45057 43.3863 10.0462 43.6153C12.1411 43.9154 14.2601 44.0312 16.3751 44.0838C20.6879 44.1896 25.0663 44.0924 29.3484 43.5308C30.8511 43.3338 32.4393 43.1321 33.6826 42.1892C35.7174 40.6453 35.9239 37.877 36.1893 35.5379C36.801 30.1303 36.8464 24.6469 36.7328 19.212C36.68 16.6726 36.5784 14.1332 36.3972 11.5991C36.327 10.6149 36.2441 9.63063 36.1372 8.64973C36.0182 7.5597 35.9333 6.41776 35.2862 5.4901C34.581 4.4786 33.4801 3.96685 32.3517 3.55759C30.9874 3.07912 29.4533 2.98263 28.0249 2.86152C25.8831 2.67918 23.7321 2.60731 21.5837 2.57803C17.3671 2.52146 13.0729 2.54143 8.88975 3.12637C7.16648 3.36727 5.27276 3.83576 4.22262 5.34037C3.57756 6.26471 3.47796 7.394 3.34895 8.47871C3.23063 9.47624 3.13772 10.4764 3.05751 11.4773C2.6297 16.8043 2.49801 22.168 2.60897 27.511C2.66379 30.1489 2.78144 32.7908 3.0555 35.4161C3.30149 37.7712 3.50069 40.4643 5.52476 42.0354Z" fill="black"/>
<path d="M4.25335 33.027C4.19987 32.2265 4.15709 31.4259 4.12099 30.6267C4.09091 29.9745 4.06752 29.3211 4.0488 28.6676C4.02607 27.9129 4.17982 27.5649 4.85897 27.3526C6.18451 26.9387 7.54347 26.7823 8.93986 26.9221C8.96593 29.0835 9.00738 31.2456 9.07088 33.407C7.81152 33.2799 6.5829 33.3571 5.37568 33.6452C4.45589 33.8648 4.3115 33.8841 4.25402 33.027H4.25335Z" fill="#FFC522"/>
<path d="M8.07493 41.7793C7.37172 41.5663 6.70861 41.2735 6.09564 40.6806C5.22933 39.8421 4.9078 38.6463 4.72598 37.4923C4.63775 36.932 4.56556 36.369 4.50272 35.8041C4.40245 34.9043 4.52344 34.7466 5.23534 34.5523C6.49203 34.2076 7.7788 34.0985 9.09833 34.2515C9.16852 36.4921 9.25541 38.7328 9.36036 40.9721C9.40381 41.9064 9.06023 42.0781 8.07426 41.7793H8.07493Z" fill="#00EBED"/>
<path d="M4.5107 10.9436C4.57821 10.155 4.65575 9.36711 4.74733 8.58053C4.85562 7.65687 4.91578 6.63139 5.56618 5.89671C6.15776 5.22792 7.07755 4.91382 7.92582 4.71618C9.17315 4.42604 9.43719 4.72683 9.38037 5.73234C9.27074 7.64822 9.18451 9.56343 9.11499 11.48C7.81552 11.3442 6.54947 11.4241 5.30549 11.7295C4.45321 11.9385 4.4385 11.7907 4.5107 10.9443V10.9436Z" fill="#FF7A0D"/>
<path d="M4.08158 18.472C4.12436 17.2409 4.1785 16.0112 4.24602 14.7827C4.26005 14.5218 4.2761 14.2603 4.29147 13.9988C4.34294 13.1377 4.5789 12.7876 5.39508 12.5774C6.59562 12.2686 7.82424 12.1734 9.08226 12.3172C9.01007 14.4666 8.95726 16.6174 8.93186 18.7682C7.63105 18.6524 6.363 18.7609 5.11768 19.0916C4.20323 19.3352 4.05216 19.3178 4.08158 18.472Z" fill="#5CFFCD"/>
<path d="M4.00739 21.2058C4.01942 20.5257 4.17851 20.2482 4.9459 20.0146C6.24002 19.6213 7.56556 19.4742 8.9272 19.6093C8.90714 21.7661 8.90982 23.9222 8.93187 26.079C7.5669 25.9579 6.23868 26.0823 4.93386 26.453C4.07691 26.6959 3.9967 26.6879 3.98734 25.8634C3.97063 24.3108 3.97798 22.7583 4.00806 21.2058H4.00739Z" fill="#FF2E60"/>
<path d="M35.2301 16.0962C35.1452 13.9142 35.0249 11.7314 34.8197 9.55737C34.7348 8.66498 34.7221 7.66146 34.4025 6.81565C34.0021 5.75557 32.9814 5.2751 31.9774 4.91043C31.4734 4.73341 30.9446 4.6316 30.4186 4.54442C26.5944 3.91023 22.5389 3.94084 18.6505 3.97412C16.5121 3.99275 14.3731 4.05397 12.2394 4.19905C11.1123 4.27424 10.8664 4.40933 10.8082 5.40753C10.1097 17.2828 10.2173 29.1826 10.7748 41.0618C10.8262 42.1419 10.9606 42.3522 12.0061 42.444C12.2708 42.4666 12.5348 42.4872 12.7968 42.5079C14.9807 42.6742 17.1732 42.7195 19.363 42.7055C21.5161 42.6922 23.6705 42.619 25.8183 42.4679C27.4493 42.3542 29.0924 42.2244 30.6953 41.9056C31.2468 41.7965 31.8009 41.6661 32.3029 41.4052C33.2341 40.9207 33.815 40.0956 34.1412 39.1147C34.5155 37.9894 34.6365 36.7782 34.7709 35.6057C34.9086 34.4018 35.0108 33.194 35.091 31.9855C35.442 26.7011 35.4353 21.386 35.2301 16.0962ZM31.2635 19.918C31.2622 19.9213 31.2608 19.924 31.2595 19.9273C31.2441 19.9792 31.2227 20.0325 31.1926 20.0857C30.1325 21.9809 27.1291 21.5424 25.2681 21.5996C22.4332 21.6855 18.7441 22.158 16.0649 21.038C14.4967 20.3825 14.6478 17.9662 14.605 16.598C14.5475 14.7773 14.2815 12.3117 15.0836 10.5995C16.0723 8.4893 19.6892 8.94248 21.577 8.93716C24.3437 8.92917 27.3805 8.77745 30.0937 9.40831C31.8056 9.80625 31.6552 12.544 31.6826 13.8057C31.7241 15.7163 31.9493 18.0853 31.2635 19.9173V19.918Z" fill="#00EBED"/>
<path d="M16.3931 11.1133C16.9867 9.84626 21.6906 10.3367 22.8624 10.3434C24.7822 10.3533 26.7054 10.4345 28.6185 10.5916C30.7248 10.7639 30.2736 13.3107 30.2889 14.8279C30.3036 16.268 30.4199 18.0228 29.9433 19.4183C29.1719 20.6241 25.184 20.2029 24.0162 20.2308C21.9868 20.2794 19.952 20.2561 17.9306 20.0671C15.696 19.8582 16.0542 17.8458 15.9994 16.1023C15.952 14.607 15.7401 12.5068 16.3931 11.114V11.1133Z" fill="#E5E5E5"/>
<path d="M9.07022 33.407C9.01073 31.382 8.97196 29.3563 8.94589 27.3313C8.41246 27.9688 8.50137 28.9956 8.45324 29.7809C8.37035 31.1358 8.01607 32.0089 6.68652 32.5672C5.47996 33.0736 4.68517 32.6011 4.18317 31.7493C4.20589 32.1752 4.22461 32.6011 4.25335 33.027C4.31084 33.8841 4.45523 33.8648 5.37502 33.6452C6.58157 33.3571 7.81019 33.2799 9.07022 33.407Z" fill="#FFA222"/>
<path d="M7.13706 27.4911C6.39642 27.4811 5.53278 27.565 5.10764 28.1186C4.59494 28.7881 4.62301 30.2475 4.91713 30.9895C5.20724 31.7221 6.10764 31.6203 6.62636 31.2849C7.02142 31.0287 7.14107 30.4697 7.20056 30.0432C7.30083 29.3225 7.31888 28.6843 7.54615 28.0308C7.67249 27.6675 7.57623 27.4964 7.13706 27.4911Z" fill="#FBE134"/>
<path d="M3.98529 25.4668C3.98662 25.5985 3.98529 25.7309 3.98662 25.8634C3.99598 26.6879 4.0762 26.6959 4.93315 26.453C6.23797 26.0823 7.56618 25.9572 8.93116 26.079C8.91111 24.0573 8.9091 22.0363 8.92515 20.0153C8.49801 20.6295 8.4091 21.6656 8.32688 22.2532C8.12969 23.666 7.92849 24.5371 6.57086 25.2259C5.9131 25.5599 4.66377 26.0464 3.98462 25.4674L3.98529 25.4668Z" fill="#EA0F4D"/>
<path d="M6.44724 20.6094C5.92251 20.5336 5.21729 20.7292 4.95994 21.1844C4.60031 21.8226 4.4987 22.856 4.72932 23.5674C4.96595 24.2994 5.68587 24.2103 6.13574 23.8017C6.41114 23.5515 6.62304 23.246 6.73133 22.862C6.88641 22.3117 6.64978 21.7008 6.7193 21.1218C6.75607 20.8257 6.71863 20.6487 6.44858 20.6094H6.44724Z" fill="#FF6699"/>
<path d="M30.696 41.9063C31.2474 41.7972 31.8016 41.6667 32.3036 41.4059C33.2348 40.9214 33.8156 40.0962 34.1418 39.1153C34.204 38.9263 34.2508 38.7327 34.3009 38.5404C33.7468 39.2877 33.0416 39.9405 32.0636 40.4629C30.2314 41.4418 28.1699 41.5749 26.1405 41.6687C23.9232 41.7712 21.7013 41.7852 19.482 41.7825C17.8978 41.7805 16.2554 41.8571 14.6812 41.6461C12.8563 41.4005 12.1845 40.027 11.8684 38.3674C11.4686 36.2691 11.5248 34.0771 11.482 31.9469C11.3958 27.6367 11.3617 23.3259 11.3396 19.0143C11.3242 15.9033 11.3109 12.7909 11.3476 9.67982C11.3577 8.83601 11.367 7.99087 11.4071 7.14839C11.4713 5.79683 12.0281 4.80729 12.9071 4.15979C12.6845 4.17376 12.462 4.18375 12.24 4.19905C11.113 4.27425 10.867 4.40934 10.8089 5.40754C10.1103 17.2828 10.218 29.1826 10.7754 41.0618C10.8269 42.1419 10.9613 42.3522 12.0067 42.444C12.2714 42.4666 12.5355 42.4873 12.7975 42.5079C14.9813 42.6742 17.1739 42.7195 19.3637 42.7055C21.5168 42.6922 23.6712 42.619 25.819 42.4679C27.45 42.3542 29.093 42.2244 30.696 41.9056V41.9063Z" fill="#19BFBB"/>
<path d="M31.2595 19.928C31.2441 19.9799 31.2227 20.0332 31.1927 20.0864C31.1632 20.1383 31.1278 20.1816 31.0957 20.2301C32.1953 19.0523 32.1185 16.793 32.0242 15.3363C31.9046 13.4923 32.6031 10.5629 30.8056 9.34247C29.6312 8.54524 27.7294 8.64307 26.3872 8.57319C24.2982 8.46406 22.2013 8.45807 20.1111 8.50399C18.728 8.5346 16.9486 8.45075 15.851 9.44628C15.5201 9.74574 15.2848 10.1231 15.1164 10.5436C16.1451 8.50199 19.7067 8.94319 21.5763 8.93787C24.343 8.92988 27.3798 8.77816 30.0931 9.40902C31.805 9.80697 31.6546 12.5447 31.682 13.8064C31.7234 15.717 31.9487 18.086 31.2628 19.918C31.2615 19.9214 31.2602 19.924 31.2588 19.9274L31.2595 19.928Z" fill="#19BFBB"/>
<path d="M35.0055 33.1003C35.0349 32.729 35.0663 32.3576 35.091 31.9856C35.442 26.7012 35.4353 21.3861 35.2301 16.0963C35.1452 13.9143 35.0249 11.7315 34.8196 9.55746C34.7348 8.66507 34.7221 7.66155 34.4025 6.81574C34.0021 5.75566 32.9814 5.27519 31.9774 4.91052C31.4734 4.7335 30.9446 4.63169 30.4186 4.54451C26.9446 3.96822 23.2815 3.9416 19.724 3.96556C21.1759 4.11263 22.6264 4.26701 24.0756 4.43471C26.1017 4.66962 28.1331 4.9185 30.1371 5.30048C30.9707 5.45886 31.7862 5.65917 32.5516 6.03582C33.585 6.54423 33.8918 7.56972 34.0115 8.62648C34.8417 15.9872 35.198 23.459 35.0696 30.8623C35.0569 31.6083 35.0342 32.3543 35.0061 33.1003H35.0055Z" fill="#19BFBB"/>
<path d="M30.2729 21.3641C30.5676 21.1239 30.7548 20.8351 30.8745 20.519C29.6211 21.9045 26.97 21.5478 25.2688 21.6004C22.4339 21.6862 18.7447 22.1587 16.0656 21.0387C14.4974 20.3832 14.6485 17.9669 14.6057 16.5987C14.5495 14.814 14.2989 12.4136 15.0449 10.7061C14.3838 11.3928 14.2908 12.8262 14.2106 13.6035C14.0302 15.3503 13.9553 17.3714 14.2501 19.1089C14.3737 19.8369 14.5903 20.7632 15.2541 21.2111C16.2701 21.8972 17.6585 22.0436 18.8544 22.1521C20.4533 22.2971 22.0917 22.1461 23.6933 22.1035C25.1498 22.0649 26.6004 22.007 28.0516 21.8772C28.7548 21.8147 29.6906 21.8393 30.2742 21.3648L30.2729 21.3641Z" fill="#19BFBB"/>
<path d="M9.11499 11.4793C9.18451 9.56277 9.27074 7.6469 9.38036 5.73169C9.38838 5.59128 9.38772 5.4675 9.3817 5.35437C9.12034 5.79358 9.02207 6.35057 8.93651 6.83636C8.82755 7.4599 8.8309 8.09675 8.73865 8.72295C8.54948 10.0093 7.46859 10.5164 6.39573 10.9383C5.875 11.1426 5.43182 11.4321 5.09692 11.7734C5.16176 11.7608 5.22594 11.7482 5.30481 11.7289C6.5488 11.4241 7.81485 11.3436 9.11432 11.4793H9.11499Z" fill="#EF6200"/>
<path d="M7.85634 5.88068C7.23669 5.47008 6.35768 6.12357 5.99003 6.61202C5.62839 7.09116 5.38107 9.09687 5.38575 9.43359C5.39778 10.3879 5.54751 10.1849 6.1411 9.90408C6.80086 9.58931 7.56557 9.37503 7.88041 8.70025C8.13041 8.16455 8.47466 6.28994 7.85634 5.88068Z" fill="#FFB85A"/>
<path d="M5.11768 19.0915C6.363 18.7601 7.63105 18.6516 8.93186 18.7681C8.95593 16.7557 9.00539 14.7447 9.07023 12.7336C8.6344 13.2101 8.46729 14.0932 8.35566 14.6043C8.18854 15.3696 8.14309 16.1508 7.81956 16.8748C7.52811 17.5263 6.84562 17.8577 6.21661 18.0866C5.23599 18.4433 4.59695 17.8577 4.14107 17.141C4.12235 17.5855 4.09695 18.0287 4.08158 18.4733C4.05216 19.3191 4.20323 19.3364 5.11768 19.0928V19.0915Z" fill="#27D89D"/>
<path d="M7.12836 12.8475C6.48531 12.8196 5.76873 12.9547 5.44854 13.3819C4.89706 14.1185 4.73329 15.2432 4.89974 16.1302C5.07287 17.0499 6.1317 17.0499 6.77608 16.5921C7.07956 16.3765 7.20322 15.9805 7.24266 15.6305C7.28411 15.2625 7.30483 14.8951 7.32221 14.5251C7.34159 14.1319 7.44788 13.8244 7.61232 13.5316C7.93384 12.9586 7.97996 12.8861 7.12836 12.8475Z" fill="#D3FFEB"/>
<path d="M8.79485 37.0698C8.88242 38.7195 8.86972 40.3232 8.37439 41.8578C9.12907 42.0288 9.3998 41.8039 9.3617 40.9721C9.25675 38.7328 9.16985 36.4921 9.09966 34.2515C7.78014 34.0985 6.49337 34.2076 5.23668 34.5523C4.62973 34.718 4.45459 34.8618 4.47732 35.456C5.14911 35.0408 6.0796 34.903 6.79751 34.8451C8.37105 34.718 8.72934 35.82 8.79552 37.0704L8.79485 37.0698Z" fill="#19BFBB"/>
<path d="M7.85232 36.8321C7.74136 35.9218 7.37505 35.595 6.45593 35.7654C4.56354 36.1174 5.47598 38.5025 6.59363 39.7915C7.09697 40.3724 7.74336 40.6699 7.93788 39.5047C8.08561 38.6203 7.94524 37.5855 7.85299 36.8321H7.85232Z" fill="#6CFFFB"/>
<path d="M29.9433 19.4182C30.1773 18.7335 30.2669 17.9629 30.2976 17.1849C30.2034 17.4804 30.0864 17.7719 29.9313 18.0614C29.3404 19.166 28.1465 19.4635 26.9981 19.5334C24.9667 19.6571 22.9039 19.4548 20.8751 19.3484C19.8591 19.2951 18.7374 19.3251 17.8083 18.8672C16.8751 18.4074 16.6993 17.2535 16.581 16.3458C16.3651 14.6934 16.2955 12.9686 16.3303 11.2803C15.7635 12.6704 15.9533 14.6628 15.9988 16.1016C16.0536 17.8451 15.6953 19.8568 17.9299 20.0664C19.9513 20.2554 21.9867 20.2787 24.0155 20.2301C25.1826 20.2028 29.1706 20.6241 29.9427 19.4176L29.9433 19.4182Z" fill="#C6C6C6"/>
<path d="M28.9413 13.5821C28.8016 11.7468 28.1779 11.7554 26.0756 11.6276C25.0576 11.5664 24.0395 11.5079 23.0221 11.4413C21.7902 11.3608 20.1645 11.1112 19.0174 11.7155C17.962 12.2712 17.8831 13.5608 17.9339 14.6362C17.9907 15.8487 18.5181 16.6792 19.6933 16.9833C21.357 17.4145 23.1679 17.3906 24.8717 17.3526C25.9994 17.328 27.5609 17.4778 28.4346 16.616C29.1726 15.888 29.0121 14.5104 28.9413 13.5821Z" fill="#F4F4F4"/>
</svg>
