<svg width="47" height="48" viewBox="0 0 47 48" fill="none" xmlns="http://www.w3.org/2000/svg">
<g style="mix-blend-mode:multiply" opacity="0.3">
<path d="M42.1475 7.78086C41.6893 7.52619 41.2261 7.34308 40.7805 7.20838C40.595 5.43972 39.9491 3.14278 37.6128 2.01115C33.9082 0.174441 29.8401 2.76534 29.4613 6.24933C26.3892 6.16444 23.3319 6.17637 20.3089 6.29353C19.8584 2.20689 14.7516 -0.103381 11.2936 2.5247C9.03401 4.50663 9.24556 5.86838 8.95037 7.53812C5.06157 8.38702 2.65223 12.0057 2.30995 15.9289C1.37307 23.2392 1.79126 31.4869 2.49761 37.9182C2.73306 42.242 4.89218 46.2213 9.65532 47.0835C18.2187 48.4993 28.5455 48.0418 36.8418 47.2652C38.899 47.0547 41.2177 47.0421 43.2904 45.3829C47.2094 41.9796 46.5733 34.6264 46.7582 29.78C46.7835 25.9796 46.6302 17.8786 45.8775 13.787C45.3384 10.879 44.0832 8.85847 42.1482 7.78086H42.1475Z" fill="#231F20"/>
</g>
<path d="M40.7412 6.37681C40.283 6.12214 39.8198 5.93903 39.3742 5.80433C39.1886 4.03567 38.5427 1.73873 36.2065 0.607098C32.5018 -1.22961 28.4338 1.36129 28.055 4.84528C24.9829 4.76039 21.9255 4.77232 18.9026 4.88948C18.4521 0.802836 13.3453 -1.50743 9.88729 1.12065C7.62767 3.10258 7.83922 4.46433 7.54403 6.13406C3.65452 6.98367 1.24519 10.6024 0.902909 14.5255C-0.0339749 21.8359 0.384214 30.0836 1.09057 36.5148C1.32602 40.8386 3.48514 44.8179 8.24828 45.6801C16.8117 47.0959 27.1385 46.6385 35.4348 45.8619C37.492 45.6514 39.8106 45.6388 41.8833 43.9795C45.8023 40.5762 45.1663 33.2231 45.3511 28.3766C45.3764 24.5762 45.2232 16.4752 44.4705 12.3836C43.9314 9.47564 42.6761 7.45512 40.7412 6.37751V6.37681Z" fill="white"/>
<path d="M39.4311 8.72162C38.795 8.36733 38.0704 8.2179 37.3387 8.1281C36.9016 8.07408 36.768 7.92113 36.7624 7.47423C36.7441 5.85571 36.6225 3.7938 35.0313 3.02277C34.0206 2.53308 32.7443 2.5857 31.832 3.26902C31.0975 3.81905 30.8157 4.61183 30.6744 5.48318C30.5598 6.18334 30.4924 6.89824 30.4664 7.61735C25.7939 7.4146 21.1024 7.41741 16.4335 7.70154C16.4208 6.05496 16.3667 3.83098 14.6996 3.02347C13.6882 2.53378 12.4126 2.5864 11.5003 3.26973C10.7658 3.81976 10.4847 4.61253 10.342 5.48388C10.219 6.24017 10.1487 7.014 10.1283 7.79275C10.1122 8.3989 10.2633 8.307 9.57871 8.43047C7.65996 8.77284 5.8389 9.37408 4.74248 11.1568C4.04245 12.2954 3.75288 13.606 3.56382 14.9116C3.05355 18.4356 3.0388 22.0381 3.09783 25.5916C3.15687 29.1219 3.3122 32.6732 3.7585 36.1783C3.89556 37.2552 4.01574 38.3812 4.3777 39.4125C5.09108 41.4428 6.70269 42.6271 8.7852 43.0515C10.8248 43.4669 12.9467 43.6058 15.0208 43.7236C17.3465 43.8548 19.6771 43.8948 22.0063 43.8801C26.3892 43.8534 30.7869 43.6647 35.1459 43.194C36.7849 43.0172 38.8393 43.0158 40.162 41.9171C41.3386 40.9398 41.8552 39.2631 42.1019 37.8003C42.6318 34.6594 42.643 31.4055 42.6606 28.2288C42.688 23.4967 42.4498 16.2389 41.8249 12.8735C41.5326 11.2957 40.9127 9.54877 39.4304 8.72303L39.4311 8.72162Z" fill="black"/>
<path d="M8.7838 24.3442C8.77396 23.7654 8.79153 23.1866 8.82597 22.6085C8.88079 21.6768 8.77607 21.6326 9.50491 21.453C10.5388 21.1976 14.8641 20.5894 15.3448 21.8066C15.751 22.8344 15.5817 24.2768 15.5683 25.3607C15.5676 25.4555 15.5669 25.7557 15.5585 26.0721C15.5367 26.9821 15.2731 27.0621 14.3587 27.2262C13.0022 27.469 11.3042 27.6317 9.84087 27.3736C9.36856 27.2901 8.91031 27.0452 8.82035 26.3633C8.72898 25.6701 8.79153 24.824 8.7838 24.3449V24.3442Z" fill="#FFC522"/>
<path d="M15.5711 34.872C15.5809 35.4508 15.5634 36.0296 15.5289 36.6077C15.4741 37.5394 15.5788 37.5836 14.85 37.7632C14.0895 37.9512 11.5502 38.3293 10.0672 38.0326C9.05158 37.8291 8.95669 37.4657 8.82948 36.7515C8.66431 35.8212 8.77536 34.7233 8.7859 33.854C8.78731 33.7516 8.78872 33.4015 8.79856 33.0549C8.82175 32.2229 9.26524 32.1197 9.99549 31.9892C11.2683 31.7619 12.8413 31.6048 14.2392 31.7991C15.1888 31.931 15.4804 32.2699 15.5528 33.0184C15.6154 33.6765 15.5634 34.43 15.5711 34.872Z" fill="#FFC522"/>
<path d="M19.4782 24.3442C19.4684 23.7654 19.4859 23.1866 19.5204 22.6085C19.5752 21.6768 19.4705 21.6326 20.1993 21.453C21.2332 21.1976 25.5584 20.5894 26.0392 21.8066C26.4454 22.8344 26.2767 24.2761 26.2634 25.3607C26.25 26.4405 26.1706 27.0256 25.0538 27.2262C23.7219 27.4641 22.0604 27.6261 20.6147 27.3869C19.7692 27.2473 19.6279 27.389 19.5042 26.2693C19.4297 25.5951 19.4866 24.803 19.4782 24.3449V24.3442Z" fill="#FFC522"/>
<path d="M32.0541 6.24792C32.1609 5.28817 32.2663 4.54241 33.0781 4.26037C33.5476 4.09691 34.7677 3.94116 35.0896 5.54355C35.2274 6.22477 35.2689 6.98457 35.2822 7.7598C35.2864 8.01026 35.214 10.0967 35.1332 10.7064C35.006 11.6704 34.8697 12.5628 33.9489 12.7971C32.8258 13.0819 32.3535 12.2007 32.1567 11.0866C31.8952 9.60213 31.8805 7.82996 32.0541 6.24862V6.24792Z" fill="#DDA96B"/>
<path d="M11.7217 6.24794C11.7343 6.13709 11.832 4.91074 12.3648 4.46244C12.9657 3.95661 14.0249 4.24566 14.3081 4.52979C14.6792 4.90092 14.8078 5.77017 14.8542 6.14761C14.9168 6.66116 14.9407 7.20628 14.9498 7.75912C14.9667 8.73991 14.9308 9.73193 14.8008 10.7057C14.6567 11.7924 14.4051 12.8792 13.2588 12.835C12.4589 12.8041 12.04 12.313 11.8236 11.086C11.5614 9.60144 11.5474 7.82927 11.721 6.24794H11.7217Z" fill="#DDA96B"/>
<path d="M4.87602 16.0635C5.07984 13.9048 5.56199 11.53 7.54048 10.5183C8.34734 10.1058 9.27649 9.93813 10.1853 9.80764C10.2288 10.345 10.2935 10.8775 10.3821 11.4016C10.5514 12.4034 10.8473 13.2018 11.7097 13.8094C12.4688 14.344 13.4155 14.4506 14.2413 14.1672C15.5999 13.7006 15.9984 12.7311 16.2339 11.0768C16.3232 10.4482 16.378 9.81676 16.4082 9.18324C21.087 8.8984 25.789 8.89489 30.472 9.09835C30.5057 9.87499 30.5866 10.6474 30.7138 11.4016C30.8832 12.4034 31.1791 13.2018 32.0414 13.8094C32.9249 14.431 34.0607 14.4745 34.9659 13.9974C36.0364 13.4348 36.3428 12.6469 36.5663 11.0775C36.6394 10.566 36.6907 10.0525 36.7237 9.53753C37.5629 9.61049 38.4506 9.72836 39.0768 10.2735C39.7228 10.8347 40.0201 11.7145 40.2316 12.5157C40.5043 13.5491 40.5971 14.5166 40.7004 15.564C40.8023 16.5876 40.6463 16.6914 39.7895 16.6444C28.4717 16.0158 17.097 16.0186 5.79041 16.8374C5.07211 16.89 4.80152 16.8528 4.87532 16.0642L4.87602 16.0635Z" fill="#00EBED"/>
<path d="M36.9613 34.8719C36.9711 35.4507 36.9536 36.0295 36.9191 36.6076C36.8636 37.5386 36.9683 37.5835 36.2402 37.7631C35.2063 38.0185 30.881 38.6267 30.4003 37.4095C29.9948 36.3817 30.1634 34.9393 30.1768 33.8546C30.1937 32.5371 30.4017 32.166 31.3864 31.9899C32.6916 31.7563 34.3137 31.597 35.7384 31.8159C36.898 31.9941 36.9016 32.2607 36.9599 33.2352C36.9957 33.8364 36.955 34.4783 36.9613 34.8726V34.8719Z" fill="#FF2E60"/>
<path d="M30.1733 24.3442C30.1635 23.7654 30.1817 23.1866 30.2162 22.6085C30.2717 21.6768 30.1656 21.6326 30.8951 21.453C31.9297 21.1976 36.2535 20.5894 36.735 21.8066C37.1412 22.8351 36.9718 24.2761 36.9592 25.3607C36.9444 26.5506 36.7989 27.0375 35.7496 27.2262C34.5625 27.4388 33.1133 27.5896 31.7884 27.4507C30.8304 27.3504 30.2633 27.0501 30.1866 26.1346C30.1325 25.4919 30.181 24.7721 30.174 24.3442H30.1733Z" fill="#FFC522"/>
<path d="M41.1748 25.8014C41.1537 23.6567 41.1045 21.5078 40.9879 19.3631C40.9352 18.3921 40.7897 18.1781 39.6532 18.115C28.4654 17.4983 17.2221 17.499 6.04414 18.2988C5.07773 18.3669 4.69047 18.5591 4.64478 19.5385C4.50703 22.5054 4.54568 25.4857 4.66095 28.4505C4.77762 31.449 4.91748 34.5121 5.43477 37.458C5.63297 38.5875 5.9127 39.7444 6.78914 40.5568C8.13859 41.8084 10.4024 41.8498 12.1399 42.0217C16.482 42.4503 20.8698 42.4651 25.2267 42.3423C29.0628 42.2343 32.9235 42.0385 36.7287 41.5229C37.4652 41.4225 38.2876 41.3727 38.9363 40.9827C39.6883 40.5301 40.0461 39.6644 40.311 38.8681C40.6589 37.8277 40.7749 36.8378 40.874 35.7868C41.1868 32.4733 41.2072 29.1254 41.1748 25.8007V25.8014ZM8.31782 20.2758C9.69117 19.7146 11.3759 19.6907 12.8364 19.723C13.6369 19.7412 15.5374 19.5743 16.1397 20.2835C17.1919 21.5232 17.0759 23.3852 17.0569 24.9146C17.0443 25.9179 17.2439 27.8591 16.0666 28.3165C14.2378 29.0265 11.4708 29.2636 9.36926 28.8083C8.25737 28.5663 7.80967 28.4526 7.4702 27.074C7.21436 26.0329 7.28746 24.7736 7.30011 23.8798C7.31416 22.8562 7.1244 20.7641 8.31782 20.2758ZM16.0385 38.9404C14.6652 39.5016 12.9805 39.5255 11.52 39.4932C11.0406 39.482 10.1656 39.5381 9.41214 39.4322C8.42043 39.2919 7.85605 38.8976 7.49128 37.4615C7.23264 36.4442 7.28675 35.302 7.29941 34.3016C7.31206 33.2991 7.11245 31.3564 8.28971 30.8997C10.3743 30.0901 13.6763 29.8965 15.8241 30.6401C15.971 30.6556 16.1193 30.7222 16.2522 30.8632C17.2256 31.898 17.0745 34.0154 17.0562 35.3371C17.0422 36.36 17.2326 38.4528 16.0392 38.9411L16.0385 38.9404ZM19.0129 20.2758C20.3863 19.7146 22.071 19.6907 23.5315 19.723C24.332 19.7412 26.2339 19.5736 26.8348 20.2835C27.8863 21.5239 27.771 23.3852 27.752 24.9146C27.7401 25.9179 27.939 27.8591 26.7617 28.3165C24.6778 29.1261 21.3745 29.3198 19.2273 28.5768C19.0804 28.5607 18.9321 28.494 18.8 28.3537C17.8265 27.3196 17.9776 25.2008 17.9959 23.8798C18.01 22.8562 17.8195 20.7641 19.0129 20.2758ZM26.7329 38.9404C25.3603 39.5016 23.6755 39.5255 22.215 39.4932C21.4145 39.475 19.5133 39.6427 18.9117 38.9327C17.8603 37.693 17.9755 35.8317 17.9945 34.3009C18.0064 33.2977 17.8075 31.3564 18.9848 30.899C21.0687 30.0894 24.3721 29.8958 26.5192 30.6394C26.6661 30.6556 26.8144 30.7222 26.9466 30.8625C27.9207 31.8959 27.7696 34.0154 27.7513 35.3364C27.7373 36.36 27.927 38.4521 26.7329 38.9404ZM29.7087 20.2758C31.0814 19.7146 32.7668 19.6907 34.2273 19.723C35.0271 19.7412 36.929 19.5736 37.5306 20.2835C38.5821 21.5239 38.4668 23.3845 38.4478 24.9146C38.4352 25.9179 38.6348 27.8591 37.4575 28.3165C35.6336 29.0251 32.8764 29.2622 30.7777 28.8125C29.7157 28.5845 29.2765 28.5551 28.9004 27.2214C28.5989 26.1543 28.6784 24.8164 28.691 23.8798C28.7051 22.8562 28.5146 20.7641 29.7087 20.2758ZM37.428 38.9404C36.0553 39.5016 34.3706 39.5255 32.9101 39.4932C32.1096 39.475 30.2084 39.6427 29.6061 38.9327C28.5547 37.693 28.6706 35.831 28.6896 34.3009C28.7022 33.2984 28.5026 31.3557 29.6799 30.899C31.7638 30.0894 35.0672 29.8958 37.2143 30.6394C37.3612 30.6556 37.5088 30.7222 37.6417 30.8625C38.6158 31.8959 38.4647 34.0154 38.4464 35.3364C38.4323 36.36 38.6221 38.4521 37.4287 38.9404H37.428Z" fill="#E5E5E5"/>
<path d="M26.2669 34.8719C26.2768 35.4507 26.2585 36.0295 26.224 36.6076C26.1685 37.5393 26.2739 37.5835 25.5451 37.7631C24.5112 38.0184 20.1867 38.6267 19.7052 37.4095C19.299 36.3817 19.4677 34.9392 19.481 33.8546C19.4965 32.6086 19.649 32.1758 20.6906 31.9898C21.9705 31.7611 23.5547 31.6033 24.9589 31.8032C25.7897 31.9211 26.1791 32.3245 26.2465 32.9987C26.3126 33.6617 26.2592 34.4257 26.2669 34.8719Z" fill="#FFC522"/>
<path d="M40.7011 15.5633C40.6667 15.216 40.6308 14.8793 40.5922 14.5439C40.2829 15.0392 39.7523 15.4237 38.899 15.6348C37.2762 16.0354 35.4804 15.7653 33.8238 15.7387C30.0918 15.6783 26.3576 15.7057 22.6255 15.7401C18.9637 15.7738 15.3019 15.8215 11.6415 15.9239C10.4355 15.9576 9.22378 16.0565 8.01771 16.0558C7.11737 16.0544 6.11864 15.8916 5.59713 15.0827C5.33286 14.6723 5.26609 14.1566 5.28788 13.627C5.0693 14.4141 4.95333 15.2546 4.87672 16.0642C4.80222 16.8528 5.07352 16.89 5.79182 16.8373C17.0984 16.0186 28.4731 16.0158 39.7909 16.6444C40.6477 16.6914 40.803 16.5876 40.7018 15.564L40.7011 15.5633Z" fill="#19BFBB"/>
<path d="M10.5381 12.1116C10.4734 11.8871 10.4235 11.6506 10.3814 11.4016C10.2928 10.8775 10.2281 10.345 10.1846 9.80762C9.27579 9.93881 8.34734 10.1058 7.53977 10.5183C6.87348 10.8593 6.38009 11.3567 6.00618 11.9467C6.6802 11.5538 7.38445 11.2374 8.18709 11.0262C9.11554 10.7814 9.89077 11.3981 10.5374 12.1116H10.5381Z" fill="#6CFFFB"/>
<path d="M39.0776 10.2728C38.4506 9.72769 37.5629 9.60983 36.7244 9.53687C36.6907 10.0518 36.6394 10.5654 36.567 11.0768C36.4778 11.7061 36.3716 12.2049 36.2121 12.6189C36.4096 12.4393 36.5874 12.2274 36.7448 12.0008C37.2207 11.3174 37.5819 10.785 38.5033 10.7976C38.9187 10.8039 39.3221 10.9211 39.7094 11.0922C39.5442 10.7843 39.3411 10.5015 39.0783 10.2728H39.0776Z" fill="#6CFFFB"/>
<path d="M28.6046 10.2861C29.3763 10.4327 30.0496 10.8087 30.692 11.2444C30.5802 10.54 30.5036 9.82093 30.472 9.09761C25.789 8.89415 21.0877 8.89696 16.4082 9.1825C16.378 9.81602 16.3232 10.4481 16.2339 11.076C16.1903 11.3847 16.1369 11.6611 16.0765 11.9228C16.1488 11.826 16.2219 11.7285 16.3 11.6317C16.8025 11.0087 17.5475 10.7224 18.3009 10.5428C20.0131 10.1366 21.8896 10.1444 23.6404 10.117C25.2604 10.0917 27.0084 9.98159 28.6039 10.2861H28.6046Z" fill="#6CFFFB"/>
<path d="M34.6307 10.4973C34.1303 11.3672 33.4429 11.6865 32.7534 10.7927C32.2439 10.1332 32.1237 9.31936 31.9416 8.53711C31.9494 9.41968 32.0168 10.2938 32.1567 11.0852C32.3535 12.2 32.8258 13.0812 33.9489 12.7956C34.8697 12.5606 35.006 11.6689 35.1332 10.705C35.1719 10.4166 35.2077 9.79923 35.2351 9.20079C35.0573 9.6491 34.8647 10.089 34.6307 10.4966V10.4973Z" fill="#C48D51"/>
<path d="M14.1282 11.0031C13.3776 11.9516 12.6698 11.4444 12.1244 10.5857C11.8587 10.1676 11.7287 9.70171 11.6275 9.22815C11.6577 9.87219 11.721 10.5015 11.8243 11.0859C12.0408 12.3123 12.4596 12.8033 13.2595 12.8349C14.4058 12.8791 14.6574 11.7924 14.8015 10.7057C14.8465 10.3682 14.8767 10.0279 14.9006 9.68628C14.6884 10.1479 14.4501 10.5962 14.1282 11.0031Z" fill="#C48D51"/>
<path d="M34.3819 4.99073C34.7263 5.18016 34.9681 5.52112 35.1452 5.87752C35.1276 5.76527 35.1114 5.65231 35.0896 5.54287C34.7677 3.94048 33.5476 4.09693 33.0781 4.2597C32.4083 4.49262 32.2207 5.04265 32.1152 5.76527C32.6178 4.97951 33.3572 4.42527 34.3819 4.99003V4.99073Z" fill="#F4C38E"/>
<path d="M13.6664 4.93319C14.2779 5.04124 14.6195 5.55829 14.8514 6.12446C14.8029 5.73649 14.6729 4.89391 14.3081 4.52979C14.0249 4.24566 12.9664 3.95661 12.3648 4.46244C12.0077 4.76201 11.8482 5.40605 11.7765 5.83541C12.1876 5.21102 12.7626 4.77253 13.6657 4.93249L13.6664 4.93319Z" fill="#F4C38E"/>
<path d="M23.4478 26.9063C22.7766 26.9203 22.0935 26.8951 21.4222 26.8719C20.5142 26.8396 19.8437 26.599 19.4691 25.6736C19.4733 25.875 19.4831 26.0763 19.5042 26.2686C19.6272 27.3883 19.7692 27.2465 20.6147 27.3862C22.0604 27.6254 23.7219 27.464 25.0538 27.2255C26.1706 27.0256 26.25 26.4404 26.2634 25.36C26.269 24.9012 26.3006 24.3792 26.3063 23.851C26.2725 24.2305 26.2247 24.6093 26.1418 24.9896C25.8347 26.4047 24.7804 26.8782 23.4471 26.9056L23.4478 26.9063Z" fill="#FFA222"/>
<path d="M12.8357 26.9064C12.1645 26.9204 11.4813 26.8951 10.8101 26.872C9.8725 26.839 9.18512 26.59 8.81754 25.5867C8.79856 25.5362 8.78521 25.4829 8.77045 25.4317C8.77045 25.7432 8.78099 26.0666 8.81965 26.3634C8.90961 27.046 9.36786 27.2901 9.84017 27.3736C11.3035 27.6318 13.0015 27.469 14.358 27.2263C15.2731 27.0621 15.536 26.9828 15.5578 26.0722C15.5655 25.7558 15.5662 25.4555 15.5676 25.3608C15.5704 25.1426 15.5795 24.9076 15.5887 24.6663C15.5704 24.7743 15.5521 24.8823 15.5289 24.9904C15.2218 26.4055 14.1682 26.879 12.835 26.9064H12.8357Z" fill="#FFA222"/>
<path d="M15.5303 35.5195C15.2232 36.9345 14.1689 37.4081 12.8357 37.4354C12.1645 37.4495 11.4813 37.4242 10.8101 37.4011C9.87249 37.3681 9.18512 37.119 8.81753 36.1158C8.79083 36.0428 8.76974 35.9671 8.75006 35.8913C8.7606 36.1853 8.78099 36.4764 8.83018 36.7514C8.9574 37.4656 9.05228 37.829 10.0679 38.0325C11.5502 38.3292 14.0902 37.9504 14.8507 37.7631C15.5795 37.5835 15.4748 37.5393 15.5296 36.6076C15.5549 36.1754 15.5669 35.7426 15.5697 35.3097C15.5564 35.3798 15.5465 35.45 15.531 35.5202L15.5303 35.5195Z" fill="#FFA222"/>
<path d="M36.8699 24.9903C36.5628 26.4054 35.5085 26.879 34.1753 26.9063C33.504 26.9203 32.8209 26.8951 32.1497 26.8719C31.2156 26.839 30.5303 26.5906 30.162 25.5979C30.1641 25.7775 30.1712 25.9585 30.1859 26.1346C30.2625 27.0501 30.8297 27.3511 31.7877 27.4507C33.1126 27.5896 34.5611 27.4388 35.7489 27.2262C36.7982 27.0382 36.9437 26.5513 36.9585 25.3608C36.9627 25.01 36.9824 24.622 36.9943 24.2235C36.9634 24.4789 36.9255 24.735 36.8699 24.991V24.9903Z" fill="#FFA222"/>
<path d="M23.4478 37.4355C22.7766 37.4495 22.0935 37.4242 21.4222 37.4011C20.5064 37.3688 19.8317 37.1254 19.4585 36.1804C19.4901 36.6195 19.5604 37.0412 19.7059 37.4095C20.1867 38.6274 24.5112 38.0185 25.5458 37.7631C26.2753 37.5828 26.1699 37.5393 26.2247 36.6076C26.2592 36.0295 26.2767 35.4507 26.2676 34.8719C26.2676 34.8354 26.2676 34.7948 26.2676 34.7548C26.236 35.0094 26.198 35.2641 26.1432 35.5195C25.8361 36.9345 24.7818 37.4081 23.4485 37.4355H23.4478Z" fill="#FFA222"/>
<path d="M10.5304 22.0872C9.9983 22.1497 9.75372 22.4605 9.64548 22.9474C9.47258 23.724 9.61245 24.326 10.032 24.6704C10.3076 24.8963 10.704 25.0114 11.2121 24.9924C11.9599 24.9637 12.7935 24.9672 13.5301 24.8493C14.1205 24.7546 14.5415 24.3575 14.6834 23.7493C14.7874 23.3024 14.7382 22.8421 14.5604 22.4949C14.3545 22.0936 14.1205 21.9729 13.795 21.9483C13.5497 21.9301 11.3077 21.9967 10.5311 22.0872H10.5304Z" fill="#FBE134"/>
<path d="M10.5304 32.8051C9.9983 32.8675 9.75372 33.1783 9.64548 33.6652C9.47258 34.4419 9.61245 35.0438 10.032 35.3883C10.3076 35.6142 10.704 35.73 11.2121 35.7103C11.9599 35.6815 12.7935 35.6851 13.5301 35.5672C14.1205 35.4725 14.5415 35.0754 14.6834 34.4671C14.7874 34.0202 14.7382 33.56 14.5604 33.2127C14.3545 32.8114 14.1205 32.69 13.795 32.6662C13.5497 32.6473 11.3077 32.7139 10.5311 32.8051H10.5304Z" fill="#FBE134"/>
<path d="M21.1868 22.0872C20.6547 22.1497 20.4102 22.4605 20.3019 22.9474C20.129 23.724 20.2689 24.326 20.6885 24.6704C20.964 24.8963 21.3604 25.0114 21.8685 24.9924C22.6164 24.9637 23.4499 24.9672 24.1865 24.8493C24.7769 24.7546 25.1979 24.3575 25.3399 23.7493C25.4439 23.3024 25.3947 22.8421 25.2169 22.4949C25.0116 22.0936 24.7769 21.9729 24.4522 21.9483C24.2069 21.9301 21.9655 21.9967 21.1882 22.0872H21.1868Z" fill="#FBE134"/>
<path d="M31.9543 22.0872C31.4222 22.1497 31.1776 22.4605 31.0694 22.9474C30.8965 23.724 31.0357 24.326 31.4553 24.6704C31.7315 24.8963 32.1279 25.0114 32.6353 24.9924C33.3831 24.9637 34.2174 24.9672 34.9533 24.8493C35.5444 24.7546 35.9647 24.3575 36.1067 23.7493C36.2107 23.3024 36.1615 22.8421 35.9837 22.4949C35.7784 22.0936 35.5437 21.9729 35.219 21.9483C34.9737 21.9301 32.7323 21.9967 31.955 22.0872H31.9543Z" fill="#FBE134"/>
<path d="M21.1868 32.8051C20.6547 32.8675 20.4102 33.1783 20.3019 33.6652C20.129 34.4419 20.2689 35.0438 20.6885 35.3883C20.964 35.6142 21.3604 35.73 21.8685 35.7103C22.6164 35.6815 23.4499 35.6851 24.1865 35.5672C24.7769 35.4725 25.1979 35.0754 25.3399 34.4671C25.4439 34.0202 25.3947 33.56 25.2169 33.2127C25.0116 32.8114 24.7769 32.69 24.4522 32.6662C24.2069 32.6473 21.9655 32.7139 21.1882 32.8051H21.1868Z" fill="#FBE134"/>
<path d="M36.2402 37.7632C36.969 37.5835 36.8643 37.5386 36.9191 36.6077C36.9395 36.2632 36.9515 35.9187 36.9578 35.5736C36.7167 36.4126 36.243 36.9942 35.1845 37.298C34.1549 37.5941 32.9003 37.5885 31.8446 37.4004C30.4593 37.1535 30.5894 35.5483 30.6365 34.4931C30.6653 33.8435 30.6639 32.7567 31.0743 32.0608C30.3574 32.2656 30.1909 32.6901 30.1761 33.854C30.1627 34.9386 29.9941 36.3811 30.3996 37.4089C30.8803 38.6268 35.2049 38.0178 36.2395 37.7624L36.2402 37.7632Z" fill="#EA0F4D"/>
<path d="M34.5948 32.6122C33.9749 32.6557 33.2763 32.7238 32.9692 32.7568C32.4238 32.8157 32.1384 33.1798 32.0442 33.6898C31.9585 34.1536 31.9051 35.0228 32.2221 35.4213C32.6276 35.9314 33.3993 35.8963 33.9953 35.9173C34.4641 35.9342 35.3167 35.984 35.7145 35.6465C36.1123 35.3098 36.1952 34.7176 36.2275 34.1845C36.3056 32.9532 35.5711 32.5421 34.5956 32.6115L34.5948 32.6122Z" fill="#FF6699"/>
<path d="M17.2903 34.6235C17.324 33.2576 17.3887 31.7211 16.5129 30.579C15.6604 29.4663 13.7529 29.8388 12.5651 29.869C11.1369 29.9041 8.76131 29.7118 7.70072 30.8792C6.78703 31.8853 7.16165 34.1794 7.23334 35.3679C7.24669 35.5812 7.26988 35.7888 7.2987 35.993C7.2748 35.4156 7.29167 34.8382 7.2987 34.3008C7.31135 33.2983 7.11175 31.3556 8.289 30.8989C10.3736 30.0893 13.6756 29.8956 15.8234 30.6393C15.9703 30.6547 16.1186 30.7214 16.2515 30.8624C17.2249 31.8972 17.0738 34.0146 17.0555 35.3363C17.0485 35.8372 17.0899 36.5963 16.9937 37.2972C17.3092 36.4736 17.2692 35.471 17.2903 34.6235Z" fill="#C6C6C6"/>
<path d="M16.5129 20.16C15.6604 19.0473 13.7529 19.4199 12.5651 19.45C11.1369 19.4851 8.76131 19.2936 7.70072 20.4603C6.78703 21.4664 7.16165 23.7605 7.23334 24.9489C7.24458 25.1384 7.26356 25.3236 7.28745 25.5053C7.27129 24.9195 7.29308 24.3491 7.2994 23.8798C7.31346 22.8562 7.12369 20.7641 8.31711 20.2758C9.69046 19.7145 11.3752 19.6907 12.8357 19.7229C13.6362 19.7412 15.5367 19.5742 16.139 20.2835C17.1912 21.5232 17.0752 23.3851 17.0562 24.9146C17.0499 25.4379 17.0991 26.2139 16.9831 26.9028C17.3092 26.075 17.2685 25.0605 17.2896 24.2046C17.3233 22.8386 17.3879 21.3022 16.5122 20.16H16.5129Z" fill="#C6C6C6"/>
<path d="M27.9221 34.6235C27.9565 33.2576 28.0205 31.7211 27.1455 30.579C26.2922 29.4663 24.3847 29.8388 23.1976 29.869C21.7694 29.9041 19.3931 29.7118 18.3333 30.8792C17.4196 31.8853 17.7942 34.1794 17.8666 35.3679C17.8905 35.7594 17.9418 36.1347 18.0268 36.4897C17.9587 35.7509 17.9854 34.9925 17.9945 34.3008C18.0064 33.2976 17.8075 31.3563 18.9848 30.8989C21.0687 30.0893 24.3721 29.8956 26.5192 30.6393C26.6661 30.6554 26.8144 30.7221 26.9466 30.8624C27.9207 31.8958 27.7696 34.0153 27.7513 35.3363C27.745 35.7713 27.7752 36.3992 27.7211 37.0145C27.9333 36.2512 27.9045 35.3756 27.9228 34.6235H27.9221Z" fill="#C6C6C6"/>
<path d="M38.613 34.6235C38.6474 33.2576 38.7114 31.7211 37.8363 30.579C36.9838 29.4663 35.0763 29.8388 33.8885 29.869C32.4603 29.9041 30.084 29.7118 29.0241 30.8792C28.1105 31.8853 28.4858 34.1794 28.5575 35.3679C28.5814 35.7685 28.6355 36.1522 28.7247 36.515C28.653 35.7678 28.6805 34.9996 28.6889 34.3015C28.7015 33.299 28.5019 31.3563 29.6792 30.8996C31.7631 30.09 35.0664 29.8963 37.2136 30.64C37.3605 30.6561 37.5081 30.7228 37.6409 30.8631C38.6151 31.8965 38.464 34.016 38.4457 35.337C38.4394 35.7664 38.4689 36.3852 38.4176 36.9934C38.6235 36.2343 38.5954 35.3693 38.6137 34.6242L38.613 34.6235Z" fill="#C6C6C6"/>
<path d="M37.8363 20.16C36.9838 19.0473 35.0763 19.4199 33.8885 19.45C32.4603 19.4851 30.084 19.2936 29.0241 20.4603C28.1105 21.4664 28.4858 23.7605 28.5575 24.9489C28.58 25.3222 28.627 25.6807 28.7051 26.0216C28.6474 25.2611 28.6826 24.4859 28.691 23.879C28.7051 22.8555 28.5146 20.7634 29.7087 20.2751C31.0814 19.7138 32.7668 19.69 34.2273 19.7222C35.0271 19.7405 36.929 19.5728 37.5306 20.2828C38.582 21.5232 38.4668 23.3837 38.4478 24.9139C38.4422 25.353 38.4773 25.9711 38.4197 26.5661C38.6235 25.8091 38.5961 24.9468 38.6144 24.2039C38.6488 22.8379 38.7128 21.3015 37.8377 20.1593L37.8363 20.16Z" fill="#C6C6C6"/>
<path d="M27.1455 20.16C26.2922 19.0473 24.3847 19.4199 23.1976 19.45C21.7694 19.4851 19.3931 19.2936 18.3333 20.4603C17.4196 21.4664 17.7942 23.7605 17.8666 24.9489C17.8891 25.3194 17.9355 25.6758 18.0121 26.0146C17.9558 25.2562 17.9868 24.4852 17.9959 23.8797C18.01 22.8562 17.8195 20.7641 19.0129 20.2758C20.3863 19.7145 22.071 19.6907 23.5315 19.7229C24.332 19.7412 26.2339 19.5735 26.8348 20.2835C27.8862 21.5239 27.771 23.3851 27.752 24.9146C27.7464 25.3601 27.7822 25.9901 27.7211 26.5934C27.9333 25.8301 27.9045 24.9567 27.9228 24.2046C27.9572 22.8386 28.0212 21.3022 27.1462 20.16H27.1455Z" fill="#C6C6C6"/>
<path d="M40.874 35.7875C41.1734 32.6178 41.2043 29.4172 41.1776 26.2342C41.1116 29.4579 40.9169 32.6837 40.3919 35.8478C40.1487 37.3078 39.876 39.5886 38.5835 40.4578C37.8666 40.9405 36.6963 40.9342 35.8705 41.0535C34.4156 41.2632 32.9474 41.3916 31.4827 41.5144C25.8241 41.9865 20.1606 42.0862 14.493 41.6996C12.584 41.5691 10.5634 41.4898 8.72546 40.9167C5.43055 39.8889 5.56198 35.4409 5.33778 32.6465C5.04048 28.9444 4.78183 25.2274 4.58152 21.514C4.53162 23.8264 4.57098 26.143 4.66095 28.4512C4.77762 31.4497 4.91748 34.5127 5.43477 37.4586C5.63297 38.5881 5.9127 39.745 6.78914 40.5574C8.13859 41.809 10.4024 41.8504 12.1399 42.0223C16.482 42.451 20.8698 42.4657 25.2267 42.3429C29.0628 42.2349 32.9235 42.0392 36.7287 41.5235C37.4652 41.4232 38.2876 41.3734 38.9363 40.9833C39.6883 40.5308 40.0461 39.6651 40.311 38.8688C40.6589 37.8283 40.7749 36.8384 40.874 35.7875Z" fill="#C6C6C6"/>
</svg>
