<svg width="43" height="48" viewBox="0 0 43 48" fill="none" xmlns="http://www.w3.org/2000/svg">
<g style="mix-blend-mode:multiply" opacity="0.3">
<path d="M1.86641 40.8921C2.75514 47.2049 5.11642 47.2555 10.5392 47.6306C18.6415 48.1227 26.8728 48.2246 35.2211 47.3017C39.5806 47.0556 41.5756 44.263 41.897 39.9933C42.4954 34.6078 42.1974 30.4906 41.7015 25.775C41.4934 23.8868 41.2442 21.2225 39.8526 19.7462C39.8558 18.3691 39.7824 16.9978 39.6344 15.6568C39.5338 14.6358 39.4762 13.267 38.3313 12.105C36.4786 10.5559 35.3887 10.9772 33.4924 10.7527C30.8863 7.23507 28.2764 3.79846 24.1699 1.66742C19.9066 -0.0240037 16.4535 4.02491 13.8784 6.46464C12.4565 7.91822 11.3223 9.1966 10.3672 10.425C8.18806 10.6995 6.18795 9.86836 4.23719 12.3498C3.48889 13.4713 3.41868 14.6978 3.36744 15.5941C3.27446 16.8643 3.21753 18.1294 3.23271 19.4837C1.65451 22.0613 1.55393 25.0456 1.3977 27.6049C1.14784 31.879 1.22564 36.735 1.86641 40.8928V40.8921Z" fill="#231F20"/>
</g>
<path d="M9.2735 46.3649C17.3758 46.857 25.6071 46.9589 33.9554 46.036C38.3149 45.7899 40.3099 42.9972 40.6313 38.7276C41.2296 33.3421 40.9317 29.2248 40.4358 24.5092C40.2277 22.6211 39.9785 19.9568 38.5869 18.4804C38.59 17.1034 38.5167 15.732 38.3686 14.391C38.2681 13.3701 38.2105 12.0013 37.0656 10.8393C35.2129 9.29021 34.123 9.71148 32.2266 9.48693C29.6206 5.96935 27.0107 2.53274 22.9042 0.401695C18.6415 -1.29036 15.1884 2.75856 12.6127 5.19765C11.1907 6.65123 10.0566 7.92961 9.10145 9.15801C6.92234 9.43253 4.92223 8.60137 2.97146 11.0828C2.22316 12.2043 2.15295 13.4308 2.10171 14.3272C2.00873 15.5973 1.9518 16.8624 1.96698 18.2167C0.388152 20.7949 0.287578 23.7793 0.131972 26.3385C-0.117883 30.6126 -0.0400802 35.4687 0.600687 39.6264C1.48941 45.9392 3.8507 45.9898 9.2735 46.3649Z" fill="white"/>
<path d="M2.99044 39.2386C3.16882 40.3392 3.38957 41.586 3.92787 42.5708C4.45541 43.5355 5.55414 43.5526 6.52257 43.6746C7.49352 43.7967 8.47017 43.8796 9.44555 43.9492C15.0088 44.3458 20.6182 44.3787 26.1909 44.1813C28.6762 44.0934 31.1703 43.9618 33.6378 43.6354C34.8922 43.4697 36.168 43.3495 37.0213 42.2913C37.8879 41.2159 38.0593 39.7465 38.2295 38.4201C38.6141 35.4079 38.5799 32.3312 38.4192 29.3039C38.3402 27.8009 38.2181 26.2999 38.0328 24.8058C37.8828 23.5932 37.7715 22.2795 37.3806 21.1149C37.1548 20.4438 36.6684 19.9789 36.2294 19.4431C36.2047 19.4128 36.1781 19.3894 36.1516 19.3653C36.1959 17.7909 36.1326 16.2013 35.9618 14.6554C35.8916 14.0191 35.8714 13.0557 35.3735 12.5712C34.7986 12.0101 33.9016 12.0272 33.1596 11.9747C32.3803 11.9196 31.6011 11.8716 30.8205 11.8248C30.8059 11.7855 30.7889 11.7463 30.7655 11.7071C29.8786 10.2086 28.7476 8.82776 27.6116 7.5146C26.2345 5.92375 24.7304 4.34745 22.9599 3.18926C22.6265 2.97103 22.2805 2.77431 21.9168 2.61175C21.5316 2.4397 21.2337 2.41187 20.8187 2.41187C20.0944 2.41187 19.484 2.69145 18.866 3.05959C17.1765 4.06723 15.7103 5.49172 14.3427 6.88965C12.9676 8.29579 11.6285 9.77215 10.469 11.3643C10.4266 11.4218 10.4001 11.4794 10.3798 11.5357C9.38546 11.5673 8.39047 11.6046 7.39674 11.6495C6.53205 11.6888 5.52631 11.6135 4.98422 12.4257C4.52879 13.1088 4.55346 14.0678 4.49336 14.854C4.3871 16.238 4.36369 17.6258 4.40164 19.0124C4.33713 19.0573 4.2764 19.1129 4.22453 19.1869C2.78549 21.2332 2.69314 24.0677 2.54766 26.484C2.37118 29.4063 2.3794 32.3483 2.56663 35.2694C2.65139 36.5971 2.7779 37.9248 2.99044 39.2386Z" fill="black"/>
<path d="M34.6037 14.4473C34.5089 13.7186 34.3868 13.4055 33.6897 13.348C31.9287 13.2 30.1601 13.112 28.3953 13.0254C24.934 12.8559 21.4683 12.7667 18.0032 12.7584C14.5375 12.7502 11.0718 12.8223 7.60928 12.9754C7.32653 12.9881 7.04378 13.0001 6.76104 13.014C6.19807 13.0431 6.00388 13.2518 5.9324 13.7085C5.80906 14.4967 5.78629 15.3171 5.75086 16.1135C5.69204 17.4114 5.69963 18.7107 5.76668 20.0074C5.82993 21.2251 6.00578 21.6761 6.74586 22.5085C7.54033 23.401 8.39743 24.2391 9.27793 25.0456C11.1958 26.8022 13.2465 28.4304 15.4395 29.8321C16.0911 29.3311 16.7654 28.8662 17.4719 28.462C18.3347 27.9686 19.3215 27.5315 20.3367 27.5771C21.5183 27.6302 22.6449 28.1293 23.6487 28.7232C24.1339 29.0104 24.6001 29.3292 25.0586 29.6607C27.1802 28.3728 29.1759 26.8768 31.0191 25.2158C31.9578 24.3701 32.8826 23.4782 33.7232 22.5173C34.5512 21.5698 34.7151 21.4452 34.7828 20.3382C34.9029 18.3837 34.8536 16.3671 34.6025 14.4467L34.6037 14.4473ZM22.2856 23.7824C21.8485 24.1088 21.3456 24.4485 20.8143 24.6433C20.5138 24.7534 19.9863 24.7578 19.7118 24.6629C19.1602 24.4719 18.6377 24.1196 18.1854 23.7824C16.5338 22.5483 15.1347 20.6924 15.2283 18.5399C15.2789 17.3792 15.7527 16.3747 16.8659 15.8965C17.4283 15.6549 18.0349 15.6175 18.6314 15.7485C18.9691 15.8231 19.2968 15.9579 19.6061 16.1122C20.2399 16.4272 20.1805 16.4525 20.8642 16.1122C21.1736 15.9585 21.5012 15.8231 21.839 15.7485C22.4355 15.6175 23.0421 15.6549 23.6044 15.8965C24.7177 16.3747 25.1915 17.3792 25.2421 18.5399C25.3357 20.6924 23.9365 22.5483 22.2849 23.7824H22.2856Z" fill="#E5E5E5"/>
<path d="M16.2644 17.4436C16.5111 16.9768 16.9855 16.6491 17.4922 16.5239C18.1234 16.3683 18.7655 16.5701 19.3227 16.8661C19.4543 16.9357 19.5821 17.0116 19.7099 17.0774C20.0008 17.2285 20.4297 17.2482 20.7523 17.0818C20.8826 17.0154 21.0135 16.9376 21.1476 16.8661C21.7055 16.5701 22.3469 16.3683 22.9782 16.5239C23.4849 16.6491 23.9593 16.9768 24.206 17.4436C24.4653 17.9338 24.4729 18.5695 24.4356 19.1097C24.3186 20.7923 23.0181 22.2895 21.6973 23.2251C21.2735 23.5255 20.7605 23.8829 20.2349 23.9829C19.7092 23.8835 19.1962 23.5262 18.7724 23.2251C17.4517 22.2895 16.1505 20.7923 16.0341 19.1097C15.9968 18.5695 16.0044 17.9332 16.2637 17.4436H16.2644Z" fill="#A952F0"/>
<path d="M33.3842 42.338C31.4853 42.5917 29.5611 42.6992 27.6502 42.7884C22.2558 43.0395 16.8324 43.0174 11.4393 42.7378C9.97942 42.6619 8.45056 42.5777 7.00709 42.4057C6.03993 42.2906 5.76984 41.9756 6.40934 41.2026C7.75033 39.582 9.11726 37.9842 10.5367 36.4319C12.5412 34.2395 14.6438 32.0067 17.0861 30.2925C17.9052 29.7181 18.8053 29.1368 19.8009 28.9407C20.0837 28.8851 20.5461 28.9097 20.9243 28.997C21.4418 29.1159 21.9326 29.3158 22.4039 29.5581C25.0125 30.9016 27.1669 33.1427 29.1411 35.2668C30.8939 37.153 32.5296 39.1373 34.1515 41.1343C34.7764 41.9041 34.5063 42.1868 33.3842 42.3374V42.338Z" fill="#FFC522"/>
<path d="M35.4457 22.535C35.9213 21.9335 36.1996 21.7488 36.3862 22.7558C36.4318 23.0044 36.4735 23.253 36.514 23.5022C36.7228 24.8084 36.8588 26.126 36.9631 27.4442C37.1959 30.3931 37.2762 33.3711 37.0896 36.3245C37.0131 37.5333 36.8967 38.7465 36.631 39.93C36.3179 41.321 35.8631 41.1363 35.2502 40.3804C33.7764 38.5624 32.2931 36.7527 30.7218 35.0164C29.3144 33.4616 27.8267 31.8847 26.182 30.5279C28.2309 29.2444 30.1696 27.775 31.9641 26.1589C33.1995 25.0462 34.4064 23.8513 35.4457 22.5344V22.535Z" fill="#FFC522"/>
<path d="M12.6627 10.7184C13.2889 9.96566 13.9524 9.2376 14.6198 8.52915C15.9095 7.15906 17.2676 5.78897 18.8059 4.6953C19.1266 4.46695 19.4568 4.25062 19.8022 4.06276C19.9388 3.98812 20.078 3.91411 20.2222 3.85338C20.288 3.82555 20.6523 3.71423 20.4449 3.74712C21.1565 3.63516 21.3981 3.79962 21.9959 4.15954C23.624 5.13935 24.9916 6.57522 26.2491 7.98137C27.1113 8.946 27.9652 9.95238 28.723 11.0176C29.2625 11.7773 28.8742 11.7191 28.1202 11.6824C23.1654 11.4464 18.2031 11.3743 13.244 11.4686C12.2022 11.4882 11.9991 11.5167 12.6633 10.719L12.6627 10.7184Z" fill="#FFC522"/>
<path d="M3.79124 28.5758C3.845 26.6535 3.90067 24.6597 4.27007 22.7539C4.50917 21.5191 4.4845 21.8582 5.04873 22.5641C5.2657 22.8361 5.49152 23.0992 5.71797 23.3561C6.53585 24.2853 7.42267 25.1544 8.33544 25.9893C10.2147 27.7105 12.2224 29.3203 14.3554 30.7208C13.0435 31.8555 11.8239 33.1149 10.6588 34.3446C8.9218 36.1765 7.27023 38.0867 5.65851 40.0293C4.97536 40.8522 4.7293 41.0414 4.50411 40.0641C4.25995 39.0046 4.12712 37.921 4.02465 36.8394C3.7653 34.096 3.7147 31.3286 3.79187 28.5752L3.79124 28.5758Z" fill="#FFC522"/>
<path d="M12.6627 10.7184C11.9985 11.5161 12.2016 11.4876 13.2434 11.468C18.2025 11.3738 23.1648 11.4452 28.1195 11.6818C28.8735 11.7179 29.2619 11.7767 28.7223 11.017C28.556 10.7836 28.3839 10.554 28.2094 10.3256C28.2498 10.6451 28.1575 10.9145 27.8071 11.0423C27.1619 11.2789 26.2276 11.0461 25.5672 10.9949C24.1668 10.8873 22.765 10.7899 21.3608 10.7444C19.8768 10.6957 18.391 10.714 16.907 10.7412C15.8836 10.7596 14.857 10.8171 13.8335 10.8019C13.2086 10.7931 13.0814 10.504 13.1712 10.1321C13.0017 10.3275 12.8278 10.5198 12.6627 10.7184Z" fill="#FF7A0D"/>
<path d="M14.3554 30.7208C12.2224 29.3203 10.2147 27.7105 8.33544 25.9893C7.57828 25.296 6.84137 24.5781 6.1443 23.8235C6.83441 24.9178 7.69404 25.8919 8.61692 26.8243C9.31398 27.5277 10.049 28.1944 10.7701 28.8737C11.1983 29.2773 11.631 29.6701 11.9903 30.1394C12.6696 31.0269 11.9726 31.9352 11.3868 32.5943C9.91237 34.2516 8.25637 35.7451 6.89766 37.5042C6.18162 38.4315 5.36944 39.5473 4.84822 40.7213C5.02976 40.7516 5.27519 40.4898 5.65788 40.0293C7.2696 38.0867 8.92117 36.1764 10.6581 34.3446C11.8239 33.1156 13.0428 31.8555 14.3547 30.7208H14.3554Z" fill="#FF7A0D"/>
<path d="M29.1417 35.2669C27.943 33.9771 26.6761 32.6469 25.2832 31.4982C27.6913 34.048 29.9451 36.7192 31.7181 39.7864C31.9705 40.2229 32.5138 40.9939 32.0672 41.4582C31.5308 42.0161 30.1924 41.9699 29.508 42.0326C28.0544 42.1654 26.5951 42.1882 25.1358 42.2052C21.3829 42.2489 17.6244 42.2097 13.8727 42.0743C12.3888 42.0212 10.7296 42.0794 9.3045 41.6182C7.73452 41.1103 8.00525 39.7737 8.6884 38.5162C7.91859 39.4031 7.1589 40.2975 6.4106 41.202C5.7711 41.975 6.0412 42.29 7.00836 42.4051C8.45183 42.5772 9.98068 42.6613 11.4406 42.7372C16.8337 43.0174 22.2571 43.0396 27.6514 42.7878C29.5624 42.6986 31.4859 42.5905 33.3855 42.3374C34.507 42.1863 34.7777 41.9035 34.1527 41.1343C32.5315 39.1374 30.8958 37.1525 29.1424 35.2669H29.1417Z" fill="#FF7A0D"/>
<path d="M28.7976 31.8954C27.7008 30.4621 29.2069 29.4987 30.0627 28.6802C30.8825 27.8965 31.6883 27.0906 32.474 26.2727C33.4386 25.2689 34.5943 24.086 35.247 22.7722C34.2533 23.9943 33.1236 25.1152 31.9641 26.1595C30.169 27.7756 28.2309 29.2457 26.182 30.5285C27.826 31.8853 29.3144 33.4622 30.7218 35.017C32.2931 36.7533 33.7764 38.5624 35.2502 40.381C35.3482 40.5024 35.4425 40.6068 35.5329 40.6947C35.094 39.3373 34.1496 38.1753 33.2805 37.0646C31.873 35.265 30.1854 33.7089 28.7976 31.896V31.8954Z" fill="#FF7A0D"/>
<path d="M24.6956 8.68543C24.6247 8.27871 24.0042 7.75117 23.7461 7.48107C23.464 7.18567 23.1616 6.8985 22.8511 6.61828C20.999 4.95469 20.0634 5.36837 18.3815 6.61828C17.7022 7.12368 17.0873 7.70246 16.6642 8.36094C16.1771 9.11683 16.7635 9.41792 17.5579 9.52292C18.3916 9.63298 22.0389 9.62919 23.1996 9.61464C23.7885 9.60705 24.8335 9.47738 24.6956 8.68543Z" fill="#FBE134"/>
<path d="M8.32721 29.4076C7.9869 29.0091 7.64533 28.6049 7.29996 28.2051C6.7857 27.6092 5.17208 25.8229 5.33212 29.0084C5.36185 29.5897 5.36754 31.4412 5.41624 32.8593C5.52757 36.1226 6.28789 35.0821 8.03688 33.3363C8.54418 32.8309 9.11726 32.273 9.23871 31.6588C9.41645 30.7606 8.88512 30.061 8.32658 29.4076H8.32721Z" fill="#FBE134"/>
<path d="M25.7361 36.2593C24.5596 34.8753 23.2831 33.5438 21.8618 32.409C20.1659 31.0554 19.2139 31.3742 18.1608 32.2888C17.3068 33.0302 16.5503 33.9335 15.8311 34.7444C14.8405 35.8627 13.6602 37.1221 13.0669 38.515C12.4976 39.8509 13.9164 40.2342 14.9044 40.2456C17.5794 40.2747 20.2444 40.5031 22.9232 40.4664C24.0852 40.4506 25.275 40.4278 26.4193 40.2102C26.9398 40.1115 27.4478 39.9085 27.5578 39.3474C27.7577 38.3265 26.3269 36.9526 25.7367 36.2587L25.7361 36.2593Z" fill="#FBE134"/>
<path d="M33.894 27.2898C33.6828 27.6004 32.1855 29.6011 32.0293 30.5272C31.9268 31.1344 32.3038 31.7132 32.5885 32.1516C33.1887 33.0782 33.8567 34.0068 34.524 34.8626C35.1515 35.6653 35.9776 35.5932 35.9334 33.6374C35.9011 32.2502 35.8043 30.2539 35.6715 28.6561C35.4393 25.8786 35.0257 25.6275 33.894 27.2898Z" fill="#FBE134"/>
<path d="M22.5664 23.5641C23.3672 23.0454 24.0946 22.3022 24.583 21.626C25.3604 20.5469 25.6039 19.0161 25.454 17.7232C25.3066 16.4569 24.4843 15.6561 23.3116 15.2677C22.698 15.064 21.9851 15.1272 21.3747 15.2993C21.0021 15.4043 20.7099 15.5624 20.3133 15.5998C19.7579 15.6523 19.1374 15.3961 18.6067 15.2595C17.4453 14.9615 16.1436 15.4562 15.4927 16.4765C14.6906 17.7333 14.8177 19.1325 15.37 20.4659C15.6325 21.1016 16.0272 21.6545 16.4946 22.1415C15.6926 21.1086 15.1707 19.8821 15.2289 18.5405C15.2795 17.3797 15.7533 16.3753 16.8666 15.8971C17.4289 15.6554 18.0355 15.6181 18.632 15.749C18.9698 15.8237 19.2974 15.9584 19.6067 16.1128C20.2406 16.4278 20.1811 16.4531 20.8649 16.1128C21.1742 15.959 21.5018 15.8237 21.8396 15.749C22.4361 15.6181 23.0427 15.6554 23.6051 15.8971C24.7183 16.3753 25.1921 17.3797 25.2427 18.5405C25.3306 20.5697 24.0921 22.3351 22.5664 23.5648V23.5641Z" fill="#C6C6C6"/>
<path d="M34.7897 16.5645C34.6879 17.7834 34.5108 18.9941 34.2065 20.1826C33.679 22.2435 31.8813 23.7692 30.2923 25.0652C29.3954 25.7971 28.4497 26.4676 27.53 27.1691C27.1075 27.491 26.6729 27.7795 26.2023 28.0262C25.3123 28.4917 24.5121 28.2646 23.7037 27.7719C23.001 27.343 22.3779 26.8762 21.5803 26.6377C20.7067 26.3759 19.7257 26.5966 18.8907 26.8756C18.0108 27.1691 17.2075 27.6504 16.4073 28.1078C14.8544 28.994 13.5729 27.5543 12.4799 26.6542C10.8783 25.336 9.15458 24.0285 7.68076 22.5686C6.38531 21.2852 6.21452 19.6867 6.00894 17.9637C5.91279 17.1616 5.83183 16.3519 5.77617 15.541C5.76731 15.7333 5.75909 15.9243 5.7515 16.1147C5.69267 17.4127 5.70026 18.712 5.76731 20.0087C5.83056 21.2263 6.00641 21.6773 6.74649 22.5098C7.54096 23.4023 8.39806 24.2404 9.27856 25.0469C11.1964 26.8035 13.2471 28.4316 15.4402 29.8334C16.0917 29.3324 16.766 28.8675 17.4725 28.4633C18.3353 27.9699 19.3221 27.5328 20.3373 27.5783C21.5189 27.6315 22.6455 28.1305 23.6493 28.7245C24.1345 29.0117 24.6007 29.3305 25.0593 29.6619C27.1808 28.3741 29.1765 26.8781 31.0197 25.217C31.9584 24.3713 32.8832 23.4794 33.7239 22.5186C34.5519 21.5711 34.7157 21.4465 34.7834 20.3395C34.8599 19.0921 34.8587 17.822 34.7891 16.5657L34.7897 16.5645Z" fill="#C6C6C6"/>
<path d="M34.6037 14.4473C34.5089 13.7186 34.3868 13.4055 33.6897 13.348C31.9287 13.2 30.1601 13.112 28.3953 13.0254C24.934 12.8559 21.4683 12.7667 18.0032 12.7584C14.5375 12.7502 11.0718 12.8223 7.60928 12.9754C7.32653 12.9881 7.04379 13.0001 6.76104 13.014C6.19807 13.0431 6.00388 13.2518 5.93241 13.7085C5.91596 13.8123 5.90584 13.9173 5.89256 14.0216C6.52257 13.6383 7.28858 13.5441 8.13682 13.5143C9.26275 13.4745 10.3906 13.4631 11.5178 13.4511C14.8279 13.415 18.1386 13.422 21.4487 13.4523C24.459 13.4795 27.4737 13.5112 30.4796 13.6693C31.7402 13.7357 33.6397 13.6212 34.4564 14.7788C34.5449 14.904 34.617 15.0432 34.6797 15.188C34.6543 14.9407 34.6354 14.6915 34.6031 14.4473H34.6037Z" fill="#F4F4F4"/>
<path d="M19.6586 22.9993C18.4871 22.7754 17.4472 21.461 16.8545 20.5141C16.2897 19.6114 16.036 18.5962 16.2011 17.6075C16.0139 18.0712 16.0012 18.6266 16.0341 19.1098C16.1505 20.7924 17.4517 22.2896 18.7724 23.2252C19.1962 23.5256 19.7092 23.883 20.2349 23.9829C20.7605 23.8836 21.2735 23.5262 21.6973 23.2252C23.0181 22.2896 24.3186 20.7924 24.4356 19.1098C24.4729 18.5696 24.4653 17.9333 24.206 17.4437C24.1225 17.2856 24.0061 17.1508 23.8783 17.0269C24.2635 18.1838 24.0637 19.2648 23.4722 20.4103C22.7625 21.7849 21.3583 23.3238 19.6586 22.9993Z" fill="#6E28CD"/>
<path d="M22.5538 18.3666C22.2381 17.643 21.4424 17.8624 20.8187 18.2989C20.3152 18.65 20.257 18.6196 19.88 18.3678C19.1279 17.8688 18.0602 17.5455 17.9318 18.7012C17.8027 19.8537 19.1229 21.7083 20.4265 21.4559C21.6941 21.2099 23.1433 19.7183 22.5538 18.366V18.3666Z" fill="#C57DFF"/>
</svg>
