<svg width="28" height="28" viewBox="0 0 28 28" fill="none" xmlns="http://www.w3.org/2000/svg">
<path d="M14 3.5C15.3924 3.5 16.7277 4.05312 17.7123 5.03769C18.6969 6.02226 19.25 7.35761 19.25 8.75C19.25 10.1424 18.6969 11.4777 17.7123 12.4623C16.7277 13.4469 15.3924 14 14 14C12.6076 14 11.2723 13.4469 10.2877 12.4623C9.30312 11.4777 8.75 10.1424 8.75 8.75C8.75 7.35761 9.30312 6.02226 10.2877 5.03769C11.2723 4.05312 12.6076 3.5 14 3.5ZM14 6.125C13.3038 6.125 12.6361 6.40156 12.1438 6.89384C11.6516 7.38613 11.375 8.05381 11.375 8.75C11.375 9.44619 11.6516 10.1139 12.1438 10.6062C12.6361 11.0984 13.3038 11.375 14 11.375C14.6962 11.375 15.3639 11.0984 15.8562 10.6062C16.3484 10.1139 16.625 9.44619 16.625 8.75C16.625 8.05381 16.3484 7.38613 15.8562 6.89384C15.3639 6.40156 14.6962 6.125 14 6.125ZM14 15.3125C17.5044 15.3125 24.5 17.0581 24.5 20.5625V24.5H3.5V20.5625C3.5 17.0581 10.4956 15.3125 14 15.3125ZM14 17.8062C10.1019 17.8062 5.99375 19.7225 5.99375 20.5625V22.0063H22.0063V20.5625C22.0063 19.7225 17.8981 17.8062 14 17.8062Z" fill="#94A3B8"/>
</svg>
