<svg width="29" height="28" viewBox="0 0 29 28" fill="none" xmlns="http://www.w3.org/2000/svg">
<path d="M12.1667 22.5H16.1667C16.1667 23.6 15.2667 24.5 14.1667 24.5C13.0667 24.5 12.1667 23.6 12.1667 22.5ZM23.1667 20.5V21.5H5.16666V20.5L7.16666 18.5V12.5C7.16666 9.4 9.16666 6.7 12.1667 5.8V5.5C12.1667 4.4 13.0667 3.5 14.1667 3.5C15.2667 3.5 16.1667 4.4 16.1667 5.5V5.8C19.1667 6.7 21.1667 9.4 21.1667 12.5V18.5L23.1667 20.5ZM19.1667 12.5C19.1667 9.7 16.9667 7.5 14.1667 7.5C11.3667 7.5 9.16666 9.7 9.16666 12.5V19.5H19.1667V12.5Z" fill="#94A3B8"/>
</svg>
