<svg width="29" height="28" viewBox="0 0 29 28" fill="none" xmlns="http://www.w3.org/2000/svg">
<path d="M4 23.5455C4 24.0609 4.42955 24.5 4.95455 24.5H17.3636C17.8982 24.5 18.3182 24.0609 18.3182 23.5455V22.5909H4V23.5455ZM11.1591 11.1364C7.57955 11.1364 4 13.0455 4 16.8636H18.3182C18.3182 13.0455 14.7386 11.1364 11.1591 11.1364ZM6.50091 14.9545C7.56045 13.475 9.81318 13.0455 11.1591 13.0455C12.505 13.0455 14.7577 13.475 15.8173 14.9545H6.50091ZM4 18.7727H18.3182V20.6818H4V18.7727ZM20.2273 7.31818V3.5H18.3182V7.31818H13.5455L13.765 9.22727H22.8905L21.5541 22.5909H20.2273V24.5H21.8691C22.6709 24.5 23.3295 23.8795 23.425 23.0968L25 7.31818H20.2273Z" fill="#94A3B8"/>
</svg>
