<svg width="16" height="16" viewBox="0 0 16 16" fill="#90278F" xmlns="http://www.w3.org/2000/svg">
<path fill="#90278F" d="M7.99992 13.3333C10.9333 13.3333 13.3333 10.9333 13.3333 7.99992C13.3333 5.06659 10.9333 2.66659 7.99992 2.66659C5.06659 2.66659 2.66659 5.06659 2.66659 7.99992C2.66659 10.9333 5.06659 13.3333 7.99992 13.3333ZM7.99992 1.33325C11.6666 1.33325 14.6666 4.33325 14.6666 7.99992C14.6666 11.6666 11.6666 14.6666 7.99992 14.6666C4.33325 14.6666 1.33325 11.6666 1.33325 7.99992C1.33325 4.33325 4.33325 1.33325 7.99992 1.33325ZM11.3333 7.66659V8.66659H7.33325V4.66659H8.33325V7.66659H11.3333Z"/>
</svg>
