<svg width="14" height="12" viewBox="0 0 14 12" fill="none" xmlns="http://www.w3.org/2000/svg">
<path d="M2 0.5H12C12.83 0.5 13.5 1.17 13.5 2V10C13.5 10.83 12.83 11.5 12 11.5H2C1.60218 11.5 1.22064 11.342 0.93934 11.0607C0.658035 10.7794 0.5 10.3978 0.5 10V2C0.5 1.17 1.17 0.5 2 0.5Z" fill="white"/>
<path d="M10.5 4C10.5 4.39782 10.342 4.77936 10.0607 5.06066C9.77936 5.34196 9.39782 5.5 9 5.5C8.60218 5.5 8.22064 5.34196 7.93934 5.06066C7.65804 4.77936 7.5 4.39782 7.5 4C7.5 3.60218 7.65804 3.22064 7.93934 2.93934C8.22064 2.65804 8.60218 2.5 9 2.5C9.39782 2.5 9.77936 2.65804 10.0607 2.93934C10.342 3.22064 10.5 3.60218 10.5 4Z" stroke="#D97706" stroke-linecap="round" stroke-linejoin="round"/>
<path d="M6.5 11.5L10 8C10.5 7.5 11.5 7.5 12 8L13.5 9.5" stroke="#10B981" stroke-linecap="round" stroke-linejoin="round"/>
<path d="M0.5 7.5L2.5 5.5C3 5 4 5 4.5 5.5L8.5 9.5" stroke="#10B981" stroke-linecap="round" stroke-linejoin="round"/>
<path d="M2 0.5H12C12.83 0.5 13.5 1.17 13.5 2V10C13.5 10.83 12.83 11.5 12 11.5H2C1.60218 11.5 1.22064 11.342 0.93934 11.0607C0.658035 10.7794 0.5 10.3978 0.5 10V2C0.5 1.17 1.17 0.5 2 0.5Z" stroke="#90278F" stroke-linecap="round" stroke-linejoin="round"/>
</svg>
