<svg width="61" height="48" viewBox="0 0 61 48" fill="none" xmlns="http://www.w3.org/2000/svg">
<g style="mix-blend-mode:multiply" opacity="0.3">
<path d="M59.8709 17.7576C59.3537 13.3816 60.58 6.22067 53.8823 5.30691C51.1474 1.47421 45.1778 2.30706 41.1174 2.0461C38.1144 1.92553 35.5024 2.30706 32.8111 3.54126C32.2781 3.78557 32.0624 3.8046 32.0092 3.8046C27.0819 1.50117 21.2052 1.14503 15.6655 2.03817C13.0718 2.41493 9.97594 2.47125 7.74866 5.27518C6.47321 5.42351 4.57351 5.99461 3.23778 8.19016C1.79972 10.6046 1.95598 13.5077 1.82669 16.0388C1.47293 21.6276 1.51972 27.7693 1.92663 34.3496C2.60085 51.3303 13.3161 42.7575 24.4787 45.7644C27.7768 47.1494 31.4215 49.5384 34.994 46.6028C37.6306 45.2275 40.7851 45.0696 44.126 44.9736C46.8126 44.9395 49.4023 45.3092 51.9636 45.4488C58.9524 45.4488 59.4235 38.2926 59.6496 34.8541C60.0414 29.4421 60.116 23.9675 59.8717 17.7576H59.8709Z" fill="#231F20"/>
</g>
<path d="M58.0608 33.2669C57.8348 36.7062 57.3636 43.8616 50.3748 43.8616C47.8136 43.722 45.2246 43.3524 42.5373 43.3865C39.1963 43.4824 36.0418 43.6395 33.4052 45.0157C29.8327 47.9513 26.188 45.5614 22.8899 44.1773C11.7273 41.1703 1.01208 49.7431 0.337872 32.7625C-0.0690354 26.1814 -0.115834 20.0397 0.23793 14.4516C0.36722 11.9206 0.210961 9.01668 1.64902 6.603C2.98475 4.40745 4.88445 3.83635 6.1599 3.68802C8.38797 0.88409 11.4838 0.82698 14.0775 0.451007C19.6172 -0.442127 25.4939 -0.0859838 30.4213 2.21745C30.4744 2.21745 30.6901 2.19841 31.2232 1.95411C33.9145 0.719899 36.5265 0.338374 39.5295 0.458939C43.5898 0.719899 49.5602 -0.112952 52.2943 3.71975C58.992 4.63351 57.7657 11.7944 58.2829 16.1705C58.5264 22.3804 58.4519 27.855 58.0608 33.2669Z" fill="white"/>
<path d="M55.2505 16.2894C55.1585 13.9305 55.0181 11.5462 54.5811 9.2221C54.125 6.79732 52.4863 6.6133 50.3613 6.69737C50.0155 5.50917 49.3635 4.5502 47.9619 4.19247C45.0549 3.45084 41.3483 3.52302 38.3349 3.48257C36.2845 3.4556 34.3476 3.86251 32.4867 4.7136C30.4284 5.65512 29.517 5.24583 27.5856 4.37491C26.2856 3.78874 24.8475 3.44925 23.438 3.26999C20.4675 2.89243 17.4827 3.01379 14.5241 3.45243C12.1303 3.80698 9.30014 3.79984 8.14446 6.25001C8.07863 6.38882 8.02866 6.54111 7.97551 6.69023C6.38754 6.61964 5.17475 6.65057 4.24355 8.17985C3.23143 9.84159 3.38531 12.77 3.26871 14.6372C2.91019 20.4236 2.99506 26.2702 3.33851 32.0549C3.56775 35.9075 3.61454 41.1267 8.78854 40.7737C13.8491 40.4278 18.5773 39.9892 23.6157 41.2274C25.6272 41.7215 27.1446 43.1644 29.1926 43.3682C29.9874 43.4475 30.8702 43.1683 31.481 42.667C32.4836 41.8445 33.7884 41.5098 35.0194 41.1996C39.8769 39.9749 44.7947 40.2946 49.6918 40.7888C54.7524 41.2988 54.8103 36.2414 55.0721 32.4785C55.4473 27.0991 55.4631 21.6744 55.2513 16.2879L55.2505 16.2894Z" fill="black"/>
<path d="M30.679 8.05537C30.6767 7.38988 30.875 7.2939 31.3921 7.1305C32.5311 6.77198 33.6464 5.97562 34.6823 5.62899C37.1269 4.812 39.9118 5.17608 42.423 5.38945C43.8651 5.51239 45.3055 5.64724 46.7475 5.76225C49.1636 5.95499 48.9867 8.0284 49.1731 9.81942C49.4539 12.5028 49.5586 15.2068 49.6411 17.902C49.7347 20.9416 49.7331 23.985 49.6617 27.0245C49.6165 28.9528 50.1329 35.2103 47.4257 35.4704C42.3485 34.9684 36.9127 35.522 31.9997 36.8879C31.5341 37.0164 31.0963 37.2067 30.6624 37.3694C30.1341 37.5676 29.9541 37.344 29.9771 36.7745C30.3522 27.2086 30.7274 17.6308 30.6806 8.05537H30.679Z" fill="#E5E5E5"/>
<path d="M8.96383 14.1216C9.03998 12.2933 8.64655 6.60373 10.8715 5.80578C13.4755 4.8714 16.7101 4.78812 19.4467 4.70959C23.0723 4.60489 25.9183 5.54561 29.1323 7.02571C29.4916 7.19307 29.6717 7.41596 29.6741 7.83714C29.728 17.5181 29.3473 27.2021 28.9673 36.8759C28.9412 37.5128 28.5882 37.7373 27.8394 37.2757C26.6671 36.5523 25.2893 36.1366 23.9694 35.7956C20.9807 35.0222 17.7683 35.1412 14.7161 35.2808C13.3883 35.3419 12.062 35.4355 10.7342 35.5068C8.72112 35.6147 9.04236 32.5649 8.97732 31.2704C8.83692 28.4942 8.80281 25.7133 8.79409 22.934C8.78457 19.9952 8.84168 17.0572 8.96304 14.1208L8.96383 14.1216Z" fill="#E5E5E5"/>
<path d="M53.3596 33.0417C53.1993 35.3356 53.4008 39.1651 50.3145 39.1802C48.3466 39.1905 46.3144 38.6535 44.314 38.6313C40.1101 38.5853 35.297 38.8169 31.4532 40.6857C30.2816 41.2544 29.4004 42.1459 27.9711 41.3543C27.1993 40.9268 26.5124 40.4659 25.6835 40.128C23.5141 39.2413 21.0584 38.9827 18.7439 38.7645C16.4817 38.5512 14.1949 38.544 11.9288 38.6789C9.35249 38.832 6.21542 40.1614 5.44126 36.6142C4.39346 31.8138 4.72422 26.3701 4.74167 21.4904C4.75039 19.0014 4.82495 16.5116 4.97962 14.0273C5.05022 12.8819 5.15175 11.7357 5.3088 10.5999C5.50472 9.18643 6.03378 8.62961 6.92057 8.44638C7.4877 8.32899 7.55988 8.58201 7.52101 9.10076C7.44169 10.1597 7.45042 11.2376 7.39251 12.1434C7.19739 15.2337 7.14504 18.3335 7.12442 21.4285C7.10538 24.2936 7.149 27.1594 7.25133 30.022C7.31319 31.7472 6.94753 35.0104 8.42446 36.3057C10.1155 37.7881 12.6625 37.0624 14.7168 36.9529C18.6193 36.7451 22.6694 36.7348 26.303 38.3553C27.795 39.0207 28.589 39.806 30.2912 39.3396C31.8292 38.9184 33.2577 38.2545 34.8528 37.9198C38.5126 37.1512 42.3969 36.8101 46.1574 37.0457C47.4368 37.1266 48.1935 37.2448 49.2405 36.4778C52.0278 34.4377 51.3123 28.3674 51.3655 25.5444C51.4654 20.115 51.398 14.6039 50.7793 9.19595C50.7063 8.56298 50.8745 8.27426 51.5733 8.3393C52.1912 8.39641 52.7234 8.62961 52.9003 9.34903C53.1057 10.1795 53.1922 11.0401 53.2826 11.8888C53.5055 13.9733 53.5809 16.0761 53.6427 18.1709C53.7879 23.1236 53.7046 28.0985 53.3604 33.0409L53.3596 33.0417Z" fill="#FFC522"/>
<path d="M51.3171 10.9616C51.2124 10.1906 51.0379 9.47995 50.7706 8.82715C50.7595 8.93423 50.7619 9.05559 50.7777 9.19757C51.3964 14.6048 51.4638 20.1166 51.3639 25.546C51.3115 28.369 52.027 34.4393 49.2389 36.4794C48.1919 37.2464 47.4352 37.1282 46.1558 37.0473C42.3953 36.8117 38.511 37.1528 34.8512 37.9214C33.2561 38.2561 31.8284 38.92 30.2896 39.3412C28.5874 39.8076 27.7934 39.0224 26.3014 38.3569C22.6678 36.7364 18.617 36.7467 14.7153 36.9545C12.6617 37.064 10.114 37.7897 8.42287 36.3073C6.94674 35.012 7.31161 31.7488 7.24974 30.0236C7.14742 27.1602 7.1038 24.2944 7.12283 21.4302C7.14425 18.3351 7.19581 15.2346 7.39093 12.1451C7.44883 11.2392 7.44011 10.1613 7.51943 9.10239C7.5226 9.06907 7.5226 9.03972 7.52339 9.00879C6.96895 10.6999 7.00941 12.759 6.93009 14.408C6.73417 18.4533 6.77304 22.4835 6.73496 26.5304C6.7072 29.4779 6.25191 33.0377 7.38776 35.8433C8.38242 38.3006 11.3965 37.5938 13.4541 37.4693C17.2035 37.2424 21.1068 37.2932 24.7134 38.4394C26.2713 38.9351 27.6625 40.0424 29.3219 40.1479C30.683 40.2344 32.0497 39.2881 33.249 38.7923C34.8385 38.1348 36.6843 37.9746 38.3738 37.785C40.1728 37.5835 41.9844 37.4883 43.7945 37.4653C46.0344 37.4376 48.8804 38.2966 50.5509 36.3287C52.215 34.3711 52.0143 31.0508 52.0341 28.6768C52.0643 25.0796 52.0262 21.4841 51.8652 17.8894C51.7621 15.5788 51.6272 13.2555 51.3147 10.9624L51.3171 10.9616Z" fill="#FBE134"/>
<path d="M5.30801 10.6007C5.15095 11.7373 5.04863 12.8835 4.97883 14.028C4.82416 16.5123 4.75039 19.0021 4.74087 21.4912C4.72422 26.2527 4.4117 31.5504 5.37067 36.2644C5.26279 32.714 5.11288 29.1637 5.08909 25.6126C5.06608 22.2281 5.12002 18.8403 5.33894 15.4621C5.44602 13.8059 5.59831 12.1506 5.84579 10.5086C5.94811 9.83681 6.15831 9.22368 6.4042 8.62402C5.82517 8.91116 5.46189 9.48781 5.30801 10.6007Z" fill="#6CFFFB"/>
<path d="M52.7369 37.5201C53.2914 36.2018 53.2668 34.3671 53.3596 33.0417C53.7038 28.0993 53.7871 23.1236 53.6419 18.1717C53.5809 16.0769 53.5055 13.975 53.2818 11.8897C53.1914 11.0409 53.105 10.1803 52.8995 9.34986C52.7766 8.84697 52.476 8.58443 52.0968 8.45117C53.0145 10.2335 52.9209 12.9795 53.0272 14.7118C53.2279 17.9806 53.3516 21.2549 53.404 24.5292C53.4579 27.9756 53.4444 31.4402 53.1176 34.874C53.0336 35.7568 52.9217 36.6475 52.7369 37.5201Z" fill="#FBE134"/>
<path d="M28.9665 36.8759C29.3465 27.2021 29.728 17.518 29.6733 7.83713C29.6709 7.41595 29.4908 7.19306 29.1315 7.0257C27.8783 6.44826 26.6806 5.95648 25.4717 5.57336C26.7155 6.40225 27.6475 7.56586 28.1416 9.27202C28.8793 11.8245 28.6509 14.6213 28.6437 17.2452C28.631 21.9591 28.5826 26.7008 28.1932 31.4029C28.0409 33.251 27.611 35.6179 25.2417 35.0539C23.0065 34.5217 20.7602 34.1061 18.4615 34.014C15.8805 33.9117 13.5255 34.4416 11.387 35.4672C12.4967 35.4021 13.6064 35.33 14.7169 35.2792C17.7691 35.1396 20.9815 35.0206 23.9702 35.794C25.2901 36.135 26.6679 36.5507 27.8402 37.2741C28.589 37.7365 28.942 37.5112 28.9681 36.8743L28.9665 36.8759Z" fill="#C6C6C6"/>
<path d="M47.4241 35.4712C47.4479 35.4697 47.4701 35.4625 47.4931 35.4593C45.9916 34.6051 44.1665 34.2148 42.3532 34.1617C40.7494 34.1149 39.1392 34.3187 37.5655 34.613C35.8514 34.9343 32.0576 36.6357 31.3358 34.5813C30.7504 32.9156 31.1343 30.5995 31.1875 28.879C31.2636 26.4257 31.3715 23.9739 31.4611 21.5214C31.5547 18.9483 31.5333 16.3752 31.5999 13.802C31.6467 12.0078 31.5833 10.0867 32.006 8.33457C32.2567 7.29708 32.9174 6.66332 33.6519 6.07874C32.9206 6.44678 32.1615 6.88779 31.3913 7.13051C30.8742 7.29391 30.6759 7.38988 30.6782 8.05537C30.725 17.63 30.3499 27.2078 29.9747 36.7745C29.9517 37.3448 30.1317 37.5677 30.66 37.3694C31.0939 37.2068 31.5325 37.0164 31.9973 36.8879C36.9104 35.5228 42.3469 34.9684 47.4233 35.4705L47.4241 35.4712Z" fill="#C6C6C6"/>
<path d="M19.4467 4.70964C16.7101 4.78896 13.4747 4.87145 10.8715 5.80583C8.64735 6.60378 9.03998 12.2933 8.96383 14.1216C8.84247 17.0573 8.78536 19.996 8.79488 22.9348C8.80361 25.7141 8.83771 28.4951 8.97811 31.2712C9.03839 32.465 8.77426 35.1468 10.3115 35.472C9.94739 34.2521 9.83 32.9306 9.73878 31.7051C9.5968 29.8102 9.55476 27.9065 9.53652 26.0068C9.49606 21.7982 9.64042 17.5855 9.93232 13.3879C10.0473 11.7326 10.1742 10.0613 10.459 8.42574C10.7985 6.47449 12.3841 6.2865 14.0783 5.98271C17.2812 5.40844 20.5952 5.29581 23.8536 5.14113C22.4687 4.82862 21.0338 4.66522 19.4467 4.71043V4.70964Z" fill="#F4F4F4"/>
<path d="M48.5338 34.8763C49.9711 33.2248 49.6228 28.6291 49.6601 27.0253C49.7315 23.9857 49.7331 20.9423 49.6395 17.9028C49.557 15.2075 49.4523 12.5035 49.1715 9.82013C48.9851 8.0291 49.162 5.9557 46.7459 5.76295C46.2034 5.71933 45.6601 5.67015 45.1175 5.62256C46.5746 6.41734 47.8152 7.6214 48.303 9.0317C48.7503 10.3246 48.6829 11.796 48.7075 13.146C48.7368 14.7554 48.8741 16.3648 48.9256 17.9749C49.0398 21.4967 48.9883 25.0232 48.9772 28.5466C48.97 30.7096 48.8661 32.8052 48.5322 34.8763H48.5338Z" fill="#F4F4F4"/>
<path d="M11.9907 10.5975C16.3231 9.30853 21.5938 9.39102 25.9826 10.3571C26.6147 10.4959 26.3466 11.4636 25.716 11.3256C21.5232 10.4023 16.3921 10.3357 12.2572 11.566C11.6345 11.7516 11.3712 10.7823 11.9907 10.5975Z" fill="#68182B"/>
<path d="M11.9907 14.1383C16.3231 12.8485 21.5938 12.9318 25.9826 13.8971C26.6147 14.0359 26.3466 15.0044 25.716 14.8656C21.5232 13.9423 16.3921 13.8757 12.2572 15.106C11.6345 15.2908 11.3712 14.3223 11.9907 14.1375V14.1383Z" fill="#68182B"/>
<path d="M11.9907 17.6784C16.3231 16.3902 21.5938 16.4719 25.9826 17.4388C26.6147 17.5776 26.3466 18.5453 25.716 18.4073C21.5232 17.484 16.3921 17.4174 12.2572 18.6476C11.6345 18.8325 11.3712 17.8632 11.9907 17.6792V17.6784Z" fill="#68182B"/>
<path d="M11.9907 21.2199C16.3231 19.9302 21.5938 20.0135 25.9826 20.9796C26.6147 21.1184 26.3466 22.0861 25.716 21.9481C21.5232 21.0248 16.3921 20.9582 12.2572 22.1884C11.6345 22.3732 11.3712 21.4048 11.9907 21.2199Z" fill="#68182B"/>
<path d="M11.9907 24.7607C16.3231 23.471 21.5938 23.5543 25.9826 24.5196C26.6147 24.6584 26.3466 25.6269 25.716 25.4881C21.5232 24.5648 16.3921 24.4982 12.2572 25.7284C11.6345 25.9132 11.3712 24.9447 11.9907 24.7599V24.7607Z" fill="#68182B"/>
<path d="M11.9907 28.3023C16.3231 27.0134 21.5938 27.0959 25.9826 28.062C26.6147 28.2008 26.3466 29.1685 25.716 29.0304C21.5232 28.1072 16.3921 28.0405 12.2572 29.2708C11.6345 29.4564 11.3712 28.4871 11.9907 28.3023Z" fill="#68182B"/>
<path d="M11.9907 31.8431C16.3231 30.5534 21.5938 30.6367 25.9826 31.6028C26.6147 31.7416 26.3466 32.7093 25.716 32.5713C21.5232 31.648 16.3921 31.5814 12.2572 32.8116C11.6345 32.9964 11.3712 32.0279 11.9907 31.8431Z" fill="#68182B"/>
<path d="M33.241 10.3571C37.6306 9.39102 42.8997 9.30853 47.233 10.5975C47.8516 10.7823 47.5883 11.7508 46.9664 11.566C42.8323 10.3357 37.7012 10.4023 33.5076 11.3256C32.877 11.4644 32.6089 10.4967 33.241 10.3571Z" fill="#68182B"/>
<path d="M33.241 13.8972C37.6306 12.9311 42.8997 12.8486 47.233 14.1383C47.8516 14.3223 47.5883 15.2916 46.9664 15.1068C42.8323 13.8766 37.7012 13.9432 33.5076 14.8665C32.877 15.0053 32.6089 14.0368 33.241 13.898V13.8972Z" fill="#68182B"/>
<path d="M33.241 17.4388C37.6306 16.4727 42.8997 16.3902 47.233 17.6783C47.8516 17.8623 47.5883 18.8316 46.9664 18.6468C42.8323 17.4173 37.7012 17.4832 33.5076 18.4065C32.877 18.5453 32.6089 17.5776 33.241 17.438V17.4388Z" fill="#68182B"/>
<path d="M33.241 20.9796C37.6306 20.0135 42.8997 19.9302 47.233 21.2199C47.8516 21.4048 47.5883 22.3732 46.9664 22.1884C42.8323 20.9582 37.7012 21.0248 33.5076 21.9481C32.877 22.0869 32.6089 21.1184 33.241 20.9796Z" fill="#68182B"/>
<path d="M33.241 24.5204C37.6306 23.5543 42.8997 23.4718 47.233 24.7615C47.8516 24.9455 47.5883 25.9148 46.9664 25.73C42.8323 24.4997 37.7012 24.5656 33.5076 25.4896C32.877 25.6285 32.6089 24.66 33.241 24.5212V24.5204Z" fill="#68182B"/>
<path d="M33.241 28.062C37.6306 27.0959 42.8997 27.0134 47.233 28.3023C47.8516 28.4871 47.5883 29.4556 46.9664 29.2708C42.8323 28.0405 37.7012 28.1072 33.5076 29.0304C32.877 29.1693 32.6089 28.2016 33.241 28.062Z" fill="#68182B"/>
<path d="M33.241 31.6028C37.6306 30.6367 42.8997 30.5534 47.233 31.8431C47.8516 32.0271 47.5883 32.9964 46.9664 32.8116C42.8323 31.5814 37.7012 31.648 33.5076 32.5713C32.877 32.7101 32.6089 31.7416 33.241 31.6028Z" fill="#68182B"/>
</svg>
