<svg width="288" height="174" viewBox="0 0 288 174" fill="none" xmlns="http://www.w3.org/2000/svg">
<g clip-path="url(#clip0_918_18978)">
<path d="M262.839 37.1377L263.26 37.1771C263.798 37.4395 264.1 37.8988 264.442 38.3581C264.442 38.3843 264.429 38.4106 264.416 38.4368C264.232 38.8698 263.811 39.0929 263.417 39.3029C262.997 38.8567 262.471 38.5024 261.985 38.135C262.353 37.8332 262.708 37.597 262.839 37.1377Z" fill="#62A4F4"/>
<path d="M270.602 36.9805L270.996 36.9936C271.535 37.256 271.837 37.7153 272.205 38.1746C271.929 38.5945 271.561 38.7126 271.114 38.9095C270.812 38.9488 270.563 38.9488 270.261 38.9226C270.077 38.7914 270.011 38.6733 269.985 38.4502C269.959 38.1615 270.064 37.9122 270.234 37.6891C270.353 37.5185 270.445 37.3873 270.523 37.1904C270.55 37.1117 270.576 37.0461 270.602 36.9805Z" fill="#62A4F4"/>
<path d="M266.031 35.537C266.701 35.4058 267.174 35.3402 267.791 35.642C268.028 36.2718 267.857 36.6918 267.594 37.2823C267.581 37.2823 267.581 37.2954 267.568 37.2954C267.2 37.4529 266.964 37.5054 266.583 37.4004C266.228 36.928 266.294 36.1931 266.084 35.6289C266.071 35.6026 266.057 35.5764 266.031 35.537Z" fill="#62A4F4"/>
<path d="M271.272 40.9829C271.811 40.9304 272.559 40.7861 273.098 40.8648C273.426 40.9173 273.466 40.996 273.676 41.2454C273.702 41.7046 273.558 42.0065 273.374 42.4132C273.334 42.4264 273.295 42.4526 273.269 42.4657C272.888 42.597 272.205 42.6232 271.837 42.4395C271.377 41.9277 271.39 41.6521 271.272 40.9829Z" fill="#62A4F4"/>
<path d="M265.979 45.9424C266.478 45.8505 266.898 45.7587 267.397 45.8505C267.607 45.9949 267.791 46.0868 267.883 46.323C268.067 46.8216 267.804 47.504 267.581 47.9501C267.384 48.1338 267.003 48.1863 266.74 48.2257C266.005 47.7664 266.294 46.7954 266.018 46.0474C266.018 46.0211 265.992 45.9818 265.979 45.9424Z" fill="#62A4F4"/>
<path d="M270.392 44.3418L270.812 44.368C271.43 44.7092 271.784 45.2735 272.113 45.8771C271.955 46.3495 271.404 46.5988 270.996 46.835L270.852 46.8875C270.432 46.3364 269.985 45.8115 269.538 45.2735C269.893 44.9979 270.235 44.8011 270.392 44.3418Z" fill="#62A4F4"/>
<path d="M260.436 40.9827C261.079 40.9302 261.92 40.8121 262.55 41.009C262.892 41.1271 262.918 41.1795 263.089 41.4945C263.036 41.8882 262.931 42.0981 262.721 42.4262C262.196 42.5705 261.513 42.6361 260.987 42.518C260.501 42.0325 260.541 41.652 260.436 40.9827Z" fill="#62A4F4"/>
<path d="M263.338 44.1846L263.877 44.3027C264.179 44.552 264.324 44.6963 264.468 45.0638C264.021 45.7986 263.614 46.3891 262.774 46.7172C262.563 46.1398 261.999 45.7461 261.539 45.3656C262.169 45.09 262.918 44.7226 263.338 44.1846Z" fill="#62A4F4"/>
<path d="M266.688 40.0248C267.043 39.9591 267.424 39.8673 267.778 40.0379C268.225 40.2478 268.606 40.6284 268.75 41.1139C268.842 41.442 268.816 41.7963 268.632 42.0981C268.396 42.4918 268.041 42.6361 267.621 42.7673C267.581 42.7805 267.542 42.7936 267.502 42.8067C267.029 42.8854 266.57 42.7411 266.202 42.4655C266.005 42.1768 265.926 42.0062 265.926 41.6519C265.9 40.8515 266.189 40.5497 266.688 40.0248Z" fill="#62A4F4"/>
<path d="M254.341 17.7559C254.538 17.7559 254.722 17.7821 254.932 17.8215C255.378 18.3857 255.392 19.2518 255.562 19.9342C256.088 22.0731 257.585 21.312 259.03 22.2306C259.148 22.3093 259.135 22.3881 259.161 22.5193C258.268 22.8867 257.204 23.2016 256.39 23.7003C255.221 24.422 255.878 26.2985 254.906 27.204C254.249 27.2171 254.052 24.5008 253.29 23.8053C252.633 23.1229 251.398 23.0967 250.571 22.4799V22.27C251.49 21.9813 252.489 21.7319 253.211 21.0627C254.209 20.1573 254.249 19.0025 254.341 17.7559Z" fill="#A2C4F2"/>
<path d="M35.0727 24.7373C35.5981 24.7373 36.1892 24.816 36.6752 25.026C37.4764 25.3803 38.1201 26.0495 38.4222 26.8763C38.7374 27.7292 38.6718 28.6478 38.2383 29.4614C37.7129 30.4587 36.8985 30.813 35.8871 31.1541C35.3748 31.1541 34.8494 31.0885 34.3634 30.8917C33.4964 30.5374 32.8134 29.8682 32.4982 28.9758C32.196 28.1229 32.2749 27.2043 32.7215 26.417C33.2469 25.4459 34.0613 25.0522 35.0727 24.7373Z" fill="#A2C4F2"/>
<path d="M50.3489 42.3336C50.3358 35.8118 52.4243 28.8176 55.5374 23.1225C61.1987 12.7165 70.9714 5.13172 82.3203 1.79864C93.551 -1.49508 106.765 -0.248452 117.05 5.38105C117.379 3.53079 117.943 1.7199 118.889 0.0796077C120.728 3.62265 123.368 6.33898 127.269 7.55936C136.228 10.3675 145.554 2.79594 156.417 6.92949C158.65 7.78244 160.791 9.06843 162.354 10.8793C164.745 10.197 167.03 9.19965 169.46 8.56978C178.891 6.1159 189.124 5.61725 198.647 7.90054C201.077 8.47792 203.441 9.35712 205.819 10.1313C205.845 10.1051 205.871 10.092 205.898 10.0657C206.646 9.47522 207.237 8.64852 207.933 7.9924C210.206 5.80096 213.201 4.73805 216.366 5.09235C219.361 5.42041 222.093 7.1132 223.945 9.4621C225.456 11.378 226.415 13.9631 226.087 16.417C226.06 16.6138 225.995 16.745 225.889 16.9156C228.451 16.9287 231.117 16.7844 233.666 17.0468C234.664 17.493 235.373 18.0573 235.767 19.107C236.122 20.0519 236.161 21.5216 235.846 22.4533C236.595 22.8338 237.238 23.818 237.751 24.4741C240.916 28.5027 243.557 33.1217 245.146 38.0033C245.908 40.339 247.799 47.0708 246.696 49.3672C247.366 49.6953 248.417 50.312 248.745 51.0206C250.952 51.3225 253.474 52.8447 255.418 53.8944C263.759 58.3561 270.812 63.1982 276.618 70.8223C285.471 82.4487 289.478 97.1983 287.507 111.725C287.415 112.381 287.363 113.431 286.824 113.877C286.798 113.89 286.772 113.916 286.745 113.929C287.35 115.399 287.008 118.023 286.942 119.598C286.548 129.742 284.933 139.347 281.005 148.756C277.682 156.708 272.678 163.716 265.847 169.03C264.429 170.132 262.787 171.405 261.105 172.101C260.987 172.153 260.869 172.193 260.751 172.232L277.065 172.245C279.534 172.232 282.201 171.996 284.644 172.232C285.104 172.271 285.787 172.376 286.115 172.744C286.273 172.914 286.246 173.019 286.273 173.242C286.036 173.636 285.931 173.741 285.471 173.846C284.132 174.148 275.961 173.912 273.847 173.912L242.873 173.964H105.649L37.9492 173.899L13.3993 173.872C9.879 173.872 6.3456 173.951 2.83846 173.899C2.43127 173.885 2.14229 173.885 1.80077 173.636C1.61688 173.505 1.51179 173.321 1.40671 173.124C1.43298 172.888 1.38044 172.836 1.57747 172.665C1.93212 172.363 2.54948 172.311 2.99609 172.271C5.07147 172.101 7.22566 172.258 9.31418 172.258L22.3576 172.284C19.9144 170.408 18.4038 168.518 18.0098 165.382C17.7208 163.112 17.6945 160.776 17.5763 158.48L16.9458 147.26C15.4746 147.063 14.345 146.775 13.4124 145.541C12.7031 144.609 12.4273 143.402 12.6111 142.26C12.795 141.093 13.4255 140.108 14.3844 139.413C15.0675 138.927 15.8818 138.691 16.7094 138.56C16.0395 136.552 15.4352 134.361 15.1069 132.261C12.3222 131.29 10.0104 129.886 7.85616 127.891C4.3753 124.637 0.119449 118.155 0.00123142 113.26C-0.0250392 112.04 0.329615 110.937 1.19655 110.058C2.98295 108.247 5.70196 108.064 8.09259 108.011C4.70368 104.14 2.07661 99.9146 0.841892 94.8756C0.132585 91.9887 -0.576723 87.6189 1.06519 84.9813C1.90585 83.6429 3.31133 82.9211 4.80876 82.5931C10.1942 81.3858 15.0412 83.5641 19.4941 86.3461C19.4678 86.0443 19.4809 85.5325 19.3758 85.2569C18.9818 84.2334 17.1822 82.8424 16.4729 81.832C13.6751 77.8297 12.1908 72.9481 12.204 68.0666C12.2171 61.0855 15.1463 54.38 20.1114 49.4722C24.052 45.588 29.2273 42.9504 34.7704 42.3993C36.8721 42.1893 39.0132 42.2812 41.1279 42.2943L50.3489 42.3336Z" fill="#0F1771"/>
<path d="M248.601 170.566C248.798 170.54 248.929 170.527 249.126 170.579C249.665 170.75 251.136 171.55 251.359 172.062C250.978 172.403 250.374 172.272 249.888 172.246L246.972 172.259C247.011 172.246 247.037 172.219 247.077 172.206C247.721 171.826 248.377 171.301 248.601 170.566Z" fill="#F5F9FD"/>
<path d="M49.0486 114.717C49.0486 115.294 49.1143 115.596 48.6677 116.029C48.0766 116.62 44.8453 119.415 44.1754 119.546C44.0572 119.178 43.9652 118.85 43.939 118.47C45.7516 117.42 47.3279 115.924 49.0486 114.717Z" fill="#7CC869"/>
<path d="M6.72656 114.979C9.20914 116.41 11.626 118.011 13.8985 119.743L11.7443 120.255C10.4701 118.496 7.56722 116.646 6.72656 114.979Z" fill="#7CC869"/>
<path d="M43.2428 118.942C43.3479 119.389 43.4661 119.822 43.5186 120.281C42.0212 121.475 40.5106 122.735 39.184 124.126L38.6848 122.446C39.8276 121.475 42.4415 119.874 43.2428 118.942Z" fill="#7CC869"/>
<path d="M37.9099 122.853C38.1069 123.496 38.2908 124.139 38.501 124.768C37.4501 125.713 36.3993 126.645 35.4142 127.642C35.0858 126.815 34.8362 126.041 34.6786 125.175C35.5587 124.965 37.1218 123.443 37.9099 122.853Z" fill="#7CC869"/>
<path d="M33.8248 111.673L34.5342 112.696C33.2206 113.93 31.9334 115.177 30.6724 116.476L29.5427 114.612C30.9482 113.51 32.288 112.552 33.8248 111.673Z" fill="#7CC869"/>
<path d="M35.1909 113.536C35.979 113.641 36.859 114.022 37.634 114.218C36.859 115.19 36.268 116.292 35.5061 117.263C35.1909 117.67 35.1121 117.657 34.6129 117.709C33.5095 117.67 32.4456 117.604 31.3553 117.381C32.6557 116.121 33.9299 114.835 35.1909 113.536Z" fill="#7CC869"/>
<path d="M209.641 16.9158C210.167 16.1284 210.193 14.5669 210.456 13.6221C212.636 14.1338 214.606 15.4723 216.485 16.6402L216.577 16.8633C214.278 16.9552 211.953 16.9027 209.641 16.9158Z" fill="#A2C4F2"/>
<path d="M34.0219 110.151C36.0447 108.274 38.2908 106.398 39.9327 104.167L40.2611 106.463C38.5141 108.261 36.6621 110.059 35.1384 112.04C34.7574 111.424 34.3108 110.807 34.0219 110.151Z" fill="#7CC869"/>
<path d="M44.0441 121.305C45.3445 121.961 46.6581 122.473 48.0504 122.906C46.2771 123.326 42.9539 124.454 41.7323 125.832C41.1018 125.622 40.4976 125.255 39.9065 124.94C41.2594 123.693 42.6386 122.499 44.0441 121.305Z" fill="#7CC869"/>
<path d="M40.1692 108.458C41.2857 108.852 42.4678 109.035 43.6369 109.193C41.903 110.295 40.3399 111.463 38.8425 112.867C38.6849 113.025 38.5141 113.13 38.3302 113.261C37.5158 113.34 36.662 113.011 35.8739 112.815C37.2925 111.345 38.7111 109.901 40.1692 108.458Z" fill="#7CC869"/>
<path d="M37.0167 116.725C37.2137 118.785 37.3714 120.845 37.9099 122.853C37.1087 123.443 35.5456 124.965 34.6786 125.175C34.4028 121.934 35.5193 119.48 37.0167 116.725Z" fill="#ABD786"/>
<path d="M41.128 96.6082C42.6648 96.1489 44.1754 95.729 45.7516 95.4141C45.9093 96.2145 45.1211 97.1987 44.6745 97.8679C43.558 99.5082 42.1788 101.411 40.6814 102.723C40.7208 100.663 40.9047 98.6553 41.128 96.6082Z" fill="#ABD786"/>
<path d="M54.1188 118.352C54.9332 118.522 55.7607 118.719 56.5883 118.811C55.8002 120.176 54.9595 121.488 54.0138 122.748C52.0829 122.708 50.0994 122.616 48.2211 122.091C49.0355 121.304 50.5592 120.74 51.5574 120.162C52.4638 119.624 53.2913 119.008 54.1188 118.352Z" fill="#ABD786"/>
<path d="M6.52957 109.192L7.25202 109.166C7.68548 109.428 7.86938 109.94 8.04014 110.4C8.39479 111.357 8.99902 113.654 8.56555 114.612C7.96132 114.638 6.55584 113.51 6.00416 113.168C4.66436 112.289 3.1932 111.554 1.78772 110.793C3.23261 109.835 4.80885 109.376 6.52957 109.192Z" fill="#ABD786"/>
<path d="M14.7129 120.268C16.5781 121.829 18.4696 123.364 20.3086 124.952C18.9162 125.438 17.5108 125.818 16.079 126.186C15.4354 124.414 13.3731 122.367 12.1647 120.95C13.0447 120.766 13.8854 120.569 14.7129 120.268Z" fill="#7CC869"/>
<path d="M23.5399 108.156L23.6055 108.143C24.4331 108.431 25.6809 110.623 26.2063 111.41C25.0767 112.014 23.75 112.709 22.5153 113.037C22.0818 113.155 21.9768 113.155 21.5958 112.945C20.4268 112.066 19.284 111.226 18.0099 110.491C19.9802 109.901 21.7272 109.166 23.5399 108.156Z" fill="#43BD9B"/>
<path d="M8.9071 92.6059C10.1944 92.5403 10.6804 92.9865 11.613 93.8263C13.754 95.7553 15.7506 97.9467 17.6158 100.138C16.6307 100.414 15.5799 100.65 14.6078 100.991C13.0841 98.1961 10.6016 95.8734 8.9071 92.6059Z" fill="#43BD9B"/>
<path d="M26.8237 98.8262C27.73 100.65 28.216 103.537 28.216 105.558C28.216 106.66 27.5724 109.245 26.8105 110.006L26.5872 109.862C25.9173 108.865 25.208 107.894 24.5118 106.91C25.6021 104.324 26.0093 101.49 26.8237 98.8262Z" fill="#43BD9B"/>
<path d="M16.4073 126.947C17.7208 128.076 18.8242 130.11 19.8093 131.553L17.642 131.593C14.8442 131.383 12.4798 129.979 10.2468 128.391C12.3091 127.984 14.3582 127.433 16.4073 126.947Z" fill="#ABD786"/>
<path d="M177.591 49.3286C183.173 49.1974 188.782 49.263 194.365 49.2236C194.365 49.7092 194.444 50.2603 194.194 50.6933C192.434 50.9427 190.45 50.7458 188.664 50.7196L178.813 50.6933L177.591 49.3286Z" fill="#2D76DD"/>
<path d="M49.8236 116.751C51.1897 117.512 52.6083 117.945 54.1189 118.339C53.2913 118.995 52.4638 119.612 51.5443 120.15C50.5461 120.74 49.0224 121.304 48.208 122.079C46.9732 121.751 45.8173 121.173 44.6746 120.622C46.369 119.323 48.0635 117.998 49.8236 116.751Z" fill="#7CC869"/>
<path d="M51.321 108.523C53.6066 108.537 55.6294 108.76 57.7574 109.665C56.2731 110.636 54.815 111.66 53.3439 112.657C52.0829 113.536 50.8482 114.442 49.6266 115.373C49.9681 112.972 50.5592 110.833 51.321 108.523Z" fill="#7CC869"/>
<path d="M39.2628 125.582C41.7848 127.275 45.2788 127.787 48.2474 128.036C47.2097 128.548 46.1982 129.02 45.0949 129.374C41.903 130.017 39.4204 129.821 36.465 128.39C37.3056 127.406 38.3302 126.501 39.2628 125.582Z" fill="#7CC869"/>
<path d="M1.89284 85.4932C3.06188 85.9787 8.07958 90.4928 9.091 91.5557L8.8677 91.7132C6.35885 91.7525 3.85 91.5951 1.34115 91.477C1.11785 89.3905 1.18353 87.4878 1.89284 85.4932Z" fill="#ABD786"/>
<path d="M29.5427 114.599C29.3325 114.127 29.1223 113.654 29.0041 113.143C28.2685 109.783 29.2012 106.857 30.9876 104.049C31.6706 106.778 32.4587 109.193 33.8248 111.673C32.288 112.552 30.9482 113.51 29.5427 114.599Z" fill="#ABD786"/>
<path d="M16.4073 126.947C17.9573 126.567 19.481 126.16 20.9916 125.661C22.5021 126.986 23.8945 128.417 25.3131 129.834C23.0932 131.173 20.256 132.104 17.6421 131.592L19.8094 131.553C18.8242 130.11 17.7209 128.076 16.4073 126.947Z" fill="#7CC869"/>
<path d="M58.3221 110.715C58.3747 110.807 58.4141 110.846 58.4404 110.938C59.0971 112.631 57.5866 116.528 56.8641 118.208C55.3141 117.919 53.8167 117.512 52.3062 117.066C51.6494 116.83 51.0714 116.502 50.4803 116.161C53.068 114.284 55.6294 112.408 58.3221 110.715Z" fill="#7CC869"/>
<path d="M6.84478 83.565C7.94815 83.4206 9.09092 83.5518 10.1812 83.6831C10.5884 86.2157 10.5621 88.5777 10.3256 91.1234L8.36848 89.3126C6.62148 87.6066 4.63805 86.1107 2.70715 84.6147C4.0995 84.0111 5.34735 83.7224 6.84478 83.565Z" fill="#7CC869"/>
<path d="M48.0503 122.905C49.8236 123.22 51.5575 123.391 53.357 123.483C52.1354 125.005 50.7431 126.317 49.1143 127.393C46.4741 127.223 44.2148 126.776 41.7191 125.845C42.9538 124.454 46.2771 123.338 48.0503 122.905Z" fill="#ABD786"/>
<path d="M14.1086 101.962C15.4747 101.647 16.8145 101.267 18.1543 100.847C19.8751 102.999 21.6352 105.125 23.2377 107.355C21.1623 108.445 19.1526 109.206 16.9065 109.888L15.5667 109.219C16.4993 108.746 18.7585 107.907 19.1526 106.962C18.5484 105.203 15.5404 103.169 14.1086 101.962Z" fill="#43BD9B"/>
<path d="M20.5712 86.4912C21.4513 86.9767 22.3577 87.9609 23.1458 88.6302C25.3788 90.5198 27.5724 91.727 30.3177 92.7506C30.0418 95.4144 30.0812 98.1176 29.8711 100.781C29.5033 101.005 29.3851 100.978 28.9647 100.978C28.8728 100.913 28.8202 100.886 28.7546 100.781C28.1897 99.7973 27.6906 97.5665 27.1652 96.333C26.1275 93.9316 24.9584 91.727 23.172 89.798C22.4233 88.9845 21.5301 88.2365 20.834 87.3835C20.4924 86.9899 20.5318 86.9899 20.5712 86.4912Z" fill="#43BD9B"/>
<path d="M45.7517 95.4142C47.5907 95.0599 49.3771 95.0205 51.2291 95.3617C47.7351 98.8522 44.2806 102.343 40.8522 105.899C40.7734 104.836 40.6946 103.786 40.6683 102.723C42.1658 101.411 43.545 99.5215 44.6615 97.868C45.1212 97.1988 45.9093 96.2146 45.7517 95.4142Z" fill="#7CC869"/>
<path d="M30.9875 81.5703C30.9218 84.969 30.6723 88.4989 30.3176 91.8845C26.8499 90.5854 23.8287 88.5252 21.3068 85.8088C23.8682 86.4256 25.7859 86.4125 28.3867 86.0188C29.3324 84.6147 30.068 83.0138 30.9875 81.5703Z" fill="#7CC869"/>
<path d="M22.6729 115.807C23.9076 116.817 25.0109 118.615 25.6809 120.032C27.0601 122.906 27.3359 125.911 26.2719 128.916C24.7614 127.905 23.2771 126.16 21.911 124.887C22.6203 121.882 22.6597 118.877 22.6729 115.807Z" fill="#43BD9B"/>
<path d="M30.8694 118.273C32.1566 118.746 33.3782 118.811 34.7312 118.825C34.2714 119.783 33.9036 120.727 33.7066 121.777C33.2469 124.152 33.4439 126.593 34.81 128.627C34.035 129.729 33.2994 130.832 32.6295 131.999C32.0384 133.049 31.6706 134.243 31.1452 135.333C31.1715 129.637 31.1715 123.969 30.8694 118.273Z" fill="#A2C4F2"/>
<path d="M37.6865 115.859C39.2759 113.943 40.7996 112.316 42.875 110.886C42.8224 113.602 42.875 116.24 43.2428 118.93C42.4415 119.875 39.8276 121.462 38.6848 122.42C38.12 120.281 37.923 118.064 37.6865 115.859Z" fill="#ABD786"/>
<path d="M210.456 13.6227C211.572 12.1661 212.833 10.9195 214.738 10.6702C216.012 10.4996 217.286 10.8933 218.311 11.6675C219.558 12.6254 220.544 14.2526 220.727 15.8273C220.767 16.1685 220.754 16.3916 220.649 16.7196C219.716 17.192 217.654 16.8771 216.59 16.8508L216.498 16.6278C214.606 15.4599 212.636 14.1214 210.456 13.6227Z" fill="#F5F9FD"/>
<path d="M43.6632 110.583C45.8436 109.428 48.0372 108.799 50.4936 108.536C49.7711 110.504 49.2194 112.63 49.0487 114.717C47.3411 115.924 45.7517 117.42 43.939 118.457C43.5056 115.872 43.5975 113.195 43.6632 110.583Z" fill="#ABD786"/>
<path d="M4.80884 122.499C7.29142 122.079 9.74772 121.606 12.1778 120.95C13.3862 122.367 15.4485 124.414 16.0921 126.186C13.8722 126.567 11.6129 127.236 9.4062 127.734C7.56726 126.304 6.14864 124.388 4.80884 122.499Z" fill="#ABD786"/>
<path d="M118.521 59.9312C118.049 60.4036 117.576 60.9023 116.919 61.0991C116.104 61.3615 115.159 61.2172 114.384 60.8498C112.886 60.128 111.73 58.5665 111.218 57.0049C110.877 55.9551 110.85 54.7741 111.376 53.7768C111.835 52.9239 112.624 52.3596 113.53 52.0709C114.607 51.7429 115.632 51.861 116.617 52.399C116.814 52.504 116.906 52.4646 117.129 52.4515C117.471 53.8818 117.536 55.3384 117.786 56.7818C117.09 55.8633 116.328 54.8922 115.093 54.7085C114.357 54.6035 113.609 54.866 113.031 55.299C112.519 55.6796 112.203 56.2045 112.124 56.8343L112.308 56.8737C113.11 56.2438 113.858 55.2072 114.962 55.3778C115.75 55.4959 116.446 56.047 116.866 56.7031C117.142 57.1361 117.352 57.7267 117.208 58.2384C117.09 58.6452 116.879 58.8421 116.538 59.052C115.999 58.9864 115.645 58.4615 115.211 58.6583L115.119 58.9602C115.343 59.3145 115.553 59.5113 115.973 59.6163C116.38 59.7213 116.827 59.695 117.182 59.4457C117.589 59.1701 117.668 58.7633 117.786 58.3172L117.943 57.7529C118.311 58.304 118.39 59.2882 118.521 59.9312Z" fill="#ED8C6C"/>
<path d="M1.10474 113.273C2.99622 113.641 5.08474 113.916 6.72666 114.966C7.58045 116.633 10.4834 118.483 11.7444 120.241C9.31432 120.884 6.83174 121.344 4.34916 121.724C2.70725 119.218 1.36744 116.292 1.10474 113.273Z" fill="#ABD786"/>
<path d="M26.8763 112.525C27.5987 113.825 28.111 115.229 29.0042 116.436C29.1355 118.982 29.4508 121.501 29.5953 124.047C29.7923 127.682 29.7923 131.343 29.8054 134.991C29.3063 133.902 28.7152 132.878 28.111 131.842L27.0207 130.136C27.7432 128.85 28.0978 127.446 28.1635 125.976C28.3737 121.331 25.786 117.394 22.7649 114.113C24.1835 113.72 25.5364 113.168 26.8763 112.525Z" fill="#A2C4F2"/>
<path d="M16.9984 111.2C18.9818 112.066 20.4267 113.51 21.911 115.045L21.9373 115.977C21.9635 117.302 22.003 123.47 21.2017 124.296C19.3628 122.813 17.5895 121.213 15.7637 119.717C16.8276 116.803 17.1429 114.271 16.9984 111.2Z" fill="#7CC869"/>
<path d="M111.244 103.878C115.645 97.7494 121.28 92.7367 128.517 90.2959C128.373 91.0701 128.242 91.8575 128.11 92.6317C123.736 94.167 117.602 99.9277 115.159 103.864L111.244 103.878Z" fill="#F3A4B7"/>
<path d="M8.44739 108.97C11.2321 108.996 13.6752 109.613 16.1972 110.754C16.4599 113.431 16.1972 115.675 15.4485 118.234C15.304 118.602 15.2778 118.877 14.9362 119.1C13.0973 117.854 11.324 116.581 9.44567 115.387C9.56389 113.051 9.22237 111.161 8.44739 108.97Z" fill="#7CC869"/>
<path d="M5.79395 103.38C8.60491 103.17 11.3633 102.618 14.0955 101.949C15.5272 103.156 18.5484 105.19 19.1394 106.936C18.7454 107.881 16.4992 108.72 15.5535 109.193C13.6883 108.458 11.8099 108.13 9.82649 107.959C8.26339 106.555 7.02867 105.112 5.79395 103.38Z" fill="#ABD786"/>
<path d="M15.895 139.833C17.7471 139.649 19.6649 139.741 21.517 139.741L31.1189 139.754L39.5649 139.741C41.0361 139.741 42.586 139.636 44.0572 139.794C44.6614 139.859 45.1474 140.03 45.6334 140.424C46.2114 140.896 46.5792 141.605 46.6449 142.353C46.7368 143.311 46.461 144.4 45.8436 145.135C45.4495 145.607 44.8453 145.974 44.3068 146.25L27.0995 146.211C23.7894 146.224 20.2297 146.539 16.9459 146.184C16.0658 146.093 15.4878 145.843 14.7391 145.384C14.8968 145.41 15.0675 145.423 15.2251 145.436C18.2331 145.738 21.4644 145.384 24.4987 145.358C28.5969 145.331 32.8528 145.594 36.9247 145.253C37.7916 145.174 39.4467 145.082 40.1166 144.478C40.8653 143.809 41.2856 142.812 41.3382 141.828C41.3645 141.329 41.3513 140.634 40.9704 140.279C40.642 139.964 39.9327 139.951 39.4992 139.925C37.7128 139.807 35.8476 139.964 34.0481 139.951C27.9927 139.873 21.911 140.056 15.895 139.833Z" fill="#D63A54"/>
<path d="M119.559 63.986C118.876 64.1566 118.206 64.3009 117.51 64.3403C115.343 64.4584 113.136 63.6054 111.547 62.1357C109.852 60.5742 108.828 58.3434 108.762 56.047C108.709 54.1967 109.327 52.3202 110.627 50.9948C112.216 49.3808 114.226 49.0527 116.407 49.0527L117.129 52.4514C116.906 52.4645 116.827 52.5039 116.617 52.3989C115.632 51.8609 114.607 51.7428 113.53 52.0709C112.611 52.3464 111.822 52.9238 111.376 53.7768C110.837 54.7741 110.864 55.9551 111.218 57.0049C111.73 58.5665 112.886 60.128 114.384 60.8497C115.146 61.2172 116.091 61.3615 116.919 61.0991C117.576 60.8891 118.049 60.3905 118.521 59.9312C118.81 61.309 119.165 62.6344 119.559 63.986Z" fill="#F4BF8D"/>
<path d="M31.6707 103.379C34.0613 100.505 36.9642 98.6157 40.3268 97.041C39.9985 99.4162 39.9328 101.752 39.9328 104.153C38.2909 106.384 36.0447 108.261 34.0219 110.137C32.9054 107.998 32.2486 105.715 31.6707 103.379Z" fill="#ABD786"/>
<path d="M165.559 20.6299C166.741 20.5381 167.989 20.4462 169.145 20.7218C170.472 21.0236 171.404 21.7585 172.114 22.9001C174.544 26.102 174.583 30.2618 174.071 34.0804C173.847 35.7075 173.519 37.2954 173.23 38.9094C173.046 38.5945 173.138 34.2378 173.02 33.3062C172.403 30.9179 171.72 28.0572 169.539 26.5875C168.226 25.6952 166.242 25.5771 164.797 26.2463C164.167 26.535 163.326 27.1124 162.656 27.2174C162.59 27.2305 162.525 27.2305 162.459 27.2436C164.022 25.3278 165.073 23.0313 165.559 20.6299Z" fill="#543A5E"/>
<path d="M165.992 21.745C168.383 21.5482 169.959 21.7975 172.114 22.8867C174.544 26.0885 174.583 30.2483 174.071 34.0669C173.847 35.6941 173.519 37.2819 173.23 38.896C173.046 38.581 173.138 34.2244 173.02 33.2927C172.941 30.9307 172.389 28.3587 171.325 26.246C170.064 23.779 168.58 22.598 165.992 21.745Z" fill="#87699A"/>
<path d="M33.4439 64.4844C37.0035 65.836 38.4353 68.9985 39.9984 72.2135C38.7243 73.985 37.4501 75.6778 35.9002 77.2262C34.7311 78.3022 33.4439 79.2339 32.1829 80.1919C32.7608 74.9954 33.1549 69.7071 33.4439 64.4844Z" fill="#249377"/>
<path d="M194.365 49.2363C194.811 50.4173 194.444 54.1441 194.404 55.5482C189.807 55.5351 185.209 55.4957 180.612 55.5482C180.323 53.7373 179.758 52.2807 178.813 50.7192L188.664 50.7454C190.45 50.7585 192.434 50.9685 194.194 50.7192C194.444 50.273 194.365 49.7219 194.365 49.2363Z" fill="#124A98"/>
<path d="M51.9253 96.293C52.0435 96.4111 52.1354 96.5292 52.2274 96.6735C53.5672 98.8912 52.3587 103.392 51.7939 105.754C51.7677 105.78 51.7282 105.807 51.702 105.82C49.7317 107.185 46.8288 108.576 44.425 108.602C43.6894 108.615 42.875 108.405 42.1526 108.274C41.6797 108.129 41.2331 108.051 40.8916 107.67C42.2577 105.872 44.0309 104.245 45.594 102.618C47.6169 100.518 49.6266 98.1301 51.9253 96.293Z" fill="#7CC869"/>
<path d="M32.2485 64.3271C32.4587 64.6946 31.2108 78.7486 31.0926 80.2971C29.871 79.2998 28.7545 78.2237 27.6774 77.069C26.4296 75.5599 25.3262 74.0115 24.3411 72.3187C24.8402 71.1377 25.3919 70.0354 26.1012 68.9593C27.6774 66.5842 29.4113 64.9308 32.2485 64.3271Z" fill="#ABD786"/>
<path d="M20.0327 88.2627C22.9488 90.874 24.814 93.6429 26.2852 97.2515C25.6284 100.02 24.9979 102.802 24.1835 105.532C24.1047 105.742 23.9996 105.899 23.8814 106.096L23.7106 106.057C23.6975 105.899 23.6712 105.834 23.6056 105.676L23.4611 105.755C21.898 103.695 20.2692 101.661 18.6798 99.6135C19.862 95.8081 20.1247 92.1994 20.0327 88.2627Z" fill="#43BD9B"/>
<path d="M25.9436 131.041C27.5198 133.377 28.702 135.818 29.5427 138.508C27.1258 138.704 24.63 138.599 22.2131 138.599C20.4267 138.599 18.4827 138.757 16.7094 138.56C16.0395 136.552 15.4353 134.361 15.1069 132.261C19.0344 133.18 22.3314 132.904 25.9436 131.041Z" fill="#A2C4F2"/>
<path d="M42.3365 87.3311L42.4416 87.436C42.9539 89.2207 41.9556 93.5248 41.4433 95.3357C39.8671 95.9787 38.3697 96.6873 36.9117 97.5796C35.1647 98.6557 33.1681 100.755 31.2109 101.228C30.6986 100.467 31.3423 94.1022 31.4868 92.79C35.5324 92.0157 39.1841 89.9162 42.3365 87.3311Z" fill="#249377"/>
<path d="M23.8025 73.2246C24.9847 75.088 26.2325 77.0301 27.7431 78.6441C28.4787 79.4315 30.6197 80.7568 30.9744 81.5704C30.0549 83.0139 29.3193 84.6148 28.3605 86.0189C25.7728 86.4126 23.8419 86.4257 21.2805 85.809C21.0835 85.6777 20.9259 85.5596 20.8076 85.3497C19.9407 83.8406 23.0406 74.9961 23.8025 73.2246Z" fill="#ABD786"/>
<path d="M11.0875 83.748C13.5964 84.2467 17.3005 85.782 19.1001 87.6323C19.5729 91.3328 19.0081 94.7446 18.2463 98.3664L18.0886 98.6419C17.0641 98.0646 12.2434 92.9468 10.9167 91.7002C11.5341 89.0232 11.4947 86.4381 11.0875 83.748Z" fill="#43BD9B"/>
<path d="M135.269 80.9668C135.295 80.9799 135.335 80.993 135.361 81.0062C140.589 83.4732 147.353 82.6858 152.608 80.7568V85.1397C152.568 85.1528 152.542 85.1528 152.502 85.166C151.465 85.4678 150.532 86.0976 149.494 86.4388C145.528 87.7117 140.694 87.9217 136.911 85.9402C136.412 85.6777 135.939 85.3759 135.466 85.0872C135.243 85.2972 135.216 85.7433 135.164 86.032L135.269 80.9668Z" fill="#ED8C6C"/>
<path d="M115.119 34.5392C114.988 33.0958 114.686 30.9568 115.238 29.6052C115.369 29.2903 115.408 29.264 115.71 29.1328C116.262 29.6052 116.788 30.1039 117.326 30.5894C119.283 32.0591 121.254 33.4238 123.408 34.5917C121.897 36.7044 121.135 38.9352 120.439 41.4022C120.255 42.0583 120.137 42.99 119.848 43.5805L119.625 43.5018C118.85 44.591 118.692 49.0394 118.377 50.6666C117.484 47.7666 114.515 37.1112 115.119 34.5392Z" fill="#392B55"/>
<path d="M115.119 34.5392C114.988 33.0958 114.686 30.9568 115.238 29.6052C115.369 29.2903 115.408 29.264 115.71 29.1328C116.262 29.6052 116.788 30.1039 117.326 30.5894C116.236 33.1614 116.131 36.4288 116.446 39.1845C116.013 37.6492 115.421 36.1139 115.119 34.5392Z" fill="#87699A"/>
<path d="M1.44617 92.3174C3.92874 92.5142 6.42446 92.6061 8.90703 92.6192C10.6146 95.8867 13.0841 98.2093 14.6209 101.018C11.6129 101.674 8.49984 102.408 5.42617 102.658C3.28511 99.4428 2.20802 96.0441 1.44617 92.3174Z" fill="#ABD786"/>
<path d="M64.417 165.816C69.658 165.475 75.7791 165.829 81.1383 165.789C81.1514 167.889 81.4666 169.49 83.0035 171.025C83.4501 171.471 83.9755 171.865 84.4746 172.259H67.5169C67.4907 170.12 67.4907 167.994 67.5169 165.855C66.4661 165.868 65.4415 165.855 64.417 165.816Z" fill="#124A98"/>
<path d="M46.3165 146.447C46.7894 146.841 46.2508 164.018 46.5398 166.511C46.8419 169.031 48.5101 170.894 50.4147 172.39C48.1029 172.298 45.7911 172.298 43.4924 172.285L38.6323 172.298C39.1446 171.97 39.6175 171.629 40.0772 171.235C41.2594 170.212 42.1001 168.913 42.5729 167.417C43.4136 164.674 43.3085 161.446 43.4793 158.599C43.6894 154.846 43.8996 151.106 44.1754 147.366C45.0161 147.156 45.5809 146.92 46.3165 146.447Z" fill="#A2C4F2"/>
<path d="M230.185 18.3332C231.393 18.2675 232.904 18.0313 234.033 18.53C235.097 19.7373 234.795 25.0912 234.69 26.8102C234.677 27.0858 234.611 27.2957 234.506 27.5582C225.456 27.4007 216.393 27.4926 207.342 27.4795C203.77 27.4795 200.105 27.6369 196.532 27.4795C196.191 27.4663 195.888 27.4663 195.613 27.2301L195.534 26.8496C204.676 26.7184 213.858 26.3247 222.908 24.8681C225.469 24.4613 229.856 23.7527 231.393 21.4563C231.682 21.0232 231.866 20.5377 231.735 20.0259C231.538 19.173 230.868 18.7531 230.185 18.3332Z" fill="#124A98"/>
<path d="M35.9133 129.375C39.5255 131.278 42.6123 131.186 46.461 130.123L46.4479 139.505C45.778 139.072 45.2131 138.784 44.425 138.574L31.5918 138.534C32.5244 135.083 33.8379 132.288 35.9133 129.375Z" fill="#A2C4F2"/>
<path d="M162.459 27.2306C162.525 27.2175 162.59 27.2175 162.656 27.2044C163.326 27.0994 164.167 26.522 164.797 26.2333C166.242 25.5641 168.212 25.6822 169.539 26.5745C171.719 28.0442 172.402 30.9049 173.02 33.2932C173.138 34.238 173.046 38.5815 173.23 38.8964C172.797 41.3372 171.023 49.2631 169.775 50.9952C169.71 48.2133 169.513 45.4707 169.184 42.715C169.211 42.6756 169.237 42.6494 169.263 42.61C169.736 41.9014 169.513 40.458 169.355 39.6575C168.423 34.9334 165.362 30.8655 161.382 28.241L162.459 27.2306Z" fill="#392B55"/>
<path d="M172.008 48.5283C174.176 48.6858 176.133 49.4206 177.565 51.1134C178.878 52.6619 179.469 54.7614 179.285 56.7692C179.075 59.0656 177.946 61.2308 176.146 62.6742C174.255 64.1964 171.864 64.7869 169.46 64.4982C169.079 64.4589 168.711 64.3933 168.331 64.3277C169 62.1887 169.565 60.0235 170.143 57.8583C170.248 56.7692 170.511 55.6275 170.682 54.5384C171.063 52.5306 171.431 50.4967 172.008 48.5283Z" fill="#F4BF8D"/>
<path d="M170.695 54.5514C171.772 53.8296 172.875 53.1473 174.228 53.436C174.964 53.5934 175.555 54.0659 175.936 54.7089C176.514 55.693 176.566 56.9659 176.264 58.0419C175.975 59.0392 175.332 59.9184 174.399 60.3908C173.611 60.7845 172.468 60.9026 171.628 60.5614C171.207 60.3908 170.721 60.0103 170.577 59.5641C170.406 59.0261 170.472 58.3306 170.156 57.8713C170.248 56.7691 170.511 55.6405 170.695 54.5514Z" fill="#ED8C6C"/>
<path d="M172.494 55.2207C172.849 55.2076 173.086 55.2601 173.414 55.3651L173.453 55.6013C173.086 55.6669 172.836 55.7063 172.547 55.9687C172.442 56.4805 172.573 56.7954 172.797 57.2547C173.151 57.9764 173.059 58.4226 172.954 59.1837L172.967 59.3543L172.836 59.4593C172.442 59.3543 172.219 59.2231 171.943 58.9081C171.509 58.4226 171.339 57.8058 171.391 57.1628C171.483 56.2574 171.825 55.7981 172.494 55.2207Z" fill="#E96D44"/>
<path d="M40.3005 73.3555C41.8899 75.0483 42.5335 83.5515 42.5729 85.9923C40.1691 88.4462 36.57 90.1915 33.4044 91.4118L31.4473 92.0548C31.9333 88.5643 31.8939 84.8507 32.0778 81.3207C35.6243 79.3655 38.0281 76.6361 40.3005 73.3555Z" fill="#249377"/>
<path d="M135.177 86.0444C135.23 85.7557 135.243 85.2964 135.479 85.0996C135.952 85.4014 136.425 85.6901 136.924 85.9526C140.707 87.9209 145.541 87.7241 149.508 86.4512C150.545 86.11 151.478 85.4802 152.516 85.1783C152.555 85.1652 152.581 85.1652 152.621 85.1521C152.752 88.0915 152.411 90.073 150.322 92.3169C148.444 94.3509 146.027 95.7025 143.649 97.0803C140.287 94.9808 136.385 92.7893 135.387 88.6426C135.19 87.7766 135.164 86.9105 135.177 86.0444Z" fill="#F4BF8D"/>
<path d="M54.8151 49.6693C56.7985 49.3412 59.0052 49.5249 61.0281 49.5249L72.4295 49.5511L110.259 49.5643C108.512 51.5195 107.803 53.2385 107.409 55.8236C101.13 55.8105 94.7465 56.0598 88.4809 55.7843C88.3364 54.8788 85.2234 50.6666 84.5009 49.7349L54.8151 49.6693Z" fill="#124A98"/>
<path d="M15.8951 139.833C21.9242 140.056 28.0059 139.872 34.035 139.899C35.8345 139.912 37.6997 139.754 39.4861 139.872C39.9196 139.899 40.6289 139.912 40.9573 140.227C41.3382 140.594 41.3645 141.29 41.3251 141.775C41.2594 142.772 40.8391 143.757 40.1035 144.426C39.4336 145.029 37.7654 145.121 36.9116 145.2C32.8397 145.554 28.5838 145.279 24.4856 145.305C21.4645 145.331 18.2201 145.686 15.2121 145.384C15.0544 145.371 14.8837 145.357 14.7261 145.331C14.4633 145.069 14.24 144.793 14.0562 144.478C13.6358 143.743 13.5045 142.904 13.7409 142.103C14.0693 140.975 14.8705 140.345 15.8951 139.833Z" fill="#F9617A"/>
<path d="M235.82 22.4668C236.569 22.8473 237.212 23.8315 237.725 24.4876C240.89 28.5162 243.53 33.1353 245.12 38.0168C245.882 40.3526 247.773 47.0844 246.67 49.3808C246.643 49.3545 246.617 49.3152 246.591 49.2889C244.463 47.2549 238.539 47.793 235.781 47.8192C235.82 47.7536 235.846 47.7011 235.886 47.6355C236.24 46.94 236.175 23.6347 235.82 22.4668Z" fill="#29A8DF"/>
<path d="M133.732 84.1157L133.903 84.1944C134.271 85.1261 133.863 86.7139 133.955 87.7637C134.441 93.5638 139.696 95.6502 143.544 98.8521C145.79 96.7656 148.601 95.9652 150.979 93.5244C153.829 90.5981 153.908 87.9605 153.869 84.1025C154.854 84.5881 155.589 84.9817 156.325 85.8216C158.44 88.2492 158.716 91.8972 158.479 94.9679C158.466 95.086 158.453 95.2041 158.427 95.3222C158.177 96.7787 157.691 98.9964 156.338 99.8625C154.368 101.135 151.517 98.8127 149.731 97.9729C148.943 97.6055 148.128 97.4086 147.288 97.238C145.869 97.6055 144.831 98.4059 143.636 99.2326C142.598 98.6421 141.732 97.7498 140.562 97.4086C137.436 96.5032 134.271 100.834 131.814 100.374C131.171 100.243 130.672 99.7444 130.356 99.1933C128.833 96.6213 129.003 92.3696 129.739 89.5483C130.396 87.0682 131.525 85.4017 133.732 84.1157Z" fill="#F5F9FD"/>
<path d="M17.9705 147.261L43.0064 147.326C42.9013 151.053 42.6123 154.767 42.389 158.48C42.2314 161.065 42.3102 163.913 41.6666 166.419C41.2988 167.863 40.5501 169.28 39.4599 170.304C38.5404 171.17 37.3976 171.747 36.1629 172.049C33.8905 172.613 28.991 172.429 26.4822 172.324C24.4462 172.233 22.6598 171.511 21.2806 169.976C20.8996 169.556 20.5581 169.083 20.2297 168.624C24.8271 168.519 29.2274 168.663 32.971 165.475C37.4239 161.682 37.8442 155.541 38.3039 150.148C31.5655 150.095 24.814 150.345 18.0755 150.253C18.0361 149.255 17.9705 148.258 17.9705 147.261Z" fill="#D63A54"/>
<path d="M195.547 26.8239C195.718 25.0655 195.127 19.4622 196.138 18.3731C197.806 17.9925 225.377 17.9663 226.323 18.2812L226.481 18.3075C227.702 18.2418 228.976 18.1894 230.185 18.3206C230.855 18.7405 231.538 19.1604 231.748 20.0002C231.879 20.512 231.695 21.0107 231.406 21.4306C229.87 23.727 225.482 24.4356 222.921 24.8424C213.884 26.299 204.689 26.7058 195.547 26.8239Z" fill="#2D76DD"/>
<path d="M226.481 18.3204C226.651 18.5697 226.757 18.7403 226.757 19.0552C226.757 19.3308 226.704 19.3177 226.507 19.5145C225.154 19.7901 199.488 19.8032 198.555 19.567C198.082 19.4489 197.833 19.2914 197.583 18.8978L197.714 18.6222C198.108 18.4122 198.476 18.3466 198.923 18.3073C201.839 18.1104 204.873 18.2679 207.802 18.281C213.976 18.3073 220.149 18.3991 226.31 18.281L226.481 18.3204Z" fill="#62A4F4"/>
<path d="M241.048 163.834C241.954 164.018 242.939 165.724 243.662 166.38C244.923 167.534 246.578 168.44 247.747 169.621C247.615 170.093 247.156 170.566 246.801 170.907C246.223 171.471 245.448 172.062 244.634 172.219C242.072 172.705 236.332 172.377 233.508 172.377L208.853 172.364H201.812C203.441 171.55 204.991 169.398 205.714 167.758C205.95 167.206 206.265 166.524 206.042 165.92L225.377 165.842C229.896 165.842 234.454 165.947 238.959 165.789C239.209 165.684 239.432 165.579 239.669 165.435C240.299 165.067 240.877 164.595 241.048 163.834Z" fill="#124A98"/>
<path d="M52.4506 126.265V159.714C52.4506 161.419 52.1748 163.834 53.554 165.107C54.9595 166.393 62.3284 165.829 64.4038 165.815C65.4284 165.855 66.4529 165.881 67.4906 165.868C67.4643 168.007 67.4775 170.133 67.4906 172.272C64.2987 172.219 56.0629 172.692 53.5146 172.022C52.2405 171.681 51.0058 170.907 50.0732 169.988C49.1274 169.057 48.2999 167.758 48.0503 166.432C47.5774 163.873 47.9058 157.548 47.919 154.648L47.8927 129.519C49.5477 128.561 51.0189 127.485 52.4506 126.265Z" fill="#2D76DD"/>
<path d="M258.294 104.285C258.334 104.298 258.373 104.311 258.4 104.325C259.621 104.81 260.816 105.768 261.933 106.463C263.68 107.566 265.506 108.629 267.384 109.495C271.469 111.358 275.83 112.815 280.244 113.641C281.964 113.969 283.843 113.983 285.524 114.429C286.036 115.321 285.774 117.289 285.747 118.326C285.59 125.438 284.907 132.38 283.002 139.256C279.482 151.946 272.665 164.438 260.79 171.078C259.516 171.787 257.874 172.6 256.416 172.836C252.554 171.288 251.07 170.448 247.655 168.086C249.481 168.021 251.372 167.902 253.172 167.535L253.25 167.299C254.525 167.732 255.681 168.427 256.968 168.834C263.549 167.233 270.865 159.727 274.267 154.111C279.889 144.846 282.174 133.745 282.582 123.024C282.661 121.121 282.936 118.615 282.437 116.778C282.385 116.594 282.306 116.45 282.188 116.292C280.585 116.056 278.956 116.017 277.341 115.793C272.481 115.137 267.857 113.589 263.627 111.096C261.933 110.098 259.779 107.986 258.308 107.316C258.583 106.555 258.715 105.177 258.373 104.429C258.36 104.39 258.321 104.338 258.294 104.285Z" fill="#5967C4"/>
<path d="M18.1018 150.239C24.8402 150.331 31.5918 150.082 38.3302 150.134C37.8705 155.528 37.4501 161.669 32.9973 165.461C29.2537 168.65 24.8402 168.506 20.256 168.611C19.8094 167.902 19.4416 167.141 19.2577 166.314C18.798 164.32 18.8243 162.115 18.706 160.068L18.1018 150.239Z" fill="#F9617A"/>
<path d="M21.8979 151.801C22.1475 151.88 22.4233 151.932 22.6203 152.103C22.9356 152.378 22.975 152.759 23.0144 153.152C23.2377 155.331 23.8551 161.629 23.5004 163.48C23.4216 163.86 23.1852 164.162 22.9356 164.451C22.5415 164.385 22.3314 164.306 22.003 164.057C21.7403 163.624 21.7271 163.152 21.6877 162.666C21.5038 160.553 20.9784 154.583 21.3068 152.798C21.3725 152.418 21.6352 152.103 21.8979 151.801Z" fill="#F3A4B7"/>
<path d="M226.927 114.52C230.303 114.35 233.587 113.93 236.871 113.155C243.057 111.699 248.666 108.982 254.012 105.61C254.892 105.046 256.429 104.232 256.981 103.34C257.033 103.419 257.047 103.458 257.099 103.537C257.493 104.324 257.362 105.912 257.112 106.739C257.02 106.962 257.073 106.896 256.928 107.067C255.969 108.143 254.551 109.087 253.369 109.927C246.63 114.678 239.209 116.2 231.117 116.895C231.525 118.076 231.249 122.144 231.328 123.732C231.472 126.501 231.748 129.257 232.155 131.999C233.85 143.245 238.184 155.042 246.893 162.784C248.863 164.543 251.109 165.697 253.185 167.259L253.264 167.325L253.185 167.561C251.385 167.928 249.494 168.033 247.668 168.112C245.317 166.472 243.333 164.411 241.468 162.246C232.825 152.142 228.464 138.403 227.479 125.28C227.334 123.286 227.348 115.373 226.927 114.52Z" fill="#8B91DD"/>
<path d="M159.504 90.5195C166.321 93.5246 172.416 97.9074 176.816 103.983L156.995 103.917C147.708 103.852 138.421 103.996 129.135 103.826C127.611 103.996 125.93 103.878 124.393 103.878L115.172 103.865C117.615 99.9283 123.749 94.1675 128.123 92.6322L128.097 95.2961C128.452 97.1857 129.069 100.269 130.764 101.411C131.315 101.792 131.959 101.831 132.602 101.687C134.967 101.149 138.763 97.4481 141.219 98.9966C142.152 99.5871 142.401 100.558 143.728 100.296C145.055 100.033 146 99.1672 147.13 98.5111C147.997 98.7079 148.811 98.931 149.626 99.2984C151.649 100.23 154.525 102.487 156.745 101.07C157.914 100.322 158.532 98.931 159.096 97.7106C159.701 95.2961 159.99 93.0128 159.504 90.5195Z" fill="#F9617A"/>
<path d="M131.158 103.354C130.435 102.842 129.897 102.343 129.437 101.595C128.425 99.968 127.637 97.1992 128.097 95.3096C128.452 97.1992 129.069 100.283 130.764 101.425C131.315 101.805 131.959 101.845 132.602 101.7C134.967 101.162 138.763 97.4616 141.219 99.0101C142.152 99.6006 142.401 100.572 143.728 100.309C145.055 100.047 146.001 99.1807 147.13 98.5246C147.997 98.7214 148.811 98.9445 149.626 99.3119C151.649 100.244 154.525 102.501 156.745 101.083C157.914 100.335 158.532 98.9445 159.096 97.7241C158.886 99.5219 158.138 101.805 156.64 102.947C156.18 103.288 155.773 103.393 155.235 103.498C152.608 103.012 150.23 100.742 147.616 100.65C145.948 100.598 144.937 102.343 143.216 102.094C141.823 101.897 141.088 100.414 139.604 100.48C136.674 100.585 134.139 103.931 131.158 103.354Z" fill="#D63A54"/>
<path d="M235.754 55.8111C236.634 54.2233 235.334 50.4572 236.109 49.0924C239.38 49.0793 243.99 48.5151 246.604 50.8246L246.683 50.9952C247.642 51.297 248.561 52.5568 249.034 53.3966C249.612 54.4201 250.072 55.6143 250.177 56.7953C250.413 59.6166 250.256 62.5691 250.256 65.3904V81.2816L250.282 97.9733C250.282 100.086 250.623 104.521 250.137 106.319C249.612 107.146 245.553 108.93 244.463 109.285C244.686 108.878 244.752 108.55 244.765 108.104C244.896 104.128 244.804 100.112 244.804 96.123L244.791 72.3584L244.804 61.0338C244.804 59.4329 245.015 57.4776 244.726 55.9292C243.32 55.3256 237.619 55.7717 235.754 55.8111Z" fill="#124A98"/>
<path d="M236.109 49.0924C239.38 49.0793 243.99 48.5151 246.604 50.8246L246.683 50.9952C246.63 51.0346 246.578 51.0739 246.525 51.1002C246.197 51.2052 243.846 50.7327 243.346 50.6934C240.995 50.5228 238.631 50.7852 236.28 50.6278C236.017 50.1947 236.109 49.5911 236.109 49.0924Z" fill="#2D76DD"/>
<path d="M160.16 10.4336C161.54 11.2078 162.853 12.94 163.273 14.449C163.851 16.5355 162.892 18.7663 161.855 20.5509C158.518 26.3379 152.056 29.5923 145.79 31.2063C137.239 33.424 128.255 32.3611 120.636 27.847C116.078 25.1438 111.993 21.1939 110.653 15.9056C110.391 14.8821 110.18 13.7011 110.233 12.6513C111.218 14.5409 112.321 16.3911 113.766 17.979C118.022 22.6374 125.102 24.6714 131.21 24.9732C138.684 25.3406 150.966 22.913 156.601 17.7165C158.321 16.1287 160.082 13.1368 160.187 10.7617L160.16 10.4336Z" fill="#392B55"/>
<path d="M54.8151 49.6699L84.5009 49.7224C85.2234 50.6541 88.3364 54.8664 88.4809 55.7718L62.473 55.6537C59.7146 55.6537 55.2748 54.9845 53.1732 57.1103C52.6609 57.6352 52.2668 58.2651 52.1749 58.9999C51.7677 61.9262 52.1223 67.0702 52.1223 70.1802L52.1617 95.0208C50.7825 93.9973 49.2588 94.0498 47.6169 94.0498L47.6038 69.3666C47.6038 65.3643 47.3017 60.7583 47.7614 56.8216C47.9059 55.5619 48.2343 54.5383 48.9173 53.4623C50.2965 51.3365 52.385 50.1948 54.8151 49.6699Z" fill="#2D76DD"/>
<path d="M190.923 163.782C195.494 163.651 200.079 163.743 204.65 163.782C205.096 164.884 204.886 166.157 204.426 167.22C203.454 169.464 201.419 171.196 199.185 172.088C198.411 172.403 197.544 172.403 196.716 172.43C190.45 172.6 184.132 172.456 177.867 172.443L143.032 172.43L107.777 172.416C101.879 172.416 95.9155 172.6 90.0309 172.403C88.9013 172.364 87.6797 172.272 86.6289 171.8C85.2365 171.17 84.0412 170.041 83.2268 168.755L161.159 168.69C165.625 168.69 198.489 169.057 199.671 168.624C200.946 168.152 201.865 167.259 202.404 166.026C202.666 165.409 202.942 164.569 202.679 163.926C198.778 163.9 194.811 164.005 190.923 163.782Z" fill="#90278F"/>
<path d="M195.613 28.7129L220.347 28.7785C220.951 28.8966 221.529 28.9491 222.146 28.9622C222.185 30.7862 222.593 35.1297 222.002 36.6913C220.491 35.1953 217.063 34.6442 215.014 34.6442C212.071 34.6573 209.181 35.9827 207.145 38.0691C204.834 40.418 203.638 43.5018 203.665 46.7955C203.704 50.1811 205.083 53.5535 207.54 55.9156C209.72 58.002 212.859 59.2355 215.894 59.1437C217.194 59.1043 218.783 58.8812 219.913 58.1989C220.149 58.7762 220.333 59.5767 220.071 60.1803C220.005 60.3247 219.926 60.4428 219.834 60.5609C217.115 60.8102 214.16 60.5871 211.428 60.5609L195.665 60.4297L195.613 28.7129Z" fill="#FDD26C"/>
<path d="M197.281 52.1367C197.557 52.1761 197.741 52.2417 197.99 52.3598C198.608 53.7114 198.2 56.0997 198.135 57.6087C197.898 57.5431 197.675 57.4644 197.438 57.3857C196.821 56.1915 197.136 53.4883 197.281 52.1367Z" fill="#F5F9FD"/>
<path d="M197.241 41.6123L198.003 41.8091C198.607 42.5834 198.253 49.5907 198.161 51.0079C197.859 50.9423 197.583 50.8373 197.281 50.7324C196.9 48.7246 197.215 43.935 197.241 41.6123Z" fill="#F5F9FD"/>
<path d="M197.517 30.5107C197.714 30.5632 197.872 30.642 198.056 30.7338C198.581 31.9148 198.319 39.2634 198.148 40.8512C197.767 40.7593 197.517 40.7724 197.241 40.4706C197.071 38.5548 196.887 32.0985 197.517 30.5107Z" fill="#F5F9FD"/>
<path d="M219.926 58.2119C218.797 58.8942 217.194 59.1304 215.907 59.1567C212.886 59.2354 209.746 58.015 207.553 55.9286C205.096 53.5797 203.717 50.1941 203.678 46.8085C203.638 43.5148 204.847 40.4311 207.159 38.0822C209.208 36.0088 212.098 34.6703 215.027 34.6572C217.063 34.6572 220.504 35.2084 222.015 36.7043C224.261 37.8197 226.152 40.6673 226.94 42.9899C227.978 46.0606 227.702 49.5905 226.231 52.4774C224.97 54.9444 222.698 57.3064 220.018 58.1856C219.979 58.1856 219.952 58.1988 219.926 58.2119Z" fill="#F5F9FD"/>
<path d="M217.509 36.6914C218.77 36.8226 221.292 37.715 222.054 38.7779C222.185 38.9616 222.146 38.9091 222.199 39.119C222.028 39.6308 221.686 39.9851 221.345 40.3919C221.332 40.2344 221.279 40.1163 221.226 39.972C220.149 39.0009 218.534 38.3186 217.089 38.1874C217.141 37.6625 217.128 37.0982 217.509 36.6914Z" fill="#E96D44"/>
<path d="M222.199 39.1191C223.354 39.5784 224.379 41.3631 224.852 42.4522C226.087 45.2342 226.126 48.2129 225.009 51.0343C224.576 52.1365 223.696 53.7506 222.632 54.3411C222.435 53.7637 222.435 53.1994 222.172 52.6089C222.264 52.5302 222.356 52.4515 222.435 52.3727C223.709 51.0343 224.3 48.6197 224.274 46.822C224.248 44.3025 223.105 42.1242 221.332 40.4051C221.686 39.9983 222.028 39.644 222.199 39.1191Z" fill="#F34041"/>
<path d="M222.632 54.3414L222.593 54.5776C221.594 55.7323 220.373 56.4016 218.941 56.9002C216.406 57.7663 213.674 57.6876 211.27 56.4934C208.695 55.2075 206.646 52.7142 205.766 49.9979C204.886 47.2947 205.123 44.2109 206.462 41.6914C207.71 39.3425 209.773 37.6628 212.321 36.8886C213.687 36.4687 216.183 36.0094 217.509 36.7049C217.128 37.1117 217.155 37.676 217.089 38.2009C217.102 38.647 217.141 38.8439 216.8 39.185C216.458 39.5262 215.88 39.5787 215.447 39.5131C214.554 39.395 214.593 38.9357 213.963 38.4896C213.345 38.0434 210.981 39.4081 210.429 39.7887C208.577 41.114 207.316 43.1874 206.948 45.4444C206.581 47.7146 207.29 50.116 208.63 51.9531C210.022 53.8821 212.137 55.3124 214.501 55.6799C216.577 56.0079 219.033 55.483 220.714 54.2102C221.253 53.8034 221.936 53.226 222.199 52.5961C222.435 53.2129 222.435 53.764 222.632 54.3414Z" fill="#F9B239"/>
<path d="M217.089 38.1875C218.534 38.3318 220.149 39.0142 221.227 39.9721C221.279 40.1165 221.345 40.2346 221.345 40.3921C223.118 42.1242 224.261 44.2894 224.287 46.8089C224.313 48.6067 223.722 51.0212 222.448 52.3597C222.369 52.4515 222.277 52.5171 222.185 52.5959C221.936 53.2257 221.24 53.8162 220.701 54.2099C219.02 55.4828 216.563 56.0077 214.488 55.6796C212.111 55.3122 210.009 53.8819 208.617 51.9529C207.277 50.1026 206.567 47.7012 206.935 45.4442C207.303 43.2002 208.564 41.1138 210.416 39.7884C210.955 39.3948 213.319 38.0432 213.95 38.4893C214.58 38.9355 214.541 39.3948 215.434 39.5129C215.88 39.5785 216.458 39.5129 216.787 39.1848C217.141 38.8305 217.102 38.6337 217.089 38.1875Z" fill="#F5F9FD"/>
<path d="M219.414 43.056C219.782 43.0167 220.136 42.9904 220.504 43.0954C221.135 43.266 221.66 43.7122 221.988 44.2764C222.251 44.7357 222.461 45.3918 222.277 45.9167C221.791 47.2552 216.55 52.701 215.224 53.2652C214.869 52.5566 212.754 50.7195 212.032 50.2602C211.848 49.4466 210.035 48.4362 209.536 47.5308C209.313 47.1109 209.26 46.586 209.444 46.1398C209.667 45.5755 210.219 45.1556 210.771 44.9457C211.388 44.7095 212.15 44.6963 212.741 45.0244C213.477 45.4312 214.672 46.7041 214.895 47.4914C216.13 46.7828 218.245 44.1977 219.414 43.056Z" fill="#D63A54"/>
<path d="M230.29 28.7787L234.533 28.7656C234.664 29.0543 234.73 29.3167 234.743 29.6317C234.9 32.3349 234.927 63.1593 234.519 63.8811C234.48 63.9467 234.428 63.9991 234.388 64.0516L234.428 64.1566L234.007 64.1172L233.968 64.2485C231.643 64.5372 229.318 64.4584 226.98 64.4716H204.939C202.679 64.4716 200.394 64.5503 198.135 64.4322C197.583 64.4059 196.939 64.4191 196.48 64.0779C195.967 63.6973 195.731 63.1199 195.652 62.5032C195.56 61.8471 195.639 61.1122 195.652 60.443L211.414 60.5742C214.16 60.6005 217.102 60.8235 219.821 60.5742C219.913 60.4561 220.005 60.3249 220.057 60.1937C220.32 59.59 220.149 58.7896 219.9 58.2122C219.926 58.1991 219.952 58.1991 219.992 58.1859C222.685 57.3067 224.957 54.9447 226.205 52.4777C227.676 49.5908 227.952 46.0609 226.914 42.9902C226.126 40.6676 224.235 37.8331 221.988 36.7046C222.579 35.1431 222.172 30.7996 222.133 28.9755C221.515 28.9493 220.938 28.9099 220.333 28.7918C223.657 28.7656 226.98 28.7 230.29 28.7787Z" fill="#F9B239"/>
<path d="M220.347 28.7783C223.657 28.7652 226.98 28.6996 230.29 28.7783C230.487 28.8046 230.986 28.8177 231.078 28.9752C231.38 29.4738 231.42 59.7078 231.17 60.3376C231.131 60.4557 231.104 60.482 231.039 60.587C227.308 60.587 223.565 60.6788 219.834 60.5738C219.926 60.4557 220.018 60.3245 220.071 60.1933C220.333 59.5897 220.163 58.7892 219.913 58.2118C219.939 58.1987 219.966 58.1987 220.005 58.1856C222.698 57.3064 224.97 54.9443 226.218 52.4773C227.689 49.5904 227.965 46.0605 226.927 42.9899C226.139 40.6672 224.248 37.8328 222.002 36.7042C222.593 35.1427 222.185 30.7992 222.146 28.9752C221.529 28.9489 220.951 28.8964 220.347 28.7783Z" fill="#F7C252"/>
<path d="M82.5437 163.847L190.923 163.781C194.824 164.004 198.778 163.899 202.679 163.912C202.942 164.555 202.666 165.408 202.404 166.012C201.865 167.259 200.959 168.151 199.671 168.61C198.489 169.043 165.625 168.676 161.159 168.676L83.2267 168.742C82.3072 167.206 82.5043 165.579 82.5437 163.847Z" fill="#AC48A3"/>
<path d="M119.007 1.74707C119.401 2.54753 119.901 3.30863 120.36 4.08285C123.053 7.27159 126.219 8.9775 130.409 9.3318C133.666 9.60737 136.766 8.89876 139.919 8.20328C147.117 6.61547 153.777 5.85437 160.174 10.4341L160.187 10.7621C160.082 13.1373 158.321 16.1423 156.601 17.717C150.952 22.9135 138.671 25.3411 131.197 24.9605C125.089 24.6587 118.009 22.6248 113.753 17.9663C112.308 16.3916 111.205 14.5283 110.22 12.6386C110.338 11.1427 110.509 9.69923 110.916 8.24264C111.415 8.74129 111.901 9.23994 112.44 9.69923C113.688 10.749 116.236 12.4812 117.93 12.3499L118.101 12.2318C118.154 12.1925 118.232 12.1662 118.272 12.1137C118.364 12.0088 118.351 11.7201 118.337 11.602C117.812 7.4553 117.497 5.82813 119.007 1.74707Z" fill="#543A5E"/>
<path d="M120.347 4.08203C123.04 7.27077 126.206 8.97668 130.396 9.33098C133.653 9.60655 136.753 8.89794 139.906 8.20246C147.104 6.61465 153.763 5.85355 160.16 10.4333L160.173 10.7613C159.701 11.4568 159.215 12.0867 158.65 12.7166C157.336 11.8242 156.036 10.9582 154.552 10.3545C147.091 7.36262 139.288 11.6536 131.827 12.2704C128.806 12.5197 125.562 12.0604 123.198 10.0133C121.503 8.55676 120.505 6.28659 120.347 4.08203Z" fill="#87699A"/>
<path d="M162.341 10.8927C164.731 10.2104 167.017 9.21305 169.447 8.58318C178.878 6.12929 189.111 5.63064 198.634 7.91394C201.064 8.49132 203.428 9.37052 205.806 10.1447C205.806 11.1683 204.939 12.2574 204.676 13.2679C204.387 14.3833 204.742 15.9579 204.151 16.929C201.996 16.8896 196.69 16.286 195.153 17.782C194.811 18.11 194.575 18.5431 194.365 18.963L194.352 48.0028L183.068 48.0159C180.848 48.029 178.537 48.1865 176.33 47.9897C174.951 47.8715 173.598 47.5041 172.232 47.2942C174.084 40.6018 177.486 29.6971 173.821 23.1884C172.849 21.4562 171.365 20.144 169.421 19.6322C168.147 19.3042 166.925 19.3829 165.638 19.4879C165.533 16.1941 164.429 13.4253 162.341 10.8927Z" fill="#29A8DF"/>
<path d="M179.325 13.0576C179.798 13.1626 179.877 13.1626 180.205 13.5169C180.507 14.2255 180.376 15.1703 180.349 15.9314C180.875 15.997 181.571 15.9708 182.057 16.1151C182.451 16.2332 182.661 16.3907 182.845 16.7319L182.622 16.9943C181.939 17.3224 181.111 17.2174 180.363 17.1912C180.349 18.1753 180.349 19.0808 180.113 20.0518C179.824 20.065 179.693 20.0256 179.43 19.8812C179.023 19.1858 179.194 18.0048 179.22 17.2174C178.327 17.2437 177.512 17.4011 176.777 16.7844L176.816 16.4826C177.538 15.9052 178.313 15.997 179.193 15.9839C179.193 14.9997 179.18 14.0287 179.325 13.0576Z" fill="#F5F9FD"/>
<path d="M248.745 51.0215C250.952 51.3233 253.474 52.8455 255.418 53.8953C263.759 58.3569 270.812 63.199 276.618 70.8231C285.471 82.4496 289.478 97.1991 287.507 111.726C287.415 112.382 287.363 113.431 286.824 113.878C286.798 113.891 286.772 113.917 286.746 113.93C286.772 113.76 286.746 113.576 286.746 113.405C286.115 112.828 283.225 112.985 282.319 112.854C279.495 112.474 276.553 111.634 273.847 110.768C269.854 109.469 265.624 107.579 262.104 105.269C260.501 104.22 258.964 102.75 257.27 101.91C257.23 101.897 257.204 101.871 257.165 101.858C256.613 102.697 252.41 105.322 251.333 105.663C251.503 105.361 251.53 105.073 251.543 104.744C251.674 101.936 251.543 99.0494 251.543 96.2281L251.53 79.0246V64.5113C251.53 61.9918 251.648 59.4198 251.49 56.9003C251.359 54.7745 250.361 52.4387 248.745 51.0215Z" fill="#29A8DF"/>
<path d="M260.803 63.7235C261.171 63.6447 261.302 63.5529 261.644 63.7497C262.012 64.3796 261.933 65.2063 261.788 65.9018C262.314 66.1511 262.76 66.6497 263.325 66.8072C263.772 66.9253 264.218 66.8466 264.691 67.0041L264.836 67.3321C264.442 67.7258 263.864 67.7389 263.325 67.9095C261.434 68.5131 262.301 69.6023 261.605 70.9276L261.565 71.177L261.329 71.2819C260.711 70.5602 260.974 69.0118 260.291 68.1719C259.844 67.6208 258.82 67.962 258.216 67.4108C258.465 66.886 260.186 66.6629 260.711 65.9411C261.132 65.39 260.908 64.3665 260.803 63.7235Z" fill="#F5F9FD"/>
<path d="M267.082 80.5462C267.87 80.4675 268.619 80.4675 269.407 80.52C269.827 81.2417 269.656 82.0815 270.261 82.7377C270.405 82.8951 270.576 82.9739 270.799 82.9476C271.377 82.882 271.929 82.0947 272.27 81.6616C272.573 81.7929 272.809 81.9897 273.059 82.2128C273.505 82.6064 273.86 83.0788 273.899 83.6825C273.584 84.2992 273.006 84.6142 272.428 84.9816C272.809 85.349 272.98 85.9133 273.361 86.2545C273.637 86.4907 274.569 86.3726 274.924 86.3594C275.003 86.4775 275.081 86.5825 275.121 86.7269C275.357 87.3961 275.292 88.3409 274.95 88.9577C274.359 88.9314 273.492 88.8264 272.953 89.0889C272.704 89.207 272.756 89.2464 272.664 89.4826C272.835 89.9156 272.967 90.3355 273.308 90.6636C273.466 90.8079 273.584 90.9129 273.689 91.0966C273.715 91.1491 273.742 91.2016 273.768 91.2541C273.768 91.3328 273.755 91.4116 273.728 91.4903C273.505 92.1464 272.546 92.9337 271.955 93.288C271.771 92.6188 271.062 92.2251 270.523 91.8708C270.418 92.0414 270.484 92.0021 270.313 92.0939C269.985 92.2907 269.775 92.422 269.525 92.7238C269.551 93.2356 269.578 93.6817 269.394 94.1804C269.381 94.2197 269.368 94.246 269.354 94.2853L269.276 94.4166C268.501 94.6265 267.568 94.5215 266.767 94.4953C266.793 94.4297 266.832 94.3641 266.846 94.2985C266.964 93.9704 267.043 93.1568 266.872 92.855C266.859 92.8156 266.832 92.7894 266.806 92.7631C266.491 92.2645 265.9 92.0939 265.374 91.8971C265.112 92.5926 264.573 93.065 263.956 93.4586C263.785 92.6975 263.01 92.0414 262.393 91.6084C262.918 91.1885 263.483 90.6636 263.614 89.9812C263.562 89.8237 263.549 89.6269 263.417 89.5088C262.708 88.8396 261.894 88.9577 260.987 88.9708C261.237 88.0522 261.224 87.3567 261 86.4382C261.539 86.4775 262.366 86.6219 262.866 86.3857C263.325 86.1626 263.47 85.9264 263.601 85.4802C263.378 84.6273 262.774 84.1811 262.104 83.6693C262.852 83.2101 263.667 82.449 264.087 81.6747C264.757 82.0159 265.151 82.6983 265.939 82.8426C266.189 82.882 266.386 82.882 266.583 82.7114C267.213 82.2259 267.082 81.2155 267.082 80.5462Z" fill="#F5F9FD"/>
<path d="M267.226 85.5071C267.818 85.4021 268.382 85.3234 268.947 85.5465C269.591 85.7958 270.129 86.3469 270.353 86.9899C270.537 87.5017 270.51 88.0528 270.274 88.5515C269.946 89.2207 269.394 89.5225 268.711 89.7325C268.514 89.7981 268.343 89.8375 268.133 89.8244C267.542 89.8112 266.885 89.6406 266.491 89.1945C266.057 88.6958 265.965 88.0135 266.018 87.3836C266.097 86.465 266.57 86.0582 267.226 85.5071Z" fill="#A2C4F2"/>
<path d="M123.408 34.5921C131.46 38.542 141.114 38.7388 149.56 35.865C153.711 34.4478 157.507 32.2432 160.607 29.1201C165.441 32.7681 167.91 36.8492 169.184 42.7149C169.513 45.4706 169.71 48.2132 169.775 50.9951C169.631 51.7956 169.762 52.7141 169.657 53.554C168.528 62.4116 165.309 70.7836 158.059 76.3606C153.041 80.2186 146.526 81.977 140.247 81.1372C134.192 80.3236 128.583 76.5837 124.931 71.7809C118.587 63.4089 118.469 53.5408 119.848 43.5941C120.137 42.9905 120.255 42.0719 120.439 41.4158C121.135 38.9488 121.897 36.7048 123.408 34.5921Z" fill="url(#paint0_linear_918_18978)"/>
<path d="M144.175 52.9108C144.516 52.8977 144.858 52.9108 145.199 52.9764C145.659 53.0814 145.909 53.3045 146.132 53.6982C145.712 54.6955 144.648 53.9081 143.82 54.5905C143.61 55.1285 143.715 55.6665 143.768 56.2308C143.754 56.2833 143.741 56.3358 143.728 56.3751C143.584 56.7294 143.439 56.7819 143.085 56.9C142.756 56.7688 142.69 56.7426 142.533 56.4145C142.257 55.8502 142.257 55.0235 142.48 54.4593C142.809 53.5801 143.373 53.2914 144.175 52.9108Z" fill="#0F1771"/>
<path d="M139.801 58.252C140.576 58.6719 141.088 59.5642 141.902 59.9841C142.927 60.509 144.398 60.0366 145.16 60.9027C145.147 61.3488 145.029 61.3882 144.753 61.7163C143.282 61.6769 141.837 61.3357 140.536 60.6271C139.932 60.2859 139.459 59.9185 139.262 59.223C139.341 58.7244 139.459 58.6325 139.801 58.252Z" fill="#0F1771"/>
<path d="M137.305 65.6523C138.461 65.6917 139.446 67.3583 140.339 68.1062C142.598 70.009 146.618 70.1927 149.166 68.723C150.217 68.1194 151.951 65.9017 153.041 65.8098C153.369 66.1379 153.317 66.151 153.317 66.5972C152.713 67.4239 152.069 68.1718 151.255 68.7886C149.1 70.4551 146.342 71.1244 143.662 70.7569C141.718 70.4945 139.288 69.5497 138.08 67.9225C137.581 67.227 137.16 66.5447 137.305 65.6523Z" fill="#0F1771"/>
<path d="M155.616 40.9304C156.482 40.8123 157.402 40.7991 158.269 40.9172C159.661 41.1141 161.316 41.6783 162.157 42.8987C162.512 43.4105 162.617 43.896 162.498 44.5128C162.328 44.8277 162.157 45.0245 161.815 45.1558C161.211 45.392 160.633 44.9983 160.095 44.7359C158.558 44.0273 156.863 43.5942 155.235 44.2635C154.735 44.4603 154.302 44.749 153.763 44.7752C153.448 44.4734 153.094 44.1716 152.936 43.7386C152.791 43.3449 152.831 42.9512 153.028 42.5707C153.553 41.5471 154.565 41.2716 155.616 40.9304Z" fill="#0F1771"/>
<path d="M129.227 40.9304C130.619 40.8123 132.537 40.7467 133.706 41.6259C134.35 42.1114 134.862 42.8069 134.941 43.6205C134.98 44.0011 134.901 44.2373 134.665 44.5391C133.601 45.1689 131.854 43.9617 130.553 43.9223L130.343 43.9092C129.056 44.1585 128.163 44.6441 126.967 45.1165C126.587 45.2739 126.298 45.2477 125.93 45.0771C125.588 44.9196 125.299 44.5522 125.181 44.1848C125.037 43.7255 125.102 43.2268 125.352 42.82C126.114 41.5997 127.939 41.206 129.227 40.9304Z" fill="#0F1771"/>
<path d="M158.624 57.7793C159.753 57.7793 161.067 57.963 162.039 58.5666C162.656 58.9472 163.182 59.5246 163.326 60.2594C163.444 60.8499 163.247 61.4404 162.879 61.9128C161.999 63.0151 160.594 63.2776 159.28 63.4744C158.032 63.4875 156.588 63.2644 155.537 62.5427C154.933 62.1228 154.46 61.5323 154.355 60.7843C154.289 60.2463 154.46 59.7214 154.788 59.3015C155.694 58.1467 157.271 57.9105 158.624 57.7793Z" fill="#ED8C6C"/>
<path d="M127.611 57.7528C128.964 57.661 130.278 57.7135 131.512 58.3565C132.287 58.7633 133.023 59.4194 133.246 60.2854C133.377 60.8103 133.325 61.3221 133.023 61.7814C132.405 62.7393 131.079 63.1068 130.028 63.343C128.544 63.5004 127.112 63.4873 125.759 62.7918C125.023 62.4113 124.327 61.7945 124.104 60.9678C123.959 60.4298 124.051 59.8787 124.367 59.4062C125.037 58.3958 126.495 57.9759 127.611 57.7528Z" fill="#ED8C6C"/>
<path d="M129.883 47.6618C130.763 47.5437 131.591 47.5175 132.445 47.8193C133.627 48.2523 134.56 49.079 135.072 50.2338C135.597 51.3886 135.61 52.7008 135.138 53.8818C134.533 55.3778 133.377 56.1913 131.933 56.795C131.079 57.0181 130.186 56.9393 129.358 56.6506C128.241 56.257 127.375 55.404 126.889 54.328C126.35 53.1338 126.311 51.7035 126.797 50.4831C127.427 48.9872 128.452 48.2523 129.883 47.6618Z" fill="#0F1771"/>
<path d="M131.972 49.0264C132.182 49.0395 132.392 49.0657 132.602 49.1182C133.115 49.2626 133.483 49.6694 133.719 50.1286C134.166 51.0078 134.179 51.9658 133.877 52.8843C133.627 53.6323 133.351 53.9473 132.642 54.3016C131.959 54.0916 131.381 53.8423 130.974 53.2255C130.54 52.5825 130.396 51.8214 130.553 51.0603C130.724 50.1418 131.21 49.5381 131.972 49.0264Z" fill="#F5F9FD"/>
<path d="M156.601 47.5041C157.599 47.4385 158.545 47.5697 159.425 48.0421C160.489 48.6195 161.251 49.6036 161.566 50.7715C161.907 52.0313 161.737 53.4354 161.067 54.577C160.252 55.968 159.162 56.5454 157.652 56.9391C156.535 56.9653 155.537 56.7947 154.591 56.178C153.488 55.4693 152.726 54.3539 152.463 53.068C152.213 51.8738 152.463 50.5878 153.146 49.5643C153.987 48.3177 155.156 47.7928 156.601 47.5041Z" fill="#0F1771"/>
<path d="M157.481 48.8819C157.507 48.8819 157.546 48.8688 157.573 48.8688C158.177 48.8032 158.742 48.895 159.201 49.3149C159.727 49.7873 159.937 50.5091 159.95 51.1914C159.976 52.3068 159.635 53.2385 158.86 54.0259C158.755 54.039 158.65 54.039 158.545 54.0521C157.927 54.0784 157.428 53.9865 156.968 53.5403C156.482 53.0548 156.299 52.3331 156.299 51.6638C156.325 50.5484 156.693 49.6693 157.481 48.8819Z" fill="#F5F9FD"/>
<path d="M257.086 108.419C257.23 108.419 257.506 108.392 257.625 108.432C258.478 108.721 261 110.912 262.038 111.581C263.838 112.723 265.768 113.72 267.726 114.56C271.955 116.371 276.566 117.106 281.111 117.499C282.161 119.927 280.966 129.874 280.506 132.734C278.641 144.518 273.847 156.709 263.864 163.939C262.196 165.147 258.386 167.902 256.364 167.574C255.772 167.023 254.446 166.525 253.71 166.105C251.924 165.107 250.151 164.031 248.601 162.68C238.145 153.638 233.718 140.004 232.667 126.593C232.549 125.137 232.602 118.746 232.155 117.906C235.478 117.709 238.802 117.289 242.02 116.45C246.67 115.229 250.768 113.182 254.695 110.426C255.457 109.902 256.613 109.206 257.086 108.419Z" fill="#F5F9FD"/>
<path d="M266.806 126.028C267.804 125.923 268.803 126.068 269.696 126.566C270.76 127.144 271.64 128.22 271.968 129.401C272.244 130.398 272.205 131.71 271.666 132.616C270.812 134.033 257.349 147.339 255.392 148.94C254.827 149.399 254.157 149.74 253.447 149.937C250.282 150.777 247.366 146.617 244.844 145.174L244.713 145.108C243.951 143.639 240.759 142.602 239.826 140.883C239.655 140.555 239.629 140.279 239.747 139.925C240.273 138.337 243.714 134.44 245.225 133.639C245.553 133.456 245.921 133.324 246.289 133.456C247.024 133.718 252.449 137.891 252.764 138.521C253.736 138.022 254.735 136.802 255.523 136.028L261.368 130.306C262.603 129.099 263.838 127.747 265.256 126.75C265.742 126.396 266.254 126.212 266.806 126.028Z" fill="#7CC869"/>
<path d="M96.7693 157.549C96.1388 155.239 96.4934 147.09 96.4934 144.111L96.454 115.006C96.4409 112.04 96.349 109.521 98.6214 107.277C99.4883 106.424 100.579 105.742 101.787 105.479C104.572 104.889 108.539 105.204 111.494 105.19L133.299 105.23H137.003L170.669 105.256L178.773 105.243C180.56 105.243 182.464 105.099 184.224 105.4C185.682 105.65 187.009 106.529 188.047 107.566C188.217 107.736 188.388 107.92 188.546 108.104C186.142 109.967 183.2 111.463 180.573 113.025L162.577 123.785C159.885 125.386 156.299 127.197 153.869 129.008C152.003 126.042 149.403 123.732 145.895 122.958C142.822 122.276 139.564 122.879 136.937 124.612C134.297 126.344 132.353 129.099 131.736 132.209C131.46 133.614 131.486 135.018 131.644 136.422L108.696 150.384C104.953 152.654 100.592 155.62 96.7693 157.549Z" fill="#AC48A3"/>
<path d="M110.18 109.114L110.535 109.167C110.824 109.521 110.811 109.56 110.824 110.02C108.407 114.993 103.481 122.302 99.6853 126.265L99.5671 126.357L99.3175 126.108C99.3306 126.029 99.3438 125.95 99.3569 125.872C99.8035 123.706 105.609 113.55 107.159 111.634C108.039 110.545 109.025 109.836 110.18 109.114Z" fill="#CF92C9"/>
<path d="M133.312 105.229H137.016C135.453 107.355 126.797 121.213 125.549 121.856C125.312 121.974 125.286 121.908 125.05 121.816L124.918 121.475C125.142 119.966 132.156 107.25 133.312 105.229Z" fill="#CF92C9"/>
<path d="M188.559 108.116C189.465 109.455 190.043 110.675 190.24 112.302C190.529 114.664 190.332 117.223 190.332 119.625L190.319 133.889L190.358 150.554C190.358 152.772 190.647 155.475 190.214 157.627C189.899 159.228 188.835 160.658 187.469 161.524C186.536 162.115 185.643 162.325 184.553 162.377C178.143 162.679 171.614 162.417 165.204 162.403L129.857 162.377L110.903 162.39C108.355 162.39 103.889 162.732 101.59 162.194C99.8823 161.8 98.398 160.658 97.5048 159.149C97.2027 158.637 96.9532 158.112 96.7955 157.548C100.618 155.619 104.979 152.654 108.722 150.383L131.657 136.421C131.499 135.004 131.473 133.613 131.749 132.209C132.366 129.099 134.297 126.343 136.95 124.611C139.577 122.892 142.835 122.275 145.909 122.958C149.403 123.745 152.016 126.041 153.882 129.007C156.312 127.196 159.885 125.398 162.59 123.784L180.586 113.024C183.213 111.476 186.142 109.98 188.559 108.116Z" fill="#90278F"/>
<path d="M131.657 136.422C131.499 135.004 131.473 133.613 131.749 132.209C132.366 129.099 134.297 126.344 136.95 124.611C139.577 122.892 142.835 122.276 145.909 122.958C149.403 123.745 152.016 126.042 153.882 129.007C155.379 132.17 155.773 135.634 154.565 138.967C153.501 141.907 151.215 144.334 148.378 145.633C145.528 146.946 142.139 146.998 139.21 145.896C136.307 144.82 133.89 142.615 132.629 139.781C132.143 138.731 131.814 137.576 131.657 136.422Z" fill="#0F1771"/>
<path d="M142.493 123.929C144.753 123.706 147.235 124.401 149.14 125.622C151.544 127.17 153.304 129.69 153.895 132.485C154.499 135.372 153.96 138.364 152.305 140.804C150.453 143.56 147.826 144.872 144.648 145.502C141.837 145.594 139.393 145.122 137.082 143.39C134.744 141.631 133.128 138.954 132.747 136.054C132.379 133.193 133.18 130.28 134.967 128.023C136.885 125.596 139.446 124.296 142.493 123.929Z" fill="#F5F9FD"/>
<path d="M50.349 42.3336C50.3359 35.8118 52.4244 28.8176 55.5374 23.1225C61.1988 12.7165 70.9715 5.13172 82.3204 1.79864C93.5511 -1.49508 106.765 -0.248452 117.05 5.38105C116.774 7.3494 116.787 9.2259 117.155 11.1811C114.279 9.97388 112.584 8.60915 110.693 6.15527C108.591 11.1418 108.591 16.3776 110.627 21.3903C111.638 23.8967 113.136 26.0881 114.883 28.1352C114.502 28.7126 114.174 29.2375 114.029 29.9199C113.333 33.2923 114.804 41.5201 115.54 45.2206C115.71 46.0604 115.907 46.9002 116.118 47.7401C114.646 47.7663 113.346 48.3437 111.888 48.3699C108.184 48.4487 104.453 48.3437 100.736 48.3437L76.4489 48.3306L62.1314 48.3043C59.6225 48.3043 56.9429 48.1337 54.4735 48.5012C52.4112 48.8161 50.4541 49.8003 49.0092 51.2962C47.9715 52.3591 47.0652 53.8157 46.7499 55.2854C46.0669 58.5266 46.4741 65.4028 46.4741 68.9064L46.4084 94.1933C45.1211 94.4163 43.8733 94.6788 42.6123 95.0331C44.8584 86.7397 43.8339 76.1894 39.5255 68.7096C38.2382 66.4657 36.4649 64.1824 33.851 63.4869C32.2222 63.0539 30.5541 63.3688 29.1223 64.248C24.4855 67.0562 21.622 74.7197 20.4398 79.7718C19.9276 81.9763 19.7437 84.1153 19.5072 86.3461C19.481 86.0443 19.4941 85.5325 19.389 85.2569C18.995 84.2334 17.1954 82.8424 16.4861 81.832C13.6883 77.8297 12.204 72.9481 12.2171 68.0666C12.2303 61.0855 15.1594 54.38 20.1246 49.4722C24.0652 45.588 29.2405 42.9504 34.7836 42.3993C36.8853 42.1893 39.0263 42.2812 41.1411 42.2943L50.349 42.3336Z" fill="#29A8DF"/>
<path d="M93.932 31.3242C94.2342 31.3636 94.4312 31.4292 94.707 31.5342C95.1274 32.2428 94.9435 33.2138 94.9172 34.0143C95.6528 33.9881 96.454 33.87 97.1108 34.2374C97.3735 34.3817 97.3472 34.3949 97.426 34.6835C97.3866 34.7229 97.3604 34.7754 97.321 34.8148C96.8218 35.3659 95.6134 35.1822 94.9172 35.156C94.9303 36.2057 94.9566 37.2424 94.8384 38.2922C94.4706 38.2528 94.2998 38.2135 94.0109 37.9773C93.6299 37.1506 93.8007 36.1139 93.827 35.2216C93.1045 35.2478 92.2507 35.4053 91.6071 34.9985C91.3575 34.841 91.3707 34.8279 91.3181 34.5392C91.3575 34.4867 91.4101 34.4342 91.4495 34.3949C92.0143 33.8175 93.0782 34.0012 93.8138 34.0274C93.827 33.122 93.8664 32.2297 93.932 31.3242Z" fill="#F5F9FD"/>
<path d="M77.9332 21.666C78.0908 21.666 78.2616 21.666 78.4192 21.6791C80.7442 21.9022 79.0366 24.2905 80.1137 25.4584C80.6391 26.0226 81.7293 25.8258 82.4386 25.8389C82.8984 25.8521 83.3844 25.8521 83.7128 26.2326C83.9492 26.495 83.9886 26.8625 83.9623 27.2037C83.8047 29.3032 81.1251 27.7548 80.1268 28.7652C79.5095 29.382 79.7459 30.4711 79.6802 31.2716C79.6277 31.8096 79.2993 32.0721 78.9052 32.4132C78.498 32.4132 78.0777 32.4132 77.723 32.2033C76.8036 31.6784 77.4341 30.1824 77.1976 29.3426C76.751 27.7942 74.518 28.7258 73.3884 28.1485C73.0994 27.781 72.9812 27.6104 72.9681 27.1249C72.9549 26.6656 73.0863 26.3638 73.3621 26.0226C74.0583 25.629 74.7939 25.7602 75.5557 25.7864C78.1697 25.8783 76.2913 23.2013 77.9332 21.666Z" fill="#F5F9FD"/>
<path d="M53.2388 107.487C53.2125 105.046 53.6986 102.697 53.7774 100.283C53.843 98.6423 53.5278 96.9626 53.4358 95.3223C53.3045 92.9865 53.3833 90.6114 53.3833 88.2625V75.9406L53.3702 65.7314C53.3702 63.9205 53.2651 62.0309 53.4227 60.2331C53.4884 59.5245 53.6066 58.4091 54.132 57.8842C54.5129 57.5036 55.104 57.1887 55.6426 57.1231C57.5341 56.8738 59.5832 57.0181 61.4878 57.0181L72.18 57.0312L107.606 57.0575C107.658 57.4249 107.724 57.7923 107.816 58.1598C108.447 60.6793 110.062 62.8707 112.295 64.1961C114.778 65.6789 117.208 65.7839 119.966 65.1146C120.058 65.3508 120.137 65.587 120.229 65.8232C122.777 72.3975 127.559 77.6727 134.021 80.5465L134.034 82.7642C133.693 82.9086 133.338 83.0529 133.01 83.2235C130.567 84.4832 129.45 86.5566 128.636 89.0892C120.597 91.6481 114.581 97.1857 109.839 103.996C106.109 103.97 101.656 103.34 98.4638 105.663C96.4146 107.159 95.3901 109.35 94.996 111.804C95.0617 113.641 95.0486 115.478 95.0486 117.315V135.07L95.0748 140.49L95.0486 146.696C95.0486 148.56 94.9829 150.436 95.0486 152.287C95.0486 153.244 95.0486 154.189 95.0617 155.147C95.1143 158.31 96.0337 160.121 98.2667 162.286C92.566 162.43 86.8521 162.155 81.1645 162.378C81.112 163.112 81.112 163.847 81.0857 164.569L54.7494 164.517C54.3028 164.097 53.9613 163.624 53.5935 163.126L53.6197 124.887C56.5095 121.948 58.9264 117.525 59.5044 113.418C59.6883 112.093 59.6751 110.61 58.8082 109.508C57.5472 107.92 55.104 107.736 53.2388 107.487Z" fill="#F5F9FD"/>
<path d="M95.0748 135.057V140.489L75.1879 140.437C72.2325 140.437 69.1588 140.699 66.2165 140.489C65.6385 140.45 65.1 140.371 64.614 140.017C64.2724 139.085 64.4432 137.615 64.4432 136.592C64.4432 136.067 64.4169 135.713 64.7979 135.332C65.3101 135.148 65.8093 135.07 66.361 135.043C69.2901 134.886 72.3244 135.083 75.2667 135.083L95.0748 135.057Z" fill="#43BD9B"/>
<path d="M95.0749 117.302C91.6334 117.249 66.1377 117.63 65.1132 117.157C64.8374 117.039 64.6535 116.816 64.5615 116.541C64.2463 115.609 64.22 113.037 64.6929 112.197C64.7848 112.132 64.9556 111.935 65.0607 111.908C66.0064 111.58 91.3444 111.817 95.0355 111.803C95.088 113.627 95.088 115.465 95.0749 117.302Z" fill="#43BD9B"/>
<path d="M95.0748 123.391V128.941H74.6888C72.3113 128.941 66.9652 129.283 65.0343 128.797C64.7059 128.535 64.5483 128.417 64.4826 127.97C64.325 126.934 64.1936 124.559 64.7847 123.679C65.9538 123.023 91.5414 123.391 95.0748 123.391Z" fill="#43BD9B"/>
<path d="M95.0486 152.286C91.7516 152.247 66.1246 152.628 64.9818 152.09C64.6929 151.945 64.5615 151.565 64.4958 151.263C64.3251 150.371 64.2857 147.772 64.7585 147.051C65.1263 146.762 65.4547 146.723 65.9013 146.683C69.0538 146.473 72.3639 146.683 75.5295 146.683H95.0355C95.0486 148.56 94.9829 150.436 95.0486 152.286Z" fill="#43BD9B"/>
<path d="M81.6636 67.0693C85.7093 66.7412 90.044 68.0535 93.2753 70.4811C97.0057 73.2893 99.5277 77.5016 100.132 82.1469C100.723 86.6872 99.4357 91.3325 96.6379 94.9412C93.4986 98.9829 89.0851 101.135 84.0805 101.739C79.6014 101.87 75.3981 100.676 71.8778 97.815C68.2787 94.8887 65.9275 90.5583 65.5072 85.9261C65.0737 81.2414 66.4529 76.688 69.5003 73.0793C72.6922 69.3263 76.8167 67.4892 81.6636 67.0693Z" fill="#124A98"/>
<path d="M81.6899 69.6291C85.4335 69.3798 89.0194 70.5345 91.988 72.831C95.0354 75.1799 97.137 78.8016 97.5968 82.6202C98.0828 86.5963 96.8875 90.3756 94.4312 93.5118C91.9223 96.7137 88.3495 98.5377 84.3564 99.0494C84.317 99.0494 84.2907 99.0626 84.2513 99.0626C80.6522 99.5481 76.7116 98.2227 73.8744 96.0444C70.7482 93.6562 68.6596 90.0213 68.1868 86.1108C67.7139 82.2003 68.791 78.1849 71.2604 75.088C73.8481 71.8074 77.5917 70.0884 81.6899 69.6291Z" fill="#F5F9FD"/>
<path d="M81.7294 72.9881C84.4221 72.6469 87.5352 73.5786 89.7157 75.1664C92.1457 76.9379 93.8533 79.5755 94.2999 82.5543C94.7728 85.6643 93.9847 88.7875 92.1063 91.3069C90.1492 93.9445 87.2462 95.3355 84.0544 95.8079C81.0726 95.9391 78.2354 95.3224 75.8054 93.4984C73.4016 91.7137 71.7334 88.9449 71.3262 85.9793C70.8928 82.8955 71.8254 79.6674 73.73 77.2266C75.7791 74.589 78.4587 73.408 81.7294 72.9881Z" fill="#FDD26C"/>
<path d="M88.5597 80.0869C88.98 80.205 89.2427 80.2969 89.558 80.6118C89.6893 80.9661 89.7813 81.1367 89.6893 81.5173C89.2821 83.1969 83.0297 88.9445 81.4929 89.9287C80.4683 89.8237 78.0252 86.9105 77.2371 86.1232C77.132 86.0313 77.04 85.9395 76.9349 85.8476C76.5409 85.4802 76.2125 85.1915 76.0417 84.6535C75.8841 84.1417 75.8972 83.8793 76.16 83.4331C76.357 83.3281 76.5146 83.2625 76.7379 83.2494C78.2747 83.1182 80.4289 85.9264 81.6374 86.8974C83.9229 84.7191 85.9983 81.8978 88.5597 80.0869Z" fill="#124A98"/>
<path d="M180.546 56.8347L194.43 56.7822C194.444 58.58 194.247 60.4696 194.43 62.2543C194.588 63.7371 195.113 64.5113 196.269 65.443C198.818 66.0466 207.29 65.7054 210.429 65.7186H224.576C227.137 65.7186 229.738 65.7973 232.3 65.6923C233.022 65.6661 234.23 65.6267 234.874 65.2593C235.413 64.9443 235.728 64.0651 235.872 63.4746C236.175 62.2805 236.306 58.0551 235.728 57.0709L243.268 57.0578C243.346 57.189 243.412 57.294 243.451 57.4383C243.806 58.8949 243.504 68.5661 243.517 70.7838C243.517 83.2894 243.727 95.8344 243.517 108.34C243.504 108.865 243.543 109.364 243.268 109.836C242.637 110.256 241.678 110.518 240.956 110.768C236.017 112.487 230.986 113.077 225.798 113.327C225.85 113.431 225.916 113.563 225.955 113.681C226.192 114.508 226.192 121.371 225.837 122.118C224.169 122.105 215.578 121.922 214.711 122.263C214.567 122.657 214.567 122.893 214.633 123.313C214.711 123.391 214.764 123.483 214.856 123.536C215 123.614 224.76 123.457 225.968 123.47C226.021 123.549 226.087 123.654 226.126 123.746C226.454 124.533 226.651 126.961 226.336 127.774C224.432 127.748 216.025 127.446 214.869 128.05C214.619 128.404 214.593 128.391 214.659 128.85C214.922 129.086 215.119 129.152 215.473 129.191C216.458 129.31 217.614 129.165 218.626 129.165L226.546 129.178C226.586 129.231 226.625 129.27 226.651 129.323C227.059 129.9 227.44 133.351 227.637 134.362C227.873 135.53 229.384 140.634 229.213 141.526C227.584 141.5 215.71 141.277 215.132 141.448C215.014 141.487 214.908 141.579 214.803 141.645C214.659 142.051 214.646 142.117 214.738 142.524C215.434 143.127 227.584 142.786 229.449 142.786C229.948 143.351 232.129 149.544 232.641 150.686C233.088 151.683 234.244 153.363 234.322 154.4C235.281 155.239 236.122 157.116 236.871 158.205C237.527 159.163 240.168 162.207 240.325 162.982C240.168 163.349 239.944 163.703 239.655 163.992C239.248 164.399 238.894 164.569 238.329 164.635C235.334 164.963 230.868 164.661 227.702 164.648L206.134 164.622C206.384 163.848 206.292 163.257 205.99 162.509C204.374 162.26 202.404 162.47 200.762 162.47L188.625 162.496C189.741 161.315 190.831 160.173 191.278 158.559C191.79 156.722 191.475 151.408 191.462 149.256V129.205L191.475 117.985C191.475 115.951 191.633 113.76 191.383 111.752C191.199 110.23 190.411 108.865 189.649 107.566L189.689 99.2462C187.994 99.2462 177.591 98.9706 176.882 99.4824C176.842 99.8105 176.79 100.086 176.908 100.401C178.353 101.07 186.116 100.755 188.296 100.768L188.27 106.122C185.131 103.76 181.926 104.049 178.221 104.075C173.69 97.0285 166.741 92.7113 159.32 89.2338C159.018 88.3678 158.702 87.5017 158.295 86.6881C157.323 84.7591 155.931 83.6043 153.895 82.9482L153.803 80.3369C160.423 77.3581 164.942 71.768 167.95 65.3249C168.239 65.4167 168.541 65.4955 168.843 65.548C171.404 66.0466 173.992 65.548 176.159 64.0914C178.773 62.2936 179.955 59.8529 180.546 56.8347Z" fill="#F5F9FD"/>
<path d="M226.573 107.775C227.965 107.552 231.42 107.394 232.72 107.749C233.101 107.854 233.114 107.867 233.311 108.208C233.219 108.667 233.14 108.733 232.838 109.061C231.157 109.232 228.451 109.258 226.796 108.995C226.717 108.575 226.651 108.182 226.573 107.775Z" fill="#0F1771"/>
<path d="M214.554 147.34C216.406 147.012 220.412 147.13 222.369 147.3L222.553 147.576C222.527 147.996 222.448 148.179 222.199 148.521C221.069 148.757 216.051 148.704 214.803 148.508C214.711 148.114 214.633 147.72 214.554 147.34Z" fill="#0F1771"/>
<path d="M214.475 107.776C216.485 107.553 221.345 107.54 223.341 107.776L223.538 108.091C223.473 108.576 223.446 108.668 223.157 109.062C221.095 109.311 216.971 109.206 214.869 109.049C214.554 108.76 214.541 108.169 214.475 107.776Z" fill="#0F1771"/>
<path d="M223.657 87.2649C223.749 87.2517 223.84 87.2517 223.932 87.2386C225.128 87.173 232.746 87.0549 233.219 87.4879C233.285 87.921 233.153 88.1572 232.983 88.5509C231.958 88.9445 225.233 88.6558 223.788 88.6033L223.657 87.2649Z" fill="#0F1771"/>
<path d="M176.593 89.2859C177.223 89.2465 177.604 89.9945 178.274 90.0995C179.522 90.2963 187.876 90.375 188.822 90.0864C189.36 89.9289 189.964 89.404 190.372 89.0234L190.648 89.6927C190.477 90.0601 190.293 90.4407 190.07 90.7818C189.794 91.1886 189.413 91.4642 188.927 91.5561C187.298 91.871 178.563 91.976 177.486 91.1493C176.855 90.69 176.698 90.0076 176.593 89.2859Z" fill="#D63A54"/>
<path d="M214.436 102.172C216.8 101.792 219.571 102.094 221.988 102.094C225.404 102.081 229.83 101.779 233.127 102.159L233.298 102.422C233.272 102.881 233.245 103.091 232.969 103.458C231.249 103.76 229.068 103.524 227.295 103.524C223.131 103.524 218.967 103.563 214.803 103.472C214.501 103.235 214.514 102.553 214.436 102.172Z" fill="#0F1771"/>
<path d="M194.654 87.1992L210.745 87.2254C213.661 87.2254 216.669 87.068 219.585 87.2386C219.913 87.2517 219.887 87.2648 220.097 87.501C220.11 87.934 220.058 88.1702 219.821 88.5508C218.284 88.9445 212.518 88.6689 210.613 88.6689C205.609 88.6689 199.711 88.9576 194.798 88.6033C194.549 88.2359 194.641 87.6322 194.654 87.1992Z" fill="#0F1771"/>
<path d="M194.667 81.8197L216.445 81.8459C221.568 81.8591 226.717 81.9509 231.84 81.8066C232.418 81.7934 232.838 81.7672 233.285 82.1871C233.298 82.6201 233.18 82.817 232.943 83.1713C231.761 83.4075 195.468 83.25 194.811 83.0794C194.549 82.6858 194.654 82.2921 194.667 81.8197Z" fill="#0F1771"/>
<path d="M176.593 89.286C176.435 87.685 176.238 79.8116 177.013 78.8799C177.486 78.2894 178.931 78.1976 179.627 78.1582C181.742 78.0532 188.848 77.712 190.227 79.0636C191.055 79.8641 190.28 87.8819 190.634 89.7059L190.359 89.0366C189.938 89.4041 189.347 89.929 188.809 90.0996C187.863 90.3882 179.522 90.2964 178.261 90.1127C177.604 89.9946 177.223 89.2466 176.593 89.286Z" fill="#F9617A"/>
<path d="M187.587 81.0059C187.981 81.1371 188.231 81.3208 188.467 81.6489C188.467 81.7801 188.48 81.8982 188.454 82.0294C188.283 82.6462 183.699 87.3571 182.924 88.2363C182.031 87.3702 181.216 86.3992 180.376 85.4806C179.916 84.9951 179.482 84.4964 179.049 83.9846C179.246 83.591 179.22 83.5254 179.64 83.3416C180.822 83.5647 182.031 85.3494 182.806 86.2154C184.474 84.562 186.103 82.8299 187.587 81.0059Z" fill="#0F1771"/>
<path d="M208.236 118.758C208.262 118.745 208.301 118.732 208.328 118.719C210.088 117.945 211.467 114.441 213.45 114.638L213.674 114.874C213.542 115.661 209.865 119.493 209.05 120.084C208.998 120.123 208.945 120.162 208.892 120.189C209.155 120.661 209.155 121.147 209.168 121.671C209.221 123.587 209.523 128.653 208.262 129.899C207.553 130.595 206.095 130.7 205.149 130.713C203.126 130.752 196.48 131.185 195.271 129.82C194.417 128.863 194.825 121.238 194.838 119.533C195.284 118.837 195.718 118.43 196.388 117.958C200.052 117.918 203.73 117.958 207.395 117.958C207.802 118.194 208.012 118.338 208.236 118.758Z" fill="#43BD9B"/>
<path d="M208.236 118.758C208.262 118.745 208.301 118.732 208.328 118.719C210.088 117.945 211.467 114.441 213.45 114.638L213.674 114.874C213.542 115.661 209.864 119.493 209.05 120.084C208.998 120.123 208.945 120.162 208.892 120.189C208.485 121.028 202.469 127.367 201.55 127.918C200.946 126.212 197.478 124.676 197.255 123.167C197.228 122.944 197.307 122.918 197.438 122.747C197.714 122.695 197.833 122.656 198.095 122.761C199.107 123.141 201.077 125.044 201.484 126.028C201.602 125.962 201.721 125.884 201.839 125.805C202.666 125.241 208.131 119.309 208.236 118.758Z" fill="#0F1771"/>
<path d="M208.236 138.01C208.262 137.997 208.301 137.97 208.328 137.957C209.878 137.039 212.097 133.548 213.582 133.272C213.805 133.561 213.844 133.732 213.766 134.099C213.7 134.453 213.49 134.808 213.267 135.083C212.807 135.674 209.418 138.994 208.827 139.401C208.853 139.466 208.879 139.519 208.906 139.584C209.392 140.857 209.208 147.235 208.603 148.586C208.183 149.544 207.487 149.925 206.554 150.279C204.794 150.371 197.189 150.594 196.007 150.082C195.547 149.885 195.284 149.321 195.113 148.875C194.483 147.195 194.509 139.847 195.324 138.298C195.547 137.878 195.757 137.629 196.23 137.498C197.176 137.235 205.793 137.262 206.817 137.432C207.342 137.498 207.776 137.747 208.236 138.01Z" fill="#43BD9B"/>
<path d="M208.236 138.01C208.262 137.997 208.301 137.97 208.328 137.957C209.878 137.039 212.098 133.548 213.582 133.272C213.805 133.561 213.845 133.732 213.766 134.099C213.7 134.453 213.49 134.808 213.267 135.083C212.807 135.674 209.418 138.994 208.827 139.401L208.774 139.676C207.566 140.988 202.404 146.972 201.458 147.589C201.195 145.857 197.727 144.256 197.176 142.471C197.084 142.169 197.228 142.025 197.215 141.697L197.123 141.854L197.438 141.631C197.596 141.658 197.688 141.697 197.833 141.776C198.87 142.327 201.077 144.44 201.418 145.503C202.325 144.978 208.012 138.797 208.236 138.01Z" fill="#0F1771"/>
<path d="M208.538 97.7757C208.564 97.7626 208.603 97.7495 208.63 97.7363C210.062 97.0409 210.574 95.0463 212.242 94.7051L212.702 94.915C212.505 96.0173 209.983 98.7468 209.024 99.4029C208.971 99.4423 208.906 99.4816 208.853 99.521C209.247 100.4 209.181 107.132 209.063 108.313C208.998 108.93 208.827 109.822 208.288 110.203C207.737 110.596 206.935 110.78 206.265 110.859C204.597 111.069 198.095 111.121 196.532 110.741C195.705 110.544 195.245 109.77 194.825 109.113C194.549 105.898 194.614 102.395 194.811 99.1667C195.166 98.6549 195.508 98.1431 196.086 97.8544C197.018 97.4083 207.434 97.4345 208.538 97.7757Z" fill="#43BD9B"/>
<path d="M208.538 97.7757C208.564 97.7626 208.604 97.7495 208.63 97.7363C210.062 97.0409 210.574 95.0463 212.242 94.7051L212.702 94.915C212.505 96.0173 209.983 98.7468 209.024 99.4029C208.971 99.4423 208.906 99.4816 208.853 99.521C208.604 100.151 202.18 106.633 201.458 106.988C201.116 105.859 197.373 102.893 196.427 101.463L196.65 101.03C196.952 101.083 197.215 101.201 197.491 101.345C198.581 101.909 201.103 103.996 201.497 105.203C201.576 105.164 201.655 105.124 201.734 105.072C202.496 104.534 208.446 98.34 208.538 97.7757Z" fill="#0F1771"/>
</g>
<defs>
<linearGradient id="paint0_linear_918_18978" x1="147.302" y1="27.8827" x2="140.772" y2="80.8632" gradientUnits="userSpaceOnUse">
<stop stop-color="#F5BB8C"/>
<stop offset="1" stop-color="#FBD49E"/>
</linearGradient>
<clipPath id="clip0_918_18978">
<rect width="288" height="174" fill="white"/>
</clipPath>
</defs>
</svg>
