<svg width="70" height="67" viewBox="0 0 70 67" fill="none" xmlns="http://www.w3.org/2000/svg">
<path d="M44.8575 47.9707L45.4485 50.9126C45.4485 50.9126 41.3219 51.9438 43.0915 52.9715C43.0915 52.9715 44.5673 53.8545 46.7757 51.7955L46.9244 48.4122" fill="black"/>
<path d="M55.6167 47.9707L55.0256 50.9126C55.0256 50.9126 59.1523 51.9438 57.3827 52.9715C57.3827 52.9715 55.9104 53.8545 53.6984 51.7955L53.5498 48.4122" fill="black"/>
<path d="M54.5266 38.7285C54.5266 38.7285 59.0037 38.8027 63.1834 41.4832" stroke="black" stroke-width="1.72" stroke-miterlimit="10"/>
<path d="M63.969 42.0861C63.339 42.8984 62.3905 43.2198 61.8526 42.803C61.3146 42.3863 61.3925 41.3904 62.0225 40.5781C62.6524 39.7658 63.6009 39.4444 64.1389 39.8612C64.6768 40.2779 64.599 41.2738 63.969 42.0861Z" fill="#E3E3E3"/>
<path d="M64.376 40.5896C64.6839 39.8798 65.3599 40.2117 65.774 39.8268C66.3048 39.3324 65.6607 38.4494 66.1102 38.0751C67.0622 37.2734 67.9116 39.795 66.6198 40.293C67.0941 40.8863 68.1558 40.8474 68.7964 41.469C69.1964 41.854 70.0918 43.0335 69.0123 43.1395C69.3698 43.8953 69.1114 44.9124 68.0567 44.4603C68.6301 45.3609 67.3985 45.7776 66.8322 45.1631C66.9702 46.0178 65.9969 46.0849 65.4944 45.7141C64.9847 45.3362 64.6627 44.8347 64.0575 44.4886C63.3567 44.086 62.932 43.6092 62.8789 42.7545C62.8435 42.1577 63.0099 41.0346 63.7743 41.0417" fill="#E3E3E3"/>
<path d="M62.8081 42.9736C62.9249 42.0589 63.7106 40.7415 64.5246 40.3672" stroke="#ADADAD" stroke-width="0.88" stroke-miterlimit="10"/>
<path d="M66.9881 45.3572C66.7368 44.5131 66.2094 43.9268 65.5688 43.3477" stroke="#ADADAD" stroke-width="0.88" stroke-miterlimit="10"/>
<path d="M68.3329 44.5383C67.9436 43.7013 67.3136 42.6842 66.3191 42.377" stroke="#ADADAD" stroke-width="0.88" stroke-miterlimit="10"/>
<path d="M69.0796 43.2695C68.7151 42.549 68.0214 41.6908 67.1401 41.5566" stroke="#ADADAD" stroke-width="0.88" stroke-miterlimit="10"/>
<path d="M43.2508 38.1387C43.2508 38.1387 38.7738 38.2128 34.594 40.8934" stroke="black" stroke-width="1.72" stroke-miterlimit="10"/>
<path d="M33.8047 41.5006C34.4347 42.3128 35.3832 42.6342 35.9211 42.221C36.4591 41.8043 36.3812 40.8084 35.7512 39.9961C35.1213 39.1838 34.1728 38.8624 33.6348 39.2791C33.0969 39.6959 33.1747 40.6918 33.8047 41.5041V41.5006Z" fill="#E3E3E3"/>
<path d="M33.3977 40.0027C33.0898 39.2928 32.4138 39.6248 31.9997 39.2399C31.4688 38.7454 32.113 37.8625 31.6635 37.4882C30.7115 36.6865 29.8656 39.2081 31.1539 39.7061C30.6796 40.2994 29.6179 40.2605 28.9773 40.8821C28.5773 41.267 27.6819 42.4466 28.7614 42.5526C28.4039 43.3083 28.6587 44.3255 29.7134 43.8734C29.1401 44.774 30.3752 45.1907 30.938 44.5762C30.7999 45.4309 31.7732 45.498 32.2758 45.1271C32.7854 44.7493 33.1075 44.2478 33.7127 43.9017C34.4134 43.4991 34.8381 43.0223 34.8912 42.1676C34.9266 41.5708 34.7603 40.4477 33.9923 40.4548" fill="#E3E3E3"/>
<path d="M33.3694 39.7773C34.1657 39.8586 34.5869 41.7621 34.8629 42.2354" stroke="#ADADAD" stroke-width="0.88" stroke-miterlimit="10"/>
<path d="M28.595 42.6838C29.0126 42.0093 29.862 41.3983 30.6618 41.1157C30.5627 41.1016 30.538 41.1511 30.4601 41.1934" stroke="#ADADAD" stroke-width="0.88" stroke-miterlimit="10"/>
<path d="M29.5647 43.9476C29.816 43.4885 30.2407 43.1389 30.6654 42.814C30.906 42.6268 31.7094 42.0052 31.6528 42.2348" stroke="#ADADAD" stroke-width="0.88" stroke-miterlimit="10"/>
<path d="M30.906 44.7673C31.3236 43.8738 32.1766 43.2664 32.9977 42.7578" stroke="#ADADAD" stroke-width="0.88" stroke-miterlimit="10"/>
<path d="M58.5257 12.417H41.5589C41.5589 12.417 30.5946 32.1201 38.7418 39.0492C38.7418 39.0492 40.7166 41.4826 45.7635 42.5527C46.6235 42.8988 48.5913 42.3302 48.4957 43.1248C46.1209 43.2802 44.2133 43.8029 43.463 44.4809C41.7359 45.0495 40.6635 45.8406 40.6635 46.7165C40.6635 48.4435 44.8397 49.8455 49.9892 49.8455C55.1387 49.8455 59.3185 48.4435 59.3185 46.7165C59.3185 45.8406 58.2461 45.0495 56.519 44.4809C55.7687 43.8029 53.8611 43.2837 51.4863 43.1248C51.3377 42.8352 51.5642 42.6833 51.5642 42.6833L52.2685 42.7116C52.902 42.8917 53.4435 42.6233 54.123 42.5915C59.315 41.5461 61.3464 39.0492 61.3464 39.0492C69.4901 32.1237 58.5293 12.417 58.5293 12.417H58.5257Z" fill="#7BF4FF"/>
<path d="M58.7382 12.9646C58.7382 14.2678 54.838 15.3238 50.0247 15.3238C45.2114 15.3238 41.3113 14.2678 41.3113 12.9646C41.3113 11.6614 45.2114 10.6055 50.0247 10.6055C54.838 10.6055 58.7382 11.6614 58.7382 12.9646Z" fill="#C4FAFF"/>
<path d="M57.2022 12.9643C57.2022 13.8543 53.9886 14.5712 50.0247 14.5712C46.0609 14.5712 42.8508 13.8508 42.8508 12.9643C42.8508 12.0779 46.0644 11.3574 50.0247 11.3574C53.9851 11.3574 57.2022 12.0779 57.2022 12.9643Z" fill="#4DF1FF"/>
<path d="M50.2795 9.62058C50.2795 13.8338 46.8571 17.249 42.6348 17.249C38.4126 17.249 34.9902 13.8338 34.9902 9.62058C34.9902 5.4073 38.4126 1.99219 42.6348 1.99219C46.8571 1.99219 50.2795 5.4073 50.2795 9.62058Z" fill="#8BE33F"/>
<path d="M49.3628 9.62091C49.3628 13.3292 46.351 16.3346 42.6313 16.3346C38.9116 16.3346 35.9033 13.3292 35.9033 9.62091C35.9033 5.91267 38.9152 2.90723 42.6313 2.90723C46.3474 2.90723 49.3628 5.91267 49.3628 9.62091Z" fill="#F4F4F4"/>
<path d="M42.5804 15.7079C45.9479 15.6657 48.6436 12.9073 48.6012 9.54688C48.5589 6.18646 45.7947 3.49654 42.4271 3.53877C39.0595 3.581 36.3639 6.33939 36.4062 9.69981C36.4485 13.0602 39.2128 15.7501 42.5804 15.7079Z" fill="#B8FF65"/>
<path d="M43.2577 9.62431C43.2577 10.041 42.9215 10.3766 42.5038 10.3766C42.0862 10.3766 41.75 10.041 41.75 9.62431C41.75 9.20758 42.0862 8.87207 42.5038 8.87207C42.9215 8.87207 43.2577 9.21111 43.2577 9.62431Z" fill="#E3E3E3"/>
<path d="M42.2774 9.1126L40.5999 3.62793" stroke="white" stroke-width="1.05" stroke-miterlimit="10"/>
<path d="M42.0227 9.51497L36.9475 6.82031" stroke="white" stroke-width="1.05" stroke-miterlimit="10"/>
<path d="M42.1217 9.97754L36.6289 11.6515" stroke="white" stroke-width="1.05" stroke-miterlimit="10"/>
<path d="M42.5251 10.2324L39.8247 15.2968" stroke="white" stroke-width="1.05" stroke-miterlimit="10"/>
<path d="M42.9888 10.1328L44.6663 15.614" stroke="white" stroke-width="1.05" stroke-miterlimit="10"/>
<path d="M43.2437 9.73047L48.3188 12.4251" stroke="white" stroke-width="1.05" stroke-miterlimit="10"/>
<path d="M43.1445 9.26776L48.6409 7.59375" stroke="white" stroke-width="1.05" stroke-miterlimit="10"/>
<path d="M42.741 9.01362L45.4414 3.94922" stroke="white" stroke-width="1.05" stroke-miterlimit="10"/>
<path d="M39.4425 19.4414C37.4146 22.3833 35.875 35.1961 40.0973 38.2828C40.0973 38.2828 42.7623 41.1081 49.9114 41.3342V41.3483C49.9963 41.3483 50.0813 41.3448 50.1662 41.3412C50.2511 41.3412 50.3361 41.3448 50.421 41.3483V41.3342C57.5702 41.1081 60.2351 38.2828 60.2351 38.2828C64.4574 35.1926 62.9178 22.3797 60.8899 19.4414H39.4425Z" fill="#8BE33F"/>
<path d="M61.0422 19.3884C61.0422 20.5397 56.236 21.472 50.3079 21.472C44.3798 21.472 39.5771 20.5397 39.5771 19.3884C39.5771 18.237 44.3833 17.3047 50.3079 17.3047C56.2325 17.3047 61.0422 18.237 61.0422 19.3884Z" fill="#B8FF65"/>
<path d="M41.428 12.4986H43.0029C43.0029 12.4986 42.38 13.0849 43.2967 13.4487C43.2967 13.4487 44.0647 14.4728 49.5645 14.5082V15.3134C49.5645 15.3134 40.1433 15.3487 41.4244 12.4951L41.428 12.4986Z" fill="#C4FAFF"/>
<path d="M38.6145 18.651C38.6145 18.651 40.6212 13.2652 41.3538 12.7178C41.3538 12.7178 40.1824 14.9145 47.9154 15.1687C47.9154 15.1687 47.3456 17.8034 39.4462 17.3266" fill="#7BF4FF"/>
<path opacity="0.5" d="M44.4753 16.2777C44.4753 16.2777 36.498 33.2509 46.5776 39.6432C46.5776 39.6432 37.6341 41.7163 38.4481 28.4655C38.4481 28.4655 38.8091 21.7977 41.0707 15.7444L41.8882 14.9463L44.4753 16.2777Z" fill="#C4FAFF"/>
<path d="M50.9131 0.879384C50.9131 0.392014 51.3095 0 51.7979 0C52.2863 0 52.6827 0.395546 52.6827 0.879384C52.6827 1.36322 52.2863 1.7623 51.7979 1.7623C51.3095 1.7623 50.9131 1.36675 50.9131 0.879384Z" fill="#8BE33F"/>
<path d="M51.4299 1.02452C51.4299 0.678415 51.6883 0.399414 52.0104 0.399414C52.3324 0.399414 52.5908 0.678415 52.5908 1.02452C52.5908 1.37062 52.3324 1.64962 52.0104 1.64962C51.6883 1.64962 51.4299 1.37062 51.4299 1.02452Z" fill="#B8FF65"/>
<path opacity="0.5" d="M51.8616 1.22153C51.8616 1.0732 51.9784 0.953125 52.1199 0.953125C52.2615 0.953125 52.3783 1.0732 52.3783 1.22153C52.3783 1.36986 52.2615 1.48994 52.1199 1.48994C51.9784 1.48994 51.8616 1.36986 51.8616 1.22153Z" fill="#C4FAFF"/>
<path d="M48.9487 2.59559C48.9487 2.2283 49.246 1.93164 49.6141 1.93164C49.9822 1.93164 50.2795 2.2283 50.2795 2.59559C50.2795 2.96289 49.9822 3.25954 49.6141 3.25954C49.246 3.25954 48.9487 2.96289 48.9487 2.59559Z" fill="#8BE33F"/>
<path d="M49.7769 3.17477C50.0173 3.17477 50.2122 2.96448 50.2122 2.70506C50.2122 2.44565 50.0173 2.23535 49.7769 2.23535C49.5364 2.23535 49.3416 2.44565 49.3416 2.70506C49.3416 2.96448 49.5364 3.17477 49.7769 3.17477Z" fill="#B8FF65"/>
<path opacity="0.5" d="M49.6636 2.85327C49.6636 2.74026 49.7521 2.64844 49.8582 2.64844C49.9644 2.64844 50.0529 2.74026 50.0529 2.85327C50.0529 2.96629 49.9644 3.05458 49.8582 3.05458C49.7521 3.05458 49.6636 2.96276 49.6636 2.85327Z" fill="#C4FAFF"/>
<path d="M53.4612 3.99075C53.4612 3.57048 53.8009 3.23145 54.2256 3.23145C54.6503 3.23145 54.9866 3.57048 54.9866 3.99075C54.9866 4.41102 54.6468 4.75359 54.2256 4.75359C53.8045 4.75359 53.4612 4.41455 53.4612 3.99075Z" fill="#8BE33F"/>
<path d="M53.907 4.11396C53.907 3.8173 54.13 3.57715 54.406 3.57715C54.6821 3.57715 54.9086 3.8173 54.9086 4.11396C54.9086 4.41062 54.6856 4.6543 54.406 4.6543C54.1264 4.6543 53.907 4.41415 53.907 4.11396Z" fill="#B8FF65"/>
<path opacity="0.5" d="M54.2788 4.28778C54.2788 4.16064 54.3779 4.05469 54.5018 4.05469C54.6256 4.05469 54.7247 4.15711 54.7247 4.28778C54.7247 4.41845 54.6256 4.52087 54.5018 4.52087C54.3779 4.52087 54.2788 4.41845 54.2788 4.28778Z" fill="#C4FAFF"/>
<path d="M51.7661 5.47057C51.7661 5.15272 52.0245 4.89844 52.3395 4.89844C52.6544 4.89844 52.9128 5.15625 52.9128 5.47057C52.9128 5.78488 52.6544 6.04269 52.3395 6.04269C52.0245 6.04269 51.7661 5.78488 51.7661 5.47057Z" fill="#8BE33F"/>
<path d="M52.1023 5.5663C52.1023 5.3438 52.2722 5.16016 52.4774 5.16016C52.6827 5.16016 52.8561 5.34027 52.8561 5.5663C52.8561 5.79232 52.6863 5.97244 52.4774 5.97244C52.2686 5.97244 52.1023 5.79232 52.1023 5.5663Z" fill="#B8FF65"/>
<path opacity="0.5" d="M52.3818 5.69611C52.3818 5.60076 52.4562 5.51953 52.5482 5.51953C52.6402 5.51953 52.7145 5.59723 52.7145 5.69611C52.7145 5.795 52.6402 5.8727 52.5482 5.8727C52.4562 5.8727 52.3818 5.795 52.3818 5.69611Z" fill="#C4FAFF"/>
<path d="M48.8815 31.1042C48.8815 32.3297 47.8834 33.3256 46.6553 33.3256C45.4272 33.3256 44.4292 32.3297 44.4292 31.1042C44.4292 29.8787 45.4272 28.8828 46.6553 28.8828C47.8834 28.8828 48.8815 29.8787 48.8815 31.1042Z" fill="#E3E3E3"/>
<path d="M48.4002 31.2847C48.4002 32.0158 47.8092 32.6056 47.0766 32.6056C46.344 32.6056 45.7529 32.0158 45.7529 31.2847C45.7529 30.5537 46.344 29.9639 47.0766 29.9639C47.8092 29.9639 48.4002 30.5537 48.4002 31.2847Z" fill="#0080FF"/>
<path d="M48.0391 31.2839C48.0391 31.8136 47.6073 32.2445 47.0764 32.2445C46.5455 32.2445 46.1138 31.8136 46.1138 31.2839C46.1138 30.7541 46.5455 30.3232 47.0764 30.3232C47.6073 30.3232 48.0391 30.7541 48.0391 31.2839Z" fill="black"/>
<path d="M51.7695 31.1042C51.7695 32.3297 52.7676 33.3256 53.9957 33.3256C55.2238 33.3256 56.2218 32.3297 56.2218 31.1042C56.2218 29.8787 55.2238 28.8828 53.9957 28.8828C52.7676 28.8828 51.7695 29.8787 51.7695 31.1042Z" fill="#E3E3E3"/>
<path d="M52.251 31.2847C52.251 32.0158 52.842 32.6056 53.5746 32.6056C54.3072 32.6056 54.8983 32.0158 54.8983 31.2847C54.8983 30.5537 54.3072 29.9639 53.5746 29.9639C52.842 29.9639 52.251 30.5537 52.251 31.2847Z" fill="#0080FF"/>
<path d="M52.6118 31.2839C52.6118 31.8136 53.0436 32.2445 53.5745 32.2445C54.1053 32.2445 54.5371 31.8136 54.5371 31.2839C54.5371 30.7541 54.1053 30.3232 53.5745 30.3232C53.0436 30.3232 52.6118 30.7541 52.6118 31.2839Z" fill="black"/>
<path d="M50.1769 35.5925C49.2673 35.5925 48.4569 35.2993 47.9225 34.8438C47.8446 35.0804 47.7986 35.3311 47.7986 35.5925C47.7986 36.9027 48.8639 37.9657 50.1769 37.9657C51.4899 37.9657 52.5552 36.9027 52.5552 35.5925C52.5552 35.3311 52.5128 35.0804 52.4314 34.8438C51.8969 35.3029 51.0829 35.5925 50.1769 35.5925Z" fill="#740000"/>
<path d="M50.1768 37.9658C50.6404 37.9658 51.0722 37.8316 51.4367 37.6021C51.1571 37.1712 50.6723 36.8887 50.1202 36.8887C49.5681 36.8887 49.1186 37.1535 48.8354 37.5562C49.2177 37.814 49.6778 37.9658 50.1733 37.9658H50.1768Z" fill="#DB0000"/>
<path opacity="0.2" d="M58.5257 12.4166H56.5579L54.3389 14.8252C54.3389 14.8252 65.2466 30.1244 52.7675 40.0271C52.7675 40.0271 50.3113 41.401 50.4104 42.577C50.5095 43.753 51.1961 43.753 52.18 44.3428C52.18 44.3428 54.9335 45.42 54.2433 46.5996C53.6346 47.6379 55.8572 48.2206 53.4151 49.6227C56.8729 49.1636 59.3185 48.0334 59.3185 46.7126C59.3185 45.8367 58.2461 45.0456 56.519 44.477C55.7687 43.799 53.8611 43.2798 51.4863 43.1209C51.3377 42.8313 51.5642 42.6794 51.5642 42.6794L52.2685 42.7077C52.902 42.8878 53.4435 42.6194 54.123 42.5876C59.3149 41.5422 61.3464 39.0453 61.3464 39.0453C69.4901 32.1198 58.5293 12.4131 58.5293 12.4131L58.5257 12.4166Z" fill="black"/>
<path d="M8.78278 55.0723C8.78278 55.0723 7.53985 57.379 9.13901 58.2058L9.6114 58.5613C9.6114 58.5613 7.71409 60.2769 9.25517 60.6323C9.25517 60.6323 10.9744 60.8101 11.8611 58.6231C12.7516 56.4362 13.8164 57.2631 13.8164 57.2631" fill="#E3E3E3"/>
<path d="M10.7653 49.9648C10.7653 49.9648 7.26881 50.9694 7.91931 52.8627C7.91931 52.8627 8.51173 53.9871 10.0528 53.9871" stroke="black" stroke-width="1.75" stroke-miterlimit="10"/>
<path d="M10.742 54.6279C10.0257 55.6403 8.92217 56.0962 8.27941 55.6441C7.63664 55.1921 7.6986 54.002 8.4188 52.9897C9.13513 51.9774 10.2387 51.5214 10.8814 51.9735C11.5242 52.4256 11.4622 53.6156 10.742 54.6279Z" fill="#E3E3E3"/>
<path d="M34.5011 53.2949C34.5011 53.2949 36.5611 56.784 38.8262 53.6504L39.2986 54.0638C39.2986 54.0638 36.4527 57.6726 34.3811 54.0059" fill="black"/>
<path d="M15.9655 61.3242L16.6121 64.5428C16.6121 64.5428 12.0973 65.671 14.0333 66.7954C14.0333 66.7954 15.6441 67.7614 18.0641 65.5088L18.2268 61.8072" fill="black"/>
<path d="M27.7405 61.3242L27.0939 64.5428C27.0939 64.5428 31.6087 65.671 29.6727 66.7954C29.6727 66.7954 28.058 67.7614 25.6419 65.5088L25.4792 61.8072" fill="black"/>
<path d="M37.68 18.8381L23.0862 17.8103V17.6982L22.2847 17.7562L21.4832 17.6982V17.8103L6.88944 18.8381C6.88944 18.8381 5.05409 37.7979 11.7798 46.4761C11.7798 46.4761 10.7305 47.3918 10.1458 51.9782L9.63085 55.9927C9.63085 55.9927 9.12749 61.7576 20.8753 62.596V62.6926C21.3554 62.6926 21.8201 62.6849 22.2692 62.6694C22.7184 62.6849 23.183 62.6926 23.6632 62.6926V62.596C35.4071 61.7576 34.9076 55.9927 34.9076 55.9927L34.3965 51.9782C33.8118 47.3957 32.7857 46.4761 32.7857 46.4761C39.5076 37.7979 37.6761 18.8381 37.6761 18.8381H37.68Z" fill="#7BF4FF"/>
<path d="M22.3041 22.4929C30.8622 22.4929 37.8 21.1124 37.8 19.4095C37.8 17.7066 30.8622 16.3262 22.3041 16.3262C13.7459 16.3262 6.80811 17.7066 6.80811 19.4095C6.80811 21.1124 13.7459 22.4929 22.3041 22.4929Z" fill="#C4FAFF"/>
<path d="M36.4254 19.2047C36.4254 20.4527 30.1023 21.465 22.304 21.465C14.5057 21.465 8.18262 20.4527 8.18262 19.2047C8.18262 17.9567 14.5057 16.9443 22.304 16.9443C30.1023 16.9443 36.4254 17.9567 36.4254 19.2047Z" fill="#4DF1FF"/>
<path d="M36.1931 27.8594H8.38013C8.38013 27.8594 8.49629 38.4811 13.0731 44.8757C13.0731 44.8757 13.1544 49.1723 12.4187 52.9473L11.6946 56.3397C11.6946 56.3397 15.3421 61.7336 22.2692 61.1502C29.1963 61.7336 32.8476 56.3397 32.8476 56.3397L32.1274 52.9473C31.3956 49.1723 31.4963 44.8757 31.4963 44.8757C36.0731 38.4811 36.1892 27.8594 36.1892 27.8594H36.1931Z" fill="#FF714A"/>
<path d="M36.3634 27.8603C36.3634 29.4367 30.0597 30.7156 22.2846 30.7156C14.5095 30.7156 8.20581 29.4367 8.20581 27.8603C8.20581 26.2838 14.5095 25.0049 22.2846 25.0049C30.0597 25.0049 36.3634 26.2838 36.3634 27.8603Z" fill="#FFA257"/>
<path opacity="0.2" d="M28.5651 22.2534C28.7703 28.4819 28.4179 36.7621 25.7191 40.8809C22.7686 45.39 22.3698 54.8526 25.1886 62.445C35.3566 61.2163 34.9114 55.9924 34.9114 55.9924L34.4002 51.9779C33.8156 47.3954 32.7895 46.4758 32.7895 46.4758C39.5114 37.7976 37.7341 19.626 37.7341 19.626C36.4176 21.8438 28.5651 22.2534 28.5651 22.2534Z" fill="black"/>
<path d="M18.6914 14.8117C18.6914 19.6183 14.7884 23.513 9.96767 23.513C5.14696 23.513 1.2478 19.6183 1.2478 14.8117C1.2478 10.0051 5.15471 6.10645 9.96767 6.10645C14.7806 6.10645 18.6914 10.0051 18.6914 14.8117Z" fill="#FF714A"/>
<path d="M17.6459 14.8114C17.6459 19.0423 14.2075 22.4734 9.96762 22.4734C5.72772 22.4734 2.29321 19.0423 2.29321 14.8114C2.29321 10.5805 5.7316 7.14941 9.9715 7.14941C14.2114 7.14941 17.6498 10.5805 17.6498 14.8114H17.6459Z" fill="#F4F4F4"/>
<path d="M14.4586 19.9873C17.32 17.4308 17.5627 13.0437 15.0007 10.1884C12.4388 7.33308 8.04232 7.09087 5.18096 9.64739C2.31959 12.2039 2.07687 16.591 4.63882 19.4463C7.20078 22.3016 11.5972 22.5438 14.4586 19.9873Z" fill="#FF9800"/>
<path d="M10.6801 14.8158C10.6801 15.291 10.2929 15.6736 9.82053 15.6736C9.34814 15.6736 8.96094 15.2872 8.96094 14.8158C8.96094 14.3444 9.34814 13.958 9.82053 13.958C10.2929 13.958 10.6801 14.3444 10.6801 14.8158Z" fill="#E3E3E3"/>
<path d="M9.5651 14.2321L7.64844 7.97266" stroke="white" stroke-width="1.1" stroke-miterlimit="10"/>
<path d="M9.27065 14.6879L3.48193 11.6123" stroke="white" stroke-width="1.1" stroke-miterlimit="10"/>
<path d="M9.38678 15.2178L3.11792 17.1265" stroke="white" stroke-width="1.1" stroke-miterlimit="10"/>
<path d="M9.84391 15.5068L6.76562 21.2833" stroke="white" stroke-width="1.1" stroke-miterlimit="10"/>
<path d="M10.3743 15.3916L12.2909 21.6472" stroke="white" stroke-width="1.1" stroke-miterlimit="10"/>
<path d="M10.6685 14.9355L16.4572 18.0073" stroke="white" stroke-width="1.1" stroke-miterlimit="10"/>
<path d="M10.5525 14.4058L16.8213 12.4971" stroke="white" stroke-width="1.1" stroke-miterlimit="10"/>
<path d="M10.0955 14.1163L13.1737 8.33984" stroke="white" stroke-width="1.1" stroke-miterlimit="10"/>
<path d="M36.2667 18.927C36.3867 19.0468 36.4254 18.7376 36.4254 18.8652C36.4254 20.1132 30.1024 21.1255 22.3041 21.1255C14.5057 21.1255 8.18268 20.1132 8.18268 18.8652C8.18268 18.7415 8.24851 18.6179 8.36854 18.502H7.07915C6.90491 18.6874 6.80811 18.8767 6.80811 19.0738C6.80811 20.7778 15.0207 22.9067 22.3041 22.501C30.9968 22.0142 37.6955 21.0444 37.6955 19.3404C37.6955 19.1433 37.3586 18.8111 37.1844 18.6256L36.2667 18.9308V18.927Z" fill="#C4FAFF"/>
<path opacity="0.5" d="M10.4748 23.8105C10.4748 23.8105 9.59199 35.7343 13.708 42.2797C13.708 42.2797 14.9393 43.4968 14.6644 52.1441L14.4243 55.1308C14.4243 55.1308 16.1861 57.3796 17.9944 56.7691C17.9944 56.7691 18.8965 49.4123 16.8405 42.7665C16.8405 42.7665 14.2927 34.95 14.3933 26.0554V24.8847L10.4748 23.8105Z" fill="#C4FAFF"/>
<path d="M6.85845 18.8647C6.85845 18.8647 6.87781 18.8956 6.88555 18.9111C6.90491 18.8145 6.92427 18.7217 6.94363 18.6367C6.94363 18.6367 6.76165 18.6676 6.85845 18.8647Z" fill="#7BF4FF"/>
<path d="M11.443 23.513L16.194 22.2379C11.1604 21.8399 7.33091 19.5757 6.88563 18.9111C6.17317 22.6127 7.1528 32.9948 7.1528 32.9948L8.52738 31.3604C8.15953 30.3635 6.84691 24.9928 11.443 23.5168V23.513Z" fill="#7BF4FF"/>
<path d="M22.9429 8.78747C22.9429 7.96833 23.6089 7.30762 24.4259 7.30762C25.2429 7.30762 25.9089 7.96833 25.9089 8.78747C25.9089 9.6066 25.2467 10.2673 24.4259 10.2673C23.605 10.2673 22.9429 9.6066 22.9429 8.78747Z" fill="#FF714A"/>
<path d="M23.8103 9.0305C23.8103 8.45092 24.2478 7.9834 24.7822 7.9834C25.3165 7.9834 25.7579 8.45092 25.7579 9.0305C25.7579 9.61007 25.3204 10.0776 24.7822 10.0776C24.244 10.0776 23.8103 9.61007 23.8103 9.0305Z" fill="#FFA257"/>
<path opacity="0.5" d="M24.5342 9.3632C24.5342 9.11205 24.7278 8.91113 24.9678 8.91113C25.2079 8.91113 25.4015 9.11205 25.4015 9.3632C25.4015 9.61435 25.2079 9.81527 24.9678 9.81527C24.7278 9.81527 24.5342 9.61435 24.5342 9.3632Z" fill="#C4FAFF"/>
<path d="M27.0745 11.8019C27.0745 11.0716 27.6669 10.4805 28.3987 10.4805C29.1305 10.4805 29.7229 11.0716 29.7229 11.8019C29.7229 12.5322 29.1305 13.1233 28.3987 13.1233C27.6669 13.1233 27.0745 12.5322 27.0745 11.8019Z" fill="#FF714A"/>
<path d="M27.8489 12.0181C27.8489 11.5003 28.24 11.083 28.7201 11.083C29.2002 11.083 29.5913 11.5003 29.5913 12.0181C29.5913 12.5358 29.2041 12.9531 28.7201 12.9531C28.2361 12.9531 27.8489 12.5358 27.8489 12.0181Z" fill="#FFA257"/>
<path opacity="0.5" d="M28.4956 12.3159C28.4956 12.0918 28.6698 11.9141 28.8828 11.9141C29.0958 11.9141 29.27 12.0957 29.27 12.3159C29.27 12.5361 29.0958 12.7177 28.8828 12.7177C28.6698 12.7177 28.4956 12.5361 28.4956 12.3159Z" fill="#C4FAFF"/>
<path d="M18.6875 5.59237C18.6875 4.78482 19.3419 4.13184 20.1511 4.13184C20.9604 4.13184 21.6148 4.78482 21.6148 5.59237C21.6148 6.39991 20.9604 7.0529 20.1511 7.0529C19.3419 7.0529 18.6875 6.39991 18.6875 5.59237Z" fill="#FF714A"/>
<path d="M19.5471 5.83535C19.5471 5.26351 19.9769 4.80371 20.5074 4.80371C21.0379 4.80371 21.4677 5.26737 21.4677 5.83535C21.4677 6.40334 21.0379 6.867 20.5074 6.867C19.9769 6.867 19.5471 6.40334 19.5471 5.83535Z" fill="#FFA257"/>
<path opacity="0.5" d="M20.2595 6.16407C20.2595 5.91678 20.4493 5.71973 20.6893 5.71973C20.9294 5.71973 21.1152 5.92065 21.1152 6.16407C21.1152 6.40749 20.9255 6.60841 20.6893 6.60841C20.4531 6.60841 20.2595 6.40749 20.2595 6.16407Z" fill="#C4FAFF"/>
<path d="M23.7754 3.63347C23.7754 2.68297 24.5459 1.91406 25.4985 1.91406C26.451 1.91406 27.2215 2.68297 27.2215 3.63347C27.2215 4.58397 26.451 5.35288 25.4985 5.35288C24.5459 5.35288 23.7754 4.58397 23.7754 3.63347Z" fill="#FF714A"/>
<path d="M24.7822 3.91535C24.7822 3.24304 25.2895 2.69824 25.9129 2.69824C26.5363 2.69824 27.0435 3.24304 27.0435 3.91535C27.0435 4.58766 26.5363 5.1286 25.9129 5.1286C25.2895 5.1286 24.7822 4.58379 24.7822 3.91535Z" fill="#FFA257"/>
<path opacity="0.5" d="M25.6223 4.30185C25.6223 4.01206 25.8469 3.77637 26.1257 3.77637C26.4045 3.77637 26.629 4.01206 26.629 4.30185C26.629 4.59164 26.4045 4.82733 26.1257 4.82733C25.8469 4.82733 25.6223 4.59164 25.6223 4.30185Z" fill="#C4FAFF"/>
<path d="M19.9614 10.9667C19.9614 10.3253 20.4842 9.80371 21.1269 9.80371C21.7697 9.80371 22.2924 10.3253 22.2924 10.9667C22.2924 11.6081 21.7697 12.1297 21.1269 12.1297C20.4842 12.1297 19.9614 11.6081 19.9614 10.9667Z" fill="#FF714A"/>
<path d="M20.6428 11.1599C20.6428 10.704 20.9836 10.3369 21.4095 10.3369C21.8354 10.3369 22.1762 10.704 22.1762 11.1599C22.1762 11.6158 21.8354 11.9829 21.4095 11.9829C20.9836 11.9829 20.6428 11.6158 20.6428 11.1599Z" fill="#FFA257"/>
<path opacity="0.5" d="M21.2122 11.4229C21.2122 11.2258 21.3632 11.0674 21.5529 11.0674C21.7426 11.0674 21.8936 11.2258 21.8936 11.4229C21.8936 11.6199 21.7426 11.7783 21.5529 11.7783C21.3632 11.7783 21.2122 11.6199 21.2122 11.4229Z" fill="#C4FAFF"/>
<path d="M23.7754 12.8722C23.7754 12.339 24.2091 11.9062 24.7434 11.9062C25.2777 11.9062 25.7114 12.339 25.7114 12.8722C25.7114 13.4054 25.2777 13.8382 24.7434 13.8382C24.2091 13.8382 23.7754 13.4054 23.7754 12.8722Z" fill="#FF714A"/>
<path d="M24.3408 13.0306C24.3408 12.6519 24.6235 12.3467 24.9758 12.3467C25.3282 12.3467 25.6109 12.6519 25.6109 13.0306C25.6109 13.4092 25.3282 13.7145 24.9758 13.7145C24.6235 13.7145 24.3408 13.4092 24.3408 13.0306Z" fill="#FFA257"/>
<path opacity="0.5" d="M24.813 13.2468C24.813 13.0845 24.9408 12.9531 25.0956 12.9531C25.2505 12.9531 25.3783 13.0845 25.3783 13.2468C25.3783 13.4091 25.2505 13.5404 25.0956 13.5404C24.9408 13.5404 24.813 13.4091 24.813 13.2468Z" fill="#C4FAFF"/>
<path d="M21.6304 14.7498C21.6304 14.348 21.9556 14.0234 22.3583 14.0234C22.761 14.0234 23.0863 14.348 23.0863 14.7498C23.0863 15.1517 22.761 15.4762 22.3583 15.4762C21.9556 15.4762 21.6304 15.1517 21.6304 14.7498Z" fill="#FF714A"/>
<path d="M22.0564 14.8694C22.0564 14.5873 22.2694 14.3555 22.5327 14.3555C22.796 14.3555 23.0089 14.5873 23.0089 14.8694C23.0089 15.1514 22.796 15.3833 22.5327 15.3833C22.2694 15.3833 22.0564 15.1553 22.0564 14.8694Z" fill="#FFA257"/>
<path opacity="0.5" d="M22.4087 15.0318C22.4087 14.9081 22.5055 14.8115 22.6217 14.8115C22.7378 14.8115 22.8346 14.912 22.8346 15.0318C22.8346 15.1515 22.7378 15.252 22.6217 15.252C22.5055 15.252 22.4087 15.1515 22.4087 15.0318Z" fill="#C4FAFF"/>
<path d="M26.5632 16.276C26.5632 15.8162 26.9388 15.4414 27.3996 15.4414C27.8604 15.4414 28.236 15.8123 28.236 16.276C28.236 16.7397 27.8642 17.1067 27.3996 17.1067C26.935 17.1067 26.5632 16.7358 26.5632 16.276Z" fill="#FF714A"/>
<path d="M27.051 16.4115C27.051 16.087 27.295 15.8242 27.597 15.8242C27.899 15.8242 28.1468 16.087 28.1468 16.4115C28.1468 16.7361 27.9029 16.9988 27.597 16.9988C27.2911 16.9988 27.051 16.7361 27.051 16.4115Z" fill="#FFA257"/>
<path opacity="0.5" d="M27.4617 16.6007C27.4617 16.4616 27.5701 16.3457 27.7056 16.3457C27.8411 16.3457 27.9495 16.4578 27.9495 16.6007C27.9495 16.7437 27.8411 16.8557 27.7056 16.8557C27.5701 16.8557 27.4617 16.7437 27.4617 16.6007Z" fill="#C4FAFF"/>
<path d="M24.7085 17.8945C24.7085 17.5468 24.9912 17.2686 25.3358 17.2686C25.6804 17.2686 25.963 17.5506 25.963 17.8945C25.963 18.2384 25.6804 18.5204 25.3358 18.5204C24.9912 18.5204 24.7085 18.2384 24.7085 17.8945Z" fill="#FF714A"/>
<path d="M25.0764 17.999C25.0764 17.7556 25.2623 17.5547 25.4907 17.5547C25.7192 17.5547 25.905 17.7517 25.905 17.999C25.905 18.2463 25.7192 18.4434 25.4907 18.4434C25.2623 18.4434 25.0764 18.2463 25.0764 17.999Z" fill="#FFA257"/>
<path opacity="0.5" d="M25.3823 18.1414C25.3823 18.0371 25.4636 17.9482 25.5643 17.9482C25.665 17.9482 25.7502 18.0332 25.7502 18.1414C25.7502 18.2496 25.6689 18.3346 25.5643 18.3346C25.4598 18.3346 25.3823 18.2496 25.3823 18.1414Z" fill="#C4FAFF"/>
<path d="M20.5151 51.4255C20.5151 52.7662 19.4232 53.8558 18.0796 53.8558C16.736 53.8558 15.644 52.7662 15.644 51.4255C15.644 50.0847 16.736 48.9951 18.0796 48.9951C19.4232 48.9951 20.5151 50.0847 20.5151 51.4255Z" fill="#E3E3E3"/>
<path d="M19.9886 51.6228C19.9886 52.4226 19.3419 53.0679 18.5404 53.0679C17.7389 53.0679 17.0923 52.4226 17.0923 51.6228C17.0923 50.823 17.7428 50.1777 18.5404 50.1777C19.3381 50.1777 19.9886 50.823 19.9886 51.6228Z" fill="#0080FF"/>
<path d="M18.5403 52.6732C19.1219 52.6732 19.5935 52.2027 19.5935 51.6223C19.5935 51.0418 19.1219 50.5713 18.5403 50.5713C17.9586 50.5713 17.4871 51.0418 17.4871 51.6223C17.4871 52.2027 17.9586 52.6732 18.5403 52.6732Z" fill="black"/>
<path d="M23.6748 51.4255C23.6748 52.7662 24.7667 53.8558 26.1103 53.8558C27.4539 53.8558 28.5458 52.7662 28.5458 51.4255C28.5458 50.0847 27.4539 48.9951 26.1103 48.9951C24.7667 48.9951 23.6748 50.0847 23.6748 51.4255Z" fill="#E3E3E3"/>
<path d="M24.2014 51.6228C24.2014 52.4226 24.848 53.0679 25.6496 53.0679C26.4511 53.0679 27.0977 52.4226 27.0977 51.6228C27.0977 50.823 26.4511 50.1777 25.6496 50.1777C24.848 50.1777 24.2014 50.823 24.2014 51.6228Z" fill="#0080FF"/>
<path d="M24.5964 51.6223C24.5964 52.2018 25.0688 52.6732 25.6496 52.6732C26.2304 52.6732 26.7028 52.2018 26.7028 51.6223C26.7028 51.0427 26.2304 50.5713 25.6496 50.5713C25.0688 50.5713 24.5964 51.0427 24.5964 51.6223Z" fill="black"/>
<path d="M21.9323 56.3357C20.9372 56.3357 20.0505 56.015 19.4658 55.5166C19.3807 55.7755 19.3303 56.0498 19.3303 56.3357C19.3303 57.7692 20.4958 58.9322 21.9323 58.9322C23.3689 58.9322 24.5344 57.7692 24.5344 56.3357C24.5344 56.0498 24.4879 55.7755 24.3988 55.5166C23.8142 56.015 22.9236 56.3357 21.9323 56.3357Z" fill="#740000"/>
<path d="M21.9324 58.9324C22.4396 58.9324 22.912 58.7856 23.3108 58.5344C23.0049 58.063 22.4744 57.7539 21.8704 57.7539C21.2664 57.7539 20.7746 58.0437 20.4648 58.4842C20.883 58.7662 21.3864 58.9324 21.9285 58.9324H21.9324Z" fill="#DB0000"/>
<path d="M43.221 52.7158C43.221 53.647 41.8851 54.4043 40.2395 54.4043C38.5939 54.4043 37.2542 53.647 37.2542 52.7158C37.2542 51.7847 38.59 51.0273 40.2395 51.0273C41.889 51.0273 43.221 51.7847 43.221 52.7158Z" fill="#E3E3E3"/>
<path d="M38.5434 52.4721C37.0333 51.8964 34.9928 48.4653 37.7148 48.2644C37.7768 47.0279 37.3508 44.6401 38.5899 43.9871C40.3865 43.0404 40.3788 46.0542 40.0109 47.1284C40.8202 47.0318 41.5907 47.2404 41.765 48.0596C42.369 47.9243 42.8259 48.2605 42.9227 48.9058C45.4202 49.9065 41.1532 54.4929 38.8648 52.6344" fill="#E3E3E3"/>
<path d="M37.7033 48.2727C37.6956 48.2418 37.5949 48.2186 37.653 48.1954C38.4893 48.1877 40.6538 48.8329 40.6074 49.9264C40.5531 51.128 38.6365 50.6991 38.2028 49.9341C38.772 50.4828 38.5474 50.8035 38.4158 51.2865" stroke="#ADADAD" stroke-width="0.88" stroke-miterlimit="10"/>
<path d="M39.0042 50.5753C39.0893 51.607 40.7195 51.0081 41.0912 50.5174C41.6681 49.7639 41.9043 48.8598 41.8346 47.917C41.7456 47.9324 41.823 47.9749 41.7882 48.029" stroke="#ADADAD" stroke-width="0.88" stroke-miterlimit="10"/>
<path d="M40.131 51.1088C40.0342 51.2286 40.3401 51.8391 40.6615 51.982C41.1377 52.1945 41.6566 51.8507 41.978 51.5261C42.5046 50.989 43.0699 49.6676 42.9731 48.9219" stroke="#ADADAD" stroke-width="0.88" stroke-miterlimit="10"/>
<path d="M41.9663 51.6416C42.1909 52.0782 42.5975 52.0203 42.8569 51.6996" stroke="#ADADAD" stroke-width="0.88" stroke-miterlimit="10"/>
</svg>
