<svg width="16" height="20" viewBox="0 0 16 20" fill="none" xmlns="http://www.w3.org/2000/svg">
<path d="M4.69572 9.03093V4.07606C4.69572 2.67374 5.83047 1.53899 7.23279 1.53899H8.76729C10.1696 1.53899 11.3044 2.67374 11.3044 4.07606V9.03093H12.8292V3.70533C12.8292 1.65827 11.169 -0.00195312 9.1219 -0.00195312H6.87818C4.83112 -0.00195312 3.1709 1.65827 3.1709 3.70533V9.03093H4.69572Z" fill="#64748B"/>
<path d="M10.3115 6.37109H5.68865C2.80019 6.37109 0.456543 8.71152 0.456543 11.6032V14.7689C0.456543 17.6574 2.80019 20.001 5.68865 20.001H10.3115C13.1999 20.001 15.5436 17.6574 15.5436 14.7689V11.6032C15.5436 8.71474 13.1999 6.37109 10.3115 6.37109ZM8.75764 13.5471V14.6948C8.75764 15.0171 8.49652 15.2783 8.17414 15.2783H7.82276C7.50039 15.2783 7.23926 15.0171 7.23926 14.6948V13.5471C6.81373 13.2892 6.52682 12.825 6.52682 12.2931C6.52682 11.4807 7.18446 10.8231 8.00006 10.8231C8.81567 10.8231 9.47331 11.4807 9.47331 12.2931C9.47331 12.8282 9.18639 13.2892 8.76086 13.5471H8.75764Z" fill="#64748B"/>
</svg>
