<svg width="49" height="48" viewBox="0 0 49 48" fill="none" xmlns="http://www.w3.org/2000/svg">
<g style="mix-blend-mode:multiply" opacity="0.3">
<path d="M8.86147 26.5524C7.57058 29.1468 8.38551 31.0283 8.1961 33.5415C8.1975 36.2974 8.1996 39.1482 8.72658 41.976C10.2467 48.9722 17.7426 47.4178 22.0605 47.8895C23.8525 47.9287 25.2147 48.174 27.1346 47.7791C28.2521 48.0992 29.0363 47.986 30.0553 47.9455C31.92 47.9371 34.5563 47.7351 36.8683 47.6449C43.9784 47.6715 48.6758 45.2127 48.6527 36.6133C48.7541 34.9694 48.8058 33.0768 48.8205 31.6573C48.882 30.1672 49.1552 28.6478 48.4997 27.0074C49.2398 24.1922 48.557 21.7935 48.4892 19.1488C48.4605 12.8747 46.3337 8.88806 40.3377 7.98507C36.9019 7.27916 33.1599 7.24282 29.4179 7.59787C28.6603 7.67964 27.9817 7.85926 27.3785 8.13184C27.2737 7.88233 27.159 7.63421 27.0255 7.39099C26.4252 5.83171 23.1822 3.91739 20.5214 4.64566C19.8784 3.77831 19.1089 2.97805 18.02 2.31688C16.3839 1.17974 13.8007 2.16801 12.5371 3.01859C9.43458 4.58206 6.02668 6.34192 3.07516 9.67574C2.23507 10.5808 0.68977 12.4197 1.7654 15.6934C3.10452 19.3732 5.40604 23.8155 8.85937 26.5531L8.86147 26.5524ZM26.0673 19.9987C26.5195 20.4418 27.0423 20.7388 27.5267 20.952C26.1533 21.7488 25.5529 22.7902 25.2915 23.5757C25.1231 23.9217 25.172 24.4578 25.0308 24.7115C24.824 23.4499 24.1956 22.2087 23.2689 21.3175C23.8413 20.952 24.3494 20.576 24.8652 20.1818C25.3642 19.9008 25.5704 19.2166 26.068 19.9987H26.0673Z" fill="#231F20"/>
</g>
<path d="M47.1011 25.2034C47.8413 22.3882 47.1584 19.9896 47.0907 17.3449C47.062 11.0707 44.9352 7.08411 38.9392 6.18111C35.5034 5.47521 31.7614 5.43887 28.0194 5.79391C27.2618 5.87569 26.5831 6.05531 25.98 6.32788C25.8751 6.07837 25.7605 5.83026 25.627 5.58704C25.0266 4.02776 21.7837 2.11343 19.1229 2.8417C18.4799 1.97435 17.7104 1.17409 16.6215 0.512922C14.9854 -0.624211 12.4022 0.364053 11.1385 1.21463C8.03605 2.7781 4.62815 4.53797 1.67734 7.87179C0.837241 8.77688 -0.708057 10.6157 0.367571 13.8894C1.70669 17.5692 4.00821 22.0115 7.46155 24.7492C6.17065 27.3435 6.98559 29.225 6.79618 31.7383C6.79758 34.4941 6.79967 37.345 7.32665 40.1728C8.84679 47.1689 16.3426 45.6145 20.6605 46.0863C22.4525 46.1254 23.8147 46.3708 25.7346 45.9759C26.8522 46.296 27.6364 46.1827 28.6554 46.1422C30.5201 46.1338 33.1571 45.9318 35.4684 45.8417C42.5785 45.8682 47.2759 43.4095 47.2528 34.81C47.3541 33.1662 47.4059 31.2735 47.4205 29.854C47.482 28.3639 47.7553 26.8445 47.0997 25.2041L47.1011 25.2034ZM23.8916 21.7725C23.7232 22.1184 23.7721 22.6545 23.6309 22.9082C23.424 21.6467 22.7957 20.4054 21.869 19.5143C22.4414 19.1488 22.9495 18.7727 23.4653 18.3786C23.9643 18.0976 24.1705 17.4134 24.6681 18.1954C25.1203 18.6386 25.6431 18.9356 26.1274 19.1488C24.7541 19.9455 24.1537 20.9869 23.8923 21.7725H23.8916Z" fill="white"/>
<path d="M44.7472 29.8114C44.7255 31.2079 44.7018 32.6064 44.62 34.0014C44.5166 35.7522 44.4907 37.6777 43.8757 39.3474C42.3646 43.4528 37.5694 43.0062 33.8344 43.2376C32.0927 43.3459 30.3489 43.434 28.6044 43.4682C27.9488 43.4808 26.8669 43.6471 26.233 43.3026C26.1337 43.2488 26.0492 43.1894 25.9702 43.1278C24.3788 43.7373 22.6021 43.4689 20.908 43.4179C18.8664 43.3564 16.8165 43.2991 14.7827 43.0999C12.4231 42.8685 10.4459 42.3038 9.95737 39.6829C9.30668 36.1918 9.53104 32.4974 9.44996 28.963C9.42061 27.6644 9.25007 26.6768 10.072 25.6438C10.7213 24.8275 12.7481 25.0469 13.7266 25.1371C14.1089 25.1748 14.276 25.1483 14.2683 24.6479C14.3032 22.3463 15.6822 20.2943 18.2094 20.5704C20.346 20.8031 21.5342 23.1571 20.8534 25.0917C20.7563 25.323 20.7717 25.5956 21.1659 25.5711C22.6315 25.4936 24.8338 25.4188 26.0589 26.4937C26.3448 26.1519 26.6908 25.8626 27.0738 25.6277C26.992 25.511 26.9151 25.3852 26.848 25.2385C26.5321 24.5416 26.1743 23.3828 26.4301 22.6168C26.6593 21.9291 27.282 21.5104 27.923 21.2358C29.7674 20.3174 29.8848 18.1696 28.4199 17.1681C28.1564 16.9878 27.0486 16.7809 26.5405 16.2833C25.5243 15.288 25.1525 13.1158 25.2971 11.9626C25.5418 10.0098 26.1882 8.68188 28.3081 8.45264C31.6545 8.14302 35.0973 8.12555 38.4053 8.8007C40.4678 9.22214 42.2926 9.73025 43.3473 11.6823C44.381 13.5938 44.3425 16.3713 44.4718 18.4695C44.6151 20.7906 45.2267 23.4422 44.1196 25.5117C44.3125 25.6725 44.4788 25.8801 44.6011 26.1568C45.0554 27.1786 44.7647 28.7246 44.7479 29.81L44.7472 29.8114ZM14.1613 21.4245C15.7626 20.5466 14.2899 18.5212 15.3313 17.3764C16.43 16.1686 18.1354 18.3437 19.5388 17.7817C19.5954 17.7643 19.6527 17.7405 19.7107 17.707C20.3803 17.3114 21.0226 16.8857 21.6362 16.4077C22.0898 16.054 22.6462 15.7339 22.8342 15.158C23.2591 13.8587 22.8537 13.0592 22.2569 11.9255C23.4848 11.1337 23.6833 10.3229 23.791 9.85885C24.0251 8.85032 23.7721 7.76491 23.2836 6.87589C22.7594 5.92257 21.7501 5.53118 20.7339 5.39629C20.179 5.3229 19.5723 5.46059 19.0481 5.62413C18.8448 5.68773 18.6435 5.78628 18.4513 5.88413C18.1438 6.04139 18.0599 6.11198 17.8202 5.71849C17.1156 4.56668 16.4405 3.53089 15.2349 2.79982C14.3333 2.25327 12.6664 3.47567 11.9255 3.83352C8.80417 5.34177 6.00432 7.03873 3.70699 9.61423C2.98221 10.4257 2.30706 11.1379 2.90114 13.0291C3.98166 16.2176 5.72056 19.0083 7.8809 21.5761C9.91124 23.9909 11.8731 22.6769 14.1613 21.4231V21.4245Z" fill="black"/>
<path d="M25.367 41.159C25.3391 41.6238 25.1685 41.8768 24.6835 41.9641C23.473 42.1836 22.022 41.9725 20.908 41.9432C19.5849 41.9089 18.2633 41.8523 16.9416 41.7817C14.6764 41.6601 12.052 41.9152 11.3797 39.2915C10.8716 37.3108 11.047 35.003 11.0023 32.9761C10.9722 31.6384 10.9519 30.3007 10.9247 28.9636C10.9079 28.1543 10.4802 26.7635 11.8284 26.6153C12.486 26.5426 13.1381 26.5678 13.7937 26.6209C14.6107 26.609 15.1447 26.5678 15.4418 26.1687C15.7863 25.7053 15.75 25.1916 15.743 24.6492C15.7647 23.2123 16.3454 22.0053 17.9383 22.0164C19.3033 22.0255 19.81 23.6274 19.4326 24.701C19.2138 25.2699 19.2557 25.9464 19.6094 26.4545C19.7506 26.6565 19.9225 26.841 20.1419 26.9606C20.4704 27.1388 20.8108 27.0689 21.1666 27.0465C22.2925 26.9871 24.6737 26.7306 25.3412 27.9313C25.1944 28.5443 25.2133 29.116 25.2985 29.7772C25.3447 30.1385 25.9415 32.5176 25.5159 32.5994C25.4921 32.6036 25.4733 32.6127 25.4509 32.6183C24.1348 32.8482 23.0949 33.8113 22.9152 35.1952C22.8167 35.9535 23.004 36.6391 23.3982 37.2877C23.8245 37.9894 24.4822 38.2578 25.1091 38.6799C25.562 39.4019 25.4194 40.3105 25.3677 41.159H25.367Z" fill="#FFC522"/>
<path d="M28.4884 22.5853C28.5093 22.5776 28.5254 22.5657 28.5443 22.5567C28.5841 22.5434 28.624 22.5315 28.6645 22.5105C31.7167 20.9932 31.5112 17.0115 28.7092 15.65C28.3011 15.4508 27.6881 15.4082 27.3939 15.0049C26.9543 14.4038 26.8012 13.1521 26.7565 12.6628C26.6481 11.4621 26.9186 10.0776 28.3067 9.92729C32.2408 9.56386 37.3471 9.24166 40.9829 11.1315C42.7567 12.0534 42.7357 15.3103 42.8853 16.9737C43.0733 19.0698 43.9483 23.1298 42.6791 25.0588C41.8872 25.0385 41.0171 25.2258 40.3196 25.2866C39.1818 25.3866 38.0537 25.8206 38.0006 27.1583C37.9027 28.7246 37.7161 29.8198 35.9898 30.1895C34.6535 30.4754 32.3086 29.7198 33.0684 27.9411C33.3451 27.3722 33.5541 26.7942 33.234 26.1896C32.7972 25.3656 31.8963 25.1154 31.0576 25.1063C30.2839 25.0979 29.5032 25.1986 28.7435 25.0532C28.1822 24.9455 28.0201 24.2844 27.9236 23.8161C27.7936 23.1913 27.8698 22.8257 28.4884 22.5846V22.5853Z" fill="#5CFFCD"/>
<path d="M27.0661 31.5259C26.8166 29.7318 26.1959 27.6406 28.0711 26.739C28.5429 26.5119 30.0868 26.3707 31.4273 26.5804C32.1136 26.7649 31.8383 26.9844 31.7362 27.3618C30.7801 29.8681 32.7378 31.4819 35.1469 31.6985C36.3449 31.8062 37.6407 31.3812 38.5122 30.5628C39.3928 29.7367 39.4068 28.2655 39.476 27.1577C39.4956 26.6587 41.4812 26.6587 41.7796 26.6321C42.9762 26.5273 43.2802 26.7831 43.2837 27.9845C43.2886 29.7304 43.2501 31.4763 43.1823 33.2215C43.0901 35.6013 43.3012 40.2903 40.3944 41.0619C37.5309 41.8223 34.2216 41.7615 31.2798 41.9027C30.3887 41.9453 29.4962 41.9691 28.6037 41.9928C27.4072 42.025 26.8075 42.1941 26.883 40.8473C27.0193 38.3997 26.4643 37.7749 25.5984 37.243C25.0993 36.9355 24.6464 36.6853 24.4123 36.0199C24.1691 35.3294 24.55 34.5669 25.1553 34.2244C25.9891 33.754 26.4797 34.1671 26.9291 33.3473C27.1919 32.865 27.1604 32.1997 27.0668 31.5252L27.0661 31.5259Z" fill="#A952F0"/>
<path d="M4.32273 12.6392C3.99634 11.6006 4.26752 11.2085 4.68197 10.7367C6.26851 8.93282 8.09477 7.53359 10.2132 6.35103C11.2182 5.7905 12.2652 5.30266 13.301 4.80224C15.2307 3.86989 15.9464 5.48158 16.7879 6.85914C17.1122 7.39241 17.8663 7.94945 18.7169 7.45462C19.7352 6.86194 21.1966 6.42721 22.0101 7.62026C22.6867 8.61132 22.5217 10.0231 21.5069 10.6521C20.5571 11.2413 20.7402 12.2079 20.9827 12.6706C21.1714 13.0292 21.342 13.3017 21.4405 13.5862C21.6789 14.2809 21.7089 14.5213 21.1596 14.9665C20.9415 15.1434 20.6661 15.3076 20.5277 15.4124C20.0308 15.7885 19.5017 16.1177 18.965 16.4336C18.6148 16.6369 17.3994 15.7682 16.9989 15.6592C16.2057 15.4432 15.3768 15.6368 14.6785 16.0275C14.4255 16.1687 14.218 16.3658 14.0467 16.5929C13.3101 17.5693 13.4673 17.8293 13.5477 19.2474C13.5875 19.9512 13.3807 20.1595 12.9627 20.4258C12.2498 20.8787 11.3489 21.5063 10.6437 21.5475C9.23959 21.63 8.02558 19.4578 7.35462 18.5373C6.04555 16.739 5.03493 14.7436 4.32203 12.6399L4.32273 12.6392Z" fill="#00EBED"/>
<path d="M43.2739 29.1531C43.1656 31.6587 42.9608 34.1678 42.4848 36.6259C42.3269 37.4429 42.134 38.2774 41.7894 39.0385C41.1548 40.4356 39.4452 40.5552 38.1152 40.762C35.0987 41.2324 31.9207 41.4316 28.8693 41.3037C28.5624 41.2904 28.2549 41.2667 27.9509 41.2205C27.4812 41.1492 27.5399 40.2847 27.5134 39.9744C27.4554 39.2985 27.5183 38.2152 27.1919 37.5932C26.6258 36.5133 24.8044 36.507 24.3417 35.5314C24.3354 35.6942 24.3557 35.8599 24.4123 36.0213C24.6464 36.6867 25.0993 36.9369 25.5984 37.2444C26.4643 37.7763 27.0192 38.4011 26.883 40.8487C26.8082 42.1962 27.4071 42.0264 28.6037 41.9942C29.4962 41.9705 30.388 41.9467 31.2798 41.9041C34.2216 41.7629 37.5309 41.8237 40.3944 41.0633C43.3011 40.2917 43.0901 35.6027 43.1823 33.2229C43.2347 31.867 43.2627 30.5104 43.2732 29.1531H43.2739Z" fill="#6E28CD"/>
<path d="M39.9352 32.9559C39.2083 32.5855 38.4248 32.9273 37.6392 33.2879C35.5397 34.2489 34.7353 34.0574 32.686 33.2725C32.0095 33.0132 31.3392 32.6498 30.597 32.7364C29.6786 32.8441 29.4326 34.0532 29.3334 34.7745C29.1684 35.9696 29.1069 37.5464 29.5668 38.6695C30.0861 39.936 32.0549 39.734 33.1201 39.7787C36.0842 39.9045 40.1875 39.7801 40.9717 36.2653C41.2247 35.1281 41.0793 33.5395 39.9359 32.9566L39.9352 32.9559Z" fill="#C57DFF"/>
<path d="M10.6444 21.5467C11.3489 21.5055 12.2498 20.8779 12.9634 20.425C13.3814 20.1594 13.5889 19.9504 13.5484 19.2466C13.4687 17.8285 13.3115 17.5685 14.0474 16.5921C14.2187 16.365 14.4269 16.1686 14.6792 16.0267C15.3775 15.636 16.2064 15.4424 16.9996 15.6584C17.4001 15.7674 18.6155 16.6362 18.9657 16.4328C19.5024 16.1169 20.0315 15.7877 20.5284 15.4117C20.6668 15.3068 20.9415 15.1419 21.1603 14.9658C21.7096 14.5205 21.6796 14.2801 21.4412 13.5854C21.3427 13.3009 21.1728 13.0284 20.9834 12.6698C20.7409 12.2071 20.5571 11.2412 21.5076 10.6514C22.2967 10.1621 22.5651 9.20181 22.3302 8.33167C22.2156 8.79644 21.9822 9.24515 21.6188 9.70922C21.2784 10.1432 20.829 10.462 20.5082 10.9128C19.6464 12.1247 21.4825 13.6574 20.4858 14.6995C19.5248 15.7038 18.4541 15.8233 17.2324 15.2334C16.8179 15.0328 16.4195 14.898 15.9617 14.8469C14.9546 14.7344 14.0299 15.4061 13.4373 16.1385C12.6845 17.0681 13.0382 18.0438 12.89 19.1292C12.7293 20.3096 10.687 21.1036 9.77916 20.5703C9.11589 20.1797 8.60847 19.4395 8.17515 18.8307C7.45946 17.8257 6.82205 16.7564 6.12943 15.7339C5.40396 14.6631 4.54429 13.2597 4.18295 11.8598C4.18505 12.075 4.22419 12.3246 4.32274 12.6377C5.03563 14.7414 6.04626 16.7361 7.35532 18.5351C8.02558 19.4563 9.24029 21.6285 10.6444 21.5453V21.5467Z" fill="#19BFBB"/>
<path d="M16.7033 9.28857C16.3867 8.50998 15.7199 7.56994 14.984 6.91646C13.7294 5.80239 12.4413 6.51318 11.2399 7.24075C10.1503 7.90262 9.11798 8.6875 8.11155 9.42905C7.14774 10.1391 5.91905 11.3245 6.23706 12.6741C6.47609 13.6889 7.13377 15.0728 8.22966 15.3677C9.43669 15.692 10.3516 13.7924 10.9219 13.0809C11.5607 12.2841 12.5923 11.7592 13.5631 11.5174C14.2871 11.3371 15.0441 11.5076 15.7661 11.3427C16.8689 11.0918 17.1115 10.2915 16.704 9.28927L16.7033 9.28857Z" fill="#6CFFFB"/>
<path d="M11.0022 32.9769C11.047 35.0037 10.8715 37.3115 11.3797 39.2923C12.052 41.916 14.6771 41.6609 16.9416 41.7825C18.2633 41.8531 19.5849 41.9097 20.908 41.9439C22.022 41.9733 23.473 42.1844 24.6835 41.9649C25.1692 41.8775 25.3391 41.6245 25.367 41.1598C25.4187 40.3113 25.5613 39.4027 25.1084 38.6807C24.4815 38.2586 23.8231 37.9895 23.3975 37.2885C23.0033 36.6406 22.816 35.9543 22.9145 35.1959C23.0613 34.0637 23.7882 33.2215 24.7674 32.8231C23.6267 33.06 22.6636 34.0539 22.3463 35.2784C22.1066 36.2024 22.368 37.0697 22.9607 37.7805C23.3262 38.2187 24.3242 38.6905 24.5241 39.2182C24.6583 39.5718 24.694 40.0513 24.7345 40.4077C24.8449 41.3883 23.8231 41.2807 23.278 41.3072C21.6544 41.3869 20.0175 41.3149 18.394 41.2436C16.725 41.1702 14.0362 41.4177 12.6768 40.3483C11.8556 39.7025 11.7773 38.3893 11.6837 37.4506C11.567 36.2751 11.5327 35.0883 11.444 33.9099C11.3524 32.7036 11.3531 31.4966 11.2119 30.2937C11.1511 29.7661 11.0365 29.2461 10.91 28.7289C10.917 28.8114 10.9226 28.891 10.924 28.9651C10.9512 30.3021 10.9715 31.6406 11.0015 32.9776L11.0022 32.9769Z" fill="#FFA222"/>
<path d="M18.6253 37.547C16.2001 36.9607 15.5794 34.7388 15.2412 30.2112C15.0678 27.8832 12.6817 27.5358 12.4294 30.5069C12.347 31.4742 12.428 32.4722 12.4867 33.4234C12.8907 40.0526 13.3555 40.1512 18.6134 40.4433C22.0066 40.6279 21.9871 38.3578 18.6253 37.5463V37.547Z" fill="#FBE134"/>
<path d="M42.814 24.8163C42.2472 24.7562 41.6818 24.7478 41.1527 24.7911C40.0812 24.8785 38.3703 24.9645 37.7567 26.0303C37.4715 26.5258 37.4051 27.0172 37.382 27.5812C37.3247 28.9706 36.7915 29.8184 35.2881 29.7793C34.1314 29.7492 33.1305 29.3047 33.6086 27.9712C33.849 27.3009 33.8959 26.6146 33.6813 25.9317C33.2424 24.5325 31.7383 24.6178 30.5739 24.7066C30.0623 24.7457 29.4578 24.8065 29.0552 24.4396C28.3563 23.8043 29.167 22.8894 29.7219 22.4218C30.3104 21.9249 30.9374 21.2784 31.1918 20.5278C31.6503 19.1733 31.4371 17.4099 30.525 16.2658C29.9414 15.5347 29.2201 15.1573 28.4297 14.6855C27.1597 13.9265 26.8718 12.7894 26.7907 11.5153C26.7264 11.8864 26.7222 12.2841 26.7565 12.6636C26.8005 13.1528 26.9542 14.4046 27.3939 15.0056C27.6881 15.4089 28.3011 15.4522 28.7092 15.6507C31.5112 17.0122 31.7166 20.9939 28.6645 22.5113C28.624 22.5315 28.5841 22.5441 28.5443 22.5574C28.5254 22.5665 28.5093 22.5777 28.4884 22.5861C27.8691 22.8272 27.7936 23.1927 27.9236 23.8175C28.0201 24.2858 28.1822 24.947 28.7435 25.0546C29.5032 25.2 30.2839 25.0993 31.0576 25.1077C31.897 25.1161 32.7972 25.367 33.234 26.191C33.5541 26.7956 33.3451 27.3736 33.0683 27.9425C32.3086 29.7213 34.6535 30.4768 35.9898 30.1909C37.7161 29.8212 37.9027 28.726 38.0006 27.1597C38.0537 25.822 39.181 25.3887 40.3196 25.2881C41.0171 25.2265 41.8872 25.0399 42.6791 25.0602C42.7294 24.984 42.77 24.8995 42.8133 24.817L42.814 24.8163Z" fill="#27D89D"/>
<path d="M41.059 15.3139C40.7781 13.7113 40.0785 12.245 38.5066 11.5873C36.8005 10.8744 34.7262 10.6836 32.8985 10.9366C30.748 11.2323 31.0436 12.18 32.0402 13.322C32.916 14.3271 33.6694 15.3062 33.7421 16.7733C33.8106 18.1641 31.9662 21.0303 33.6729 22.064C35.2532 23.0208 37.7867 22.8189 39.5298 22.6686C40.8165 22.5568 41.3756 21.5035 41.5091 20.3454C41.6943 18.7456 41.3351 16.89 41.0583 15.3139H41.059Z" fill="#D3FFEB"/>
</svg>
