<svg width="35" height="48" viewBox="0 0 35 48" fill="none" xmlns="http://www.w3.org/2000/svg">
<g style="mix-blend-mode:multiply" opacity="0.3">
<path d="M6.02126 40.6418C7.0652 41.1319 8.20925 41.5534 9.43703 41.9018C10.2679 45.6484 13.3961 48.0149 17.5578 48.0003C21.6218 48.0003 24.6915 45.6899 25.6312 42.0991C27.5809 41.5312 29.1969 41.047 30.9569 39.9697C33.6753 38.1283 34.9687 35.5316 34.5056 32.8448C34.1022 30.5104 32.5254 28.7826 31.0359 27.4003C30.5593 26.9576 30.3685 26.2322 30.3562 24.8112C30.814 19.4826 29.4369 13.1529 24.366 10.4941C26.0065 4.51974 20.1516 -0.60568 14.4811 1.76206C11.0688 3.2135 9.21396 7.50517 10.5852 10.9725C7.15595 13.2137 5.35848 17.8509 5.36492 21.9364C5.36258 22.4405 5.37956 22.9359 5.39654 23.416C5.67231 27.6128 4.8614 26.84 2.62247 29.7177C-0.333696 33.7909 1.44211 38.5405 6.02126 40.6412V40.6418Z" fill="#231F20"/>
</g>
<path d="M1.4509 28.5461C3.68925 25.6684 4.50074 26.4413 4.22497 22.2444C4.20799 21.7643 4.1916 21.269 4.19336 20.7649C4.18692 16.6787 5.98438 12.0422 9.41362 9.80092C8.04181 6.33304 9.89724 2.04136 13.3095 0.590508C18.98 -1.77723 24.8344 3.34877 23.1938 9.32257C28.2648 11.9807 29.6425 18.3111 29.184 23.6397C29.1963 25.0607 29.3872 25.7861 29.8638 26.2287C31.3533 27.6111 32.9306 29.3389 33.3334 31.6732C33.7971 34.3601 32.5038 36.9567 29.7847 38.7981C28.0247 39.8748 26.4088 40.359 24.4591 40.9276C23.5194 44.5178 20.4496 46.8288 16.3857 46.8288C12.224 46.8434 9.0957 44.4768 8.26488 40.7302C7.0371 40.3819 5.89305 39.9609 4.84911 39.4703C0.269958 37.3695 -1.50585 32.62 1.45032 28.5467L1.4509 28.5461Z" fill="white"/>
<path d="M31.1261 32.0543C30.8316 30.3488 29.5582 29.001 28.3403 27.8704C27.1518 26.7673 26.9574 25.2058 26.9439 23.6589C26.9287 21.9832 27.1026 20.3005 26.8227 18.6371C26.5148 16.8045 25.8016 14.9415 24.6699 13.4596C23.5346 11.973 21.9262 10.9859 20.1346 10.4876C20.9672 9.4361 21.346 8.124 21.1844 6.74165C20.9965 5.13974 20.1364 3.66254 18.6967 2.87739C17.4168 2.18006 15.5502 2.0536 14.2088 2.64143C12.7229 3.2925 11.57 4.7861 11.2861 6.37806C11.0015 7.97295 11.4974 9.55144 12.5349 10.7283C12.039 10.9104 11.5571 11.127 11.1016 11.3881C9.45755 12.3308 8.28071 13.8367 7.53303 15.5598C6.8117 17.2226 6.44284 18.9638 6.43406 20.7748C6.42645 22.3984 6.64659 24.0863 6.29237 25.6865C6.12667 26.4342 5.82046 27.1373 5.27478 27.6865C4.57628 28.3891 3.85671 29.0244 3.27941 29.8406C2.50773 30.9296 2.03934 32.2516 2.30574 33.5895C2.6582 35.3571 4.23962 36.7073 5.80231 37.4409C7.21628 38.1048 8.7292 38.5814 10.2767 38.9257C10.4435 42.383 12.6994 44.5172 16.2194 44.5845C19.7781 44.653 22.25 42.5388 22.4989 39.0908C24.0809 38.7571 25.6312 38.2857 27.1084 37.6604C27.5968 37.4543 28.0856 37.2342 28.5294 36.942C30.1782 35.8255 31.4891 34.1557 31.1267 32.0532L31.1261 32.0543ZM17.1363 8.25984C16.5385 8.89393 15.494 8.72121 15.1134 8.36874C14.604 7.89566 14.4231 7.04435 15.2007 6.31307C15.8781 5.67547 16.5356 5.81013 17.0789 6.23754C17.6111 6.65675 17.7446 7.61462 17.1357 8.25984H17.1363Z" fill="#68182B"/>
<path d="M19.9016 6.48814C19.6575 5.32594 18.9092 4.24336 17.7745 3.7978C16.7979 3.4143 15.3886 3.36102 14.4635 3.8944C13.3745 4.52264 12.5648 5.65557 12.4483 6.92375C12.3429 8.07249 12.7761 9.2587 13.59 10.0761C13.8406 10.3284 14.0115 10.3073 14.3494 10.2494C14.9032 10.1551 15.463 10.1047 16.0198 10.1012C16.7815 10.0971 17.535 10.1006 18.2839 10.1656C18.6323 10.1961 18.7605 10.175 18.9467 9.97242C19.8185 9.02626 20.178 7.80024 19.9022 6.48814H19.9016ZM18.0397 8.24053C17.6633 9.0245 16.809 9.47007 15.9519 9.42264C15.09 9.37463 14.3324 8.8793 14.0461 8.052C13.7522 7.20303 14.0847 6.29493 14.7498 5.72524C15.1445 5.39854 15.6017 5.17722 16.1187 5.14092C16.658 5.10286 17.1732 5.32535 17.569 5.68192C18.3026 6.34177 18.4619 7.36521 18.0403 8.24111L18.0397 8.24053Z" fill="#FFC522"/>
<path d="M21.0896 40.1183C20.5128 42.2635 18.706 43.3081 16.2194 43.3508C13.8113 43.3918 12.1947 42.1148 11.6766 40.0568C11.5325 39.4871 11.7392 39.2196 12.4354 39.3208C13.5168 39.4778 14.6017 39.5802 15.6714 39.6358C17.2552 39.7184 18.8594 39.6516 20.4473 39.4444C20.9766 39.3753 21.2535 39.51 21.0896 40.1189V40.1183Z" fill="#FF7A0D"/>
<path d="M3.58797 31.9395C3.78353 31.2697 4.17054 30.6555 4.60907 30.1192C5.18227 29.4166 5.92995 28.8797 6.48851 28.1707C8.48212 25.6419 7.38081 22.1278 7.75376 19.198C7.96513 17.5399 8.59336 15.8378 9.54128 14.4619C10.5636 12.9777 12.1227 12.0479 13.8529 11.6135C15.0268 11.319 16.2019 11.329 17.401 11.3366C18.9906 11.3465 20.6106 11.7657 21.962 12.6147C23.4743 13.565 24.455 15.1148 25.0481 16.77C25.6108 18.342 25.7765 19.8901 25.7448 21.5493C25.7156 23.0945 25.5973 24.6876 25.982 26.2023C26.1564 26.8896 26.4515 27.546 26.8842 28.1086C27.4346 28.8247 28.1817 29.3639 28.7619 30.0589C29.4967 30.9395 30.156 32.1152 29.9159 33.3031C29.7508 34.1182 29.2437 34.7686 28.6401 35.3102C28.3632 35.5585 28.2209 35.6639 27.9059 35.877C26.8965 36.5433 25.6793 36.932 24.5323 37.2816C22.7161 37.8343 20.839 38.2184 18.9461 38.3712C15.3757 38.6598 11.6385 38.1745 8.23387 37.0696C6.62493 36.5468 5.00077 35.8723 4.04232 34.504C3.50308 33.7347 3.32274 32.85 3.58914 31.9401L3.58797 31.9395Z" fill="#FFC522"/>
<path d="M4.04114 34.5034C4.99959 35.8717 6.62375 36.5462 8.23269 37.0691C11.6379 38.1745 15.3751 38.6593 18.9449 38.3706C20.8378 38.2172 22.7149 37.8332 24.5311 37.281C25.6781 36.9315 26.8953 36.5427 27.9047 35.8764C28.2197 35.6633 28.3614 35.5585 28.6389 35.3097C29.2426 34.7681 29.7502 34.1176 29.9147 33.3026C30.1548 32.1146 29.4955 30.939 28.7607 30.0584C28.1805 29.3634 27.4334 28.8236 26.883 28.1081C26.4503 27.5454 26.1553 26.8891 25.9808 26.2017C25.5967 24.687 25.7144 23.0945 25.7437 21.5488C25.7612 20.6173 25.7138 19.7215 25.5715 18.8368C25.5715 18.8965 25.5715 18.9574 25.5715 19.0165C25.5756 20.2935 25.4591 21.5634 25.3725 22.8363C25.2144 25.1467 25.4931 27.2211 27.0054 29.0256C28.3731 30.6579 30.2924 32.5216 28.4978 34.6405C27.3854 35.9549 25.441 36.5234 23.8437 36.9432C20.1657 37.9104 15.9425 38.25 12.1807 37.5685C9.60743 37.1025 5.88896 36.4122 4.37721 34.0116C3.05224 31.908 5.33742 30.0549 6.58218 28.6251C7.32869 27.7668 7.68994 26.9166 7.79533 25.779C7.84041 25.2878 7.79416 24.7977 7.71277 24.3123C7.65188 25.7029 7.38197 27.0366 6.48733 28.1713C5.92877 28.8804 5.18109 29.4173 4.6079 30.1199C4.16995 30.6568 3.78293 31.2709 3.58679 31.9402C3.32039 32.85 3.50073 33.7347 4.03997 34.504L4.04114 34.5034Z" fill="#FFA222"/>
<path d="M14.7492 5.72522C15.1439 5.39851 15.6011 5.1772 16.1181 5.1409C16.6574 5.10284 17.1726 5.32533 17.5684 5.68189C18.2827 6.32477 18.4478 7.31132 18.0672 8.17142C18.5497 7.47116 18.4016 6.3435 17.8225 5.74981C16.8559 4.76091 15.3851 4.77438 14.4465 5.80836C13.9512 6.35404 13.7639 7.27268 14.0297 7.98757C13.7732 7.15734 14.1011 6.28027 14.7492 5.72463V5.72522Z" fill="#FFA222"/>
<path d="M12.4483 6.92379C12.3429 8.07253 12.7761 9.25875 13.59 10.0761C13.8406 10.3284 14.0115 10.3074 14.3494 10.2494C14.9032 10.1551 15.463 10.1048 16.0198 10.1013C16.7815 10.0972 17.535 10.1007 18.2839 10.1657C18.6323 10.1961 18.7605 10.175 18.9467 9.97246C19.8185 9.0263 20.178 7.80028 19.9022 6.48819C19.8068 6.0356 19.6335 5.59648 19.3922 5.20068C19.7066 6.0801 19.7646 7.02274 19.5696 8.01164C19.3635 9.05441 18.9625 10.0398 17.6211 9.82082C17.0743 9.73182 16.5139 9.74353 15.963 9.76286C15.5168 9.77866 15.073 9.84307 14.6339 9.91977C13.4776 10.1223 12.9682 8.70077 12.7486 7.88283C12.58 7.25635 12.5665 6.57777 12.693 5.92845C12.5665 6.24579 12.4799 6.57894 12.4483 6.92379Z" fill="#FFA222"/>
<path d="M16.0812 12.8794C14.3892 12.9034 12.7117 13.5925 11.5033 14.7858C9.8463 16.4222 9.71223 19.1337 9.74033 21.3082C9.75907 22.7268 9.88729 24.1437 9.7901 25.5612C9.67827 27.2059 8.96631 28.3435 7.98502 29.5941C6.97328 30.8839 5.82337 32.4759 6.98792 34.0357C7.91944 35.2828 9.8545 35.8191 11.3329 35.5556C13.2217 35.219 14.0115 32.9566 14.2832 31.3348C14.741 28.6034 13.9184 25.8048 13.5209 23.1185C13.1251 20.4446 12.7427 17.1916 14.6315 14.9854C15.083 14.4579 15.648 13.9983 16.2581 13.6318C16.9759 13.2003 17.3471 12.8613 16.0801 12.8788L16.0812 12.8794Z" fill="#FBE134"/>
<path d="M13.0853 5.17956C14.4647 3.87391 16.2264 3.76267 17.0924 3.90377C17.939 4.04195 18.6966 4.44535 19.2851 5.04256C18.9133 4.49571 18.4068 4.04605 17.7745 3.7978C16.7979 3.4143 15.3886 3.36102 14.4635 3.8944C13.9155 4.21057 13.4389 4.65496 13.0847 5.17956H13.0853Z" fill="#FBE134"/>
<path d="M11.6502 39.6289C11.6262 39.7437 11.6327 39.8842 11.6766 40.0563C12.1947 42.1143 13.8107 43.3913 16.2194 43.3503C18.4736 43.3117 20.1651 42.4469 20.8917 40.6887C18.3752 43.3948 12.9582 43.4311 11.6502 39.6289Z" fill="#EF6200"/>
<path d="M17.4736 40.2044C16.2265 40.229 14.9893 40.195 13.7516 40.0838C13.2715 40.0404 12.7024 39.9684 13.3973 40.5984C14.107 41.2413 15.2428 41.6178 16.0854 41.6909C16.9413 41.7653 19.2066 41.8057 19.521 40.664C19.7195 39.9403 17.7763 40.1985 17.4741 40.2044H17.4736Z" fill="#FFB85A"/>
</svg>
