<svg width="48" height="48" viewBox="0 0 48 48" fill="none" xmlns="http://www.w3.org/2000/svg">
<g style="mix-blend-mode:multiply" opacity="0.3">
<path d="M43.864 11.7999C28.0527 -11.1912 -6.16396 6.65597 2.6246 32.7095C1.5222 36.3686 3.134 41.7447 7.91951 41.6557C8.19917 41.6557 8.48004 41.6364 8.7597 41.5967C13.3918 45.6509 19.1799 47.9766 24.8838 48C30.1793 48 35.7599 45.5132 40.4305 41.121C41.1667 41.4488 41.996 41.6719 42.8446 41.6719C44.4739 41.6719 45.8036 40.8449 46.4928 39.4033C47.5477 37.1955 46.7533 34.8963 46.1127 33.2743C49.2227 26.1282 48.436 18.534 43.864 11.7993V11.7999Z" fill="#231F20"/>
</g>
<path d="M42.6606 10.5959C26.8492 -12.3946 -7.36801 5.45254 1.42116 31.5061C0.318754 35.1651 1.93056 40.5412 6.71607 40.4522C6.99573 40.4522 7.27659 40.433 7.55625 40.3933C12.1884 44.4475 17.9765 46.7732 23.6803 46.7966C28.9759 46.7966 34.5564 44.3097 39.2271 39.9176C39.9632 40.2453 40.7926 40.4685 41.6412 40.4685C43.2704 40.4685 44.6002 39.6415 45.2894 38.1999C46.3443 35.9921 45.5498 33.6929 44.9093 32.0708C48.0192 24.9247 47.2326 17.3306 42.6606 10.5959Z" fill="white"/>
<path d="M40.7565 11.889C36.9236 6.24341 30.545 2.32576 23.6593 2.21029C17.1928 2.10203 10.8725 5.48803 6.82853 10.4107C2.0316 16.2487 1.0561 24.5098 3.86353 31.4508C3.82804 31.5374 3.78895 31.6222 3.75948 31.71C3.05161 33.8198 3.24527 37.474 5.93723 38.067C6.71426 38.2384 7.48468 38.1386 8.19797 37.8595C12.2455 41.7651 17.7467 44.3945 23.4241 44.4938C29.2778 44.596 34.9756 41.1553 38.8843 37.0067C39.9794 37.9714 42.3791 38.9499 43.2115 37.2088C43.932 35.7004 43.1429 33.8607 42.5746 32.4317C42.5168 32.2867 42.4537 32.1436 42.3936 31.9993C42.4206 31.9644 42.4447 31.9247 42.4663 31.8796C45.6893 25.1437 44.9075 18.0048 40.7553 11.8896L40.7565 11.889Z" fill="black"/>
<path d="M6.74975 36.8623C5.05073 36.9922 4.64778 34.9799 4.62252 33.6694C4.59065 32.0353 5.75921 30.7374 6.69021 29.528C8.15587 27.6251 9.62875 25.7282 11.092 23.8229C12.4614 22.0403 12.4669 20.1362 11.5798 18.0811C10.2879 15.0873 12.3033 11.1702 14.5291 9.13861C15.0542 8.70258 14.9958 9.17289 14.8695 9.47781C14.2182 11.0565 12.9522 12.4067 12.8891 14.2212C12.8319 15.8817 14.6416 16.6624 15.4836 15.0536C16.3129 13.4147 17.0605 11.6598 18.2387 10.2338C18.9057 9.47781 18.8774 9.91324 18.7649 10.4948C18.4426 12.1463 17.677 13.6661 17.0004 15.1997C16.7502 15.7687 16.509 16.2203 16.6738 16.8464C16.7598 17.1772 16.9721 17.4575 17.3576 17.5958C18.2212 17.9049 18.9351 17.3636 19.453 16.7225C20.0772 15.9491 20.5241 15.0542 20.9186 14.1484C21.1303 13.6625 21.2777 13.0966 21.5134 12.6052C21.8147 11.9779 22.1738 12.4248 22.1455 12.88C21.9621 15.56 20.4249 18.4883 18.2351 20.0237C16.4086 21.3041 13.8435 21.2187 12.7273 23.4909C11.9442 25.0871 11.8035 27.5319 11.415 29.2333C10.7805 32.007 10.4034 36.5832 6.74915 36.8623H6.74975Z" fill="#E5E5E5"/>
<path d="M19.29 14.6248C19.1661 14.8575 19.038 15.0879 18.9009 15.314C18.7361 15.5858 18.5472 15.839 18.3433 16.082C18.1016 16.3671 17.8893 16.3172 18.0468 15.9569C18.1743 15.6652 18.3048 15.3741 18.4378 15.0824C18.715 14.9164 19.0001 14.7661 19.2906 14.6248H19.29Z" fill="#FFC522"/>
<path d="M28.1146 23.3461C28.9843 24.8592 30.0518 27.2409 31.4958 28.4239C29.0721 31.8327 24.9854 33.8811 20.8495 32.6651C17.102 31.5633 14.3114 28.4654 13.7701 24.6096C14.5472 22.1017 17.8863 21.9844 19.7687 20.4394C21.6698 18.8793 22.9797 16.1242 23.3345 13.6199C23.809 13.6133 24.2794 13.6397 24.7479 13.7077C24.5686 17.0432 26.3585 20.2866 28.1146 23.3455V23.3461Z" fill="#FFC522"/>
<path d="M26.5612 11.4199C27.0002 10.3776 27.3803 9.83334 28.526 10.62C30.5636 12.0177 33.4288 16.9067 33.9213 17.7498C34.8337 19.3135 35.6558 20.9308 36.4142 22.5744C36.721 23.239 37.0006 23.915 37.2628 24.5988C37.7001 25.7415 37.3097 26.21 36.3144 26.9089C35.5783 27.4255 34.613 27.9584 33.7084 28.0474C32.5248 28.1646 31.7803 26.7495 31.2137 25.9207C30.21 24.4515 29.3078 22.9106 28.449 21.353C26.6887 18.1618 25.1135 14.8606 26.5612 11.4199Z" fill="#E5E5E5"/>
<path d="M23.4253 43.2242C18.2838 43.318 13.0556 40.6628 9.36172 37.21C10.2121 36.5803 10.8983 35.701 11.2778 34.7718C12.3556 32.1322 12.8301 29.1738 13.3894 26.3363C14.4443 29.7428 17.1279 32.2615 20.6474 33.4C25.051 34.8242 29.5622 32.4443 32.1309 28.8502C33.0998 29.3657 34.1204 29.332 35.0977 28.9994C35.983 30.2924 36.8009 31.6029 37.4048 33.0578C37.7825 33.9677 37.771 35.0431 38.1397 35.9518C34.3489 40.0379 29.11 43.1208 23.4253 43.2248V43.2242Z" fill="#FFF18A"/>
<path d="M41.3645 36.857C39.3191 36.934 39.1759 34.7105 38.8434 33.3104C38.4308 31.5747 37.2839 29.9238 36.2663 28.4581C36.6951 28.2109 37.1071 27.9241 37.4914 27.6185C37.8179 27.3587 38.0699 27.1158 38.2624 26.88C39.8291 29.3963 41.3363 32.0865 42.0868 34.9475C42.2498 35.5687 42.5421 36.8137 41.3651 36.8582L41.3645 36.857Z" fill="#DDA96B"/>
<path d="M41.7079 30.4698C40.8768 28.7474 39.9007 27.0869 38.8831 25.4793C38.844 25.4167 38.7983 25.3698 38.7489 25.3277C38.6966 24.8339 38.4988 24.2806 38.2251 23.5932C37.2688 21.1905 36.054 18.8859 34.7519 16.6552C33.9646 15.3074 31.2853 10.5141 28.7822 9.1988C27.0122 8.269 26.0794 9.37321 25.4684 10.7444C25.1388 11.4842 24.9319 12.2209 24.8254 12.9541C24.3575 12.8873 23.8866 12.8554 23.4133 12.8584C23.4163 12.8151 23.4211 12.7706 23.4235 12.7273C23.4259 12.672 23.4217 12.6209 23.4133 12.5728C23.3628 11.892 22.9851 11.3681 22.3169 11.136C22.0884 11.0566 21.8183 11.0343 21.5567 11.071C20.8374 11.1715 20.5722 11.5786 20.313 12.1734C20.1145 12.6299 19.9684 13.1279 19.7861 13.5795C19.5005 13.692 19.219 13.8141 18.9442 13.9476C19.3206 13.0822 19.6653 12.2047 19.8884 11.2929C20.0436 10.659 20.1759 9.94576 20.0213 9.36358C19.9335 9.0322 19.7507 8.73811 19.4193 8.54565C18.6422 8.09639 17.8291 8.78502 17.3432 9.33712C16.0874 10.8569 15.2737 12.6672 14.389 14.4131C14.039 15.0819 14.3114 13.5741 14.3553 13.4154C14.5466 12.7237 14.8659 12.0718 15.1907 11.4349C15.4246 10.976 15.7211 10.5315 15.9587 10.066C16.2793 9.43876 16.3935 9.25413 16.1127 8.62745C15.9948 8.36523 15.7981 8.13608 15.5401 7.94964C14.9164 7.50159 14.1538 7.80771 13.6336 8.24133C11.4643 10.2206 10.0419 13.2289 9.91683 16.1554C9.84646 17.8087 10.8629 19.1998 10.9813 20.8273C11.0902 22.3248 9.6498 23.6347 8.82766 24.7058C7.90568 25.9057 6.97708 27.1001 6.0515 28.2969C5.62389 28.8502 5.12411 29.4246 4.68447 30.0308C2.60957 23.9601 3.47681 17.3408 7.17736 12.0345C10.6602 7.0403 16.6215 3.9111 22.6417 3.50575C29.2994 3.05769 35.4526 6.89956 39.3377 12.0748C43.4154 17.5056 44.3572 24.262 41.7091 30.4692L41.7079 30.4698Z" fill="#FFF18A"/>
<path d="M38.1391 35.9518C37.7704 35.0431 37.7819 33.9677 37.4042 33.0578C36.7997 31.6029 35.9824 30.2924 35.0971 28.9994C34.1198 29.3314 33.0992 29.3651 32.1303 28.8502C29.5616 32.4449 25.0504 34.8248 20.6468 33.4C17.1273 32.2615 14.4437 29.7428 13.3888 26.3363C12.8301 29.1738 12.3556 32.1322 11.2772 34.7718C10.8977 35.701 10.2121 36.5803 9.36112 37.21C9.52771 37.3664 9.70212 37.5191 9.87473 37.6719C10.6566 37.201 11.2297 36.3716 11.6766 35.5789C12.0128 34.9829 12.2353 34.355 12.4145 33.6983C12.6461 32.8485 12.8163 31.7028 13.5753 31.1471C14.6127 30.3887 15.984 31.7581 16.7051 32.377C17.4689 33.0331 18.3205 33.5642 19.2268 33.999C20.8092 34.758 22.6862 35.0262 24.4183 34.743C26.1606 34.4573 27.7544 33.7632 29.2026 32.7613C30.5185 31.8501 31.9499 30.2702 33.6904 30.3129C35.3539 30.355 35.9235 32.982 36.2723 34.1909C36.5574 35.1796 36.7787 36.1768 36.8984 37.195C37.3254 36.792 37.741 36.3788 38.1367 35.9524L38.1391 35.9518Z" fill="#F3AF79"/>
<path d="M42.4447 28.4022C44.1034 22.7909 42.9655 16.9078 39.3365 12.0748C35.4508 6.8996 29.2982 3.05832 22.6405 3.50578C16.6197 3.91114 10.6584 7.04033 7.17615 12.0345C4.68447 15.6076 3.48343 19.776 3.59409 23.9715C3.75888 22.8336 4.00727 21.7066 4.26708 20.6168C4.83302 18.2406 5.5872 15.8842 6.7732 13.7408C9.4808 8.8488 14.638 5.68653 20.0562 4.6978C23.014 4.15832 26.2274 4.23651 29.1052 5.1218C31.8555 5.968 34.3255 7.62431 36.3926 9.59577C38.5842 11.6851 40.2176 14.2814 41.3555 17.075C42.571 20.0605 42.9096 23.1079 42.6467 26.3044C42.589 27.0045 42.5162 27.7033 42.4447 28.4016V28.4022Z" fill="#FFF7CF"/>
<path d="M22.1461 12.8801C22.1485 12.8344 22.1467 12.7886 22.1425 12.7441C22.0024 14.033 21.3601 15.2984 20.746 16.3936C19.8703 17.9549 18.6236 19.2822 17.004 20.0688C15.7867 20.6606 14.4852 20.9788 13.3936 21.816C12.4488 22.5407 12.1222 23.6515 11.8366 24.7557C11.1744 27.3184 11.0084 29.9676 10.1117 32.4738C9.49463 34.1974 8.21601 36.2152 6.42318 36.8581C6.52662 36.8683 6.63488 36.8707 6.74975 36.8623C10.4034 36.5833 10.7805 32.0071 11.4156 29.2333C11.8041 27.5319 11.9448 25.0871 12.7279 23.4909C13.8441 21.2188 16.4092 21.3042 18.2357 20.0237C20.4255 18.4889 21.9627 15.5606 22.1461 12.8801Z" fill="#C6C6C6"/>
<path d="M37.3464 24.8659C37.095 25.2652 36.7847 25.6261 36.3697 25.9406C35.458 26.6316 34.097 27.3064 33 26.7459C32.102 26.287 31.5529 25.2147 31.0014 24.4148C30.3712 23.5024 29.8082 22.545 29.2766 21.5725C27.7363 18.7542 26.1744 15.1992 26.4042 11.8457C25.2519 15.1331 26.7614 18.2935 28.4484 21.353C29.3078 22.9106 30.2094 24.4515 31.2131 25.9208C31.7797 26.7495 32.5242 28.1647 33.7078 28.0474C34.6124 27.9584 35.5777 27.4255 36.3138 26.9089C37.2255 26.269 37.6213 25.8155 37.3464 24.8659Z" fill="#C6C6C6"/>
<path d="M35.307 22.4337C34.3508 20.5139 32.9861 18.1431 31.8861 16.2968C31.7286 16.0328 30.5353 13.8676 29.4233 12.5956C28.1555 11.1462 27.7129 11.8902 27.8692 13.0641C28.019 14.1924 28.5633 15.272 29.039 16.2992C29.9405 18.2454 30.9461 20.1182 32.0052 21.9826C32.3564 22.6003 32.6854 23.2558 33.1106 23.8302C34.7549 26.05 36.671 25.1719 35.307 22.4337Z" fill="#F4F4F4"/>
<path d="M8.975 27.6636C8.07287 28.7949 7.20923 29.9641 6.42077 31.1687C5.23176 32.9856 5.27145 34.3827 5.927 34.6395C7.45281 35.2379 8.56183 32.4209 9.15002 30.4891C9.40141 29.6616 9.63416 28.8202 9.8182 27.9704C10.0431 26.9287 9.91322 26.4879 8.97561 27.6636H8.975Z" fill="#F4F4F4"/>
<path d="M15.83 17.324C15.6225 17.0034 15.1913 16.9697 14.8515 16.9535C14.321 16.9282 13.8188 16.8711 13.3359 16.7316C12.693 16.5463 12.18 16.6402 12.3105 17.443C12.4368 18.2183 12.7207 19.0176 13.1934 19.521C13.7822 20.1488 15.1588 19.5017 15.7753 19.2329C16.6383 18.8552 16.2167 17.9212 15.83 17.3246V17.324Z" fill="#F4F4F4"/>
<path d="M31.4958 28.4244C30.0524 27.2414 28.9843 24.8597 28.1146 23.3466C26.3585 20.2883 24.5692 17.0443 24.7479 13.7088C24.2794 13.6402 23.809 13.6144 23.3345 13.621C22.9791 16.1253 21.6692 18.8804 19.7687 20.4405C17.8863 21.9856 14.5472 22.1028 13.7701 24.6108C13.9373 25.8016 14.3204 26.9196 14.8792 27.93C14.8792 27.4675 14.9315 27.0008 15.0572 26.5239C15.4361 25.0889 16.6978 23.9823 17.796 23.0693C19.0121 22.0589 20.4068 21.2993 21.6187 20.2805C23.3941 18.7878 23.367 18.7884 24.3058 20.8513C25.0251 22.4318 25.9567 23.9137 26.9539 25.2098C27.8374 26.3579 29.4486 28.1597 31.0959 28.95C31.2324 28.778 31.3677 28.6042 31.4958 28.4238V28.4244Z" fill="#FFA222"/>
<path d="M19.29 14.6248C19.0001 14.7661 18.715 14.9164 18.4372 15.0824C18.3686 15.2334 18.303 15.3843 18.2351 15.5347C18.4372 15.4649 18.6422 15.4162 18.8473 15.3928C18.8642 15.3663 18.8834 15.341 18.9003 15.314C19.0374 15.0879 19.1655 14.8575 19.2894 14.6248H19.29Z" fill="#FFA222"/>
<path d="M26.0121 26.5107C25.1749 25.5297 23.975 24.5181 23.3171 23.3219C22.9274 22.6147 22.3428 22.0313 21.1544 22.7981C19.4109 23.9233 17.8105 25.706 17.4424 27.5138C16.9138 30.112 20.2763 31.1951 22.2754 31.3713C24.0045 31.5241 26.8101 31.4056 27.2185 29.3415C27.426 28.2903 26.6568 27.2648 26.0127 26.5107H26.0121Z" fill="#FBE134"/>
<path d="M41.3645 36.857C41.5564 36.8497 41.7061 36.8076 41.827 36.7445C40.9098 36.7054 40.1106 35.7858 39.7756 34.8987C39.4261 33.9744 39.357 32.9712 38.9967 32.045C38.6401 31.129 38.0645 30.3412 37.7921 29.3843C37.5635 28.5808 37.9418 27.8399 38.0964 27.0682C37.9304 27.2445 37.7313 27.4261 37.492 27.6173C37.1077 27.9229 36.6963 28.2097 36.2669 28.4569C37.2851 29.9226 38.432 31.5741 38.844 33.3092C39.1766 34.7099 39.3197 36.9327 41.3651 36.8558L41.3645 36.857Z" fill="#C48D51"/>
</svg>
