<svg width="54" height="48" viewBox="0 0 54 48" fill="none" xmlns="http://www.w3.org/2000/svg">
<g style="mix-blend-mode:multiply" opacity="0.3">
<path d="M46.9773 8.01492C46.1421 7.8245 45.2709 7.72452 44.3195 7.70956C44.2753 7.0213 44.0753 6.32624 43.7115 5.65498C40.9435 0.485553 30.7488 1.59547 25.8779 1.36084C21.7354 1.56011 11.9978 0.886131 10.0343 6.23647C9.86159 6.74314 9.76638 7.24641 9.74598 7.73744C6.01224 7.88774 3.42514 9.40505 2.04998 12.2526C-0.396331 16.9072 4.12156 22.752 8.53268 24.9358C10.1853 25.8355 11.9284 26.4701 13.5783 27.1366C15.197 29.7264 17.967 30.9614 20.2168 31.9809C20.9057 32.2951 21.6423 32.4808 22.3475 32.8045C22.2544 34.5911 20.7289 35.1985 18.8722 35.831C16.6667 36.6301 13.6457 37.7243 12.7813 41.0228C12.3106 42.8203 12.8418 44.1241 13.3709 44.9014C15.8791 48.8684 26.6573 47.8612 31.3996 47.9401C34.3785 47.9687 37.9517 48.0129 40.0831 46.197C42.2737 44.3655 42.2663 42.4143 42.0663 41.4139C41.3848 37.9971 36.9472 36.3614 35.6033 35.9418C34.8137 35.748 32.5612 34.6931 32.3674 33.0766C33.1992 32.2713 35.3292 31.7055 36.4847 31.0567C38.3876 30.0821 39.9308 28.7042 41.0836 26.9529C42.6444 26.3796 44.2542 25.7818 45.8225 24.9698C50.0418 22.9329 54.572 17.2874 52.5976 12.7641C51.6346 10.3402 49.5848 8.60865 46.9766 8.01424L46.9773 8.01492Z" fill="#231F20"/>
</g>
<path d="M51.2374 11.4039C53.2117 15.9272 48.6816 21.5727 44.4623 23.6096C42.894 24.421 41.2848 25.0195 39.7233 25.5928C38.5706 27.344 37.0274 28.7219 35.1245 29.6965C33.9697 30.3453 31.839 30.9112 31.0072 31.7164C31.2017 33.333 33.4535 34.3885 34.2431 34.5817C35.587 35.0013 40.0246 36.6369 40.7061 40.0537C40.9054 41.0542 40.9128 43.0054 38.7229 44.8369C36.5915 46.6527 33.0189 46.6085 30.0394 46.58C25.2971 46.5011 14.5189 47.5076 12.0107 43.5413C11.4816 42.7639 10.9504 41.4608 11.421 39.6627C12.2854 36.3635 15.3058 35.2692 17.512 34.4708C19.3687 33.8383 20.8941 33.231 20.9873 31.4444C20.2814 31.1206 19.5455 30.935 18.8566 30.6208C16.6068 29.6013 13.8367 28.3662 12.2181 25.7764C10.5682 25.1099 8.8251 24.4754 7.17246 23.5756C2.76066 21.3918 -1.75724 15.5471 0.689078 10.8925C2.06424 8.04421 4.65133 6.52759 8.38507 6.37728C8.40548 5.88625 8.50069 5.38298 8.67344 4.87631C10.6376 -0.474709 20.3745 0.199269 24.517 0C29.3872 0.234634 39.5819 -0.875967 42.3506 4.29414C42.7144 4.96608 42.9144 5.66046 42.9586 6.34872C43.91 6.36368 44.7812 6.46366 45.6164 6.65408C48.2253 7.24849 50.2744 8.98002 51.2374 11.4039Z" fill="white"/>
<path d="M48.819 12.3649C48.158 10.7013 46.7746 9.58734 45.0377 9.19152C43.0538 8.73926 40.9863 9.00517 38.9909 9.30034C38.9664 9.15072 38.9406 9.00381 38.9154 8.85691C40.0471 8.12513 40.8245 6.93835 40.0634 5.53463C39.2473 4.03093 37.6321 3.61335 36.0672 3.25426C32.8897 2.62857 29.5559 2.63741 26.3309 2.61089C22.7297 2.58164 19.0164 2.58913 15.4629 3.24814C14.0143 3.56099 11.6829 4.11323 11.1368 5.71554C10.5859 7.33009 11.5659 8.38492 12.8772 8.99293C12.8588 9.09971 12.8411 9.20852 12.8228 9.31666C9.36921 8.80999 4.82547 8.30875 3.03273 12.0235C2.0976 13.9611 2.88107 16.0041 4.09505 17.6139C5.26618 19.1645 6.6835 20.3662 8.39531 21.2789C10.1853 22.2331 12.0964 22.9404 13.9959 23.6429C14.1313 23.8993 14.2714 24.153 14.4257 24.3999C15.6193 26.315 17.965 27.3604 19.9298 28.2499C20.9676 28.7199 23.0582 29.1238 23.4289 30.3351C23.8948 31.8551 23.2908 33.5574 22.3224 34.7238C20.1937 37.2864 14.8474 36.8511 13.9381 40.3217C13.2655 42.8911 16.3171 43.4372 18.0364 43.644C21.7946 44.0955 25.6419 44.0867 29.4199 43.984C31.4561 43.9282 35.3415 44.271 37.0526 42.8401C40.3008 40.1244 35.7754 37.7869 33.4665 37.0654C31.4323 36.4301 29.4736 35.1332 28.6895 33.0813C27.268 29.3592 31.4711 28.6423 33.9371 27.3794C35.7999 26.4252 37.0948 25.0603 37.9742 23.4518C38.0048 23.4443 38.0347 23.4396 38.0667 23.4273C39.822 22.7792 41.5998 22.159 43.266 21.2973C44.973 20.4145 46.3822 19.2121 47.5506 17.686C48.6973 16.1877 49.5624 14.2392 48.8176 12.3642L48.819 12.3649ZM10.7967 18.0831C9.85684 17.6696 8.86662 17.1698 8.20964 16.3564C7.65128 15.6647 6.89025 14.2045 7.75398 13.4591C8.38511 12.9151 9.39301 12.8797 10.1806 12.9001C10.6546 12.9123 11.1279 12.9606 11.5945 13.0497C12.2005 13.1667 12.3229 13.3503 12.2882 14.0529C12.212 15.6014 12.2481 17.165 12.4623 18.6837C11.8944 18.5184 11.3415 18.3232 10.7967 18.0831ZM43.9658 15.6198C43.4299 16.6515 42.5295 17.2949 41.51 17.8022C41.1883 17.9628 40.8557 18.0995 40.5293 18.2504C39.5357 18.7088 39.4724 18.4742 39.5336 17.7023C39.6356 16.425 39.6241 15.1172 39.5397 13.8244C39.4969 13.166 39.839 12.9015 40.4048 12.8368C40.6612 12.8076 40.9197 12.7913 41.1781 12.7852C41.9976 12.7654 42.9151 12.8226 43.6428 13.2388C43.9522 13.4163 44.2222 13.6659 44.2984 14.0277C44.4106 14.5623 44.2086 15.1512 43.9658 15.6198Z" fill="black"/>
<path d="M12.1481 21.4347C10.0139 20.6138 7.89476 19.6324 6.32033 18.0084C5.20565 16.8583 3.83049 15.2376 4.05424 13.5095C4.25555 11.9487 5.59874 10.9034 7.04735 10.5756C8.59798 10.2239 10.2431 10.3858 11.825 10.6102C12.4807 10.7027 12.5929 10.7728 12.5167 11.4189C12.4793 11.7283 12.446 12.0398 12.4147 12.3527C11.7883 12.1561 11.096 12.0888 10.4655 12.0521C9.45898 11.9942 8.28241 12.0554 7.41937 12.639C6.28904 13.4041 6.3897 14.7718 6.91337 15.8898C7.50846 17.1616 8.61702 17.9907 9.85072 18.5912C10.745 19.0265 11.6605 19.3624 12.6194 19.6168C12.7024 20.0432 12.8003 20.4655 12.9146 20.8811C13.1349 21.6782 13.0377 21.7761 12.1481 21.4347Z" fill="#FF7A0D"/>
<path d="M37.9755 18.3389C37.6593 21.8631 36.3474 24.3958 33.2148 26.1416C31.4792 27.108 28.4868 27.4467 27.451 29.2728C26.5675 30.8323 27.0484 33.0868 27.7924 34.5742C28.5412 36.0717 30.1034 37.1198 31.5547 37.8373C32.8673 38.4861 38.1394 39.5321 36.3392 41.5751C35.6666 42.3389 33.8024 42.2749 32.9054 42.3572C30.944 42.5388 28.9683 42.5762 27.0001 42.5905C23.5595 42.6157 19.908 42.6782 16.5238 41.9689C15.9043 41.8397 15.5887 41.6363 15.3534 40.9657C14.8542 39.5457 17.8133 38.767 18.6186 38.5378C20.1093 38.1141 21.4743 37.3551 22.6747 36.3853C23.9206 35.3787 24.8707 33.7342 24.9482 32.1177C25.0557 29.8672 24.6068 28.7369 22.5278 27.8222C19.9679 26.6966 16.9326 25.707 15.3792 23.2138C13.6776 20.4825 13.6559 16.7393 13.7688 13.6401C13.8198 12.2261 14.0122 10.8217 14.2523 9.42957C17.8874 10.3259 21.6423 10.3314 25.3794 10.3259C29.2261 10.3205 33.814 10.6646 37.5668 9.46697C38.0571 12.407 38.2435 15.3607 37.9755 18.3375V18.3389Z" fill="#FFC522"/>
<path d="M37.6219 7.94213C34.0731 9.21392 29.6545 8.85483 25.9446 8.88951C21.9102 8.92692 17.8072 8.97044 13.8994 7.86596C13.0349 7.57352 11.7944 6.85398 12.7275 5.84879C13.424 5.09864 14.8869 4.83816 15.8438 4.63209C19.079 4.03225 22.4591 4.04993 25.7378 4.04449C29.0159 4.03837 32.4552 4.003 35.6856 4.63821C36.5419 4.83476 37.4621 5.05035 38.2224 5.4999C39.1575 6.05418 39.0664 7.33276 37.6226 7.94213H37.6219Z" fill="#FF7A0D"/>
<path d="M46.3611 16.8998C45.3553 18.1974 44.1467 19.2094 42.7002 19.9766C41.7439 20.4839 40.7462 20.8995 39.7356 21.2858C38.8515 21.6224 38.8352 21.4837 39.0093 20.8389C39.1269 20.4023 39.2249 19.9562 39.3058 19.5032C41.3692 18.9884 43.6822 18.039 44.7092 16.0551C45.243 15.0234 45.4886 13.6394 44.5004 12.7961C43.7257 12.1344 42.6362 11.9569 41.6487 11.9262C40.9353 11.9038 40.111 11.9262 39.3901 12.1391C39.3663 11.9242 39.3412 11.7093 39.3139 11.4971C39.2582 11.0503 39.4663 10.6674 39.9342 10.5994C42.5628 10.2192 45.8946 9.94104 47.2969 12.4914C48.1382 14.021 47.333 15.6464 46.3611 16.9005V16.8998Z" fill="#FF7A0D"/>
<path d="M36.3392 41.5751C36.6357 41.2384 36.7371 40.9297 36.6997 40.6447C35.4136 41.9002 32.8258 41.8682 31.1419 41.9981C28.4943 42.2021 25.8262 42.1994 23.1739 42.1123C21.1757 42.0471 18.7287 42.1511 16.8564 41.3506C15.7234 40.8664 16.7741 39.9986 17.4141 39.6803C18.2499 39.2627 19.1837 39.0002 20.0468 38.6377C21.1152 38.1895 22.1571 37.6584 23.082 36.9572C25.7725 34.9176 26.7498 29.4856 23.7084 27.3678C22.6624 26.6394 21.4886 26.2164 20.3038 25.7716C18.5159 25.101 17.0951 24.2081 16.0097 22.6044C14.3047 20.0853 14.1625 16.4822 14.6529 13.5707C14.9188 11.9908 15.6853 10.972 17.3576 10.8883C18.4444 10.8339 19.5707 11.0074 20.6554 11.0658C23.2833 11.2059 25.9167 11.2774 28.548 11.2311C30.5992 11.1944 32.6803 11.0944 34.6927 10.6673C35.3993 10.517 36.4439 10.2667 36.9642 9.64444C33.3304 10.6299 29.0227 10.3232 25.3794 10.3286C21.6423 10.3334 17.8874 10.3286 14.2523 9.43225C14.0122 10.8244 13.8198 12.2288 13.7688 13.6427C13.6566 16.742 13.6776 20.4859 15.3792 23.2165C16.9326 25.7097 19.9679 26.6993 22.5278 27.8248C24.6068 28.7396 25.0557 29.8699 24.9482 32.1203C24.8714 33.7369 23.9206 35.3814 22.6747 36.388C21.4743 37.3578 20.1093 38.1161 18.6186 38.5405C17.8133 38.7697 14.8542 39.5484 15.3534 40.9684C15.5887 41.639 15.9043 41.8417 16.5238 41.9716C19.908 42.6802 23.5601 42.6183 27.0001 42.5932C28.9683 42.5796 30.944 42.5415 32.9054 42.3599C33.8018 42.2769 35.6659 42.3409 36.3392 41.5778V41.5751Z" fill="#FFA222"/>
<path d="M35.2878 12.8926C34.6301 12.4363 33.6073 12.5852 32.8755 12.6628C31.7934 12.7784 30.7094 12.8756 29.6226 12.9545C24.9367 13.2864 25.6481 14.9771 27.5244 18.1695C28.2522 19.4066 28.5976 20.7627 29.1907 22.1596C29.7191 23.4056 30.4448 24.5754 31.9308 24.5584C33.6168 24.538 34.7634 22.8248 35.4075 21.4836C36.0801 20.0819 36.346 18.4667 36.4868 16.9304C36.6174 15.509 36.5704 13.7822 35.2885 12.8933L35.2878 12.8926Z" fill="#FBE134"/>
<path d="M47.5806 13.2462C47.5724 13.8345 47.3752 14.4133 47.1432 14.9539C46.7243 15.9306 45.9918 16.8181 45.2635 17.5771C44.5153 18.3565 40.4286 21.2068 39.1303 20.3458C39.0916 20.5103 39.0542 20.6756 39.01 20.8382C38.8358 21.4829 38.8522 21.6216 39.7363 21.285C40.7462 20.8987 41.7439 20.4831 42.7008 19.9758C44.1474 19.2086 45.3559 18.1967 46.3618 16.899C47.1752 15.8496 47.8676 14.5411 47.5812 13.2462H47.5806Z" fill="#EF6200"/>
<path d="M7.2541 12.7634C7.30647 12.7206 7.3602 12.6784 7.41937 12.6383C8.28241 12.0548 9.4583 11.9936 10.4655 12.0514C11.096 12.0881 11.7883 12.1554 12.4147 12.352C12.4235 12.2622 12.4351 12.1724 12.4439 12.0826C11.449 11.8269 10.2601 11.8521 9.37737 11.9296C8.58982 12.0004 7.7839 12.2418 7.25478 12.7627L7.2541 12.7634Z" fill="#EF6200"/>
<path d="M39.3398 11.7161C39.3568 11.8569 39.3745 11.9963 39.3901 12.1384C40.111 11.9249 40.9353 11.9031 41.6487 11.9256C42.6362 11.9562 43.7258 12.1337 44.5004 12.7954C44.9873 13.2116 45.1744 13.7591 45.1744 14.3311C45.222 13.4218 44.8207 12.5295 43.8903 12.0616C42.7212 11.474 40.7632 11.2937 39.3398 11.7161Z" fill="#EF6200"/>
<path d="M38.8304 6.47653C38.576 6.83086 38.1714 7.1199 37.5892 7.35113C36.3759 7.83128 34.9872 7.93126 33.6991 8.05912C31.027 8.32504 28.3304 8.39781 25.6467 8.42093C22.9467 8.44405 20.2372 8.37128 17.5488 8.11692C16.3185 8.00063 13.4899 7.60209 12.4093 6.43164C12.2936 7.13146 13.2131 7.63406 13.8994 7.86529C17.8072 8.96977 21.9109 8.92624 25.9446 8.88884C29.6545 8.85415 34.0731 9.21324 37.6219 7.94146C38.4604 7.58713 38.8399 7.00836 38.8304 6.47585V6.47653Z" fill="#EF6200"/>
<path d="M12.1481 21.4347C13.0377 21.7761 13.1349 21.6789 12.9146 20.8811C12.8758 20.7403 12.85 20.5955 12.8146 20.4533C10.6662 20.8362 8.46264 19.4407 6.84877 18.0485C5.70688 17.0637 4.44326 15.5763 4.03656 13.9999C4.09573 15.5417 5.31243 16.9671 6.32101 18.0077C7.89544 19.6318 10.0146 20.6138 12.1488 21.434L12.1481 21.4347Z" fill="#EF6200"/>
<path d="M34.2724 5.29118C31.1256 4.90693 26.1785 4.78315 23.2357 4.8838C21.2587 4.95181 19.2796 5.04703 17.3107 5.23133C14.7869 5.46937 13.6634 6.13654 17.0788 6.59629C19.5054 6.92206 22.0789 6.84725 24.4048 6.84997C27.6741 6.85405 31.2589 6.87445 34.5199 6.43239C36.9683 6.1005 37.005 5.62511 34.2731 5.29186L34.2724 5.29118Z" fill="#FFB85A"/>
<path d="M47.2147 12.3615C45.7694 9.95731 42.5152 10.2253 39.9342 10.5986C39.5663 10.6517 39.3616 10.9006 39.3167 11.2209C40.9285 10.785 42.5485 10.5211 44.2555 10.7551C45.4614 10.9203 46.4414 11.4556 47.2147 12.3615Z" fill="#FFB85A"/>
<path d="M7.04736 10.5748C6.41758 10.7176 5.80754 10.9965 5.3029 11.3937C6.23804 11.0033 7.35884 10.8713 8.31574 10.8169C9.49027 10.751 11.2803 10.7088 12.5262 11.3148C12.5745 10.77 12.4419 10.6966 11.8257 10.6095C10.2438 10.3851 8.59866 10.2232 7.04804 10.5748H7.04736Z" fill="#FFB85A"/>
</svg>
