<svg width="36" height="40" viewBox="0 0 36 40" fill="none" xmlns="http://www.w3.org/2000/svg">
<g style="mix-blend-mode:multiply" opacity="0.3">
<path d="M10.3743 2.79638C10.6069 2.39086 13.0545 1.57414 13.6324 1.41924C14.9653 1.06157 16.3875 0.745264 17.7654 0.666593C20.411 0.51493 23.1347 1.28055 25.4172 2.61227C28.4339 4.37222 30.5579 7.12164 31.4537 10.5231C31.4698 10.5831 31.4843 10.6432 31.4972 10.704C32.9242 11.1557 34.1798 12.146 34.872 13.4923C35.7718 15.2417 35.8644 17.3099 35.2696 19.1745C35.2519 19.2312 35.2342 19.288 35.2149 19.344C35.1955 19.3999 35.1762 19.4567 35.1561 19.5127C35.136 19.5686 35.1151 19.6238 35.0933 19.6797C35.0716 19.7349 35.0491 19.79 35.0265 19.8452C35.0032 19.9003 34.9798 19.9547 34.9557 20.009C34.9316 20.0634 34.9066 20.1169 34.8808 20.1704C34.8551 20.2239 34.8285 20.2775 34.802 20.3302C34.7746 20.3829 34.7472 20.4356 34.7191 20.4875C34.6909 20.5394 34.6619 20.5913 34.6321 20.6432C34.6024 20.6952 34.5726 20.7462 34.5412 20.7965C34.5106 20.8476 34.4792 20.8979 34.447 20.9474C34.4148 20.9977 34.3826 21.0471 34.3488 21.0958C34.3158 21.1453 34.282 21.1939 34.2474 21.2418C34.2128 21.2905 34.1782 21.3383 34.142 21.3853C34.1066 21.4324 34.0703 21.4794 34.0333 21.5265C33.9963 21.5727 33.9593 21.6189 33.9214 21.6651C33.8836 21.7106 33.845 21.756 33.8064 21.8006C33.7677 21.8452 33.7275 21.889 33.6872 21.9328C33.647 21.9766 33.6067 22.0196 33.5657 22.0626C33.5246 22.1055 33.4828 22.1477 33.4409 22.1891C33.3991 22.2304 33.3556 22.2718 33.313 22.3124C33.2695 22.3529 33.226 22.3926 33.1818 22.4324C33.1375 22.4721 33.0932 22.5111 33.0474 22.5492C33.0023 22.5873 32.9564 22.6254 32.9105 22.6627C32.8647 22.7 32.818 22.7365 32.7713 22.773C32.7246 22.8087 32.6771 22.8444 32.6288 22.8793C32.5813 22.9141 32.5331 22.9482 32.484 22.9823C32.4357 23.0163 32.3866 23.0488 32.3367 23.0812C32.2876 23.1137 32.2377 23.1453 32.187 23.1769C32.1371 23.2077 32.0864 23.2386 32.0348 23.2686C31.9841 23.2986 31.9326 23.3278 31.8803 23.357C31.8288 23.3854 31.7765 23.4137 31.7242 23.4413C30.2295 24.2061 28.1787 24.4535 26.5754 23.9247C26.5883 23.9344 26.6004 23.9442 26.6133 23.9539C26.9368 24.1972 27.3183 24.357 27.6258 24.6189C27.9437 24.8898 28.1651 25.2459 28.4379 25.5581C29.1655 26.3911 29.7482 26.8363 29.9325 28.0066C30.0839 28.9693 29.8424 29.915 29.2742 30.7009C29.0375 31.0286 28.6866 31.4203 28.3405 31.6247C28.1514 31.7366 26.9521 32.1689 26.928 32.2086C26.8893 32.2727 26.9392 32.6588 26.9127 32.7764C26.8475 33.0643 26.6133 33.3717 26.4459 33.6133C26.6616 34.572 26.3219 35.8096 25.81 36.6239C24.845 38.1592 23.253 38.954 21.5362 39.3222C21.0436 39.4277 20.5567 39.4382 20.056 39.4366L19.9723 39.3174C20.1623 39.3352 20.3522 39.3417 20.5422 39.3368C20.7329 39.332 20.9221 39.3166 21.1104 39.289C22.3185 39.1252 23.422 38.5566 24.1584 37.5647C24.9891 36.4463 25.2748 35.0789 25.0712 33.7107C25.2418 33.5103 25.4197 33.31 25.5195 33.0626C25.6651 32.7001 25.5798 32.413 25.4317 32.0724C25.7883 32.1227 26.1175 32.1559 26.4724 32.0691C27.1912 31.8923 27.7811 31.2995 28.1457 30.6717C28.5892 29.9077 28.7969 28.9256 28.5635 28.0594C28.3775 27.3724 28.0121 26.8501 27.5212 26.3497C27.3594 26.1851 27.1638 26.0172 27.0294 25.8306C26.8507 25.5816 26.804 25.2913 26.5642 25.0788C26.2728 24.8201 25.839 24.6311 25.501 24.4356C25.7947 24.2191 26.0764 24.0017 26.3436 23.7519L26.3855 23.7682C27.6057 24.2394 29.0343 24.1599 30.2231 23.6262C30.3261 23.5792 30.4283 23.5289 30.5297 23.4762C30.6304 23.4235 30.7302 23.3691 30.8284 23.3116C30.9265 23.254 31.0231 23.1948 31.1189 23.1323C31.2147 23.0699 31.3081 23.0058 31.4006 22.9393C31.4932 22.8728 31.5833 22.8038 31.6727 22.7325C31.7612 22.6611 31.8489 22.5881 31.9342 22.5127C32.0196 22.4373 32.1033 22.3594 32.1845 22.2799C32.2658 22.2004 32.3455 22.1185 32.4236 22.035C32.5009 21.9514 32.5765 21.8663 32.6506 21.7787C32.7238 21.6911 32.7954 21.6027 32.8647 21.5119C32.9339 21.421 33.0007 21.3286 33.0659 21.2345C33.1303 21.1404 33.193 21.0447 33.2534 20.9474C33.3138 20.8501 33.3709 20.7519 33.4265 20.6514C33.482 20.5516 33.5343 20.4502 33.585 20.3472C33.6357 20.2442 33.6832 20.1412 33.7283 20.0358C33.7734 19.9312 33.8168 19.8249 33.8571 19.7178C34.5235 17.9482 34.579 15.9692 33.7894 14.232C33.1053 12.7283 31.8578 11.678 30.3374 11.1063L30.3012 10.9562C29.4987 7.70153 27.2435 4.8118 24.4063 3.10133C24.3017 3.03807 24.1971 2.97643 24.0908 2.91641C23.9846 2.85639 23.8783 2.79719 23.7705 2.7396C23.6626 2.68202 23.5548 2.62606 23.4461 2.57091C23.3375 2.51576 23.2272 2.46304 23.1169 2.41113C23.0067 2.35923 22.8956 2.30894 22.7837 2.25947C22.6719 2.21081 22.56 2.16296 22.4473 2.11673C22.3346 2.0705 22.2211 2.02589 22.1068 1.98291C21.9925 1.93992 21.8783 1.89775 21.7632 1.85801C21.6481 1.81745 21.5322 1.77934 21.4163 1.74203C21.3004 1.70472 21.1837 1.66904 21.067 1.63497C20.9502 1.60091 20.8327 1.56847 20.7152 1.53765C20.5977 1.50683 20.4794 1.47682 20.3611 1.44924C20.2428 1.42167 20.1237 1.3949 20.0045 1.36976C19.8854 1.34462 19.7655 1.32191 19.6464 1.30001C19.5264 1.27812 19.4065 1.25784 19.2858 1.23919C19.1651 1.22053 19.0451 1.2035 18.9244 1.18809C18.8037 1.17268 18.6829 1.15889 18.5614 1.14673C18.4399 1.13456 18.3191 1.12402 18.1976 1.11429C18.0761 1.10536 17.9545 1.09725 17.833 1.09158C17.7115 1.0859 17.5899 1.08103 17.4684 1.0786C17.3469 1.07617 17.2253 1.07454 17.103 1.07454C16.9815 1.07454 16.8591 1.07698 16.7376 1.08022C16.6161 1.08347 16.4945 1.08914 16.373 1.09563C16.2514 1.10212 16.1299 1.11104 16.0084 1.12077C15.8868 1.13051 15.7661 1.14186 15.6446 1.15484C15.5239 1.16781 15.4023 1.18241 15.2816 1.19863C15.1609 1.21485 15.0401 1.2327 14.9202 1.25216C14.8003 1.27163 14.6804 1.29271 14.5604 1.31461C14.4405 1.33732 14.3214 1.36084 14.2023 1.38679C14.0831 1.41275 13.9648 1.43951 13.8457 1.4679C13.7274 1.49628 13.6091 1.5271 13.4916 1.55873C13.3741 1.59036 13.2565 1.62362 13.1398 1.65849C12.6859 1.79556 12.2062 1.94317 11.7748 2.13944C11.4327 2.29516 10.7405 2.72744 10.4178 2.79151C10.4041 2.79394 10.3904 2.79475 10.3767 2.79638H10.3743Z" fill="#231F20"/>
</g>
<path d="M10.3743 2.79642C10.388 2.79479 10.4017 2.79479 10.4153 2.79155C10.7389 2.72748 11.4303 2.29601 11.7724 2.13948C12.2038 1.94239 12.6835 1.7956 13.1374 1.65853C13.2541 1.62366 13.3716 1.5904 13.4891 1.55877C13.6066 1.52714 13.725 1.49714 13.8433 1.46794C13.9616 1.43955 14.0807 1.41198 14.1998 1.38683C14.3189 1.36169 14.4381 1.33736 14.558 1.31465C14.6779 1.29194 14.7978 1.27167 14.9178 1.2522C15.0377 1.23274 15.1584 1.21489 15.2791 1.19867C15.3999 1.18245 15.5206 1.16785 15.6421 1.15488C15.7629 1.1419 15.8844 1.13055 16.0059 1.12081C16.1275 1.11108 16.249 1.10297 16.3705 1.09567C16.4921 1.08918 16.6136 1.08351 16.7351 1.08026C16.8567 1.07702 16.9782 1.07458 17.1006 1.07458C17.2221 1.07458 17.3436 1.0754 17.466 1.07864C17.5875 1.08107 17.709 1.08594 17.8306 1.09162C17.9521 1.09729 18.0736 1.1054 18.1952 1.11433C18.3167 1.12325 18.4382 1.1346 18.559 1.14677C18.6805 1.15893 18.8012 1.17272 18.922 1.18813C19.0427 1.20354 19.1634 1.22057 19.2833 1.23923C19.4041 1.25788 19.524 1.27816 19.6439 1.30005C19.7639 1.32195 19.883 1.34547 20.0021 1.3698C20.1212 1.39494 20.2403 1.4209 20.3586 1.44928C20.477 1.47686 20.5953 1.50687 20.7128 1.53769C20.8303 1.56851 20.9478 1.60095 21.0645 1.63501C21.1812 1.66908 21.2979 1.70476 21.4138 1.74207C21.5297 1.77938 21.6456 1.81749 21.7607 1.85805C21.8758 1.8986 21.9901 1.93996 22.1044 1.98295C22.2187 2.02593 22.3314 2.07054 22.4449 2.11677C22.5575 2.163 22.6702 2.21004 22.7813 2.25951C22.8932 2.30817 23.0042 2.35927 23.1145 2.41117C23.2248 2.46308 23.3342 2.51661 23.4437 2.57095C23.5524 2.6261 23.661 2.68206 23.7681 2.73964C23.8759 2.79723 23.9821 2.85643 24.0884 2.91645C24.1946 2.97647 24.2993 3.03892 24.4039 3.10137C27.241 4.81265 29.4963 7.70238 30.2987 10.9563L30.3349 11.1063C31.8553 11.6781 33.1037 12.7284 33.787 14.232C34.5766 15.9693 34.5218 17.9482 33.8546 19.7179C33.8144 19.8249 33.7717 19.9312 33.7258 20.0358C33.6808 20.1404 33.6325 20.2443 33.5826 20.3473C33.5327 20.4503 33.4795 20.5508 33.424 20.6514C33.3685 20.7512 33.3113 20.8501 33.251 20.9474C33.1906 21.0447 33.1286 21.1404 33.0634 21.2345C32.999 21.3286 32.9314 21.4211 32.8622 21.5119C32.793 21.6027 32.7214 21.692 32.6481 21.7787C32.5749 21.8663 32.4992 21.9515 32.4212 22.035C32.3431 22.1186 32.2634 22.2005 32.1821 22.28C32.1008 22.3594 32.0171 22.4373 31.9318 22.5127C31.8465 22.5882 31.7596 22.6611 31.6702 22.7325C31.5809 22.8039 31.4907 22.8728 31.3982 22.9393C31.3056 23.0058 31.2122 23.0707 31.1165 23.1324C31.0207 23.1948 30.9241 23.254 30.8259 23.3116C30.7277 23.3692 30.6279 23.4235 30.5273 23.4762C30.4267 23.529 30.3245 23.5784 30.2207 23.6263C29.0319 24.1599 27.6032 24.2394 26.3831 23.7682L26.3412 23.752C26.074 24.0018 25.7923 24.2191 25.4985 24.4357C25.8366 24.6312 26.2704 24.8193 26.5617 25.0788C26.8008 25.2913 26.8475 25.5825 27.027 25.8307C27.1614 26.0172 27.3569 26.1851 27.5187 26.3497C28.0097 26.8502 28.3751 27.3725 28.561 28.0594C28.7952 28.9256 28.5876 29.9078 28.1433 30.6718C27.7787 31.2995 27.1887 31.8924 26.47 32.0692C26.115 32.1568 25.7858 32.1227 25.4293 32.0724C25.5774 32.4139 25.6635 32.7002 25.517 33.0627C25.4172 33.3101 25.2393 33.5112 25.0687 33.7107C25.2723 35.0789 24.9866 36.4463 24.156 37.5648C23.4195 38.5567 22.3161 39.1244 21.108 39.289C20.9196 39.3158 20.7297 39.332 20.5397 39.3369C20.349 39.3417 20.159 39.3353 19.9699 39.3174L20.0536 39.4366C19.1087 39.3693 18.2499 39.0765 17.4515 38.5664C17.2849 38.6735 17.1191 38.7748 16.9396 38.8592C15.5077 39.5372 13.7942 39.6881 12.2979 39.1276C10.6093 38.495 9.58795 37.0587 9.48654 35.2557C9.47124 34.9767 9.57346 34.4415 9.46722 34.2095C8.73157 33.6994 8.45309 33.2176 8.51104 32.3028C8.51426 32.2525 8.54404 32.1146 8.49172 32.0805C8.40158 32.0213 8.16897 31.9905 8.0571 31.9516C7.53957 31.7715 7.04136 31.3993 6.69527 30.9759C6.14393 30.3027 5.93065 29.4163 6.01918 28.5574C6.21315 26.6774 7.68525 25.516 9.04628 24.4049C8.80804 24.2378 8.57141 24.0675 8.32592 23.911C8.08768 23.9572 7.86795 24.0294 7.62489 24.0634L7.55406 24.0058C6.98099 23.9872 6.42483 24.0788 5.84533 24.0148C4.20099 23.8323 2.83433 22.9093 1.82584 21.6198C0.608076 20.0569 0.179083 17.9952 0.414909 16.0407C0.628198 14.2685 1.5546 12.6238 3.06613 11.6635C3.35186 11.4818 3.87583 11.2896 4.06255 11.0187C4.25009 10.747 4.61872 9.26525 4.86581 8.75916C5.78335 6.87755 7.06872 5.19141 8.73801 3.92132C9.25393 3.52878 9.84551 3.22302 10.3445 2.82075C10.3542 2.81264 10.3638 2.80453 10.3743 2.79642Z" fill="#FEFEFD"/>
<g style="mix-blend-mode:multiply" opacity="0.3">
<path d="M8.34609 23.7827C8.63826 23.9887 8.93606 24.1899 9.2234 24.4023C7.85352 25.481 6.35245 26.6368 6.13594 28.5038C6.03855 29.3432 6.21159 30.1972 6.73958 30.8679C7.2547 31.5233 7.91147 31.8079 8.69863 32.001C8.55295 32.4113 8.51109 32.8217 8.69621 33.2281C8.88857 33.6498 9.25398 33.9361 9.61456 34.2037C9.52039 35.5403 9.6878 36.8088 10.5941 37.8502C11.4408 38.8226 12.6779 39.2792 13.9367 39.3571C15.0756 39.4276 16.2153 39.1121 17.0732 38.3327C17.1135 38.2954 17.1545 38.2581 17.1956 38.2216C18.0318 38.8526 18.9148 39.2492 19.9708 39.3181L20.0545 39.4373C19.1095 39.37 18.2508 39.0772 17.4523 38.5671C17.2857 38.6742 17.1199 38.7755 16.9404 38.8599C15.5086 39.5379 13.795 39.6888 12.2988 39.1283C10.6102 38.4957 9.58881 37.0594 9.48739 35.2565C9.4721 34.9775 9.57432 34.4422 9.46808 34.2102C8.73243 33.7001 8.45395 33.2183 8.5119 32.3035C8.51512 32.2532 8.5449 32.1153 8.49258 32.0812C8.40244 32.022 8.16983 31.9912 8.05795 31.9523C7.54043 31.7722 7.04221 31.4 6.69612 30.9766C6.14479 30.3035 5.9315 29.417 6.02004 28.5581C6.21401 26.6781 7.68611 25.5167 9.04713 24.4056C8.80889 24.2385 8.57226 24.0682 8.32678 23.9117C8.08854 23.9579 7.86881 24.0301 7.62574 24.0641L7.55491 24.0066C7.80684 23.9019 8.0821 23.8622 8.34288 23.7843L8.34609 23.7827Z" fill="#231F20"/>
</g>
<path d="M16.2104 2.48255C16.6571 2.42091 17.1674 2.44281 17.6149 2.46146C17.7695 2.46714 17.9232 2.47606 18.0769 2.48823C18.2306 2.50039 18.3844 2.51418 18.5381 2.53121C18.6918 2.54824 18.8448 2.56852 18.9969 2.59123C19.1498 2.61394 19.3019 2.63989 19.4532 2.66746C19.6054 2.69585 19.7559 2.72667 19.9072 2.76073C20.0577 2.7948 20.2074 2.83129 20.3571 2.87022C20.506 2.90915 20.6549 2.95133 20.803 2.99593C20.9511 3.04054 21.0976 3.08758 21.2441 3.13787C21.3905 3.18815 21.5354 3.24087 21.6795 3.29602C21.8236 3.35117 21.9668 3.40956 22.1093 3.46958C22.2517 3.53041 22.3926 3.59286 22.5326 3.65855C22.6727 3.72425 22.8111 3.79237 22.9488 3.86293C23.0864 3.93349 23.2224 4.00649 23.3568 4.08272C23.4912 4.15815 23.6248 4.23682 23.7568 4.31711C23.8888 4.39741 24.0192 4.48013 24.1488 4.5661C24.2776 4.65126 24.4056 4.73885 24.5311 4.82888C26.9634 6.59045 28.6705 9.21416 29.1631 12.1955C29.4319 12.2288 29.6863 12.2993 29.939 12.395C30.0114 12.4218 30.0823 12.4494 30.1531 12.4794C30.2239 12.5094 30.294 12.541 30.3624 12.5751C30.4316 12.6083 30.5 12.644 30.5668 12.6805C30.6344 12.7178 30.7004 12.756 30.7664 12.7965C30.8316 12.8371 30.896 12.8784 30.9596 12.9222C31.0232 12.966 31.0851 13.0106 31.1463 13.0577C31.2075 13.1039 31.267 13.1526 31.3258 13.202C31.3845 13.2515 31.4417 13.3026 31.498 13.3553C31.5544 13.408 31.6091 13.4616 31.663 13.5167C31.717 13.5719 31.7685 13.6286 31.8192 13.6862C31.8699 13.7438 31.919 13.803 31.9673 13.8638C32.0148 13.9238 32.0614 13.9855 32.1065 14.0487C32.1516 14.1112 32.1942 14.1753 32.2361 14.2402C32.2779 14.305 32.3174 14.3707 32.356 14.438C32.3946 14.5054 32.4309 14.5727 32.4663 14.6416C32.5017 14.7106 32.5347 14.7803 32.5661 14.85C33.1705 16.202 33.144 17.842 32.6152 19.2126C32.0993 20.5516 31.1318 21.7147 29.8078 22.2873C28.5442 22.8339 27.3707 22.6944 26.1231 22.1932C24.9271 23.2929 23.5653 24.0626 22.0127 24.52C23.0518 24.872 24.8627 25.5411 25.6096 26.3132C25.7779 26.4868 25.7513 26.6239 25.7432 26.8526C26.3598 27.2362 27.0053 27.7691 27.1904 28.5095C27.3111 28.9897 27.2081 29.5395 26.9393 29.9524C26.4757 30.6653 25.6113 30.8396 24.8346 30.5923C24.4989 30.4852 24.0345 30.164 23.6876 30.2314L23.6586 30.3019C23.843 30.9556 24.4007 31.9443 24.7001 32.6142C24.3436 33.0311 23.9154 33.3433 23.4759 33.6645C23.6595 34.5445 23.7343 35.4139 23.3327 36.2468C22.9914 36.954 22.4216 37.4488 21.6835 37.6986C20.8247 37.9889 19.7156 38.0441 18.893 37.6159C18.1091 37.2079 17.8387 36.5356 17.5851 35.7432C17.5328 35.5177 17.4918 35.1406 17.301 34.9962C17.0716 35.083 16.8068 36.787 15.9432 37.4317C15.2655 37.9378 14.4027 38.0327 13.589 37.8997C12.7737 37.7667 11.9607 37.3774 11.477 36.6807C10.838 35.7602 11.0094 34.6758 11.1985 33.6434C10.7438 33.3612 10.3655 33.0562 9.98481 32.6783C10.2738 31.7926 10.7148 30.8275 11.1631 30.0124C10.8524 30.2533 10.5257 30.4406 10.1506 30.559C9.58237 30.7375 8.92963 30.7156 8.40083 30.4244C8.00806 30.2078 7.74004 29.851 7.61931 29.4179C7.46236 28.8534 7.57182 28.2678 7.8503 27.7618C8.09257 27.3214 8.44188 26.988 8.81131 26.6563C9.97354 25.6109 11.2629 25.0245 12.7487 24.5906C12.2674 24.3781 11.7724 24.2021 11.2951 23.9783C10.2472 23.4868 9.36345 22.8209 8.50385 22.0537C8.07084 22.2978 7.61206 22.477 7.12432 22.5711C6.0458 22.7787 4.97372 22.507 4.07629 21.8842C2.82875 21.018 2.09874 19.7203 1.83555 18.2329C1.57719 16.773 1.78404 15.1785 2.65249 13.9506C3.22958 13.1347 4.21554 12.494 5.20069 12.3318C5.64015 10.3334 6.34279 8.46881 7.66599 6.88242C9.84637 4.26845 12.8517 2.78669 16.208 2.48174L16.2104 2.48255Z" fill="#030301"/>
<path d="M23.0501 33.8647L23.1057 33.8875C23.2047 34.1072 23.2111 34.3749 23.2401 34.6133C21.6167 35.2589 19.7647 35.5201 18.027 35.3773L17.9312 35.3465C17.8475 35.2459 17.8274 35.1884 17.8 35.0643C17.8748 34.8696 18.0841 34.9329 18.266 34.928C19.8934 34.881 21.5684 34.5403 23.0501 33.8656V33.8647Z" fill="#E161A5"/>
<path d="M11.5237 33.8291C12.6288 34.3319 13.9085 34.6669 15.1182 34.8031C15.5392 34.8502 16.2893 34.8145 16.6603 34.9572C16.6805 35.1048 16.6209 35.2322 16.5742 35.3684C14.8808 35.4503 12.9934 35.3343 11.4239 34.6482C11.4376 34.3725 11.4834 34.1008 11.5245 33.8282L11.5237 33.8291Z" fill="#E161A5"/>
<path d="M15.7034 25.1152C16.794 25.1615 17.8363 25.2085 18.9277 25.1347C18.823 25.5232 18.7039 25.8225 18.4673 26.1509C18.2057 26.4161 17.8918 26.5929 17.5216 26.6432C17.1046 26.7 16.6604 26.5865 16.3255 26.3294C15.9175 26.0163 15.7702 25.6067 15.7034 25.1152Z" fill="#F7C7AC"/>
<path d="M25.7159 27.267C25.8937 27.3432 26.0579 27.4689 26.1988 27.6003C26.5553 27.9345 26.8298 28.3992 26.8322 28.9012C26.8338 29.2808 26.6801 29.662 26.4032 29.9215C26.0684 30.2354 25.6974 30.2792 25.2627 30.2743C24.8209 30.181 24.4868 30.031 24.0973 29.8031C24.9883 29.1145 25.3802 28.3221 25.7167 27.267H25.7159Z" fill="url(#paint0_linear_77_1289)"/>
<path d="M9.00767 26.9434C9.05838 27.0115 9.05838 26.9945 9.07367 27.0593C9.35216 28.2378 9.8222 29.0464 10.8009 29.7714C10.4226 29.9807 10.0999 30.1186 9.67652 30.2013C9.53003 30.2143 9.37952 30.2248 9.23304 30.2135C8.84429 30.1835 8.46117 30.0464 8.20442 29.739C7.95491 29.4414 7.86074 29.0269 7.9034 28.6449C7.98389 27.919 8.46117 27.3724 9.00767 26.9434Z" fill="#F7C7AC"/>
<path d="M5.19422 15.1379C5.26344 15.1606 5.26102 15.1777 5.30207 15.2353C5.37209 16.7357 6.24296 18.8144 7.01563 20.0755C6.64136 20.095 6.29447 20.0885 5.92745 20.0017C5.19583 19.7341 4.63484 19.2702 4.2815 18.5654C3.93621 17.8768 3.8517 16.9944 4.10765 16.262C4.30645 15.6903 4.67186 15.3902 5.19341 15.1388L5.19422 15.1379Z" fill="#FDAC33"/>
<path d="M29.3064 15.0674C29.3442 15.0795 29.3812 15.0917 29.4182 15.1047C29.8786 15.2685 30.2303 15.5913 30.4372 16.0374C30.7495 16.7105 30.7181 17.52 30.4662 18.2069C30.1821 18.9798 29.6887 19.5678 28.9442 19.9174C28.4943 20.0788 28.1015 20.0828 27.629 20.0682C27.7441 19.8793 27.8536 19.687 27.9574 19.4916C28.062 19.2961 28.1602 19.0982 28.2536 18.8971C28.347 18.696 28.4347 18.4924 28.5168 18.2872C28.5989 18.0812 28.6754 17.8736 28.7454 17.6635C28.8162 17.4535 28.8806 17.241 28.9393 17.0277C28.9981 16.8135 29.0512 16.5986 29.0979 16.3821C29.1446 16.1655 29.1856 15.9474 29.2202 15.7284C29.2549 15.5094 29.2838 15.2896 29.3064 15.069V15.0674Z" fill="#F6A578"/>
<path d="M23.1371 35.0278L23.195 35.087C23.2055 35.5655 22.9737 36.1673 22.6686 36.529C22.1109 37.1908 21.2529 37.4049 20.4279 37.456C19.7091 37.5015 19.12 37.4001 18.567 36.9037C18.2378 36.5104 18.0696 36.1251 17.907 35.6417C19.7236 35.7894 21.3953 35.512 23.1371 35.027V35.0278Z" fill="url(#paint1_linear_77_1289)"/>
<path d="M11.4037 34.9353C13.0368 35.5922 14.8332 35.6766 16.5693 35.645C16.4172 36.1113 16.245 36.4957 15.9375 36.8794C15.4916 37.2962 14.9974 37.456 14.3946 37.4617C13.5471 37.4698 12.6158 37.2678 12.0017 36.6393C11.5228 36.1494 11.4013 35.5995 11.4037 34.9353Z" fill="#32A7D7"/>
<path d="M13.2952 24.8307C13.5544 24.7974 13.82 24.8493 14.0775 24.8801C13.1085 26.4146 12.2143 27.9637 11.3901 29.5817C11.1341 29.4382 10.8999 29.2906 10.6673 29.1105C10.1063 28.6377 9.61939 27.8607 9.47693 27.1324C9.43829 26.9361 9.43427 26.7253 9.555 26.5549C10.0943 25.7934 12.3752 25.0002 13.2952 24.8299V24.8307Z" fill="#E161A5"/>
<path d="M21.24 24.7901C21.2545 24.7868 21.269 24.7828 21.2835 24.7812C21.9861 24.6992 24.0651 25.7187 24.6945 26.1015C24.9569 26.2613 25.1855 26.4446 25.4149 26.649C25.311 27.636 24.8708 28.4925 24.1834 29.1924L23.4276 29.8153C22.9246 28.9353 22.4489 28.0391 21.9282 27.1697C21.4726 26.4089 20.9736 25.6741 20.4971 24.9271C20.7394 24.8663 20.9945 24.8322 21.2408 24.7893L21.24 24.7901Z" fill="#E161A5"/>
<path d="M29.2838 12.8102C29.3748 12.8305 29.4649 12.8548 29.5534 12.8816C29.6428 12.9083 29.7305 12.9383 29.8182 12.9708C29.9052 13.0032 29.9913 13.0397 30.0758 13.0778C30.1603 13.1168 30.244 13.1581 30.3261 13.2027C30.4082 13.2473 30.4887 13.2944 30.5676 13.3447C30.6464 13.3949 30.7237 13.4468 30.7986 13.502C30.8734 13.5571 30.9475 13.6147 31.0183 13.6756C31.0899 13.7356 31.1591 13.7988 31.2259 13.8637C32.0759 14.6894 32.4284 15.8759 32.4349 17.0422C32.4429 18.4209 31.8819 19.8621 30.908 20.8378C30.0267 21.7202 28.9747 22.0763 27.7489 22.0674C27.3046 22.0114 26.8869 21.9157 26.4595 21.7794C26.8088 21.365 27.1324 20.9384 27.4173 20.4761C28.0749 20.5564 28.6504 20.5621 29.2637 20.2701C30.0516 19.8954 30.6376 19.1411 30.9209 18.322C31.1994 17.5174 31.2002 16.5856 30.8219 15.8135C30.504 15.1646 30.0025 14.8134 29.3385 14.592C29.3506 13.9951 29.3554 13.4039 29.283 12.8102H29.2838Z" fill="#FDAC33"/>
<path d="M5.03081 13.0244L5.18454 13.0382C5.32378 13.2831 5.24893 14.3513 5.26503 14.6838C4.80867 14.8614 4.4006 15.0739 4.07544 15.4535C3.58286 16.0285 3.44442 16.7771 3.50398 17.5151C3.57401 18.3878 3.98529 19.2491 4.65252 19.816C5.42117 20.4697 6.29686 20.5849 7.26753 20.507C7.53796 20.9263 7.88727 21.3165 8.21164 21.6944C7.88084 21.8526 7.54923 21.9766 7.19912 22.0829C6.3202 22.2216 5.4928 22.1332 4.70725 21.6928C3.54181 21.0391 2.77638 19.8923 2.42144 18.6157C2.07696 17.3772 2.11076 15.9076 2.75787 14.7714C3.26896 13.8744 4.04566 13.288 5.03081 13.0244Z" fill="#FDAC33"/>
<path d="M5.90167 16.0211L6.40632 15.8524C6.65342 16.6691 6.92868 17.5077 7.30375 18.2742C8.26153 20.228 9.92117 21.9798 11.8295 23.009C14.3197 24.3529 17.7203 24.8055 20.444 23.9547C22.8537 23.202 25.0639 21.6708 26.2591 19.3812C26.8185 18.3107 27.241 17.0657 27.4423 15.8694C27.7811 16.0025 28.1103 16.1501 28.4395 16.305C28.3646 16.6286 28.2777 16.9489 28.1779 17.2652C28.0781 17.5824 27.967 17.8946 27.8439 18.2028C27.7207 18.511 27.5855 18.8135 27.4398 19.1112C27.2934 19.4088 27.1364 19.7008 26.9674 19.9863C25.6627 22.2085 23.6691 23.5337 21.2013 24.1582C17.9127 24.9896 13.4577 24.7211 10.5393 22.9384C8.84748 21.9052 7.32306 20.1485 6.56971 18.3026C6.26869 17.5645 6.08921 16.794 5.90248 16.0211H5.90167Z" fill="#F6A578"/>
<path d="M11.2975 30.7017C11.5438 30.829 11.7949 30.9458 12.0517 31.0504C14.5339 32.0674 18.0938 32.2224 20.7136 31.6327C21.6312 31.4267 22.4835 31.0845 23.3472 30.7203C23.6538 31.3083 23.9572 31.8988 24.2575 32.4908C24.0047 32.7682 23.7093 32.9823 23.4011 33.1915C21.3567 34.3538 18.7393 34.5906 16.4253 34.4738C14.5468 34.3797 11.7483 33.9661 10.446 32.5184C10.6392 31.9044 11.0158 31.2807 11.2975 30.7017Z" fill="#FCCA29"/>
<path d="M14.4389 24.9449C14.7383 25.0042 15.0321 25.0325 15.3363 25.0544C15.3967 25.5119 15.4812 25.9206 15.7758 26.2921C15.7959 26.3172 15.8168 26.3424 15.8378 26.3667C15.8595 26.391 15.8812 26.4145 15.9038 26.4381C15.9263 26.4616 15.9496 26.4835 15.973 26.5054C15.9963 26.5273 16.0213 26.5484 16.0454 26.5695C16.0704 26.5905 16.0953 26.61 16.1211 26.6295C16.1468 26.6489 16.1726 26.6676 16.2 26.6862C16.2265 26.7041 16.2539 26.7219 16.2813 26.739C16.3086 26.756 16.3368 26.7714 16.365 26.7868C16.3931 26.8022 16.4221 26.8168 16.4511 26.8306C16.4801 26.8444 16.5098 26.8574 16.5396 26.8703C16.5694 26.8825 16.5992 26.8947 16.6298 26.9052C16.6603 26.9158 16.6909 26.9263 16.7215 26.9352C16.7521 26.945 16.7835 26.9531 16.8149 26.9612C16.8463 26.9693 16.8777 26.9758 16.909 26.9823C16.9404 26.9888 16.9726 26.9936 17.004 26.9985C17.0362 27.0034 17.0676 27.0066 17.0998 27.0098C17.6173 27.0626 18.1332 26.9279 18.5349 26.5889C18.9912 26.2029 19.1852 25.6846 19.2375 25.1023C19.5184 25.0812 19.8001 25.0431 20.0802 25.0123C21.2223 26.7309 22.2831 28.4446 23.1548 30.3213C22.6598 30.5954 22.1439 30.7812 21.6095 30.958C21.4131 31.018 21.2151 31.0748 21.0155 31.1267C18.4302 31.7836 13.7999 31.7082 11.5012 30.3148C12.3801 28.4486 13.3604 26.7017 14.4389 24.9466V24.9449Z" fill="#E978A3"/>
<path d="M16.6547 3.06076C17.3171 2.99182 18.0375 3.07698 18.6967 3.16943C21.7576 3.59847 24.7138 5.13539 26.5875 7.65204C26.6415 7.72341 26.6938 7.79478 26.7461 7.86777C26.7984 7.93995 26.8491 8.01376 26.899 8.08756C26.9489 8.16137 26.998 8.23598 27.0463 8.3106C27.0946 8.38602 27.1421 8.46145 27.188 8.53769C27.2347 8.61393 27.2797 8.69097 27.324 8.76802C27.3683 8.84507 27.4117 8.92374 27.4544 9.0016C27.497 9.08027 27.5389 9.15894 27.5791 9.23842C27.6194 9.31791 27.6596 9.3982 27.6983 9.47849C27.7369 9.55878 27.7747 9.63989 27.8109 9.7218C27.848 9.80291 27.8834 9.88482 27.918 9.96755C27.9526 10.0503 27.9864 10.133 28.0186 10.2157C28.0508 10.2993 28.083 10.3828 28.1128 10.4663C28.1434 10.5507 28.1723 10.635 28.2013 10.7194C28.2295 10.8037 28.2568 10.8889 28.2834 10.9749C28.31 11.06 28.3349 11.146 28.3591 11.232C28.3832 11.3179 28.4065 11.4047 28.4283 11.4907C28.45 11.5775 28.4709 11.6642 28.4911 11.751C28.5112 11.8378 28.5297 11.9254 28.5474 12.013C28.5651 12.1006 28.582 12.1882 28.5973 12.2766C28.6126 12.365 28.6271 12.4526 28.6408 12.541C28.6544 12.6294 28.6665 12.7178 28.6778 12.807C28.689 12.8954 28.6987 12.9846 28.7084 13.0738C28.7172 13.163 28.7253 13.2514 28.7317 13.3406C28.7381 13.4299 28.7438 13.5191 28.7486 13.6083C28.7534 13.6975 28.7567 13.7867 28.7591 13.8767C28.7615 13.966 28.7623 14.0552 28.7631 14.1452C28.7631 14.2344 28.7623 14.3236 28.7599 14.4137C28.7575 14.5029 28.755 14.5921 28.7502 14.6821C28.7462 14.7713 28.7406 14.8605 28.7341 14.9497C28.7277 15.039 28.7196 15.1282 28.7116 15.2174C28.7027 15.3066 28.6931 15.395 28.6826 15.4842C28.6713 15.5726 28.6601 15.6618 28.6464 15.7502C27.316 15.0698 26.1811 15.039 24.746 14.8216C21.4099 14.3171 18.2057 13.2214 15.7581 10.7883C15.4015 10.4015 15.0796 9.98701 14.7923 9.545C14.5379 9.14759 14.3303 8.69827 13.9979 8.36088C13.8989 8.33169 13.8015 8.33412 13.7258 8.41198C13.4956 8.65042 13.3717 9.14678 13.1986 9.44362C12.8541 10.0211 12.4654 10.5677 12.0324 11.0819C10.2399 13.2352 8.28412 14.3569 5.76973 15.4339C5.75604 15.2928 5.74397 15.1517 5.73351 15.0106C5.5009 11.9911 6.30255 9.34954 8.27124 7.04376C10.4307 4.51413 13.4047 3.30244 16.6547 3.06238V3.06076Z" fill="#FDAC33"/>
<path d="M14.8341 3.99027C14.9258 3.96918 14.995 3.98216 15.0868 3.99757C13.8779 4.36821 11.5599 6.45501 10.4339 7.31471C9.44549 8.06897 8.43056 8.78187 7.44943 9.54668L7.34238 9.61886L7.30133 9.57101C7.40999 8.99842 8.04824 7.91812 8.40882 7.43555C10.0958 5.17763 12.1522 4.36821 14.8341 3.99027Z" fill="#FCCA29"/>
<path d="M18.3699 3.77118C20.2452 3.62276 22.1769 4.39162 23.7134 5.43299C24.284 5.81904 25.616 7.02181 25.715 7.71282C25.7271 7.79797 25.7287 7.76148 25.6676 7.84339L25.5082 7.82474C24.882 7.66415 24.2735 7.38353 23.6852 7.11833C22.5044 6.59764 21.3623 6.00315 20.2581 5.33323C19.9369 5.13534 19.6343 4.90825 19.3156 4.70711C18.86 4.41919 18.3868 4.1621 17.9578 3.83119L17.9875 3.79388L18.3707 3.77199L18.3699 3.77118Z" fill="#FCCA29"/>
<path d="M13.9262 9.27246C14.0936 9.55308 14.261 9.83532 14.4446 10.1062C16.365 12.9465 19.9571 14.571 23.2256 15.1898C23.5524 15.2376 23.9935 15.2871 24.3025 15.4047C25.3513 15.5093 26.425 15.5726 27.4423 15.8702C27.2411 17.0665 26.8185 18.3107 26.2592 19.382C25.0639 21.6716 22.8538 23.202 20.444 23.9555C17.7204 24.8063 14.3198 24.3537 11.8295 23.0098C9.92122 21.9798 8.26239 20.2288 7.3038 18.275C6.92792 17.5085 6.65266 16.6699 6.40637 15.8532C7.11787 15.6204 7.82454 15.2214 8.46763 14.837C10.7897 13.4493 12.6119 11.6553 13.9262 9.27246Z" fill="#F7C7AC"/>
<path d="M23.1846 15.2465C23.3069 15.4298 23.3158 15.489 23.3053 15.7096C23.2989 15.8524 23.2989 15.974 23.3971 16.0892C23.4928 16.2011 23.591 16.2668 23.7407 16.2782C23.9098 16.2125 23.987 16.0884 24.0603 15.9278C24.1094 15.8208 24.1351 15.7121 24.1577 15.5969C24.2293 15.5247 24.2559 15.5215 24.3508 15.4955C24.3549 15.5004 24.3589 15.5044 24.3637 15.5093C24.3846 15.532 24.4064 15.5539 24.4257 15.5766C24.5239 15.6926 24.548 15.8102 24.5343 15.9603C24.5158 16.163 24.404 16.3236 24.2438 16.4436C24.2172 16.4631 24.1899 16.4817 24.1617 16.4988C24.1335 16.5158 24.1045 16.5312 24.0748 16.5458C24.045 16.5596 24.0144 16.5726 23.9838 16.5831C23.9524 16.5937 23.921 16.6034 23.8896 16.6107C23.8574 16.618 23.8253 16.6245 23.7931 16.6285C23.7601 16.6326 23.7279 16.635 23.6949 16.6367C23.6619 16.6375 23.6289 16.6367 23.5967 16.6342C23.5637 16.6318 23.5315 16.6277 23.4985 16.6221C23.2804 16.5807 23.0848 16.4534 22.9705 16.2595C22.8715 16.0916 22.7854 15.751 22.8522 15.5604C22.915 15.3812 23.026 15.322 23.1862 15.2457L23.1846 15.2465Z" fill="#030301"/>
<path d="M18.7489 19.949C18.8342 19.9652 18.8817 19.9855 18.9534 20.0349C18.9799 20.112 18.988 20.1566 18.9759 20.2393C18.9244 20.5929 18.526 20.9636 18.2459 21.1453C18.2193 21.1623 18.1928 21.1793 18.1654 21.1955C18.138 21.2118 18.1107 21.2272 18.0825 21.2418C18.0543 21.2564 18.0262 21.2702 17.9972 21.2831C17.9682 21.2961 17.9392 21.3091 17.9095 21.3204C17.8797 21.3318 17.8507 21.3431 17.8201 21.3529C17.7903 21.3634 17.7598 21.3723 17.7292 21.3813C17.6986 21.3902 17.668 21.3975 17.6374 21.4048C17.6068 21.4121 17.5754 21.4186 17.544 21.4242C17.5127 21.4299 17.4813 21.4348 17.4507 21.4388C17.4193 21.4429 17.3879 21.4461 17.3565 21.4486C17.3251 21.451 17.2937 21.4526 17.2615 21.4534C17.2302 21.4543 17.198 21.4543 17.1666 21.4534C17.1352 21.4534 17.103 21.451 17.0716 21.4486C17.0402 21.4461 17.0088 21.4429 16.9774 21.4388C16.946 21.4348 16.9146 21.4299 16.8833 21.4251C16.8519 21.4194 16.8213 21.4129 16.7907 21.4064C16.2643 21.2848 15.9182 20.9579 15.6462 20.507C15.5898 20.3488 15.5504 20.2166 15.6253 20.0544C15.874 20.0057 16.0816 20.7746 16.6836 21.0236C16.7279 21.0423 16.7738 21.0585 16.8197 21.0731C16.8655 21.0869 16.913 21.099 16.9597 21.1079C17.0072 21.1177 17.0547 21.1242 17.103 21.129C17.1513 21.1339 17.1996 21.1355 17.2479 21.1355C17.2962 21.1355 17.3444 21.1323 17.3919 21.1274C17.4402 21.1225 17.4877 21.1144 17.5352 21.1047C17.5827 21.095 17.6294 21.082 17.6752 21.0674C17.7211 21.0528 17.7662 21.0358 17.8105 21.0163C18.2998 20.8046 18.5533 20.4267 18.7481 19.9506L18.7489 19.949Z" fill="#030301"/>
<path d="M11.8521 14.6659C12.1338 14.6481 12.5781 14.6643 12.7841 14.8906C12.8751 14.9912 12.8718 15.0374 12.8831 15.1664C12.673 15.4421 11.9342 15.0398 11.5639 15.3245C11.3064 15.5232 11.4513 15.9506 11.4022 16.2329C11.3828 16.3432 11.3233 16.4348 11.2227 16.4875C11.0118 16.5978 10.7534 16.5467 10.5401 16.4754C10.3413 16.3456 10.2222 16.2183 10.1538 15.9839C10.0862 15.7527 10.0097 15.438 10.1256 15.2158C10.2077 15.1591 10.2544 15.1307 10.3623 15.1501C10.6021 15.1931 10.5434 15.8363 10.6705 16.0293C10.7349 16.1266 10.7792 16.1331 10.883 16.151C11.0504 15.9758 10.9973 15.5159 10.9997 15.2831C11.2186 14.9336 11.4802 14.8006 11.8529 14.6659H11.8521Z" fill="#030301"/>
<path d="M22.6533 19.4242C23.1 19.3642 23.6425 19.3983 24.0498 19.597C24.3097 19.7235 24.5496 19.9376 24.6309 20.2255C24.6357 20.2426 24.6397 20.2604 24.643 20.2774C24.6462 20.2953 24.6486 20.3123 24.6494 20.3301C24.651 20.348 24.651 20.3658 24.6502 20.3837C24.6502 20.4015 24.6486 20.4194 24.6462 20.4372C24.6438 20.455 24.6405 20.4721 24.6365 20.4899C24.6325 20.507 24.6277 20.524 24.6212 20.541C24.6156 20.558 24.6083 20.5743 24.6011 20.5905C24.5939 20.6067 24.585 20.6221 24.5753 20.6375C24.3854 20.9498 23.987 21.0625 23.657 21.1461C23.1057 21.2361 22.4143 21.2426 21.945 20.9003C21.7503 20.7584 21.5957 20.5524 21.566 20.3066C21.545 20.1331 21.6014 19.9717 21.7108 19.8378C21.9442 19.5532 22.308 19.4648 22.6525 19.4234L22.6533 19.4242Z" fill="#FA9396"/>
<path d="M10.3341 19.3699C10.8806 19.3334 11.4142 19.3115 11.91 19.5954C12.1362 19.7252 12.3656 19.9312 12.4227 20.1988C12.4533 20.3407 12.4243 20.4721 12.3462 20.5922C12.1136 20.9506 11.613 21.0893 11.221 21.1761C10.7671 21.2337 10.3325 21.2369 9.90025 21.0545C9.62902 20.9401 9.34087 20.7357 9.23866 20.4454C9.18232 20.2848 9.19117 20.1266 9.27568 19.9774C9.4769 19.6222 9.96303 19.4608 10.3341 19.3691V19.3699Z" fill="#FA9396"/>
<path d="M21.7953 16.3999C22.0489 16.3682 22.3064 16.3666 22.5519 16.4469C22.5905 16.4591 22.6284 16.4737 22.6654 16.4899C22.7024 16.5061 22.7386 16.5248 22.7733 16.5451C22.8087 16.5653 22.8425 16.5872 22.8755 16.6116C22.9085 16.6351 22.9399 16.661 22.9696 16.6886C22.9994 16.7162 23.0284 16.7446 23.055 16.7754C23.0823 16.8054 23.1073 16.837 23.1306 16.8703C23.154 16.9035 23.1765 16.9376 23.1958 16.9733C23.2159 17.009 23.2336 17.0447 23.2505 17.0828C23.4059 17.4323 23.4139 17.8565 23.2755 18.2125C23.0968 18.6732 22.7572 18.9295 22.3201 19.112C22.2847 19.1168 22.2485 19.1209 22.2123 19.1233C22.176 19.1258 22.1406 19.1266 22.1044 19.1258C22.0682 19.1258 22.0328 19.1233 21.9966 19.1201C21.9603 19.1169 21.9249 19.112 21.8895 19.1055C21.8541 19.099 21.8187 19.0917 21.7841 19.0828C21.7495 19.0739 21.7149 19.0633 21.6802 19.052C21.6464 19.0406 21.6126 19.0268 21.5796 19.013C21.5466 18.9984 21.5144 18.983 21.4822 18.966C21.4444 18.9457 21.4074 18.9238 21.372 18.9003C21.3366 18.8768 21.302 18.8508 21.2682 18.8241C21.2352 18.7973 21.203 18.7681 21.1724 18.7381C21.1418 18.7081 21.1128 18.6765 21.0855 18.6432C21.0581 18.61 21.0323 18.5759 21.0082 18.5402C20.984 18.5045 20.9615 18.468 20.9414 18.4299C20.9205 18.3918 20.9019 18.3537 20.885 18.3139C20.8681 18.2742 20.8537 18.2336 20.8408 18.1923C20.7257 17.8289 20.7732 17.421 20.947 17.0852C21.1362 16.7202 21.4122 16.5215 21.7953 16.4023V16.3999Z" fill="#030301"/>
<path d="M22.2606 16.6951C22.4707 16.7122 22.6204 16.7625 22.7701 16.9198C22.8723 17.0277 22.8747 17.1088 22.8691 17.2515C22.7773 17.387 22.7306 17.3991 22.5882 17.4673C22.4047 17.4624 22.164 17.4462 22.0344 17.2929C21.9684 17.2142 21.9459 17.125 21.9708 17.0244C22.0071 16.8776 22.1495 16.7819 22.2606 16.6943V16.6951Z" fill="#FEFEFD"/>
<path d="M12.2553 16.3593C12.5434 16.3414 12.7986 16.3463 13.0585 16.4874C13.3636 16.6537 13.5761 16.9392 13.6702 17.2733C13.7829 17.6724 13.7193 18.1225 13.5117 18.4801C13.2936 18.854 13.0086 19.013 12.6054 19.1265C12.2971 19.1444 12.0798 19.1249 11.8118 18.9611C11.4786 18.7575 11.2492 18.4088 11.1591 18.0292C11.0729 17.6667 11.1188 17.2595 11.3192 16.9416C11.5494 16.5758 11.8593 16.4566 12.2553 16.3593Z" fill="#030301"/>
<path d="M12.7382 16.7787C12.8766 16.7844 12.999 16.8006 13.1141 16.8866C13.2211 16.966 13.3 17.0812 13.2992 17.2199C13.2992 17.3935 13.1978 17.4924 13.0795 17.5986C12.9708 17.5897 12.8501 17.5735 12.7559 17.5135C12.6473 17.4445 12.5611 17.3391 12.5483 17.2069C12.5298 17.0212 12.6255 16.9076 12.7382 16.7787Z" fill="#FEFEFD"/>
<defs>
<linearGradient id="paint0_linear_77_1289" x1="24.274" y1="28.7041" x2="26.6788" y2="28.8364" gradientUnits="userSpaceOnUse">
<stop stop-color="#F7BE9B"/>
<stop offset="1" stop-color="#FADAC0"/>
</linearGradient>
<linearGradient id="paint1_linear_77_1289" x1="20.2927" y1="37.3747" x2="20.5608" y2="34.8282" gradientUnits="userSpaceOnUse">
<stop stop-color="#1398D8"/>
<stop offset="1" stop-color="#0FB5F0"/>
</linearGradient>
</defs>
</svg>
