<svg width="33" height="39" viewBox="0 0 33 39" fill="none" xmlns="http://www.w3.org/2000/svg">
<g style="mix-blend-mode:multiply" opacity="0.3">
<path d="M15.0772 0.0827089C18.4233 -0.355111 22.7148 0.988347 25.3701 3.03475C28.0643 5.11196 30.0596 8.18723 30.4796 11.6063C30.5339 12.0457 30.5404 12.4819 30.529 12.9238C31.3982 13.5448 31.9779 14.4399 32.1506 15.4996C32.3549 16.7523 31.926 18.0236 31.1874 19.033C30.375 20.1438 29.415 20.5783 28.1129 20.9172C27.3329 22.0183 26.1265 23.099 24.9387 23.7525C26.1338 24.453 27.4343 25.8792 27.7935 27.2478C27.8089 27.3054 27.8227 27.3637 27.8348 27.4221C27.847 27.4805 27.8575 27.5397 27.8672 27.598C27.8762 27.6572 27.8843 27.7164 27.8908 27.7756C27.8972 27.8348 27.9021 27.8948 27.9054 27.954C27.9086 28.014 27.9102 28.0732 27.911 28.1332C27.911 28.1932 27.9102 28.2523 27.9078 28.3123C27.9054 28.3723 27.9013 28.4315 27.8956 28.4907C27.89 28.5499 27.8827 28.6099 27.8745 28.6691C27.8656 28.7283 27.8559 28.7866 27.8437 28.8458C27.8324 28.9042 27.8194 28.9626 27.8048 29.021C27.7902 29.0793 27.774 29.1369 27.757 29.1937C27.7391 29.2512 27.7205 29.3072 27.7002 29.3639C27.68 29.4199 27.6581 29.4758 27.6354 29.5309C27.6127 29.5861 27.5875 29.6404 27.5624 29.6947C27.5373 29.749 27.5097 29.8017 27.4813 29.8544C27.4529 29.9071 27.4229 29.959 27.3921 30.0101C26.6657 31.2174 25.5914 31.7306 24.286 32.0979C24.6939 33.4713 25.1982 34.754 24.4579 36.1136C23.7809 37.3574 22.4553 38.1503 21.1232 38.5241C20.4454 38.7146 19.4887 38.8078 18.8028 38.6927C18.4971 38.6416 18.0714 38.6538 17.7966 38.503L17.7244 38.3984C18.7006 38.6497 19.6735 38.6903 20.6538 38.426C21.7078 38.1414 22.6896 37.5357 23.2337 36.5652C24.089 35.0402 23.3253 33.3383 22.8899 31.7987C23.2515 31.8068 23.6001 31.8068 23.9561 31.733C24.8341 31.549 25.6587 31.0017 26.1468 30.246C26.1768 30.1998 26.2052 30.152 26.2327 30.1042C26.2603 30.0563 26.2862 30.0077 26.3114 29.9582C26.3365 29.9088 26.36 29.8593 26.3827 29.809C26.4054 29.7588 26.4265 29.7077 26.4468 29.6566C26.467 29.6055 26.4857 29.5536 26.5027 29.5009C26.5205 29.4482 26.5368 29.3955 26.5514 29.3428C26.566 29.2893 26.5797 29.2366 26.5919 29.1823C26.6041 29.1288 26.6154 29.0745 26.6251 29.0201C26.6349 28.9658 26.643 28.9115 26.6503 28.8564C26.6576 28.8012 26.6632 28.7469 26.6673 28.6918C26.6714 28.6367 26.6746 28.5815 26.6762 28.5264C26.6778 28.4713 26.6778 28.4161 26.6762 28.361C26.6754 28.3059 26.673 28.2507 26.6689 28.1956C26.6649 28.1405 26.66 28.0853 26.6535 28.031C26.647 27.9759 26.6389 27.9215 26.63 27.8672C26.6211 27.8129 26.6105 27.7586 26.5984 27.7051C26.2579 26.1386 24.8982 24.8033 23.5961 23.969C24.8503 23.2831 26.1208 21.9972 26.9349 20.8524C27.063 20.8459 27.1911 20.8386 27.3184 20.8248C27.3824 20.8175 27.4456 20.8086 27.5089 20.7972C27.5721 20.7867 27.6354 20.7745 27.6978 20.7608C27.7602 20.747 27.8227 20.7316 27.8851 20.7146C27.9467 20.6975 28.0083 20.6789 28.0691 20.6594C28.1299 20.6391 28.1908 20.6181 28.2507 20.5946C28.3107 20.5719 28.3699 20.5467 28.4291 20.5208C28.4875 20.4948 28.5459 20.4673 28.6034 20.4381C28.661 20.4089 28.7178 20.3789 28.7729 20.3473C28.8288 20.3156 28.884 20.2824 28.9383 20.2475C28.9926 20.2127 29.0461 20.177 29.098 20.1397C29.1507 20.1024 29.2018 20.0643 29.2521 20.0246C29.3023 19.9848 29.3518 19.9435 29.4004 19.9013C29.4491 19.8592 29.4961 19.8154 29.5423 19.7708C29.5885 19.7262 29.6339 19.6808 29.6777 19.6338C29.7215 19.5868 29.7645 19.5389 29.8058 19.4903C29.8472 19.4416 29.8877 19.3914 29.9266 19.3403C30.6636 18.3868 31.0293 17.0709 30.8655 15.8742C30.7106 14.7432 30.1374 13.9908 29.2496 13.3219C29.2667 10.3131 28.0708 7.3724 26.0925 5.13223C23.331 2.0083 19.6549 0.562689 15.5597 0.311348C15.5515 0.309726 15.5434 0.308105 15.5353 0.305673C15.3383 0.232703 15.0959 0.15649 14.8818 0.200272C14.821 0.212433 14.7667 0.222162 14.7043 0.227838C14.9062 0.159733 15.1308 0.137842 15.3432 0.124058L15.4291 0.119194L15.0764 0.0835196L15.0772 0.0827089Z" fill="#231F20"/>
</g>
<path d="M1.74238 13.1882C1.74076 13.0933 1.73914 12.9984 1.73995 12.9036C1.73995 12.8087 1.74157 12.7139 1.744 12.619C1.74643 12.5241 1.74968 12.4293 1.75454 12.3352C1.75941 12.2404 1.76508 12.1463 1.77157 12.0515C1.77805 11.9566 1.78616 11.8625 1.79508 11.7685C1.804 11.6744 1.81373 11.5796 1.82508 11.4855C1.83643 11.3915 1.84859 11.2974 1.86156 11.2034C1.87454 11.1093 1.88913 11.0161 1.90453 10.9229C1.91994 10.8296 1.93616 10.7364 1.95399 10.6431C1.97183 10.5499 1.99048 10.4575 2.00994 10.3642C2.02939 10.2718 2.05047 10.1794 2.07237 10.0869C2.09426 9.99451 2.11696 9.90289 2.14128 9.81128C2.1656 9.71966 2.18993 9.62804 2.21668 9.53723C2.24263 9.44643 2.2702 9.35562 2.29776 9.26481C2.32614 9.17401 2.35533 9.08401 2.38533 8.99482C2.41532 8.90483 2.44694 8.81564 2.47938 8.72646C2.51181 8.63727 2.54505 8.5489 2.5791 8.46052C2.61315 8.37215 2.64883 8.28458 2.68531 8.19702C2.7218 8.10946 2.75909 8.0227 2.7972 7.93595C2.83531 7.8492 2.87503 7.76325 2.91557 7.67731C2.95611 7.59137 2.99746 7.50624 3.03962 7.42192C3.08178 7.33679 3.12556 7.25246 3.16935 7.16895C3.21394 7.08544 3.25853 7.00193 3.30475 6.91923C3.35096 6.83654 3.39799 6.75465 3.44582 6.67276C3.49366 6.59087 3.54312 6.50979 3.59257 6.42953C3.64284 6.34926 3.69311 6.26899 3.745 6.18954C3.79689 6.11008 3.84959 6.03143 3.9031 5.9536C3.95661 5.87577 4.01093 5.79793 4.06688 5.72091C4.12201 5.64388 4.17876 5.56767 4.23552 5.49227C4.29227 5.41687 4.35065 5.34146 4.40984 5.26768C4.46902 5.19309 4.52821 5.12012 4.58902 5.04715C4.64983 4.97418 4.71063 4.90202 4.77306 4.83067C7.4162 1.8081 11.1417 0.351942 15.0772 0.0827637L15.4299 0.118438L15.344 0.123303C15.1316 0.137086 14.907 0.159787 14.7051 0.227082C14.7675 0.221407 14.8218 0.211677 14.8826 0.199516C15.0967 0.155734 15.3391 0.231947 15.5361 0.304917C15.5442 0.30816 15.5523 0.30897 15.5605 0.310592C19.6557 0.561933 23.3326 2.00755 26.0908 5.1339C28.0683 7.37489 29.2642 10.3156 29.248 13.3236C30.1358 13.9925 30.709 14.744 30.8639 15.8759C31.0276 17.0718 30.662 18.3877 29.925 19.342C29.8861 19.393 29.8455 19.4425 29.8042 19.492C29.7628 19.5406 29.7199 19.5892 29.6761 19.6355C29.6323 19.6825 29.5869 19.7279 29.5407 19.7725C29.4945 19.8171 29.4474 19.86 29.3988 19.903C29.3501 19.9452 29.3007 19.9865 29.2504 20.0263C29.2001 20.066 29.1483 20.1041 29.0964 20.1414C29.0437 20.1787 28.991 20.2144 28.9366 20.2492C28.8823 20.2841 28.8272 20.3165 28.7712 20.3489C28.7153 20.3806 28.6586 20.4114 28.6018 20.4398C28.5442 20.4689 28.4867 20.4965 28.4275 20.5224C28.3691 20.5484 28.3091 20.5727 28.2491 20.5962C28.1891 20.6189 28.1283 20.6408 28.0675 20.6611C28.0067 20.6814 27.9451 20.7 27.8834 20.7162C27.8218 20.7333 27.7594 20.7487 27.6962 20.7624C27.6337 20.7762 27.5705 20.7884 27.5072 20.7989C27.444 20.8095 27.3808 20.8184 27.3167 20.8265C27.1894 20.8411 27.0613 20.8476 26.9332 20.8541C26.1192 21.9989 24.8495 23.2848 23.5944 23.9707C24.8957 24.805 26.2562 26.1403 26.5967 27.7067C26.6089 27.7603 26.6194 27.8146 26.6284 27.8689C26.6373 27.9232 26.6454 27.9775 26.6519 28.0327C26.6584 28.0878 26.6632 28.1421 26.6673 28.1973C26.6713 28.2524 26.6738 28.3075 26.6746 28.3627C26.6754 28.4178 26.6754 28.4729 26.6746 28.5281C26.673 28.5832 26.6697 28.6383 26.6657 28.6935C26.6616 28.7486 26.6559 28.8029 26.6486 28.858C26.6413 28.9132 26.6332 28.9675 26.6235 29.0218C26.6138 29.0761 26.6032 29.1305 26.5903 29.184C26.5781 29.2375 26.5643 29.291 26.5497 29.3445C26.5351 29.3972 26.5189 29.4499 26.5011 29.5026C26.4832 29.5553 26.4646 29.6072 26.4451 29.6583C26.4249 29.7094 26.4038 29.7604 26.3811 29.8107C26.3584 29.861 26.3349 29.9112 26.3097 29.9599C26.2846 30.0094 26.2587 30.058 26.2311 30.1058C26.2035 30.1537 26.1751 30.2007 26.1451 30.2477C25.6571 31.0034 24.8325 31.5506 23.9544 31.7347C23.5985 31.8093 23.2499 31.8085 22.8883 31.8004C23.3236 33.34 24.0882 35.0418 23.232 36.5669C22.688 37.5374 21.7061 38.1439 20.6521 38.4277C19.6727 38.692 18.6998 38.6506 17.7228 38.4001L17.795 38.5047C16.9639 38.3101 16.2358 37.8293 15.6496 37.2196C14.5859 38.2614 13.0219 38.8468 11.5341 38.8201C11.3639 38.8168 11.1887 38.8079 11.0209 38.7812C10.7607 38.7601 10.4817 38.7001 10.2312 38.6279C10.1615 38.6085 10.0926 38.5874 10.0237 38.5647C9.95474 38.542 9.88663 38.5176 9.81934 38.4909C9.75204 38.4649 9.68556 38.4366 9.61908 38.4074C9.5534 38.3782 9.48773 38.3466 9.42287 38.3141C9.35801 38.2817 9.29477 38.2468 9.23234 38.2112C9.1691 38.1755 9.10748 38.1382 9.04667 38.0993C8.98586 38.0604 8.92586 38.0198 8.86668 37.9777C8.80749 37.9355 8.74992 37.8925 8.69317 37.8479C8.63642 37.8034 8.58047 37.7571 8.52615 37.7093C8.47183 37.6615 8.41832 37.6128 8.36643 37.5625C8.31454 37.5123 8.26346 37.4612 8.214 37.4085C8.16454 37.3558 8.1159 37.3023 8.06887 37.2472C8.02185 37.192 7.97644 37.1361 7.93185 37.0785C7.88807 37.021 7.8451 36.9626 7.80375 36.9034C7.7624 36.8442 7.72267 36.7834 7.68456 36.7226C7.64646 36.661 7.60916 36.5993 7.5743 36.5361C6.80325 35.1294 7.28485 33.7024 7.70078 32.2682C7.48592 32.2447 7.26539 32.2252 7.05378 32.1822C6.13274 31.9941 5.28142 31.3796 4.77306 30.5931C4.22903 29.7515 4.10174 28.7072 4.31416 27.7384C4.65712 26.1687 5.93329 24.8358 7.24674 23.9926C6.00058 23.1826 4.89873 22.2762 4.0458 21.0446C2.78504 20.7519 1.73265 20.143 0.943764 19.0979C0.234334 18.1582 -0.131326 16.9112 0.0470448 15.7389C0.214065 14.6411 0.87728 13.8368 1.74481 13.1898L1.74238 13.1882Z" fill="#FEFEFD"/>
<g style="mix-blend-mode:multiply" opacity="0.3">
<path d="M10.9325 38.6595C11.5309 38.7941 12.2825 38.7139 12.8711 38.5622C13.7783 38.3279 14.9742 37.7515 15.4648 36.9115C16.1182 37.6063 16.8228 38.0774 17.7203 38.3985L17.7925 38.5031C16.9615 38.3085 16.2334 37.8277 15.6472 37.218C14.5834 38.2598 13.0195 38.8452 11.5317 38.8184C11.3614 38.8152 11.1863 38.8063 11.0185 38.7795L10.9317 38.6595H10.9325Z" fill="#231F20"/>
</g>
<g style="mix-blend-mode:multiply" opacity="0.3">
<path d="M1.74237 13.1882C1.74075 13.0933 1.73913 12.9984 1.73994 12.9036C1.73994 12.8087 1.74156 12.7139 1.74399 12.619C1.74642 12.5241 1.74967 12.4293 1.75453 12.3352C1.7594 12.2404 1.76507 12.1463 1.77156 12.0515C1.77804 11.9566 1.78615 11.8625 1.79507 11.7685C1.80399 11.6744 1.81372 11.5796 1.82507 11.4855C1.83642 11.3915 1.84858 11.2974 1.86155 11.2034C1.87453 11.1093 1.88912 11.0161 1.90453 10.9229C1.91993 10.8296 1.93615 10.7364 1.95398 10.6431C1.97182 10.5499 1.99047 10.4575 2.00993 10.3642C2.02939 10.2718 2.05047 10.1794 2.07236 10.0869C2.09425 9.99451 2.11695 9.90289 2.14127 9.81128C2.1656 9.71966 2.18992 9.62804 2.21668 9.53723C2.24262 9.44643 2.27019 9.35562 2.29775 9.26481C2.32613 9.17401 2.35532 9.08401 2.38532 8.99482C2.41532 8.90483 2.44694 8.81564 2.47937 8.72646C2.5118 8.63727 2.54504 8.5489 2.57909 8.46052C2.61314 8.37215 2.64882 8.28458 2.6853 8.19702C2.72179 8.10946 2.75908 8.0227 2.79719 7.93595C2.8353 7.8492 2.87503 7.76325 2.91557 7.67731C2.9561 7.59137 2.99745 7.50624 3.03961 7.42192C3.08177 7.33679 3.12556 7.25246 3.16934 7.16895C3.21393 7.08544 3.25852 7.00193 3.30474 6.91923C3.35095 6.83654 3.39798 6.75465 3.44581 6.67276C3.49365 6.59087 3.54311 6.50979 3.59256 6.42953C3.64283 6.34926 3.6931 6.26899 3.74499 6.18954C3.79688 6.11008 3.84958 6.03143 3.90309 5.9536C3.9566 5.87577 4.01092 5.79793 4.06687 5.72091C4.122 5.64388 4.17876 5.56767 4.23551 5.49227C4.29226 5.41687 4.35064 5.34146 4.40983 5.26768C4.46901 5.19309 4.5282 5.12012 4.58901 5.04715C4.64982 4.97418 4.71063 4.90202 4.77306 4.83067C7.41619 1.8081 11.1417 0.351942 15.0772 0.0827637L15.4299 0.118438L15.344 0.123303C15.1315 0.137086 14.907 0.159787 14.7051 0.227082C14.7675 0.221407 14.8218 0.211677 14.8826 0.199516C15.0967 0.155734 15.3391 0.231947 15.5361 0.304917C15.5442 0.30816 15.5523 0.30897 15.5604 0.310592C11.6776 0.307349 8.19453 1.54297 5.40951 4.30934C5.33979 4.37907 5.27087 4.44961 5.20277 4.52096C5.13466 4.5923 5.06737 4.66446 5.00169 4.73824C4.93521 4.81121 4.87035 4.885 4.80549 4.9604C4.74144 5.03499 4.67738 5.11039 4.61495 5.1866C4.55252 5.26282 4.4909 5.33984 4.4301 5.41768C4.36929 5.49551 4.30929 5.57416 4.25091 5.6528C4.19254 5.73226 4.13416 5.81171 4.07741 5.89279C4.02065 5.97306 3.96471 6.05495 3.90958 6.13684C3.85444 6.21872 3.80093 6.30142 3.74823 6.38493C3.69553 6.46844 3.64364 6.55195 3.59256 6.63627C3.54149 6.72059 3.49203 6.80573 3.44338 6.89167C3.39473 6.97761 3.3469 7.06355 3.29987 7.15031C3.25285 7.23706 3.20744 7.32462 3.16285 7.413C3.11826 7.50056 3.07448 7.58975 3.03232 7.67893C2.99016 7.76812 2.94881 7.8573 2.90827 7.9473C2.86773 8.0373 2.82881 8.1281 2.79071 8.21891C2.7526 8.30972 2.71611 8.40134 2.67963 8.49295C2.64395 8.58457 2.60909 8.677 2.57585 8.77024C2.54261 8.86267 2.51018 8.95591 2.47856 9.04996C2.44694 9.1432 2.41694 9.23725 2.38775 9.3313C2.35856 9.42535 2.33099 9.52021 2.30424 9.61507C2.27748 9.70993 2.25154 9.8056 2.22722 9.90127C2.20289 9.99694 2.17938 10.0926 2.15749 10.1891C2.1356 10.2856 2.11452 10.3813 2.09506 10.4785C2.0756 10.575 2.05695 10.6723 2.03911 10.7688C2.02209 10.8661 2.00587 10.9634 1.99047 11.0607C1.97506 11.158 1.96128 11.2561 1.94912 11.3534C1.93615 11.4515 1.9248 11.5488 1.91507 11.6469C1.90453 11.745 1.89561 11.8431 1.8875 11.9412C1.87939 12.0393 1.87291 12.1382 1.86723 12.2363C1.86155 12.3344 1.8575 12.4333 1.85426 12.5322C1.85101 12.6312 1.84939 12.7293 1.84858 12.8282C1.84858 12.9733 1.85101 13.1184 1.85507 13.2636C1.02808 13.8125 0.369725 14.594 0.175139 15.5889C-0.0462036 16.7183 0.277296 17.9345 0.919432 18.8741C1.69291 20.0068 2.81746 20.6781 4.14551 20.9546C4.88575 22.2283 6.23002 23.2588 7.49159 23.9755C6.153 24.7571 4.86224 26.043 4.45766 27.5827C4.20551 28.5443 4.32632 29.6275 4.83954 30.4845C5.28709 31.2312 6.05165 31.815 6.89972 32.0225C7.22241 32.1012 7.51754 32.1028 7.84752 32.0995C7.44862 33.5484 6.86648 35.0751 7.66672 36.4931C8.24156 37.5115 9.19098 38.2258 10.3139 38.5347C10.519 38.5906 10.7209 38.6312 10.9317 38.6587L11.0185 38.7787C10.7582 38.7576 10.4793 38.6976 10.2288 38.6255C10.159 38.606 10.0901 38.5849 10.0212 38.5622C9.9523 38.5395 9.88419 38.5152 9.8169 38.4885C9.7496 38.4625 9.68312 38.4341 9.61664 38.4049C9.55096 38.3758 9.48529 38.3441 9.42043 38.3117C9.35557 38.2793 9.29233 38.2444 9.2299 38.2087C9.16666 38.1731 9.10504 38.1358 9.04423 38.0969C8.98342 38.0579 8.92342 38.0174 8.86424 37.9752C8.80505 37.9331 8.74748 37.8901 8.69073 37.8455C8.63398 37.8009 8.57803 37.7547 8.52371 37.7069C8.46939 37.659 8.41588 37.6104 8.36399 37.5601C8.3121 37.5098 8.26102 37.4588 8.21156 37.4061C8.1621 37.3534 8.11346 37.2999 8.06643 37.2447C8.01941 37.1896 7.974 37.1337 7.92941 37.0761C7.88563 37.0185 7.84266 36.9601 7.80131 36.901C7.75996 36.8418 7.72023 36.781 7.68212 36.7202C7.64402 36.6585 7.60672 36.5969 7.57186 36.5337C6.80081 35.127 7.28241 33.7 7.69834 32.2657C7.48348 32.2422 7.26295 32.2228 7.05134 32.1798C6.1303 31.9917 5.27898 31.3771 4.77062 30.5907C4.22659 29.7491 4.0993 28.7048 4.31172 27.7359C4.65468 26.1663 5.93084 24.8334 7.2443 23.9901C5.99814 23.1802 4.89629 22.2737 4.04336 21.0422C2.7826 20.7495 1.73021 20.1406 0.941323 19.0955C0.231893 18.1558 -0.133768 16.9088 0.0446034 15.7364C0.211623 14.6386 0.874839 13.8344 1.74237 13.1874V13.1882Z" fill="#231F20"/>
</g>
<path d="M14.2616 1.79591C14.7213 1.76753 15.1818 1.75537 15.6432 1.75943C15.7478 1.75943 15.8532 1.76186 15.9578 1.7651C16.0623 1.76835 16.1677 1.77321 16.2723 1.77889C16.3769 1.78456 16.4815 1.79186 16.5869 1.79997C16.6915 1.80807 16.7961 1.8178 16.9007 1.82915C17.0053 1.8405 17.1091 1.85267 17.2136 1.86564C17.3174 1.87942 17.422 1.89402 17.5258 1.91023C17.6296 1.92645 17.7334 1.94347 17.8363 1.96212C17.9393 1.98077 18.0431 2.00023 18.1452 2.02212C18.2482 2.0432 18.3504 2.0659 18.4525 2.08941C18.5547 2.11293 18.6568 2.13806 18.7582 2.164C18.8595 2.18995 18.9609 2.21752 19.0622 2.24589C19.1636 2.27427 19.2641 2.30427 19.3638 2.33589C19.4644 2.3667 19.5641 2.39913 19.663 2.43318C19.7627 2.46642 19.8616 2.50129 19.9597 2.53777C20.0587 2.57345 20.1568 2.61074 20.2541 2.64966C20.3522 2.68777 20.4486 2.72749 20.5459 2.76803C20.6424 2.80857 20.7389 2.85073 20.8346 2.8937C20.9303 2.93668 21.0251 2.98127 21.12 3.02667C21.2148 3.07208 21.3089 3.1191 21.4021 3.16694C21.4954 3.21477 21.5886 3.26342 21.681 3.31369C21.7735 3.36395 21.8651 3.41503 21.9559 3.46692C22.0467 3.51962 22.1375 3.57232 22.2267 3.62746C22.3167 3.68178 22.4051 3.73772 22.4934 3.79448C22.5818 3.85123 22.6694 3.9088 22.7561 3.96798C22.8429 4.02717 22.9288 4.08717 23.0148 4.14798C23.0999 4.20878 23.185 4.27121 23.2685 4.33364C23.352 4.39688 23.4356 4.46094 23.5183 4.5258C23.601 4.59066 23.682 4.65714 23.7631 4.72363C23.8442 4.79092 23.9236 4.85903 24.0031 4.92794C24.0817 4.99686 24.1604 5.06659 24.2374 5.13793C24.3144 5.20928 24.3915 5.28063 24.4669 5.3536C24.5423 5.42657 24.6169 5.50035 24.6906 5.57494C27.1189 8.05998 27.9046 10.7826 27.8664 14.174C28.3991 14.384 28.8637 14.6516 29.1888 15.1445C29.5772 15.734 29.6283 16.4588 29.4718 17.1309C29.2845 17.9344 28.7826 18.7371 28.074 19.1757C27.4854 19.5406 26.87 19.5835 26.2141 19.4311C24.7628 21.7467 22.8834 22.9531 20.3724 23.8977C20.8986 24.1207 21.4191 24.3542 21.9194 24.6323C23.1761 25.3328 24.805 26.4784 25.1925 27.9605C25.3247 28.4672 25.2687 28.9918 24.9906 29.4402C24.972 29.4694 24.9533 29.4985 24.9331 29.5261C24.9136 29.5545 24.8925 29.5821 24.8714 29.6096C24.8504 29.6372 24.8285 29.6639 24.8058 29.6899C24.7831 29.7158 24.7596 29.7418 24.736 29.7661C24.7125 29.7912 24.6874 29.8156 24.6623 29.8391C24.6371 29.8626 24.6112 29.8861 24.5852 29.908C24.5585 29.9307 24.5317 29.9518 24.5042 29.9728C24.4766 29.9939 24.449 30.0142 24.4206 30.0337C24.3923 30.0531 24.3631 30.0718 24.3339 30.0904C24.3047 30.1082 24.2747 30.1261 24.2447 30.1423C24.2147 30.1585 24.1839 30.1747 24.1523 30.1901C24.1215 30.2055 24.0898 30.2193 24.0582 30.2331C24.0266 30.2469 23.9942 30.259 23.9617 30.2712C23.9293 30.2834 23.8969 30.2939 23.8636 30.3045C23.8304 30.315 23.7972 30.3239 23.7639 30.332C23.7307 30.3401 23.6966 30.3482 23.6626 30.3547C22.894 30.508 22.264 30.2672 21.6332 29.8545C21.6608 30.2153 21.6681 30.5671 21.6478 30.9288C21.4759 30.9677 21.2983 30.9936 21.1248 31.0244C21.4516 32.2495 22.4894 34.3997 22.0921 35.6053C21.9186 36.1331 21.5116 36.5012 21.0251 36.7428C20.1406 37.1823 19.0233 37.2812 18.0844 36.9642C16.8918 36.5612 16.3956 35.6694 15.8759 34.5991C15.7729 34.3591 15.6545 34.1281 15.5353 33.8962C15.027 34.9032 14.6386 36.0496 13.6349 36.6763C12.7811 37.2098 11.6963 37.3323 10.7258 37.1028C10.0464 36.9423 9.39046 36.6058 9.02399 35.9848C8.98345 35.9158 8.94697 35.8453 8.91453 35.7715C8.8821 35.6986 8.85454 35.6231 8.83184 35.5469C8.80913 35.4699 8.79049 35.3929 8.77751 35.3134C8.76454 35.2348 8.75562 35.1553 8.75238 35.0751C8.70941 34.0154 9.32317 32.1214 9.59883 31.0504C9.48775 31.0123 9.34506 30.9742 9.2656 30.8833C9.07101 30.6596 9.27938 30.0823 9.33127 29.818C9.0402 30.1545 8.69481 30.4001 8.26105 30.5169C7.75431 30.6531 7.21352 30.6101 6.75625 30.3434C6.29897 30.0758 6.01601 29.621 5.8952 29.1126C5.74602 28.4851 5.83196 27.7562 6.28518 27.273C6.46112 27.0849 6.67436 26.9324 6.80651 26.7087C6.78057 26.5814 6.7676 26.497 6.78787 26.3665C7.52 25.319 9.58991 24.355 10.7591 23.8799C8.28861 22.9702 6.40599 21.8099 4.94011 19.5811L4.93686 19.4936L4.86551 19.4636C4.15365 19.4676 3.56584 19.3484 2.96424 18.943C2.92127 18.9138 2.87911 18.883 2.83776 18.8514C2.79641 18.8198 2.75587 18.7874 2.71614 18.7533C2.67642 18.7201 2.6375 18.6852 2.59939 18.6495C2.56129 18.6139 2.52399 18.5774 2.48832 18.5401C2.45183 18.5028 2.41697 18.4647 2.3821 18.4249C2.34805 18.386 2.314 18.3463 2.28238 18.305C2.24995 18.2644 2.21833 18.2223 2.18833 18.1801C2.15833 18.1379 2.12914 18.095 2.10076 18.0512C2.07239 18.0074 2.04563 17.9628 2.01969 17.9182C1.99374 17.8728 1.96861 17.8274 1.94509 17.7812C1.92158 17.735 1.89888 17.688 1.8778 17.6401C1.85672 17.5923 1.83645 17.5444 1.81699 17.4958C1.79834 17.4471 1.78051 17.3985 1.76348 17.349C1.74727 17.2996 1.73186 17.2501 1.71727 17.1999C1.70348 17.1496 1.69051 17.0993 1.67835 17.0482C1.667 16.9972 1.65646 16.9461 1.64754 16.895C1.53808 16.3031 1.58268 15.6715 1.94104 15.1672C2.27184 14.7027 2.73966 14.5186 3.27882 14.4294C3.06316 11.299 3.8642 8.26267 5.92925 5.85304C8.06565 3.3599 11.0363 2.05212 14.2624 1.79429L14.2616 1.79591Z" fill="#030301"/>
<path d="M14.1318 24.5681C15.0456 24.6062 15.9391 24.6062 16.8528 24.5616C16.7263 24.7741 16.5893 24.9654 16.4369 25.16C16.3144 25.2768 16.1839 25.3911 16.0388 25.4794C15.8045 25.623 15.5069 25.6611 15.2426 25.5889C14.7261 25.4478 14.3905 25.0076 14.1318 24.5689V24.5681Z" fill="#F7C7AC"/>
<path d="M3.26096 15.0423L3.30717 15.0545C3.43122 15.2069 3.50743 15.9925 3.56743 16.2406C3.78796 17.1487 4.11795 18.0779 4.52334 18.9203C4.24848 18.8627 3.98741 18.7881 3.72067 18.7005C3.62013 18.6551 3.52284 18.6049 3.42879 18.5457C3.39068 18.5214 3.3542 18.4962 3.31771 18.4695C3.28123 18.4435 3.24555 18.416 3.20988 18.3884C3.17501 18.36 3.14015 18.3316 3.1061 18.3016C3.07205 18.2716 3.03961 18.2416 3.00718 18.21C2.97475 18.1784 2.94394 18.1468 2.91313 18.1135C2.88232 18.0803 2.85314 18.0471 2.82395 18.013C2.79476 17.9789 2.76719 17.9433 2.73963 17.9076C2.71206 17.8719 2.68612 17.8354 2.66098 17.7981C2.63585 17.7608 2.61152 17.7236 2.58801 17.6846C2.5645 17.6465 2.5418 17.6076 2.52072 17.5679C2.49883 17.5282 2.47856 17.4884 2.4591 17.4479C2.43964 17.4074 2.42099 17.3668 2.40315 17.3255C2.38532 17.2841 2.3691 17.242 2.3537 17.1998C2.33829 17.1576 2.3237 17.1147 2.31073 17.0725C2.29775 17.0295 2.28559 16.9866 2.27424 16.9428C2.26289 16.899 2.25316 16.8552 2.24424 16.8114C2.15587 16.3939 2.13884 15.9001 2.38937 15.5328C2.60585 15.2158 2.90259 15.1145 3.26258 15.0415L3.26096 15.0423Z" fill="#F7C7AC"/>
<path d="M21.6145 34.5043C21.6323 34.5237 21.6332 34.5229 21.6461 34.5586C21.7588 34.8651 21.6502 35.4083 21.4969 35.6791C21.2367 36.1388 20.7259 36.3837 20.2329 36.5142C19.3216 36.7558 18.4144 36.6707 17.5995 36.1923C17.3782 36.0318 17.1869 35.8526 16.9915 35.6613C17.1917 35.6613 17.3928 35.6548 17.5931 35.6426C17.7933 35.6304 17.9928 35.6118 18.1922 35.5875C18.3917 35.5631 18.5895 35.5323 18.7865 35.4959C18.9835 35.4594 19.1797 35.4164 19.3743 35.3677C19.5689 35.3191 19.7619 35.2648 19.9532 35.204C20.1446 35.1432 20.3335 35.0767 20.5208 35.0045C20.7081 34.9324 20.8929 34.8545 21.0753 34.771C21.2578 34.6875 21.4378 34.5983 21.6145 34.5043Z" fill="#32A7D7"/>
<path d="M27.7951 14.688C28.1907 14.8753 28.5199 15.1088 28.7323 15.502C29.025 16.0444 28.9756 16.6947 28.7907 17.2646C28.5588 17.9822 28.1761 18.5189 27.4975 18.8708C27.1619 18.9916 26.8051 19.007 26.4532 19.0354C27.1829 17.6538 27.6313 16.2414 27.7943 14.688H27.7951Z" fill="#F6A578"/>
<path d="M9.26477 34.441C10.6196 35.3321 12.3895 35.6134 13.9786 35.7237C13.7986 35.9126 13.6065 36.0739 13.4038 36.2377C12.6457 36.6845 11.809 36.8361 10.9406 36.6674C10.3763 36.5572 9.76259 36.3001 9.44152 35.7999C9.16423 35.3686 9.17153 34.9226 9.26477 34.441Z" fill="#32A7D7"/>
<path d="M6.91596 27.0387C7.05136 27.0759 7.69836 28.1608 7.83214 28.3375C8.17996 28.798 8.58697 29.1742 9.02885 29.5423C8.77751 29.9007 8.50995 30.0369 8.10943 30.178C7.89295 30.2299 7.66026 30.2607 7.4381 30.242C7.41216 30.2396 7.38702 30.2372 7.36108 30.2339C7.33513 30.2307 7.31 30.2266 7.28487 30.2218C7.25973 30.2169 7.2346 30.2112 7.20946 30.2055C7.18433 30.1991 7.1592 30.1926 7.13487 30.1853C7.11055 30.178 7.08541 30.1699 7.06109 30.161C7.03677 30.152 7.01244 30.1431 6.98893 30.1334C6.96542 30.1237 6.94191 30.1131 6.91839 30.1018C6.89488 30.0904 6.87218 30.0791 6.84948 30.0669C6.82678 30.0547 6.80489 30.0418 6.78218 30.028C6.76029 30.0142 6.7384 30.0004 6.71732 29.9858C6.69624 29.9712 6.67516 29.9558 6.65489 29.9404C6.63462 29.925 6.61435 29.9088 6.59489 29.8918C6.57544 29.8747 6.55598 29.8577 6.53733 29.8399C6.51868 29.822 6.50003 29.8042 6.48301 29.7856C6.46517 29.7669 6.44814 29.7475 6.43112 29.728C6.41409 29.7085 6.39788 29.6883 6.38247 29.668C6.36463 29.6445 6.3468 29.6202 6.33058 29.5958C6.31356 29.5715 6.29734 29.5464 6.28194 29.5212C6.26653 29.4961 6.25113 29.4702 6.23734 29.4442C6.22356 29.4183 6.20978 29.3923 6.1968 29.3656C6.18383 29.3388 6.17167 29.3121 6.16032 29.2845C6.14897 29.2569 6.13762 29.2294 6.12789 29.2018C6.11735 29.1742 6.10843 29.1459 6.09951 29.1175C6.09059 29.0891 6.08248 29.0607 6.07519 29.0324C6.06789 29.004 6.0614 28.9748 6.05492 28.9456C6.04924 28.9164 6.04357 28.8872 6.03951 28.858C6.03465 28.8288 6.0314 28.7997 6.02816 28.7697C6.02492 28.7405 6.02249 28.7105 6.02086 28.6813C6.01924 28.6513 6.01843 28.6221 6.01843 28.5921C6.01843 28.5621 6.01843 28.5329 6.02005 28.5029C6.02168 28.4729 6.0233 28.4437 6.02654 28.4145C6.02897 28.3854 6.03303 28.3554 6.03708 28.3262C6.12627 27.7497 6.47247 27.3751 6.91758 27.0378L6.91596 27.0387Z" fill="#F7C7AC"/>
<path d="M23.9212 26.5472C24.0314 26.6453 24.1401 26.7451 24.2398 26.8537C24.6427 27.294 24.9671 27.8648 24.9241 28.4801C24.9217 28.5085 24.9192 28.5369 24.9152 28.5653C24.9119 28.5936 24.9071 28.622 24.9022 28.6504C24.8973 28.6788 24.8917 28.7063 24.8852 28.7347C24.8787 28.7623 24.8714 28.7899 24.8641 28.8174C24.856 28.845 24.8479 28.8726 24.8381 28.8993C24.8292 28.9261 24.8187 28.9528 24.8081 28.9796C24.7976 29.0063 24.7863 29.0323 24.7741 29.0582C24.7619 29.0842 24.7498 29.1101 24.7368 29.1352C24.7238 29.1604 24.71 29.1855 24.6955 29.2098C24.6809 29.2342 24.6663 29.2585 24.65 29.2828C24.6346 29.3063 24.6176 29.3298 24.6014 29.3533C24.5844 29.376 24.5665 29.3987 24.5487 29.4214C24.5309 29.4433 24.5122 29.4652 24.4928 29.4863C24.4733 29.5074 24.4538 29.5285 24.4336 29.5487C24.4133 29.569 24.393 29.5885 24.3711 29.6079C24.3501 29.6274 24.3282 29.646 24.3063 29.6639C23.8636 30.0214 23.3106 30.1406 22.7553 30.0741C22.2761 29.912 22.0012 29.7401 21.7004 29.3282C22.7869 28.5466 23.4055 27.7829 23.9212 26.5472Z" fill="#F7C7AC"/>
<path d="M19.4627 24.1352C19.6232 24.1514 19.8267 24.2455 19.9848 24.2982C21.2902 24.7376 22.5307 25.4973 23.5652 26.3973C23.5344 26.4857 23.5012 26.5724 23.4655 26.6592C23.4298 26.7451 23.3917 26.8302 23.3512 26.9146C23.3106 26.9989 23.2677 27.0816 23.2231 27.1635C23.1777 27.2453 23.1306 27.3256 23.0812 27.4051C23.0317 27.4845 22.9798 27.5616 22.9263 27.6378C22.8728 27.714 22.8169 27.7886 22.7585 27.8615C22.7001 27.9345 22.6401 28.0059 22.5785 28.0756C22.5169 28.1453 22.4528 28.2134 22.3872 28.2799C22.0791 28.5523 21.7434 28.7518 21.381 28.9415C20.6578 26.9591 20.1721 25.9141 18.7695 24.2884L19.4635 24.1344L19.4627 24.1352Z" fill="#8DD6F3"/>
<path d="M11.5836 24.1344L12.216 24.2747C10.905 25.4365 9.96529 27.6434 9.46667 29.299C9.13911 29.0688 8.83507 28.8231 8.54887 28.5426C7.97889 27.9313 7.5581 27.2826 7.20135 26.5294C8.57562 25.3076 9.90449 24.7619 11.5836 24.1344Z" fill="#8DD6F3"/>
<path d="M6.88191 14.1586C7.18028 14.2502 7.48594 14.2583 7.7916 14.311L7.76323 14.3953L7.78593 14.4764C7.41054 15.0715 6.59652 15.2831 6.05087 15.6828C6.06627 17.5533 6.56976 19.1076 7.91809 20.4324C9.83071 22.3117 13.1557 23.1282 15.7826 23.0885C19.2187 23.0358 22.1002 22.1366 24.5431 19.6159C25.7373 18.3835 26.206 16.8601 26.6308 15.241L27.17 15.365C26.8708 16.7109 26.4524 17.9862 25.7446 19.1797C24.3915 21.4637 22.1367 22.8696 19.5998 23.5117C15.9853 24.4271 11.7985 24.2244 8.54725 22.2704C6.09222 20.7948 4.81281 18.7103 4.12689 15.9739C4.55336 15.609 5.06415 15.3415 5.54251 15.052C6.00384 14.7772 6.45058 14.4796 6.88191 14.1594V14.1586Z" fill="#F6A578"/>
<path d="M10.035 31.1079C13.3073 31.69 17.3482 31.6576 20.6262 31.1339C20.9465 32.1562 21.2594 33.1811 21.5651 34.2083C20.6181 34.711 19.6525 35.0126 18.5976 35.195C18.009 35.2875 17.4171 35.3077 16.8228 35.3337C16.5837 34.8845 16.3518 34.424 16.1507 33.9562C16.0218 33.6562 15.9196 33.3148 15.7615 33.0303C15.6991 32.9184 15.6683 32.8738 15.5451 32.8373C15.2961 32.9824 14.427 34.9745 14.1992 35.3888C12.7892 35.4164 10.4542 35.0256 9.31018 34.1386C9.45126 33.1308 9.75449 32.0873 10.035 31.1087V31.1079Z" fill="#0F5499"/>
<path d="M12.6692 24.3419C12.9732 24.4141 13.2829 24.4595 13.5927 24.4992C13.8724 25.0927 14.2251 25.6051 14.8453 25.8897C15.2304 26.0664 15.6593 26.0973 16.0574 25.9432C16.7158 25.6886 17.0798 25.1057 17.3498 24.4927L18.3357 24.3687C19.9775 26.2886 20.7388 28.0626 21.2123 30.5063C20.7559 30.6181 20.2775 30.6676 19.8113 30.7187C16.9841 31.1079 12.4584 31.1184 9.65228 30.5038C10.2344 28.2199 11.0541 26.1167 12.6684 24.3419H12.6692Z" fill="#8DD6F3"/>
<path d="M15.4591 10.0188C16.2123 11.4101 17.0807 13.3698 18.7136 13.8587C19.6297 14.1327 20.6829 14.0824 21.6291 14.2681C21.9891 14.3387 22.6507 14.8884 22.9782 14.7594C23.0755 14.6459 23.0974 14.5551 23.0812 14.41C23.052 14.1433 22.9142 13.8441 22.7861 13.6106C23.9893 14.4157 25.203 14.9548 26.6308 15.2386C26.2051 16.8577 25.7373 18.3812 24.543 19.6136C22.1002 22.1343 19.2187 23.0334 15.7826 23.0861C13.1557 23.1259 9.83069 22.3094 7.91806 20.43C6.56974 19.1052 6.06625 17.551 6.05084 15.6805C6.5965 15.2816 7.41052 15.07 7.78591 14.4741L7.7632 14.393L7.79158 14.3087C9.66448 14.4076 11.7928 14.4692 13.2805 13.1209C14.2348 12.2558 14.8324 11.1215 15.4583 10.0172L15.4591 10.0188Z" fill="#F7C7AC"/>
<path d="M20.9975 14.7821C21.321 14.7724 21.6291 14.8178 21.9251 14.9532C22.157 15.0594 22.5396 15.3027 22.6053 15.5718C22.6321 15.6829 22.615 15.7154 22.551 15.7948C22.4602 15.8232 22.3986 15.8248 22.3045 15.8183C22.0921 15.6448 21.891 15.4721 21.6324 15.3708C21.3283 15.2508 20.7835 15.301 20.567 15.0765L20.6027 14.9865C20.7348 14.8786 20.8313 14.8219 20.9983 14.7838L20.9975 14.7821Z" fill="#030301"/>
<path d="M9.81204 14.6013C10.0253 14.5802 10.1753 14.573 10.3699 14.6727C10.4023 14.7189 10.442 14.7505 10.4388 14.8105C10.4355 14.8689 10.3966 14.967 10.3536 15.0067C10.202 15.147 9.52827 15.117 9.05477 15.6107L9.0118 15.6561C8.9518 15.7186 8.90883 15.7364 8.82695 15.7632C8.70533 15.717 8.70209 15.7129 8.63236 15.6034C8.61858 15.4875 8.61776 15.4113 8.67047 15.3051C8.87965 14.8762 9.39368 14.7335 9.81366 14.6021L9.81204 14.6013Z" fill="#030301"/>
<path d="M17.6182 19.0848L17.7593 19.1181C17.8331 19.1894 17.8744 19.2186 17.8655 19.3329C17.8436 19.6118 17.4755 19.9702 17.2631 20.1405C16.6866 20.601 15.8783 20.7737 15.1551 20.6886C14.4383 20.6034 13.8594 20.2645 13.4143 19.7018C13.3811 19.6467 13.3462 19.5916 13.3187 19.5332C13.253 19.3905 13.2441 19.2381 13.3024 19.0962C13.5781 19.11 13.9365 19.7367 14.1781 19.9021C14.701 20.2613 15.4469 20.3213 16.0599 20.2134C16.8455 20.0756 17.178 19.7099 17.6182 19.0856V19.0848Z" fill="#030301"/>
<path d="M9.0126 18.7346C9.40745 18.7395 9.78122 18.7581 10.1282 18.9722C10.3463 19.1068 10.5458 19.32 10.5928 19.5794C10.6236 19.7513 10.5831 19.9208 10.4752 20.0578C10.2182 20.3854 9.76582 20.4348 9.38313 20.4932C8.87883 20.5054 8.32425 20.4827 7.90103 20.1713C7.7332 20.0473 7.60428 19.8721 7.58645 19.6589C7.57185 19.4813 7.63915 19.3216 7.75671 19.1903C8.0721 18.84 8.5683 18.7703 9.01179 18.7346H9.0126Z" fill="#E978A3"/>
<path d="M22.0831 18.6844C22.5064 18.6714 22.9531 18.6949 23.3261 18.9171C23.5255 19.0354 23.6925 19.2162 23.7379 19.4498C23.7744 19.6379 23.7242 19.8268 23.6082 19.9784C23.3309 20.3408 22.8501 20.4227 22.4269 20.4794C21.9915 20.5054 21.5229 20.4908 21.1499 20.2338C20.9594 20.1024 20.8062 19.9103 20.7762 19.676C20.7527 19.4943 20.8127 19.3176 20.9262 19.1765C21.2002 18.8352 21.6729 18.7403 22.0831 18.6844Z" fill="#E978A3"/>
<path d="M10.6033 15.5726C10.9349 15.5474 11.2333 15.5701 11.5325 15.7274C11.8827 15.9123 12.1349 16.2309 12.2492 16.6087C12.3749 17.0255 12.3392 17.4941 12.1219 17.8744C11.8949 18.2741 11.5527 18.4573 11.1255 18.5781C10.8433 18.6065 10.5831 18.6032 10.3196 18.4849C9.93281 18.3114 9.65228 17.9781 9.51769 17.5792C9.37824 17.1657 9.40499 16.7068 9.6158 16.3217C9.83471 15.922 10.1793 15.7063 10.6033 15.5718V15.5726Z" fill="#160F0D"/>
<path d="M11.5901 16.1385C11.7879 16.1693 11.9152 16.2099 12.0344 16.3817C12.1146 16.4977 12.1349 16.6266 12.0952 16.762C12.053 16.9079 11.9444 16.9663 11.8236 17.0385C11.8074 17.0377 11.7911 17.0377 11.7749 17.036C11.6112 17.0206 11.4652 16.9777 11.3598 16.8431C11.2787 16.7393 11.2382 16.6225 11.2674 16.4896C11.3095 16.3007 11.4336 16.2261 11.5893 16.1377L11.5901 16.1385Z" fill="#FEFEFD"/>
<path d="M20.181 15.4372C20.5143 15.4202 20.7989 15.4283 21.1013 15.5913C21.4759 15.794 21.7402 16.1645 21.8464 16.5731C21.9631 17.0215 21.904 17.5242 21.6534 17.9174C21.411 18.2977 21.0778 18.4728 20.6513 18.5749C20.3764 18.5936 20.1316 18.5798 19.873 18.4744C19.5089 18.3252 19.2316 18.0374 19.0857 17.6734C18.9146 17.2445 18.9333 16.7345 19.1303 16.3169C19.3508 15.8499 19.7116 15.6067 20.181 15.4372Z" fill="#030301"/>
<path d="M20.8492 16.0486C20.9027 16.0421 20.9432 16.0348 20.9991 16.0356C21.1467 16.0372 21.2699 16.0883 21.3721 16.1929C21.4759 16.2991 21.5245 16.4312 21.5099 16.5788C21.4913 16.7693 21.4029 16.8674 21.2586 16.9818C21.0713 16.9882 20.9124 16.9907 20.7656 16.8561C20.674 16.7726 20.6197 16.6696 20.6148 16.5439C20.6059 16.325 20.7008 16.1969 20.8492 16.0477V16.0486Z" fill="#FEFEFD"/>
<path d="M14.5907 2.37158C15.1558 2.33347 15.7331 2.3432 16.2974 2.38293C19.457 2.60346 22.6912 4.08475 24.7725 6.50654C26.8132 8.88049 27.4269 11.6696 27.204 14.7213C26.1362 14.5567 25.0781 14.2551 24.1247 13.7379C23.8725 13.6008 23.6309 13.4508 23.4031 13.2765C23.0917 13.0398 22.3126 12.2233 21.9599 12.1795C21.8747 12.169 21.9088 12.1658 21.8334 12.2217C21.7588 12.6725 22.062 13.3925 22.2169 13.8197C21.9891 13.7452 21.7572 13.6819 21.5229 13.6308C21.2886 13.5798 21.0518 13.5408 20.8126 13.5141C20.1502 13.4411 19.3119 13.4857 18.6924 13.2303C17.3003 12.6555 16.2715 10.2758 15.7185 8.9559C15.6764 8.88536 15.648 8.86266 15.5847 8.8132C15.4396 8.82293 15.3885 8.86022 15.3034 8.98022C15.1072 9.25669 14.9694 9.58506 14.8121 9.88586C14.2883 10.8847 13.7475 11.9396 12.8889 12.6993C11.4952 13.9324 9.34986 13.7533 7.62129 13.656C7.76479 13.2546 7.93019 12.8387 7.99181 12.4147C8.01776 12.2347 8.02668 12.0904 7.91154 11.9404C7.79804 11.895 7.7729 11.9023 7.65047 11.9209C7.57669 11.9744 7.5467 12.0141 7.51426 12.0968C7.38454 12.4236 7.22887 12.812 7.02212 13.0982C6.3962 13.9641 4.86221 14.5827 3.97684 15.2167L3.96955 15.1283C3.91604 14.4992 3.84631 13.8611 3.84469 13.2295C3.83982 10.7064 4.65384 8.32268 6.29161 6.39627C8.49125 3.80989 11.2446 2.63508 14.5899 2.3732L14.5907 2.37158Z" fill="#A2311F"/>
<path d="M13.1459 6.82031L13.274 6.86004C13.3308 6.94679 13.364 7.0222 13.3713 7.12679C13.407 7.68055 13.0324 8.36484 12.6773 8.77347C12.3619 9.13589 12.0489 9.35318 11.5633 9.3848C11.4709 9.32805 11.3801 9.24616 11.3338 9.14562C11.2568 8.97617 11.2893 8.77428 11.3525 8.60645C11.6184 7.90027 12.4762 7.13814 13.1459 6.82031Z" fill="#E25764"/>
<path d="M17.7187 6.81787C17.8274 6.82517 17.919 6.84301 18.022 6.8803C18.6901 7.12516 19.4489 7.81513 19.736 8.4678C19.8559 8.74103 19.8989 8.98832 19.7919 9.26966C19.5673 9.2802 19.3622 9.26399 19.1498 9.18372C18.5644 8.96319 18.0958 8.46375 17.8379 7.90188C17.692 7.58406 17.5963 7.15597 17.7196 6.81787H17.7187Z" fill="#E25764"/>
<path d="M20.7348 4.38879C20.8597 4.37906 20.9748 4.37663 21.0989 4.39203C22.3077 4.5477 23.5952 5.56036 24.3249 6.49438C24.616 6.86652 25.3676 7.88891 25.2727 8.37619C25.2573 8.45321 25.2176 8.46132 25.1592 8.5051C24.6055 8.56996 23.9382 8.04782 23.4809 7.77378L23.4371 8.42402C23.3982 8.51564 23.3634 8.61699 23.2928 8.68996C23.1193 8.86833 22.8274 8.92914 22.5883 8.93319C21.8196 8.94617 21.03 8.58375 20.4859 8.05026C20.1616 7.73243 19.9427 7.31488 19.9516 6.85031C19.9541 6.71572 19.9881 6.58032 20.0984 6.49275C20.5013 6.17169 21.0981 6.68815 21.5205 6.69383C21.6234 6.69464 21.6348 6.67761 21.7061 6.61194C21.8294 5.90089 20.9383 5.04552 20.7356 4.3896L20.7348 4.38879Z" fill="#E25764"/>
<path d="M9.61423 4.58331C9.75044 4.58412 9.8072 4.57114 9.92395 4.64411C10.1048 5.09004 9.32559 5.78407 9.44153 6.28513C9.75531 6.44566 10.5077 5.99649 10.969 6.12946C11.0809 6.16189 11.1709 6.22837 11.2204 6.33621C11.3225 6.55998 11.2366 6.85916 11.1604 7.07726C10.922 7.75425 10.4615 8.44423 9.78774 8.74421C8.60887 9.26797 8.63968 8.45477 8.12564 8.2691C7.70404 8.47017 7.33189 8.76773 6.88921 8.92988C6.61841 9.0288 6.17978 9.13095 5.91303 8.97042C5.79871 8.9015 5.73547 8.78151 5.72169 8.65178C5.65196 8.00154 6.18221 7.2386 6.55112 6.75132C7.27433 5.79623 8.37698 4.75519 9.61342 4.58493L9.61423 4.58331Z" fill="#E25764"/>
</svg>
